<svg width="105" height="105" viewBox="0 0 105 105" fill="none" xmlns="http://www.w3.org/2000/svg">
<circle cx="52.175" cy="52.3066" r="49.9795" fill="white" stroke="#FF9354" stroke-width="4.39097"/>
<path fill-rule="evenodd" clip-rule="evenodd" d="M11.0271 72.3981C11.7195 81.6843 19.6077 86.2731 25.7668 88.4536L25.2855 91.0156C24.5368 95.0022 27.8747 98.6477 32.2744 98.6477L52.6272 102.028L72.5478 98.6477C76.8671 98.6477 80.1834 95.1277 79.568 91.1963L79.1704 88.6568C85.5388 86.5786 94.365 82.2585 94.1434 74.3137C93.8007 62.0319 80.2689 50.4776 73.0728 45.1865C70.4688 42.3828 66.733 41.2719 61.3632 39.6751C60.7554 39.4943 60.1268 39.3074 59.4764 39.1111C59.4764 39.1111 42.1995 36.3113 33.4515 40.391C31.1575 41.4607 29.27 42.9882 27.7207 44.7231C20.5931 50.463 10.1708 60.9097 11.0271 72.3981Z" fill="#54AEFF"/>
<path opacity="0.199009" d="M73.675 64.31L72.9753 64.6441L73.4252 65.5861L74.1971 64.8833L73.675 64.31ZM68.9449 54.4043L69.6446 54.0702L69.3105 53.3705L68.6108 53.7046L68.9449 54.4043ZM67.5455 55.0726L67.2114 54.3729L66.5116 54.707L66.8458 55.4067L67.5455 55.0726ZM72.7254 65.9203L72.0257 66.2544L72.7254 65.9203ZM73.1753 66.8623L72.4755 67.1964L72.9254 68.1384L73.6973 67.4356L73.1753 66.8623ZM73.9472 66.1595L74.4692 66.7328H74.4692L73.9472 66.1595ZM75.2997 64.9281L75.8217 65.5014L76.3951 64.9794L75.873 64.406L75.2997 64.9281ZM74.2556 63.7814L74.829 63.2593L74.307 62.686L73.7336 63.208L74.2556 63.7814ZM74.1249 65.252L74.8246 64.9178L74.8246 64.9178L74.1249 65.252ZM73.675 64.3099L74.3748 63.9758L73.9249 63.0338L73.153 63.7366L73.675 64.3099ZM74.1801 65.3677L74.5143 66.0674L75.214 65.7333L74.8799 65.0336L74.1801 65.3677ZM73.5153 65.6851L73.1812 64.9854L72.2392 65.4352L72.942 66.2072L73.5153 65.6851ZM73.9472 66.1594L74.4692 66.7328L75.0426 66.2108L74.5205 65.6374L73.9472 66.1594ZM68.7672 70.8756L68.1939 71.3976L68.7159 71.971L69.2893 71.449L68.7672 70.8756ZM67.7232 69.7289L67.2012 69.1555L66.6278 69.6775L67.1498 70.2509L67.7232 69.7289ZM72.9031 65.0127L72.3811 64.4394L72.9031 65.0127ZM36.1996 64.7563L35.5056 64.4105H35.5056L36.1996 64.7563ZM42.3574 52.4L43.0514 52.7458L43.3973 52.0518L42.7033 51.706L42.3574 52.4ZM35.8543 65.4493L35.5094 66.1438L36.2029 66.4881L36.5483 65.7951L35.8543 65.4493ZM35.1608 65.105L34.816 65.7995L34.816 65.7995L35.1608 65.105ZM31.6748 63.3742L30.9803 63.0294L30.6355 63.7239L31.33 64.0687L31.6748 63.3742ZM32.3644 61.9852L32.7093 61.2907L32.0148 60.9458L31.6699 61.6404L32.3644 61.9852ZM35.1569 63.3716L34.8121 64.0661L35.5056 64.4105L35.8509 63.7175L35.1569 63.3716ZM40.9694 51.7083L41.3153 51.0143L40.6213 50.6684L40.2754 51.3624L40.9694 51.7083ZM35.8509 63.7156L36.1957 63.0211L35.8509 63.7156ZM35.1574 63.3713L35.5022 62.6768L34.8087 62.3325L34.4634 63.0255L35.1574 63.3713ZM47.7182 69.6077L48.4127 69.9525L48.7575 69.258L48.063 68.9132L47.7182 69.6077ZM47.0285 70.9967L46.6837 71.6912L47.3782 72.0361L47.7231 71.3415L47.0285 70.9967ZM35.1612 65.1047L34.4667 64.7598L34.1219 65.4544L34.8164 65.7992L35.1612 65.1047ZM35.1951 65.0364L35.8897 65.3812L36.234 64.6877L35.541 64.3424L35.1951 65.0364ZM34.5002 64.6901L33.8062 64.3442L33.4604 65.0382L34.1544 65.3841L34.5002 64.6901ZM34.8121 64.0643L34.1181 63.7184L34.8121 64.0643ZM74.3748 63.9758L69.6446 54.0702L68.2452 54.7385L72.9753 64.6441L74.3748 63.9758ZM68.6108 53.7046L67.2114 54.3729L67.8796 55.7723L69.2791 55.104L68.6108 53.7046ZM66.8458 55.4067L72.0257 66.2544L73.4252 65.5861L68.2452 54.7385L66.8458 55.4067ZM72.0257 66.2544L72.4755 67.1964L73.875 66.5282L73.4252 65.5861L72.0257 66.2544ZM73.6973 67.4356L74.4692 66.7328L73.4252 65.5861L72.6532 66.2889L73.6973 67.4356ZM74.4692 66.7328L75.8217 65.5014L74.7777 64.3547L73.4252 65.5861L74.4692 66.7328ZM75.873 64.406L74.829 63.2593L73.6823 64.3034L74.7263 65.4501L75.873 64.406ZM73.7336 63.208L73.153 63.7366L74.1971 64.8833L74.7777 64.3547L73.7336 63.208ZM74.8246 64.9178L74.3748 63.9758L72.9753 64.644L73.4251 65.5861L74.8246 64.9178ZM74.8799 65.0336L74.8246 64.9178L73.4251 65.5861L73.4804 65.7018L74.8799 65.0336ZM73.8495 66.3849L74.5143 66.0674L73.846 64.668L73.1812 64.9854L73.8495 66.3849ZM74.5205 65.6374L74.0887 65.1631L72.942 66.2072L73.3738 66.6815L74.5205 65.6374ZM69.2893 71.449L74.4692 66.7328L73.4251 65.5861L68.2452 70.3022L69.2893 71.449ZM67.1498 70.2509L68.1939 71.3976L69.3406 70.3536L68.2965 69.2069L67.1498 70.2509ZM72.3811 64.4394L67.2012 69.1555L68.2452 70.3022L73.4251 65.5861L72.3811 64.4394ZM73.153 63.7366L72.3811 64.4394L73.4251 65.5861L74.1971 64.8833L73.153 63.7366ZM36.8936 65.1022L43.0514 52.7458L41.6634 52.0541L35.5056 64.4105L36.8936 65.1022ZM36.5483 65.7951L36.8936 65.1022L35.5056 64.4105L35.1603 65.1034L36.5483 65.7951ZM34.816 65.7995L35.5094 66.1438L36.1991 64.7548L35.5056 64.4105L34.816 65.7995ZM31.33 64.0687L34.816 65.7995L35.5056 64.4105L32.0196 62.6797L31.33 64.0687ZM31.6699 61.6404L30.9803 63.0294L32.3693 63.719L33.059 62.33L31.6699 61.6404ZM35.5018 62.6771L32.7093 61.2907L32.0196 62.6797L34.8121 64.0661L35.5018 62.6771ZM40.2754 51.3624L34.4629 63.0258L35.8509 63.7175L41.6634 52.0541L40.2754 51.3624ZM42.7033 51.706L41.3153 51.0143L40.6235 52.4023L42.0115 53.094L42.7033 51.706ZM36.1957 63.0211L35.5022 62.6768L34.8126 64.0658L35.5061 64.4102L36.1957 63.0211ZM48.063 68.9132L36.1957 63.0211L35.5061 64.4102L47.3734 70.3022L48.063 68.9132ZM47.7231 71.3415L48.4127 69.9525L47.0237 69.2629L46.334 70.6519L47.7231 71.3415ZM34.8164 65.7992L46.6837 71.6912L47.3734 70.3022L35.5061 64.4102L34.8164 65.7992ZM34.5006 64.6916L34.4667 64.7598L35.8558 65.4495L35.8897 65.3812L34.5006 64.6916ZM34.1544 65.3841L34.8493 65.7304L35.541 64.3424L34.8461 63.9961L34.1544 65.3841ZM34.1181 63.7184L33.8062 64.3442L35.1942 65.0359L35.5061 64.4102L34.1181 63.7184ZM34.4634 63.0255L34.1181 63.7184L35.5061 64.4102L35.8514 63.7172L34.4634 63.0255Z" fill="black"/>
<path opacity="0.203218" fill-rule="evenodd" clip-rule="evenodd" d="M58.0651 50.7097C58.0651 51.7753 57.1964 52.6387 56.1248 52.6387C55.0528 52.6387 54.1841 51.7753 54.1841 50.7097C54.1841 49.6444 56.1248 46.9307 56.1248 46.9307C56.1248 46.9307 58.0651 49.6444 58.0651 50.7097Z" fill="black"/>
<path opacity="0.195964" d="M39.2329 89.126C39.2329 89.126 47.3297 89.0168 47.3731 69.2034" stroke="black" stroke-width="1.5508"/>
<path opacity="0.199009" d="M74.7757 88.2092C74.7757 88.2092 68.6097 88.1179 68.5767 71.5493" stroke="black" stroke-width="1.5508"/>
<path opacity="0.203497" d="M56.5391 52.6387C57.7402 61.249 60.9367 69.5116 58.8719 98.637" stroke="black" stroke-width="0.930483"/>
<path fill-rule="evenodd" clip-rule="evenodd" d="M46.2035 31.3462C33.755 31.3213 31.1676 40.3181 30.8999 41.408C30.8878 41.4571 30.9339 41.4976 30.9822 41.4827L41.8897 38.1332C41.897 38.131 41.9047 38.13 41.9122 38.1303C45.3545 38.2718 47.2488 38.2516 48.5247 38.238C49.2627 38.2301 49.7939 38.2245 50.2981 38.2536C50.429 38.2611 50.547 38.2677 50.6572 38.2738C51.2541 38.3069 51.6208 38.3273 52.5628 38.4258C52.5972 38.4294 52.6443 38.4358 52.6983 38.4432C52.9438 38.477 53.3341 38.5306 53.3448 38.4258C53.7177 34.7877 52.4188 31.3587 46.2035 31.3462ZM58.7388 93.7673H74.7032C74.7417 93.7673 74.7721 93.7348 74.7697 93.6964L74.4659 88.9717C74.4647 88.9537 74.4562 88.9369 74.4425 88.9252C70.2451 85.3452 68.2539 80.4227 68.1495 69.5779C68.1492 69.5418 68.12 69.5114 68.0839 69.5109L58.2936 69.3671L47.2209 69.2045C47.1835 69.204 47.1531 69.2353 47.1533 69.2726C47.2259 81.6599 44.4812 87.5062 39.6357 89.2372C39.6106 89.2462 39.593 89.2691 39.5912 89.2956L39.289 93.6961C39.2863 93.7346 39.3168 93.7673 39.3554 93.7673H58.7388Z" fill="white"/>
<path d="M46.2035 31.3462L46.2025 31.8124L46.2035 31.3462ZM48.5247 38.238L48.5198 37.7719L48.5247 38.238ZM50.2981 38.2536L50.325 37.7882L50.2981 38.2536ZM50.6572 38.2738L50.683 37.8084L50.6572 38.2738ZM52.5628 38.4258L52.5144 38.8894L52.5628 38.4258ZM52.6983 38.4432L52.6348 38.905H52.6348L52.6983 38.4432ZM53.3448 38.4258L52.8811 38.3782L52.8811 38.3782L53.3448 38.4258ZM58.2936 69.3671L58.3005 68.901L58.2936 69.3671ZM39.289 93.6961L39.754 93.7281L39.289 93.6961ZM39.6357 89.2372L39.7925 89.6762L39.6357 89.2372ZM39.5912 89.2956L39.1262 89.2637L39.5912 89.2956ZM47.2209 69.2045L47.2277 68.7384L47.2209 69.2045ZM47.1533 69.2726L46.6872 69.2753L47.1533 69.2726ZM30.8999 41.408L31.3526 41.5192L30.8999 41.408ZM30.9822 41.4827L30.8454 41.0372L30.9822 41.4827ZM74.4659 88.9717L74.931 88.9418L74.4659 88.9717ZM74.4425 88.9252L74.14 89.2798L74.4425 88.9252ZM74.7697 93.6964L74.3045 93.7263L74.7697 93.6964ZM68.1495 69.5779L68.6156 69.5735L68.1495 69.5779ZM68.0839 69.5109L68.077 69.977L68.0839 69.5109ZM41.8897 38.1332L42.0266 38.5788L41.8897 38.1332ZM41.9122 38.1303L41.9313 37.6646L41.9122 38.1303ZM31.3526 41.5192C31.4762 41.0159 32.1631 38.5798 34.3238 36.2781C36.4708 33.991 40.1059 31.8002 46.2025 31.8124L46.2044 30.8801C39.8526 30.8674 35.9698 33.1626 33.6441 35.64C31.332 38.103 30.5913 40.7102 30.4472 41.2968L31.3526 41.5192ZM41.7529 37.6876L30.8454 41.0372L31.119 41.9283L42.0266 38.5788L41.7529 37.6876ZM48.5198 37.7719C47.2485 37.7855 45.3629 37.8057 41.9313 37.6646L41.893 38.596C45.3462 38.738 47.249 38.7178 48.5297 38.7041L48.5198 37.7719ZM50.325 37.7882C49.8016 37.758 49.2531 37.7641 48.5198 37.7719L48.5297 38.7041C49.2724 38.6962 49.7862 38.6909 50.2712 38.7189L50.325 37.7882ZM50.683 37.8084C50.5728 37.8023 50.4553 37.7958 50.325 37.7882L50.2712 38.7189C50.4027 38.7265 50.5212 38.7331 50.6314 38.7392L50.683 37.8084ZM52.6113 37.9622C51.6594 37.8627 51.2847 37.8418 50.683 37.8084L50.6314 38.7392C51.2235 38.7721 51.5822 38.7919 52.5144 38.8894L52.6113 37.9622ZM52.7617 37.9814C52.7109 37.9745 52.655 37.9667 52.6113 37.9622L52.5144 38.8894C52.5395 38.892 52.5776 38.8972 52.6348 38.905L52.7617 37.9814ZM52.8811 38.3782C52.8968 38.2255 52.9866 38.1251 53.0573 38.0757C53.1166 38.0344 53.1668 38.0237 53.1741 38.0221C53.191 38.0184 53.1811 38.0225 53.1258 38.0206C53.0246 38.0171 52.8907 37.9992 52.7617 37.9814L52.6348 38.905C52.7513 38.921 52.9354 38.9468 53.0934 38.9523C53.1677 38.9549 53.2727 38.9549 53.3735 38.9328C53.4227 38.922 53.5071 38.8986 53.5908 38.8402C53.6858 38.7739 53.7902 38.6522 53.8085 38.4733L52.8811 38.3782ZM46.2025 31.8124C49.2301 31.8184 50.9467 32.6546 51.8813 33.8183C52.8259 34.9944 53.0619 36.6144 52.8811 38.3782L53.8085 38.4733C54.0006 36.5991 53.7736 34.6856 52.6081 33.2345C51.4327 31.7711 49.3921 30.8865 46.2044 30.8801L46.2025 31.8124ZM74.7032 93.3011H58.7388V94.2334H74.7032V93.3011ZM74.0007 89.0016L74.3045 93.7263L75.2348 93.6665L74.931 88.9418L74.0007 89.0016ZM67.6834 69.5824C67.7883 80.4796 69.7905 85.5701 74.14 89.2798L74.745 88.5705C70.6997 85.1202 68.7195 80.3658 68.6156 69.5735L67.6834 69.5824ZM58.2868 69.8332L68.077 69.977L68.0907 69.0448L58.3005 68.901L58.2868 69.8332ZM47.214 69.6706L58.2868 69.8332L58.3005 68.901L47.2277 68.7384L47.214 69.6706ZM39.7925 89.6762C42.3673 88.7563 44.3508 86.746 45.6719 83.4232C46.9866 80.1165 47.6558 75.4894 47.6194 69.2699L46.6872 69.2753C46.7233 75.4431 46.0565 79.9328 44.8056 83.0788C43.5612 86.2088 41.7496 87.9871 39.4789 88.7983L39.7925 89.6762ZM39.754 93.7281L40.0563 89.3276L39.1262 89.2637L38.8239 93.6642L39.754 93.7281ZM58.7388 93.3011H39.3554V94.2334H58.7388V93.3011ZM38.8239 93.6642C38.8028 93.972 39.0468 94.2334 39.3554 94.2334V93.3011C39.5868 93.3011 39.7698 93.4972 39.754 93.7281L38.8239 93.6642ZM39.4789 88.7983C39.2816 88.8687 39.1409 89.0499 39.1262 89.2637L40.0563 89.3276C40.0452 89.4883 39.9397 89.6236 39.7925 89.6762L39.4789 88.7983ZM47.2277 68.7384C46.9193 68.7339 46.6855 68.9869 46.6872 69.2753L47.6194 69.2699C47.6207 69.4837 47.4478 69.674 47.214 69.6706L47.2277 68.7384ZM30.4472 41.2968C30.3413 41.7279 30.7551 42.0401 31.119 41.9283L30.8454 41.0372C31.1126 40.9551 31.4344 41.1862 31.3526 41.5192L30.4472 41.2968ZM74.931 88.9418C74.9217 88.7968 74.8537 88.6632 74.745 88.5705L74.14 89.2798C74.0588 89.2105 74.0077 89.1107 74.0007 89.0016L74.931 88.9418ZM74.7032 94.2334C75.0109 94.2334 75.2546 93.9735 75.2348 93.6665L74.3045 93.7263C74.2897 93.496 74.4725 93.3011 74.7032 93.3011V94.2334ZM68.6156 69.5735C68.6129 69.2939 68.3894 69.0492 68.0907 69.0448L68.077 69.977C67.8507 69.9737 67.6854 69.7897 67.6834 69.5824L68.6156 69.5735ZM42.0266 38.5788C41.9823 38.5924 41.9372 38.5978 41.893 38.596L41.9313 37.6646C41.8722 37.6621 41.8117 37.6695 41.7529 37.6876L42.0266 38.5788Z" fill="#E2E2E2"/>
<path opacity="0.201474" d="M56.5391 52.6387C57.8347 60.4531 60.959 69.4391 58.8943 98.5645" stroke="black" stroke-width="0.930483"/>
<path fill-rule="evenodd" clip-rule="evenodd" d="M74.8172 13.3859C74.8172 17.5289 72.1533 20.8873 68.8672 20.8873C65.5814 20.8873 62.9175 17.5289 62.9175 13.3859C62.9175 9.24294 65.5814 5.88452 68.8672 5.88452C72.1533 5.88452 74.8172 9.24294 74.8172 13.3859Z" fill="#19141E"/>
<path d="M60.737 43.1026L60.488 34.4868C60.488 34.4868 70.9343 35.3204 73.169 34.157C73.169 34.157 75.9003 20.0537 72.6427 12.2437L72.5768 11.9396L50.5321 9.35522L49.2963 22.0335C48.5537 19.8383 42.4251 17.3491 40.8232 20.4927C37.3515 27.3042 49.7647 31.8906 49.7647 31.8906L48.5042 43.206" fill="#FFC5B3"/>
<g style="mix-blend-mode:soft-light">
<path fill-rule="evenodd" clip-rule="evenodd" d="M60.4881 34.4869L53.4438 32.9731L60.4543 37.7194L60.4881 34.4869Z" fill="black"/>
</g>
<path fill-rule="evenodd" clip-rule="evenodd" d="M66.1188 21.8726L68.5529 27.8368L65.6357 27.8741L66.1188 21.8726Z" fill="#FF8963"/>
<path fill-rule="evenodd" clip-rule="evenodd" d="M63.5234 22.1021C63.6685 22.9052 63.1362 23.6741 62.335 23.8192C61.5335 23.9645 60.7663 23.4311 60.6215 22.6282C60.4764 21.825 61.0085 21.0561 61.81 20.9108C62.6115 20.7657 63.3784 21.2989 63.5234 22.1021Z" fill="#2A2A30"/>
<path fill-rule="evenodd" clip-rule="evenodd" d="M71.7026 22.1021C71.8477 22.9052 71.3154 23.6741 70.5142 23.8192C69.7127 23.9645 68.9455 23.4311 68.8007 22.6282C68.6556 21.825 69.1877 21.0561 69.9892 20.9108C70.7907 20.7657 71.5576 21.2989 71.7026 22.1021Z" fill="#2A2A30"/>
<path fill-rule="evenodd" clip-rule="evenodd" d="M65.4118 22.1735C65.4118 24.0407 63.9013 25.5542 62.0381 25.5542C60.1751 25.5542 58.6646 24.0407 58.6646 22.1735C58.6646 20.3062 60.1751 18.7925 62.0381 18.7925C63.9013 18.7925 65.4118 20.3062 65.4118 22.1735Z" fill="#FCFDFF" fill-opacity="0.2" stroke="white" stroke-width="1.15596"/>
<path fill-rule="evenodd" clip-rule="evenodd" d="M73.907 22.1735C73.907 24.0407 72.3964 25.5542 70.5334 25.5542C68.6702 25.5542 67.1597 24.0407 67.1597 22.1735C67.1597 20.3062 68.6702 18.7925 70.5334 18.7925C72.3964 18.7925 73.907 20.3062 73.907 22.1735Z" fill="#FCFDFF" fill-opacity="0.2" stroke="white" stroke-width="1.15596"/>
<path d="M66.8845 22.3302H65.4258" stroke="white" stroke-width="1.15596"/>
<path d="M58.6648 22.1734H50.3311" stroke="white" stroke-width="1.15596"/>
<g style="mix-blend-mode:hard-light">
<path d="M61.2578 29.5283C61.2578 29.5283 64.787 32.6913 68.7491 30.0943" stroke="#FF5959" stroke-width="0.799072"/>
</g>
<path d="M95.8264 75.8113H8.13623L20.276 91.5025L41.7788 100.543H64.7022L85.8176 90.2111L95.8264 75.8113Z" fill="#555576"/>
<path d="M55.4036 86.6594C48.8817 87.2406 43.6384 94.7956 51.3355 100.478" stroke="black" stroke-width="1.80805"/>
<rect x="37.9688" y="82.2686" width="4.26182" height="1.54975" rx="0.645731" fill="#71719A"/>
<rect x="43.1348" y="82.2686" width="4.26182" height="1.54975" rx="0.645731" fill="#71719A"/>
<rect x="48.3008" y="82.2686" width="4.26182" height="1.54975" rx="0.645731" fill="#71719A"/>
<rect x="53.4663" y="82.2686" width="4.26182" height="1.54975" rx="0.645731" fill="#71719A"/>
<rect x="58.6323" y="82.2686" width="4.26182" height="1.54975" rx="0.645731" fill="#71719A"/>
<rect x="63.7979" y="82.2686" width="4.26182" height="1.54975" rx="0.645731" fill="#71719A"/>
<rect x="68.9639" y="82.2686" width="4.26182" height="1.54975" rx="0.645731" fill="#71719A"/>
<rect x="74.1299" y="82.2686" width="4.26182" height="1.54975" rx="0.645731" fill="#71719A"/>
<path fill-rule="evenodd" clip-rule="evenodd" d="M36.419 82.9146C36.0623 82.9146 35.7732 83.2037 35.7732 83.5603C35.7732 83.7743 35.5998 83.9478 35.3858 83.9478H33.8362C33.4795 83.9478 33.1904 84.2369 33.1904 84.5935V86.9181C33.1904 87.2747 33.4795 87.5639 33.8362 87.5639H81.2328C81.5894 87.5639 81.8785 87.2747 81.8785 86.9181V84.5935C81.8785 84.2369 81.5894 83.9478 81.2328 83.9478H79.6829C79.4689 83.9478 79.2955 83.7743 79.2955 83.5603C79.2955 83.2037 79.0064 82.9146 78.6497 82.9146H36.419Z" fill="#181820"/>
<circle cx="52.7559" cy="86.7242" r="2.13091" fill="black"/>
<circle cx="52.175" cy="52.3066" r="49.9795" stroke="#FF9354" stroke-width="4.39097"/>
<path d="M39.5315 36.6534C39.1821 36.8607 39.2011 37.8944 39.5507 38.1014C43.3406 40.3456 54.3472 47.2315 55.8251 48.1567C55.9327 48.224 56.0596 48.2324 56.1777 48.1858L69.9636 42.7437C70.032 42.7167 70.0793 42.6534 70.0857 42.5802C70.4201 38.7788 67.4244 35.508 63.6083 35.508H61.7543C61.6697 35.508 61.5912 35.5516 61.5465 35.6234L56.413 43.8619C56.2729 44.0867 55.9569 44.1154 55.7785 43.9196L46.0031 33.1851C45.8754 33.0449 45.6669 33.0137 45.5038 33.1105L39.5315 36.6534Z" fill="white" stroke="#EFEFEF" stroke-width="0.532714"/>
<rect x="38.3486" y="36.9324" width="8.98124" height="1.71789" transform="rotate(-30.6314 38.3486 36.9324)" fill="white"/>
<path d="M50.9331 24.1975C48.8429 20.6123 45.8189 19.5189 44.4614 19.1982C43.9201 17.63 43.5074 15.8112 43.2174 13.8768C42.4398 8.6997 46.1955 3.97629 49.2292 2.61996C52.3 1.24737 57.5949 -0.654747 65.3453 1.92724C70.5559 3.6643 73.8864 -0.494423 76.9526 1.28174C82.1919 4.31767 77.3186 17.6091 64.0332 14.2326C54.5301 11.8172 54.2858 12.4231 54.2044 14.1788C53.9409 19.8538 53.0579 23.1924 50.9331 24.1975Z" fill="#2F2F3D"/>
</svg>
