<svg width="304" height="66" viewBox="0 0 304 66" fill="none" xmlns="http://www.w3.org/2000/svg">
    <path d="M295.633 34.9186C288.969 8.57657 71.4505 -26.0394 6.83303 31.593C6.82638 31.5989 6.81881 31.6036 6.81063 31.6072C-4.85795 36.643 -3.83569 55.7211 47.0568 48.9742C47.1429 48.9628 47.1642 49.1002 47.0948 49.1522C28.215 63.3023 137.994 74.7054 178.84 56.8618C178.853 56.8564 178.866 56.8544 178.88 56.8555C276.44 64.6073 295.842 52.7385 291.061 44.3659C291.026 44.3042 291.085 44.2256 291.155 44.2374C313.12 47.9312 297.275 41.4114 295.633 34.9186Z" fill="#9AEE61"/>
    <path d="M253.068 28.3254H204.051C204.051 25.4674 206.599 23.4393 208.598 24.0578C208.841 24.1328 209.122 24.0343 209.232 23.8052C212.99 15.9789 219.867 19.6827 221.348 24.7119C221.388 24.8476 221.567 24.8869 221.663 24.7827C226.172 19.8813 231.432 22.4615 232.686 25.0904C232.753 25.2314 232.97 25.2366 233.042 25.0984C238.796 14.1767 248.38 18.5752 247.937 24.2395C252.321 23.4422 253.184 26.6312 253.068 28.3254Z" fill="#56D400"/>
    <path d="M110.36 32.036H33.2031C33.2031 24.4528 40.7862 23.8312 42.3608 26.3174C44.1509 23.5328 47.3333 22.7815 48.7008 22.7539C50.2257 13.936 56.7811 13.2233 59.3916 13.5963C62.458 -3.3932 79.5303 4.14837 79.5303 11.3587C88.3482 6.51878 93.3152 15.0881 94.6964 19.9777C100.208 19.9777 95.3282 27.6841 99.6689 25.4888C103.81 23.3946 102.526 29.1129 107.705 30.3146C111.849 31.276 112.086 30.2542 110.36 32.036Z" fill="#D7FFBB"/>
    <path d="M59.0805 31.2225C57.9019 28.385 59.374 26.2917 62.4142 26.8444C57.1305 24.8061 60.3228 16.613 66.235 22.0996C61.2655 17.1517 69.0524 10.2864 70.5233 18.0161C69.7052 11.3479 77.5794 9.67609 76.251 18.3093C77.8653 12.8315 85.9369 13.4185 81.1918 21.7335C84.3715 18.6524 92.0517 21.7335 83.6866 27.5051C88.6274 26.9671 98.6753 27.1138 99.3406 32.005L54.0908 32.0545C55.0222 31.0027 56.4628 30.5589 57.8246 30.9041L59.0805 31.2225Z" fill="#97FF50"/>
    <path d="M223.152 26.3359C223.208 24.1398 224.669 20.2861 230.072 22.4408C229.161 19.7058 231.73 15.3549 236.951 17.1368C238.07 15.189 242.512 13.5482 245.529 17.924" stroke="#97FF50" stroke-width="0.911626" stroke-linecap="round"/>
    <path d="M268.734 30.7282H216.896C216.896 28.5072 218.332 28.8911 219.05 29.3606C220.111 25.3495 224.575 25.7003 226.675 26.3771C228.597 21.04 234.023 20.8107 236.495 21.3632C236.495 16.805 241.799 17.7996 242.255 19.4572C256.427 8.93178 266.621 21.3632 260.778 27.9518C264.524 25.7308 267.643 28.8773 268.734 30.7282Z" fill="#D7FFBB"/>
    <path d="M204.381 22.4723H152.543C152.543 20.2513 153.979 20.6352 154.698 21.1048C155.759 17.0936 160.223 17.4444 162.322 18.1213C164.245 12.7841 169.67 12.5548 172.143 13.1073C172.143 8.54919 177.447 9.54378 177.903 11.2013C192.074 0.675918 202.268 13.1074 196.425 19.696C200.171 17.4749 203.29 20.6214 204.381 22.4723Z" fill="#D7FFBB"/>
    <path d="M250.708 33.8827H242.935C242.89 33.8827 242.854 33.8448 242.852 33.8002C242.516 23.8993 247.535 24.7947 247.147 31.5553C247.142 31.6416 247.26 31.6861 247.311 31.6159C249.1 29.1236 250.352 31.9229 250.788 33.7828C250.8 33.8344 250.761 33.8827 250.708 33.8827Z" fill="#97FF50"/>
    <ellipse cx="87.338" cy="55.8573" rx="8.45326" ry="1.90613" fill="#56D400"/>
    <ellipse cx="92.469" cy="59.9564" rx="2.79715" ry="0.616038" fill="#56D400"/>
    <ellipse cx="211.094" cy="51.6136" rx="8.45326" ry="1.90613" fill="#B6FF85"/>
    <ellipse cx="147.862" cy="55.843" rx="3.37989" ry="0.765886" fill="#B6FF85"/>
    <ellipse cx="244.499" cy="52.5633" rx="11.738" ry="2.6473" fill="#B6FF85"/>
    <ellipse cx="291.283" cy="42.2737" rx="11.738" ry="8.37479" fill="#9AEE61"/>
    <ellipse cx="65.7081" cy="52.5847" rx="6.04988" ry="1.36744" fill="#B6FF85"/>
    <ellipse cx="57.0554" cy="49.6834" rx="2.614" ry="0.599389" fill="#B6FF85"/>
    <ellipse cx="103.274" cy="47.2624" rx="3.06638" ry="0.787313" fill="#B6FF85"/>
    <path d="M117.567 32.2209H68.5498C68.5498 29.3629 71.0975 27.3348 73.0973 27.9533C73.34 28.0284 73.6213 27.9298 73.7312 27.7007C77.4886 19.8744 84.3661 23.5782 85.8473 28.6074C85.8873 28.7432 86.0665 28.7824 86.1622 28.6783C90.6709 23.7768 95.9307 26.357 97.1847 28.9859C97.2519 29.1269 97.4686 29.1321 97.5414 28.9939C103.295 18.0722 112.879 22.4707 112.436 28.135C116.82 27.3377 117.683 30.5267 117.567 32.2209Z" fill="#56D400"/>
    <path d="M149.872 18.3482H116.413C116.413 16.4645 118.032 15.1085 119.372 15.3954C119.621 15.4486 119.901 15.3555 120.015 15.128C122.567 10.0092 127.125 12.4237 128.189 15.7777C128.232 15.9125 128.411 15.9535 128.508 15.8506C131.5 12.6816 134.95 14.2802 135.897 16.0175C135.972 16.1546 136.193 16.1616 136.267 16.024C140.201 8.71629 146.671 11.7092 146.37 15.5573C149.362 15.0127 149.952 17.191 149.872 18.3482Z" fill="#56D400"/>
</svg>
