<svg width="1673" height="1690" viewBox="0 0 1673 1690" fill="none" xmlns="http://www.w3.org/2000/svg">
<path d="M842.348 848.251L11.7119 962.889V767.781L842.348 848.251Z" fill="#FFCA41"/>
<path d="M842.349 853.556L1673 738.917V934.025L842.349 853.556Z" fill="#FFCA41"/>
<path d="M836.985 858.519L951.639 1689.17H756.516L836.985 858.519Z" fill="#FFCA41"/>
<path d="M829.266 844.569L623.026 1657.32L442.238 1583.93L829.266 844.569Z" fill="#FFCA41"/>
<path d="M833.364 862.452L1262.62 1582.77L1082.92 1658.8L833.364 862.452Z" fill="#FFCA41"/>
<path d="M841.858 830.636L727.204 0H922.327L841.858 830.636Z" fill="#FFCA41"/>
<path d="M826.151 849.667L1488.49 1363.88L1348.89 1500.19L826.151 849.667Z" fill="#FFCA41"/>
<path d="M837.252 846.328L1351.47 183.992L1487.79 323.591L837.252 846.328Z" fill="#FFCA41"/>
<path d="M829.952 845.956L167.615 331.728L307.214 195.422L829.952 845.956Z" fill="#FFCA41"/>
<path d="M813.903 862.318L299.69 1524.65L163.384 1385.06L813.903 862.318Z" fill="#FFCA41"/>
<path d="M836.761 853.407L1649.52 1059.66L1576.12 1240.43L836.761 853.407Z" fill="#FFCA41"/>
<path d="M834.185 846.582L1040.42 33.8125L1221.21 107.218L834.185 846.582Z" fill="#FFCA41"/>
<path d="M812.769 838.416L0 632.176L73.4059 451.389L812.769 838.416Z" fill="#FFCA41"/>
<path d="M834.304 850.903L113.985 1280.16L37.9561 1100.46L834.304 850.903Z" fill="#FFCA41"/>
<path d="M836.373 855.791L1556.68 426.532L1632.71 606.232L836.373 855.791Z" fill="#FFCA41"/>
<path d="M826.986 834.883L397.728 114.579L577.412 38.5356L826.986 834.883Z" fill="#FFCA41"/>
</svg>
