<svg width="108" height="215" viewBox="0 0 108 215" fill="none" xmlns="http://www.w3.org/2000/svg">
    <path fill-rule="evenodd" clip-rule="evenodd" 
    d="M106.227 45.6625C101.994 61.4596 87.9162 71.9895 72.3634 72.4196C69.841 72.4894 67.5885 74.2141 66.9902 76.6655C66.8926 77.0653 66.7903 77.465 66.6833 77.8646C61.6205 96.7591 47.1697 110.631 29.6943 115.807C27.315 116.511 25.7003 118.777 25.7839 121.257C25.9426 125.965 25.4174 130.776 24.1349 135.563C23.1374 139.285 21.7357 142.792 19.9898 146.047C18.7496 148.36 19.3304 151.279 21.2854 153.03C33.4134 163.89 36.7093 182.11 28.2463 196.769C18.5406 213.579 -2.95497 219.339 -19.7656 209.633C-32.4402 202.316 -38.8328 188.296 -37.0513 174.635C-36.7119 172.032 -38.1759 169.44 -40.6256 168.498C-63.6603 159.647 -76.7586 134.645 -70.2295 110.278C-66.2125 95.2859 -55.6409 83.8006 -42.4241 78.0791C-40.146 77.0929 -38.7913 74.6612 -39.1759 72.2087C-40.3122 64.962 -39.9868 57.3655 -37.9661 49.8239C-30.2228 20.9258 -0.519149 3.77634 28.379 11.5196C31.3995 12.3289 34.2916 13.3782 37.0404 14.6414C39.3319 15.6944 42.0817 15.0064 43.7058 13.077C52.4497 2.68994 66.7141 -2.30575 80.6956 1.44059C99.9575 6.6018 111.388 26.4006 106.227 45.6625Z" fill="#52ADFF"/>
</svg>
