<svg width="105" height="75" viewBox="0 0 105 75" fill="none" xmlns="http://www.w3.org/2000/svg">
    <path d="M65.4178 67.9506C67.1297 68.0627 73.1582 59.1449 75.9584 54.672L36.7784 20.6134C30.0313 23.6761 24.337 31.7837 22.3332 35.4547C29.4601 59.148 63.2779 67.8104 65.4178 67.9506Z" fill="#52ADFF"/>
    <path d="M70.4975 16.6928C72.9219 18.0419 88.5171 43.6069 96.0116 56.2208C89.4517 57.9402 46.8559 49.5294 45.2314 49.0924C43.6069 48.6553 26.7926 7.54813 28.2604 5.32989C29.7282 3.11165 67.467 15.0065 70.4975 16.6928Z" fill="#8BC8FF"/>
    <path d="M58.8517 29.221C51.9997 23.5429 36.9764 12.4986 30.5834 12.7605C30.3168 12.7714 30.0835 12.9187 29.9294 13.1365L20.3336 26.6979" stroke="#C3E3FF" stroke-width="2.86191"/>
    <ellipse cx="2.5234" cy="2.10283" rx="2.5234" ry="2.10283" transform="matrix(-0.965665 -0.25979 -0.25979 0.965665 61.8345 27.8457)" fill="#C3E3FF"/>
    <path d="M16.1272 45.1645L22.2611 26.0065L20.6763 24.6123L5.69817 29.2932L7.83253 32.287L15.3148 28.2751L9.2672 36.0603L16.1272 45.1645Z" fill="#C3E3FF"/>
    <path d="M71.2291 24.0694L69.7925 21.9406C68.6941 20.313 67.2286 18.8683 65.3802 18.2056C64.6502 17.9439 63.5357 17.615 61.3409 17.0246" stroke="#F5FAFF" stroke-width="1.90794" stroke-linecap="round"/>
    <circle cx="1.2617" cy="1.2617" r="1.2617" transform="matrix(-0.965665 -0.25979 -0.25979 0.965665 58.8042 15.2461)" fill="#F5FAFF"/>
</svg>
