<svg width="119" height="359" viewBox="0 0 119 359" fill="none" xmlns="http://www.w3.org/2000/svg">
    <path d="M124.033 39.7406C122.099 41.9602 126.11 37.6408 124.033 39.7406ZM124.033 39.7406C109.951 53.977 91.2864 68.2705 70.5337 69.2462C62.8439 69.5655 55.1682 68.3382 47.9613 65.6369C40.7545 62.9357 34.163 58.8155 28.5775 53.5205C20.8744 46.137 15.1799 36.0031 15.4537 25.3386C15.8703 9.4132 45.5985 -7.63633 60.5311 8.51163C84.6161 34.8847 68.9474 81.5484 53.256 107.91C44.9423 121.878 34.6145 134.209 26.6831 148.485C17.7551 164.576 11.1468 181.847 7.05454 199.788C2.96456 217.996 1.34472 236.672 2.23868 255.313C3.03752 272.962 5.62803 290.89 11.0715 307.688C15.7562 322.136 31.887 345.382 46.3118 357.216" stroke="#FFD9C2" stroke-width="2.2824" stroke-miterlimit="10"/>
</svg>
