<svg width="29" height="33" viewBox="0 0 29 33" fill="none" xmlns="http://www.w3.org/2000/svg">
<path d="M17.1543 2.23226L15.4987 15.1215C15.4912 15.1794 15.4335 15.2167 15.3776 15.1996L11.382 13.9776C11.3267 13.9607 11.2996 13.8985 11.3248 13.8464L16.976 2.17918C17.0226 2.08306 17.1679 2.12632 17.1543 2.23226Z" fill="#C3E3FF"/>
<path d="M19.9321 14.9717C20.2729 15.8591 17.081 18.9569 15.1236 20.9443C14.8701 21.2016 14.7466 21.5585 14.7829 21.9178L15.4657 28.682C15.5212 29.2312 15.2041 29.7605 14.6633 29.8711C11.6112 30.4953 7.43275 29.0211 4.95295 27.7074C4.35782 27.3921 4.19366 26.6378 4.55583 26.07L8.14062 20.4497C8.35993 20.1058 8.39079 19.6759 8.24119 19.2965C7.04678 16.2675 6.8896 13.4974 7.40749 12.1027C7.55326 11.7101 7.9781 11.5453 8.3923 11.6069C12.4097 12.2048 19.587 14.0731 19.9321 14.9717Z" fill="#0478E0"/>
<path d="M15.8101 12.9722L17.0822 2.55599C17.0946 2.45413 16.9584 2.40859 16.9071 2.49746L15.9369 4.17789" stroke="#52ADFF" stroke-width="0.471133" stroke-linecap="round"/>
<path d="M13.8292 12.9167C15.2251 13.106 18.3848 13.7516 19.8574 14.8194C21.2879 15.8567 16.7541 19.1499 14.9324 21.1783C14.8325 21.2895 14.7859 21.4371 14.7978 21.586L15.4046 29.222C15.4866 29.6138 15.4535 30.3056 11.8839 29.8549" stroke="#00488D" stroke-width="0.817997" stroke-linecap="round"/>
<ellipse cx="10.0279" cy="27.9519" rx="5.15312" ry="1.1049" transform="rotate(-164.043 10.0279 27.9519)" fill="#52ADFF"/>
<path d="M15.2049 29.3791C14.8478 28.647 13.3087 27.1418 9.19281 26.5064" stroke="#00488D" stroke-width="0.817997" stroke-linecap="round"/>
<circle cx="10.6303" cy="29.7279" r="0.511248" transform="rotate(-150 10.6303 29.7279)" fill="#00488D"/>
<circle cx="12.6058" cy="12.5995" r="0.511248" transform="rotate(-150 12.6058 12.5995)" fill="#00488D"/>
<circle cx="15.4657" cy="4.99407" r="0.329793" transform="rotate(-150 15.4657 4.99407)" fill="#52ADFF"/>
</svg>
