<svg width="67" height="65" viewBox="0 0 67 65" fill="none" xmlns="http://www.w3.org/2000/svg">
<path d="M24.3464 43.4344C31.292 41.4086 24.3486 28.3143 19.7981 21.6912C19.6504 21.4762 19.633 21.1931 19.7405 20.9553C27.0533 4.78226 21.4151 3.43107 17.3679 3.62386C16.9355 3.64446 16.564 3.30764 16.564 2.87475V0.736177C16.564 0.329598 16.2344 0 15.8278 0H11.0427C10.6361 0 10.3065 0.329597 10.3065 0.736177V2.94471C10.3065 3.35129 9.98031 3.64537 9.57543 3.6082C8.37347 3.49785 5.99645 3.45593 3.73337 5.15324C0.601525 7.50212 3.94359 16.0434 6.50211 21.0107C6.61219 21.2245 6.61214 21.4759 6.50319 21.6903C4.60133 25.4313 0.908901 33.6766 0.0525649 39.3855C-1.0517 46.7472 15.5123 46.0111 24.3464 43.4344Z" fill="#FFA571"/>
<path d="M11.9067 42.1287H15.4443V59.8163C15.4443 60.7932 14.6524 61.5851 13.6755 61.5851C12.6986 61.5851 11.9067 60.7932 11.9067 59.8163V42.1287Z" fill="#FFA571"/>
<path d="M11.9067 59.9771C11.9067 61.6654 15.5247 62.6302 15.5247 58.1279L15.2891 45.5645C15.2859 45.3954 15.4138 45.2529 15.5822 45.2379C23.7802 44.5116 32.5447 43.234 23.9259 28.3429C22.6379 26.3523 21.0913 24.5143 19.8746 21.5579C19.7612 21.2824 19.7688 20.9722 19.8879 20.6991L21.5086 16.9804" stroke="#FF8135" stroke-width="0.736177" stroke-linecap="round"/>
<circle cx="11.9764" cy="58.5996" r="0.552133" fill="#FF8135"/>
<circle cx="5.42176" cy="24.2245" r="0.552133" fill="#FF8135"/>
<circle cx="22.0609" cy="15.2686" r="0.552133" fill="#FF8135"/>
<path d="M8.0528 3.63324C7.79061 3.70815 0.711392 3.6707 2.73403 11.5365C4.75666 19.4023 7.41605 20.3387 6.17999 22.9606" stroke="#FF8135" stroke-width="0.898948" stroke-linecap="round"/>
<path d="M61.7865 62.2133H19.4503C19.1974 62.2133 19.0481 62.497 19.1914 62.7055L20.4875 64.5907C20.5462 64.676 20.643 64.7269 20.7465 64.7269H61.1974C61.3348 64.7269 61.4563 64.6376 61.4973 64.5064L62.0864 62.6212C62.1496 62.4189 61.9985 62.2133 61.7865 62.2133Z" fill="#0478E0"/>
<path d="M27.9653 48.5453V44.9643V29.0643C27.9653 28.804 28.1763 28.593 28.4366 28.593C28.6969 28.593 28.908 28.804 28.908 29.0643V48.5453C28.908 48.8056 28.6969 49.0166 28.4366 49.0166C28.1763 49.0166 27.9653 48.8056 27.9653 48.5453Z" fill="#0478E0"/>
<path d="M53.1016 32.5208V30.9348V23.0945C53.1016 22.8342 53.3126 22.6232 53.5729 22.6232C53.8332 22.6232 54.0442 22.8342 54.0442 23.0945V32.5208C54.0442 32.7811 53.8332 32.9921 53.5729 32.9921C53.3126 32.9921 53.1016 32.7811 53.1016 32.5208Z" fill="#0478E0"/>
<path d="M54.0444 34.0916V32.5056V24.6653C54.0444 24.405 54.2554 24.194 54.5157 24.194C54.776 24.194 54.9871 24.405 54.9871 24.6653V34.0916C54.9871 34.3519 54.776 34.5629 54.5157 34.5629C54.2554 34.5629 54.0444 34.3519 54.0444 34.0916Z" fill="#AAD7FF"/>
<path d="M26.0798 46.8171H27.9651V42.7324H24.5088V45.246C24.5088 46.1137 25.2122 46.8171 26.0798 46.8171Z" fill="#AAD7FF"/>
<path d="M35.1919 27.9645H30.4788C30.3052 27.9645 30.1646 27.8239 30.1646 27.6503V26.2364C30.1646 26.0629 30.3052 25.9222 30.4788 25.9222H35.1919C35.3654 25.9222 35.5061 26.0629 35.5061 26.2364V27.6503C35.5061 27.8239 35.3654 27.9645 35.1919 27.9645Z" fill="#0478E0"/>
<path d="M60.0142 41.1615L60.0142 32.3636C60.0142 31.496 60.7175 30.7926 61.5852 30.7926L64.7273 30.7926C65.595 30.7926 66.2983 31.496 66.2983 32.3636L66.2983 41.1615C66.2983 42.0292 65.595 42.7325 64.7273 42.7325L61.5852 42.7325C60.7175 42.7325 60.0142 42.0292 60.0142 41.1615Z" fill="#0478E0"/>
<path d="M32.2661 43.7438L33.1596 42.4035C33.7424 41.5293 34.7234 41.0043 35.774 41.0043H46.6608C48.3961 41.0043 49.8029 42.411 49.8029 44.1464V51.059C49.8029 51.7531 49.2402 52.3158 48.546 52.3158H21.8794C19.7285 52.3158 17.8504 53.772 17.3147 55.8552L15.8006 61.7433C15.5961 62.5386 16.1967 63.3131 17.0179 63.3131H62.7933C63.1266 63.3131 63.4463 63.1807 63.682 62.945L64.5379 62.0891C64.9304 61.6966 65.0189 61.0932 64.7558 60.6045L62.8389 57.0445C62.2225 55.8999 61.8999 54.6203 61.8999 53.3204V41.4966C61.8999 41.3982 61.9797 41.3185 62.0781 41.3185C62.1528 41.3185 62.213 41.2572 62.2117 41.1825L62.0582 32.7444C62.0576 32.7074 62.0274 32.6777 61.9904 32.6777C61.9404 32.6777 61.8999 32.6372 61.8999 32.5873V28.9072C61.8999 28.2131 61.3372 27.6504 60.6431 27.6504H28.7509C24.7596 27.6504 21.5241 30.8859 21.5241 34.8772V43.0466C21.5241 43.7408 22.0868 44.3035 22.7809 44.3035H31.2203C31.6405 44.3035 32.033 44.0935 32.2661 43.7438Z" fill="#52ADFF"/>
<path d="M56.9081 46.6085C56.9081 47.169 57.0261 48.2558 56.7872 48.7837C56.6564 49.073 56.3001 49.0254 56.0339 49.0254C55.2819 49.0254 54.6724 48.322 54.6724 47.4544C54.6724 46.5867 55.2819 45.8834 56.0339 45.8834C56.7859 45.8834 56.9081 45.7408 56.9081 46.6085Z" fill="#C3E3FF"/>
<ellipse cx="56.4254" cy="47.4544" rx="1.38977" ry="1.57105" fill="white"/>
<path d="M56.9081 41.2667C56.9081 41.8272 57.0261 42.914 56.7872 43.4419C56.6564 43.7312 56.3001 43.6836 56.0339 43.6836C55.2819 43.6836 54.6724 42.9802 54.6724 42.1126C54.6724 41.2449 55.2819 40.5416 56.0339 40.5416C56.7859 40.5416 56.9081 40.399 56.9081 41.2667Z" fill="#C3E3FF"/>
<ellipse cx="56.4254" cy="42.1129" rx="1.38977" ry="1.57105" fill="white"/>
<path d="M34.1391 35.9756C34.1391 36.8146 34.3158 38.4411 33.9583 39.2313C33.7624 39.6642 33.2291 39.5931 32.8308 39.5931C31.7053 39.5931 30.793 38.5403 30.793 37.2417C30.793 35.9431 31.7053 34.8904 32.8308 34.8904C33.9562 34.8904 34.1391 34.677 34.1391 35.9756Z" fill="#C3E3FF"/>
<ellipse cx="33.4155" cy="37.2414" rx="2.08004" ry="2.35135" fill="white"/>
<path d="M33.6211 37.705L34.2495 38.3334" stroke="#9AD0FF" stroke-width="0.628418" stroke-linecap="round"/>
<path d="M30.5162 30.511L30.4831 27.9687C30.4809 27.7936 30.6222 27.6504 30.7973 27.6504H60.6431C61.3372 27.6504 61.8999 28.2131 61.8999 28.9072V30.4783C61.8999 31.8665 60.7745 32.9919 59.3862 32.9919H33.0297C31.6542 32.9919 30.5341 31.8864 30.5162 30.511Z" fill="#8BC8FF"/>
<path opacity="0.7" d="M40.1412 28.593H33.3857C32.9952 28.593 32.6787 28.9095 32.6787 29.3C32.6787 29.6904 32.9952 30.007 33.3857 30.007H40.1412C40.5316 30.007 40.8481 29.6904 40.8481 29.3C40.8481 28.9095 40.5316 28.593 40.1412 28.593Z" fill="white"/>
<path d="M58.286 53.124C58.286 54.5815 58.5929 57.4071 57.9718 58.7798C57.6315 59.5319 56.7051 59.4082 56.0132 59.4082C54.0581 59.4082 52.4731 57.5793 52.4731 55.3234C52.4731 53.0675 54.0581 51.2388 56.0132 51.2388C57.9683 51.2388 58.286 50.8682 58.286 53.124Z" fill="#C4E3FF"/>
<ellipse cx="57.0294" cy="55.3234" rx="3.61341" ry="4.08472" fill="white"/>
<path d="M55.6152 53.7298L57.1863 55.3008" stroke="#9AD0FF" stroke-width="0.942627" stroke-linecap="round"/>
<path d="M16.0249 60.7996L17.0823 56.4073C17.6601 54.0074 19.807 52.3159 22.2755 52.3159H36.7627H41.0045" stroke="#0478E0" stroke-width="0.628418" stroke-linecap="round"/>
<circle cx="16.0254" cy="62.5276" r="0.628418" fill="#0478E0"/>
<circle cx="42.7324" cy="52.473" r="0.628418" fill="#0478E0"/>
<circle cx="61.8994" cy="53.4155" r="0.628418" fill="#0478E0"/>
<circle cx="21.6807" cy="37.391" r="0.628418" fill="#0478E0"/>
<path d="M21.6807 35.8199C21.6807 29.1587 26.3938 27.7028 28.7504 27.8076H35.0346" stroke="#0478E0" stroke-width="0.942627" stroke-linecap="round"/>
<path d="M61.8999 31.2638L61.8999 51.5303" stroke="#0478E0" stroke-width="0.942627" stroke-linecap="round"/>
</svg>
