<svg width="88" height="49" viewBox="0 0 88 49" fill="none" xmlns="http://www.w3.org/2000/svg">
<path fill-rule="evenodd" clip-rule="evenodd" d="M63.0316 0.370846C63.0316 0.165966 62.8655 -0.00012207 62.6606 -0.00012207H1.07995C0.875072 -0.00012207 0.708984 0.165966 0.708984 0.370846V34.1289C0.708984 34.5387 1.04116 34.8708 1.45092 34.8708H62.2896C62.6994 34.8708 63.0316 34.5387 63.0316 34.1289V0.370846ZM38.5481 35.2419C38.5481 35.037 38.382 34.8709 38.1771 34.8709H26.3061C26.1012 34.8709 25.9352 35.037 25.9352 35.2419V44.5161C25.9352 44.9258 26.2673 45.258 26.6771 45.258H37.8061C38.2159 45.258 38.5481 44.9258 38.5481 44.516V35.2419Z" fill="#52ADFF"/>
<path d="M19.2578 43.774H45.2256V45.2579C45.2256 45.6677 44.8934 45.9999 44.4836 45.9999H19.9997C19.59 45.9999 19.2578 45.6677 19.2578 45.2579V43.774Z" fill="#0478E0"/>
<rect x="0.708984" y="-0.00012207" width="62.3226" height="28.1936" rx="0.741935" fill="#0478E0"/>
<path d="M2.19385 2.22558C2.19385 1.81582 2.52602 1.48364 2.93578 1.48364H60.8067C61.2165 1.48364 61.5487 1.81582 61.5487 2.22558V25.9675H2.19385V2.22558Z" fill="#52ADFF"/>
<path d="M0.708984 25.9677H63.0316V34.8709C63.0316 35.2806 62.6994 35.6128 62.2896 35.6128H1.45092C1.04116 35.6128 0.708984 35.2806 0.708984 34.8709V25.9677Z" fill="#C3E3FF"/>
<path d="M25.5643 10.0161L21.065 14.1693C20.896 14.3252 20.9082 14.5957 21.0904 14.7359L25.5643 18.1773" stroke="#C3E3FF" stroke-width="2.30044" stroke-linecap="round"/>
<path d="M37.8058 10.3869L42.3052 14.5401C42.4741 14.6961 42.462 14.9666 42.2797 15.1067L37.8058 18.5482" stroke="#C3E3FF" stroke-width="2.30044" stroke-linecap="round"/>
<path d="M33.3545 8.90295L30.3867 20.032" stroke="#C3E3FF" stroke-width="2.30044" stroke-linecap="round"/>
<circle cx="31.8711" cy="31.161" r="2.96774" fill="white"/>
<path d="M41.5166 21.5161C41.5166 21.1063 41.8488 20.7742 42.2585 20.7742H78.6134C79.0231 20.7742 79.3553 21.1063 79.3553 21.5161V42.2903H41.5166V21.5161Z" fill="#FF8B46"/>
<path d="M42.2573 22.2581C42.2573 21.8483 42.5895 21.5162 42.9993 21.5162H77.8702C78.28 21.5162 78.6122 21.8484 78.6122 22.2581V40.8065H42.2573V22.2581Z" fill="#FFD9C2"/>
<path d="M79.2972 42.2903H41.5155L34.2081 46.8232C34.1385 46.8663 34.0962 46.9424 34.0962 47.0243C34.0962 47.6777 34.626 48.2075 35.2794 48.2075H86.3386C86.9886 48.2075 87.5155 47.6806 87.5155 47.0305C87.5155 46.9453 87.4695 46.8668 87.3952 46.8252L79.2972 42.2903Z" fill="#FFAB79"/>
<path d="M39.6149 44.844L42.4884 43.1362C42.6031 43.0681 42.734 43.0321 42.8674 43.0321H78.0177C78.1409 43.0321 78.2622 43.0628 78.3706 43.1214L81.5479 44.8395C81.7511 44.9494 81.6731 45.2579 81.442 45.2579H39.7286C39.5024 45.2579 39.4204 44.9596 39.6149 44.844Z" fill="#FF8B46"/>
<path fill-rule="evenodd" clip-rule="evenodd" d="M52.3287 45.3824L49.6372 46.7716H60.0642V46.7717H71.248L68.3397 45.3824H60.1339V45.3824H52.3287Z" fill="#FFD9C2"/>
</svg>
