<svg width="84" height="50" viewBox="0 0 84 50" fill="none" xmlns="http://www.w3.org/2000/svg">
<ellipse cx="10.0311" cy="41.9536" rx="4.37779" ry="4.01297" fill="#FF7320"/>
<path d="M23.8072 47.6259C24.8101 49.3088 27.6227 49.5972 29.5011 49.4573C30.4306 49.3881 31.3642 49.0994 32.0323 48.4494C33.0524 47.4567 34.3245 45.5154 34.0777 42.574C33.7446 38.6046 30.4691 37.9662 30.0805 37.7719C29.7696 37.6164 25.7688 37.1334 23.8072 36.9114C23.6777 38.4658 23.3187 41.7746 22.919 42.574C22.4193 43.5733 22.1695 44.8779 23.8072 47.6259Z" fill="#FF7320"/>
<path d="M24.1118 44.2394C23.8676 44.8167 21.7339 45.2202 20.6976 45.3497L20.2812 41.9355V37.3554L20.5588 34.3853L35.1872 29.7497L36.0477 28.5839L37.4912 22.4772L37.741 22.8658L36.7417 29.3334L37.047 30.2771V32.4978L37.9908 33.275L51.6194 39.7649L37.4912 42.4351L34.0214 43.0735C34.4644 42.347 34.589 41.4703 34.3659 40.6491L33.9702 39.1923C33.6127 37.8764 32.2844 37.0734 30.9531 37.3685L26.5015 38.3553C25.3325 38.6144 24.501 39.6513 24.4501 40.8477C24.3882 42.3055 24.2713 43.8624 24.1118 44.2394Z" fill="#FFA571"/>
<path d="M0.79541 39.021C0.795428 38.683 1.39198 38.549 1.36358 38.4379L20.2256 40.9084L20.2256 41.8251V42.3804C18.6917 43.3799 0.795346 40.2422 0.79541 39.021Z" fill="#FFA571"/>
<path d="M1.35773 38.4756L1.0367 33.092C0.993828 32.373 1.48761 31.7324 2.19386 31.5908L16.4275 28.7376C16.5884 28.7054 16.7362 28.6263 16.8523 28.5104L17.3709 27.9925C17.542 27.8216 17.7789 27.7336 18.02 27.7512L35.4198 29.0233C35.6056 29.0369 35.6931 29.2595 35.5662 29.396L35.1814 29.8099C35.156 29.8372 35.1241 29.8577 35.0887 29.8695L22.2821 34.1197C21.7146 34.308 21.322 34.8268 21.2948 35.4241L21.0075 41.7456C20.9905 42.1201 20.6433 42.3909 20.276 42.3164L1.35773 38.4756Z" fill="#FFA571"/>
<path d="M19.5044 40.2145V37.1888H20.004V39.9924L19.5044 40.2145Z" fill="#FFA571"/>
<path d="M20.9752 43.1882L20.6794 35.7941C20.6389 34.7819 21.2983 33.8741 22.2734 33.5996L35.0358 30.0069C35.1167 29.9841 35.1883 29.9365 35.2406 29.8709L35.7863 29.1851C35.8532 29.1011 35.7452 28.9908 35.6598 29.0559V29.0559" stroke="#FF7320" stroke-width="0.444127" stroke-linecap="round"/>
<path d="M20.2157 41.8292C14.2101 42.6778 4.15417 40.343 0.545898 39.0209C0.545898 40.8619 0.915483 41.7565 1.19743 42.0152C7.613 44.8002 17.0551 46.1754 20.662 45.3724C20.9706 45.3037 21.1634 45.0162 21.1537 44.7002L21.0873 42.5429C21.0735 42.0941 20.6602 41.7664 20.2157 41.8292Z" fill="#FF7320"/>
<path d="M0.851074 40.409C3.36779 41.6951 10.9827 44.4894 20.8923 43.7677" stroke="#FFA571" stroke-width="0.444127" stroke-linecap="round"/>
<path d="M6.06885 33.2023V34.3861L12.1113 35.0238V34.2476C12.1113 33.8294 12.3961 33.4649 12.8018 33.3637L29.2556 29.2602C29.4608 29.209 29.6467 29.0991 29.7905 28.9439C30.0014 28.716 29.847 28.3457 29.5367 28.3352L23.432 28.1291C23.2417 28.1227 23.0578 28.1978 22.9263 28.3355L22.7999 28.4679C22.6013 28.676 22.3455 28.8206 22.0648 28.8836L6.78032 32.3135C6.36442 32.4068 6.06885 32.7761 6.06885 33.2023Z" fill="#FF8B46"/>
<path d="M3.38961 34.017V34.235V38.2093C3.38961 38.3282 3.27997 38.4169 3.16365 38.392L1.92781 38.128C1.8504 38.1114 1.7918 38.0479 1.78154 37.9694L1.26784 34.0412C1.25321 33.9293 1.34032 33.8301 1.45317 33.8301H3.20271C3.30593 33.8301 3.38961 33.9138 3.38961 34.017Z" fill="#FF7320"/>
<ellipse cx="2.90422" cy="36.1062" rx="0.943769" ry="1.3879" fill="#FFD9C2"/>
<path d="M15.7572 35.1434L3.09327 33.6811C2.77515 33.6444 2.50944 33.9207 2.55854 34.2371L3.14108 37.9912C3.2238 38.5243 3.63364 38.9474 4.16386 39.0469L15.8427 41.24C16.2662 41.3195 16.6527 40.9825 16.6316 40.5522L16.4002 35.8303C16.3827 35.4748 16.1107 35.1842 15.7572 35.1434Z" fill="#FFD9C2" stroke="#FF7320" stroke-width="0.333095"/>
<path d="M19.0282 35.881L16.5255 35.5732C16.1968 35.5328 15.9117 35.7998 15.9304 36.1304L16.1664 40.3069C16.18 40.5491 16.3562 40.7513 16.5943 40.7981L18.861 41.2433C19.1892 41.3078 19.4945 41.0566 19.4945 40.7222V36.4081C19.4945 36.1399 19.2945 35.9137 19.0282 35.881Z" fill="#FF7320"/>
<ellipse cx="18.5328" cy="38.5491" rx="1.41565" ry="1.72099" fill="#FFD9C2"/>
<path d="M0.767448 39.4927C0.517631 38.771 1.23 38.4934 1.23925 38.4379C0.878399 32.692 0.739605 32.3867 1.43355 31.8871C1.96468 31.5047 11.1256 29.7283 16.1552 28.8622C16.5867 28.7879 16.9879 28.6014 17.3225 28.3189L18.0606 27.6956L35.6869 29.1668" stroke="#FF7320" stroke-width="0.444127" stroke-linecap="round"/>
<path d="M21.3207 22.3831C21.3363 23.8414 19.619 26.3526 18.4219 27.3902L35.9094 28.9724L36.9754 23.943C36.9863 23.8917 36.9849 23.8385 36.9713 23.7878L36.532 22.1463C36.4924 21.9982 36.3568 21.8963 36.2035 21.8994L21.4935 22.1957C21.3947 22.1977 21.3196 22.2843 21.3207 22.3831Z" stroke="#FF7320" stroke-width="0.444127"/>
<path d="M37.5746 21.478C38.4543 21.2476 38.5471 20.9826 38.4772 20.8601C38.469 20.8457 38.4551 20.8359 38.4401 20.829L37.5746 20.4297L24.6949 20.7285C21.8756 21.002 21.2258 21.7291 21.244 22.1116L36.5198 21.7833L37.1027 23.8096L37.5746 22.2829C37.186 22.1164 36.642 21.7222 37.5746 21.478Z" fill="#FF7320"/>
<path d="M21.253 22.1719C21.2481 22.153 21.245 22.1328 21.244 22.1116M21.244 22.1116C21.2258 21.7291 21.8756 21.002 24.6949 20.7285L37.5746 20.4297L38.4401 20.829C38.4551 20.8359 38.469 20.8457 38.4772 20.8601C38.5471 20.9826 38.4543 21.2476 37.5746 21.478C36.642 21.7222 37.186 22.1164 37.5746 22.2829L37.1027 23.8096L36.5198 21.7833L21.244 22.1116Z" stroke="#FF7320" stroke-width="0.222063"/>
<path d="M29.6476 38.0323C33.1606 38.1513 33.8528 41.0839 34.0761 42.7585L34.5599 42.0514L34.2994 38.8138L33.2202 37.288H31.285C29.1762 38.1315 26.1345 37.9132 29.6476 38.0323Z" fill="#FF7320"/>
<path d="M20.4756 45.2108L21.8001 45.0453C22.2481 44.9893 22.6889 44.885 23.1146 44.7344L23.8972 44.4575C24.1283 44.3757 24.2881 44.1636 24.303 43.9189L24.5083 40.5485C24.5695 39.5434 25.284 38.6979 26.2648 38.4699L31.6817 37.2106C32.649 36.9857 33.6453 37.4478 34.0985 38.3315L34.1901 38.51C34.3535 38.8286 34.4496 39.1775 34.4723 39.5349L34.6321 42.0464L34.3129 42.6016L34.1152 42.9455C34.0677 43.028 34.1394 43.1281 34.2328 43.1098L51.2548 39.7648L38.0186 42.3658V33.3027C37.7132 33.0529 37.1026 32.531 37.1026 32.4422C37.1026 32.3534 37.1026 31.0913 37.1026 30.4714L36.6584 29.1668L37.7965 23.1155" stroke="#FF7320" stroke-width="0.333095"/>
<path d="M38.0463 23.1712C37.926 23.1249 37.6299 23.0879 37.6299 22.3662" stroke="#FF7320" stroke-width="0.333095" stroke-linecap="round"/>
<path d="M18.2473 27.3459C18.1684 27.0203 19.8547 23.164 21.36 21.915C21.3991 21.8826 21.4476 21.8669 21.4983 21.8676L36.6348 22.0574C36.7867 22.0594 36.9089 22.1831 36.9089 22.335V23.5809C36.9089 23.8251 36.8815 24.0686 36.8274 24.3068L35.852 28.5986C35.8213 28.7335 35.696 28.8252 35.5581 28.8137L18.2758 27.3643C18.2627 27.3632 18.2504 27.3587 18.2473 27.3459Z" fill="#FFD9C2"/>
<path d="M27.0577 21.9861L23.0332 27.78L26.1406 27.9931L30.1308 21.9985L27.0577 21.9861Z" fill="white"/>
<path d="M25.5648 21.9539L21.7422 27.6208L22.471 27.6803L26.368 21.9687L25.5648 21.9539Z" fill="white"/>
<ellipse cx="30.0804" cy="43.876" rx="3.74732" ry="5.33089" transform="rotate(9.55057 30.0804 43.876)" fill="#FFA571"/>
<ellipse cx="30.0616" cy="44.0813" rx="2.37544" ry="3.68968" transform="rotate(11.4896 30.0616 44.0813)" fill="#FFD9C2"/>
<path d="M66.5429 42.6658H44.0352C43.5471 42.6658 43.3052 43.2581 43.6537 43.5998L46.3189 46.2132C46.998 46.8792 47.9112 47.2522 48.8624 47.2522H61.7673C62.7308 47.2522 63.6548 46.8695 64.3361 46.1882L66.9283 43.596C67.2715 43.2527 67.0284 42.6658 66.5429 42.6658Z" fill="#0478E0"/>
<path d="M80.3011 20.5245L67.9431 9.66829C67.7485 9.4974 67.7361 9.19867 67.9157 9.01215L69.5454 7.31976C69.8022 7.05308 70.1565 6.9024 70.5267 6.9024H73.547C73.8894 6.9024 74.2194 7.03139 74.471 7.26368L76.3629 9.01005C76.7276 9.34673 76.7391 9.91923 76.3881 10.2702L76.339 10.3193C75.8012 10.8571 75.8221 11.7354 76.3849 12.247C76.9208 12.7342 77.7479 12.7039 78.2467 12.1788L78.4286 11.9874C78.7921 11.6048 79.3901 11.57 79.7955 11.9078L81.4493 13.286C81.6765 13.4753 81.8359 13.7334 81.9035 14.0213L82.6955 17.396C82.7893 17.7958 82.6978 18.2165 82.4464 18.5412L80.9599 20.4613C80.7996 20.6684 80.4979 20.6973 80.3011 20.5245Z" fill="#8BC8FF"/>
<circle cx="77.3941" cy="11.1255" r="0.953617" fill="#52ADFF"/>
<path d="M30.2589 20.6153L42.617 9.75911C42.8115 9.58822 42.824 9.28949 42.6444 9.10297L41.0147 7.41058C40.7579 7.1439 40.4036 6.99323 40.0334 6.99323H37.0131C36.6706 6.99323 36.3407 7.12221 36.0891 7.35451L34.1972 9.10087C33.8324 9.43755 33.821 10.0101 34.172 10.361L34.2211 10.4101C34.7589 10.948 34.738 11.8262 34.1752 12.3378C33.6392 12.825 32.8122 12.7947 32.3133 12.2696L32.1315 12.0782C31.768 11.6956 31.17 11.6608 30.7646 11.9986L29.1107 13.3768C28.8835 13.5662 28.7241 13.8242 28.6566 14.1121L27.8646 17.4868C27.7707 17.8866 27.8622 18.3073 28.1136 18.632L29.6002 20.5522C29.7605 20.7592 30.0622 20.7881 30.2589 20.6153Z" fill="#8BC8FF"/>
<circle cx="0.953617" cy="0.953617" r="0.953617" transform="matrix(-1 0 0 1 34.2085 10.3538)" fill="#52ADFF"/>
<path d="M62.9363 9.94486H47.3954C46.8266 9.94486 46.2756 9.74716 45.8365 9.3856L42.4462 6.59359C42.0901 6.3003 41.8838 5.86312 41.8838 5.40177V3.64306C41.8838 3.11314 42.0943 2.60493 42.469 2.23022L43.1121 1.58714C43.2576 1.44158 43.4483 1.34979 43.6529 1.32681L53.4821 0.2224C54.7976 0.0745901 56.1255 0.0732356 57.4413 0.218362L67.3757 1.31407C67.652 1.34454 67.899 1.49979 68.0463 1.73545L68.4866 2.43995C68.64 2.68533 68.7213 2.96887 68.7213 3.25824V5.371C68.7213 5.84987 68.4991 6.30163 68.1198 6.59394L64.4332 9.43502C64.0042 9.76559 63.4779 9.94486 62.9363 9.94486Z" fill="#0478E0"/>
<path fill-rule="evenodd" clip-rule="evenodd" d="M45.4582 12.0096H55.3617H65.2157L65.8667 11.426C66.2458 11.0861 66.8199 11.0857 67.1994 11.425L78.7032 21.7094C79.0886 22.0539 79.1475 22.6355 78.8391 23.0503L78.0669 24.0888C81.5181 25.5056 80.6553 28.5238 79.7925 29.8559C80.2163 30.3705 80.7279 32.0083 79.3838 34.4423C78.2329 36.5263 76.0679 36.7172 74.7185 36.4915C74.4156 36.4409 74.1162 36.6625 74.1162 36.9695V39.5737C74.1162 40.3762 73.4656 41.0268 72.663 41.0268H37.7879C36.9854 41.0268 36.3348 40.3762 36.3348 39.5737V36.8862C36.3348 36.6054 36.0813 36.3933 35.8019 36.4216C30.8786 36.9196 30.2767 32.1281 30.6131 29.5834C29.3942 27.5142 30.4737 25.7711 31.6253 24.7599C32.0836 24.3575 32.2319 23.6548 31.86 23.1714L31.7672 23.0506C31.449 22.637 31.5027 22.0482 31.8905 21.6991L43.2147 11.5033C43.6273 11.1318 44.2636 11.168 44.6315 11.5838L44.7099 11.6725C44.8996 11.8869 45.172 12.0096 45.4582 12.0096ZM78.6827 28.0283C79.309 26.8576 78.843 26.1247 78.1121 25.7939C77.1794 25.3718 75.7752 25.7757 76.0759 26.7544C76.454 27.9855 77.8466 29.5912 78.6827 28.0283ZM32.3406 26.0665C31.6097 26.3973 31.1437 27.1301 31.77 28.3009C32.6061 29.8638 33.9987 28.258 34.3769 27.027C34.6775 26.0483 33.2733 25.6443 32.3406 26.0665ZM78.0488 31.6975C77.8793 32.9293 76.8283 35.1139 73.9806 33.9983C70.4209 32.6039 78.5065 29.7453 78.0488 31.6975ZM31.9495 31.9699C32.119 33.2016 33.17 35.3863 36.0177 34.2707C39.5774 32.8763 31.4918 30.0177 31.9495 31.9699ZM76.8355 29.6947C74.8375 29.5131 74.0258 29.9467 73.6171 30.8549C74.17 29.4889 74.3129 29.3032 74.6092 28.9183C74.7266 28.7658 74.868 28.5821 75.0686 28.2812C75.4467 29.0374 75.948 29.273 76.4983 29.5316C76.609 29.5836 76.7216 29.6365 76.8355 29.6947ZM36.6536 31.1273C36.2449 30.2191 34.701 30.0375 32.7029 30.2191C32.7811 30.1792 32.8725 30.134 32.9737 30.084C33.7537 29.6985 35.1164 29.025 35.5184 28.2211C35.5184 28.8156 35.647 29.0563 35.9139 29.5557C36.0954 29.8955 36.341 30.355 36.6536 31.1273Z" fill="#82C2FB"/>
<path d="M43.9152 31.3312L47.5524 22.071C48.5887 19.4326 51.1344 17.6974 53.9691 17.6974H56.6904C59.4568 17.6974 61.9553 19.3512 63.0362 21.8977L66.6528 30.4182C67.1723 31.642 66.9079 33.058 65.9818 34.0119L63.8969 36.1595C63.2586 36.8171 62.2529 36.9516 61.4641 36.4849L55.7053 33.0776C54.857 32.5758 53.8001 32.5873 52.963 33.1075L48.0903 36.1359C47.3106 36.6205 46.3003 36.5066 45.648 35.8607L44.666 34.8881C43.7276 33.9589 43.4325 32.5604 43.9152 31.3312Z" stroke="#DCEFFF" stroke-width="1.60542"/>
<circle cx="55.244" cy="22.6816" r="8.05944" fill="#DCEFFF"/>
<circle cx="55.2448" cy="22.4696" r="6.8576" fill="#52ADFF"/>
<circle cx="63.8333" cy="33.463" r="4.27716" fill="#DCEFFF"/>
<circle cx="63.7992" cy="33.4278" r="3.39345" fill="#52ADFF"/>
<circle cx="55.3147" cy="22.4695" r="5.51436" fill="#DCEFFF"/>
<circle cx="63.7976" cy="33.4275" r="2.47439" fill="#DCEFFF"/>
<circle cx="45.8771" cy="34.3818" r="3.3581" fill="#DCEFFF"/>
<circle cx="54.3605" cy="34.4527" r="2.36835" fill="#DCEFFF"/>
<circle cx="63.7628" cy="33.3923" r="1.0958" fill="#52ADFF"/>
<circle cx="45.8764" cy="34.382" r="1.51998" fill="#52ADFF"/>
<circle cx="54.3607" cy="34.4527" r="1.59068" fill="#52ADFF"/>
<circle cx="54.3603" cy="34.4526" r="1.1665" fill="#DCEFFF"/>
<path d="M44.821 14.6524L46.4037 15.4216C47.0705 15.7457 47.3642 16.5372 47.0702 17.2179L41.3088 30.5571C41.0895 31.0648 40.5894 31.3936 40.0363 31.3936H39.3191C38.6138 31.3936 38.021 30.864 37.9418 30.1631L37.0792 22.5264C37.035 22.1351 37.1593 21.7435 37.421 21.4494L43.1796 14.9776C43.5922 14.5139 44.2627 14.3811 44.821 14.6524Z" fill="#52ADFF"/>
<path d="M65.9744 14.6524L64.3917 15.4216C63.7249 15.7457 63.4312 16.5372 63.7252 17.2179L69.4866 30.5571C69.7059 31.0648 70.206 31.3936 70.7591 31.3936H71.4763C72.1816 31.3936 72.7744 30.864 72.8536 30.1631L73.7162 22.5264C73.7604 22.1351 73.6361 21.7435 73.3744 21.4494L67.6158 14.9776C67.2032 14.5139 66.5327 14.3811 65.9744 14.6524Z" fill="#52ADFF"/>
<circle cx="55.3156" cy="22.4691" r="3.18136" fill="#52ADFF"/>
<circle cx="57.0438" cy="14.9002" r="0.472526" fill="#0478E0"/>
<circle cx="57.6424" cy="21.1061" r="1.38608" fill="#DCEFFF"/>
<path d="M55.7517 14.6797C52.9796 14.4277 49.7659 14.1937 47.4983 20.413L42.6155 33.5492C41.891 36.2584 44.304 38.306 46.0177 37.928" stroke="#0478E0" stroke-width="0.630035" stroke-linecap="round"/>
<circle cx="57.7992" cy="21.0745" r="0.72454" fill="white"/>
<circle cx="47.3417" cy="37.5183" r="0.472526" fill="#0478E0"/>
<circle cx="52.5199" cy="12.1315" r="0.472526" fill="#0478E0"/>
<circle cx="76.3866" cy="17.1052" r="0.472526" fill="#0478E0"/>
<circle cx="80.3998" cy="27.846" r="0.472526" fill="#0478E0"/>
<circle cx="36.8827" cy="14.6482" r="0.472526" fill="#0478E0"/>
<path d="M50.8051 12.1597H45.7063C45.378 12.1597 45.0604 12.0432 44.81 11.8309L44.6865 11.7262C44.1514 11.2725 43.3618 11.2902 42.8475 11.7672L32.1768 21.6658C31.8072 22.0087 31.699 22.55 31.9084 23.0087V23.0087C32.0978 23.4236 32.0267 23.9093 31.7455 24.2685C31.2934 24.8464 30.7705 25.5868 30.644 26.0205" stroke="#0478E0" stroke-width="0.756042" stroke-linecap="round"/>
<path d="M35.2749 8.09579L36.143 7.33617C36.3957 7.11509 36.72 6.99323 37.0558 6.99323H40.0698C40.3721 6.99323 40.6661 7.09203 40.907 7.27458L42.2259 8.27405C42.9575 8.82841 42.9579 9.92791 42.2268 10.4828L37.9841 13.7031" stroke="#0478E0" stroke-width="0.756042" stroke-linecap="round"/>
<path d="M38.772 40.9521H72.7623C73.5278 40.9521 74.1484 40.3316 74.1484 39.5661V37.991" stroke="#0478E0" stroke-width="0.756042" stroke-linecap="round"/>
<circle cx="37.3226" cy="40.9838" r="0.472526" fill="#0478E0"/>
<circle cx="74.1166" cy="36.5732" r="0.472526" fill="#0478E0"/>
<path d="M68.6675 12.8527L78.4577 21.6109C78.8215 21.9362 78.8391 22.4997 78.4964 22.8472V22.8472C77.9413 23.4102 78.4111 24.4423 79.1438 24.7393C79.8404 25.0217 80.4176 25.571 80.4176 26.619" stroke="#0478E0" stroke-width="0.756042" stroke-linecap="round"/>
<path d="M81.331 13.325L81.841 13.7622C82.0818 13.9685 82.2445 14.2511 82.302 14.5629L82.8518 17.5406C82.9262 17.9436 82.8185 18.3588 82.5576 18.6747L81.6472 19.7775C81.1474 20.3828 80.2451 20.4527 79.6581 19.9315L77.3618 17.8928" stroke="#0478E0" stroke-width="0.756042" stroke-linecap="round"/>
</svg>
