<svg width="78" height="48" viewBox="0 0 78 48" fill="none" xmlns="http://www.w3.org/2000/svg">
<ellipse class="shadow" cx="39" cy="42" rx="39" ry="6" fill="#DAEEFF"/>
<ellipse cx="10.1227" cy="38.8199" rx="4.01726" ry="3.68249" fill="#FF7320"/>
<path d="M22.7642 44.0251C23.6845 45.5693 26.2654 45.834 27.9891 45.7056C28.842 45.6421 29.6988 45.3772 30.3118 44.7807C31.248 43.8698 32.4153 42.0883 32.1888 39.3892C31.8831 35.7467 28.8774 35.1608 28.5208 34.9825C28.2355 34.8399 24.5642 34.3966 22.7642 34.1929C22.6453 35.6193 22.3158 38.6556 21.949 39.3892C21.4905 40.3061 21.2613 41.5033 22.7642 44.0251Z" fill="#FF7320"/>
<path d="M23.0439 40.9174C22.8198 41.4472 20.8618 41.8174 19.9109 41.9363L19.5288 38.8032V34.6004L19.7835 31.8749L33.2073 27.621L33.9969 26.5512L35.3214 20.9474L35.5507 21.304L34.6337 27.239L34.9139 28.105V30.1428L35.7799 30.856L48.2862 36.8114L35.3214 39.2617L32.1374 39.8476C32.5439 39.1809 32.6583 38.3764 32.4536 37.6228L32.0904 36.286C31.7624 35.0784 30.5435 34.3416 29.3218 34.6124L25.2368 35.5179C24.164 35.7557 23.401 36.7072 23.3544 37.805C23.2975 39.1428 23.1903 40.5715 23.0439 40.9174Z" fill="#FFA571"/>
<path d="M1.64746 36.1288C1.64748 35.8186 2.1949 35.6957 2.16884 35.5938L19.4775 37.8608L19.4775 38.702V39.2116C18.0699 40.1288 1.6474 37.2494 1.64746 36.1288Z" fill="#FFA571"/>
<path d="M2.16351 35.6283L1.86892 30.688C1.82958 30.0282 2.2827 29.4404 2.93079 29.3105L15.9923 26.6923C16.1399 26.6627 16.2755 26.5901 16.3821 26.4837L16.8579 26.0085C17.0149 25.8517 17.2323 25.7709 17.4536 25.7871L33.4205 26.9544C33.591 26.9669 33.6713 27.1712 33.5548 27.2964L33.2017 27.6762C33.1784 27.7013 33.1491 27.7201 33.1166 27.7309L21.3647 31.6311C20.844 31.8039 20.4837 32.2799 20.4587 32.828L20.1951 38.629C20.1795 38.9726 19.8608 39.2212 19.5238 39.1527L2.16351 35.6283Z" fill="#FFA571"/>
<path d="M18.8159 37.224V34.4475H19.2744V37.0202L18.8159 37.224Z" fill="#FFA571"/>
<path d="M20.1653 39.9528L19.8939 33.1676C19.8568 32.2388 20.4618 31.4058 21.3567 31.1539L33.0681 27.857C33.1422 27.8361 33.208 27.7925 33.2559 27.7322L33.7568 27.1029C33.8181 27.0259 33.719 26.9246 33.6406 26.9843V26.9843" stroke="#FF7320" stroke-width="0.407552" stroke-linecap="round"/>
<path d="M19.4684 38.7057C13.9574 39.4844 4.72958 37.3419 1.41846 36.1287C1.41846 37.8181 1.7576 38.639 2.01633 38.8764C7.90356 41.432 16.5681 42.694 19.8779 41.9572C20.1611 41.8941 20.3381 41.6302 20.3291 41.3403L20.2683 39.3606C20.2556 38.9488 19.8763 38.648 19.4684 38.7057Z" fill="#FF7320"/>
<path d="M1.69873 37.4025C4.00819 38.5827 10.996 41.1468 20.0895 40.4846" stroke="#FFA571" stroke-width="0.407552" stroke-linecap="round"/>
<path d="M6.48682 30.7893V31.8756L12.0317 32.4607V31.7485C12.0317 31.3647 12.293 31.0303 12.6653 30.9374L27.764 27.1719C27.9524 27.1249 28.123 27.024 28.2549 26.8815C28.4485 26.6724 28.3068 26.3326 28.022 26.323L22.4201 26.1339C22.2455 26.128 22.0766 26.1969 21.956 26.3233L21.84 26.4448C21.6578 26.6357 21.423 26.7685 21.1654 26.8263L7.1397 29.9737C6.75805 30.0593 6.48682 30.3982 6.48682 30.7893Z" fill="#FF8B46"/>
<path d="M4.02803 31.5369V31.737V35.3839C4.02803 35.4931 3.92742 35.5744 3.82068 35.5516L2.68661 35.3093C2.61558 35.2941 2.56181 35.2359 2.55239 35.1638L2.081 31.5591C2.06757 31.4564 2.14751 31.3654 2.25106 31.3654H3.85652C3.95124 31.3654 4.02803 31.4421 4.02803 31.5369Z" fill="#FF7320"/>
<ellipse cx="3.58284" cy="33.454" rx="0.866047" ry="1.2736" fill="#FFD9C2"/>
<path d="M15.377 32.5705L3.75604 31.2286C3.46412 31.1949 3.22029 31.4484 3.26535 31.7388L3.79991 35.1838C3.87582 35.673 4.25191 36.0612 4.73846 36.1526L15.4555 38.165C15.8441 38.238 16.1988 37.9287 16.1795 37.5338L15.9671 33.2008C15.9511 32.8746 15.7014 32.6079 15.377 32.5705Z" fill="#FFD9C2" stroke="#FF7320" stroke-width="0.305664"/>
<path d="M18.379 33.2474L16.0824 32.965C15.7808 32.9279 15.5192 33.1728 15.5363 33.4762L15.7529 37.3088C15.7654 37.5311 15.927 37.7166 16.1455 37.7596L18.2256 38.1681C18.5267 38.2273 18.8069 37.9968 18.8069 37.6899V33.7311C18.8069 33.4849 18.6234 33.2774 18.379 33.2474Z" fill="#FF7320"/>
<ellipse cx="17.9241" cy="35.6957" rx="1.29907" ry="1.57926" fill="#FFD9C2"/>
<path d="M1.62196 36.5617C1.39272 35.8994 2.04642 35.6447 2.05491 35.5937C1.72378 30.321 1.59641 30.0408 2.23321 29.5824C2.7206 29.2314 11.1271 27.6013 15.7425 26.8066C16.1385 26.7384 16.5067 26.5673 16.8136 26.308L17.491 25.7361L33.6657 27.0861" stroke="#FF7320" stroke-width="0.407552" stroke-linecap="round"/>
<path d="M20.4824 20.8611C20.4967 22.1993 18.9208 24.5037 17.8223 25.4558L33.8696 26.9077L34.8478 22.2925C34.8578 22.2454 34.8565 22.1966 34.8441 22.1501L34.441 20.6438C34.4046 20.5079 34.2802 20.4143 34.1395 20.4172L20.641 20.6891C20.5503 20.691 20.4814 20.7704 20.4824 20.8611Z" stroke="#FF7320" stroke-width="0.407552"/>
<path d="M35.3977 20.0305C36.205 19.8191 36.2901 19.5759 36.2259 19.4635C36.2184 19.4503 36.2057 19.4414 36.1919 19.435L35.3977 19.0686L23.5787 19.3428C20.9915 19.5937 20.3952 20.2609 20.412 20.612L34.4298 20.3107L34.9647 22.1701L35.3977 20.7692C35.0411 20.6164 34.5418 20.2546 35.3977 20.0305Z" fill="#FF7320"/>
<path d="M20.4202 20.6673C20.4157 20.6499 20.4129 20.6314 20.412 20.612M20.412 20.612C20.3952 20.2609 20.9915 19.5937 23.5787 19.3428L35.3977 19.0686L36.1919 19.435C36.2057 19.4414 36.2184 19.4503 36.2259 19.4635C36.2901 19.5759 36.205 19.8191 35.3977 20.0305C34.5418 20.2546 35.0411 20.6164 35.3977 20.7692L34.9647 22.1701L34.4298 20.3107L20.412 20.612Z" stroke="#FF7320" stroke-width="0.203776"/>
<path d="M28.1237 35.2214C31.3475 35.3307 31.9827 38.0217 32.1876 39.5585L32.6315 38.9096L32.3925 35.9386L31.4021 34.5385H29.6263C27.6912 35.3125 24.9 35.1122 28.1237 35.2214Z" fill="#FF7320"/>
<path d="M19.707 41.8089L20.9224 41.657C21.3336 41.6056 21.7381 41.5099 22.1287 41.3717L22.8468 41.1176C23.0589 41.0425 23.2056 40.8479 23.2193 40.6234L23.4076 37.5305C23.4638 36.6082 24.1194 35.8323 25.0195 35.6231L29.9903 34.4675C30.878 34.2611 31.7922 34.6851 32.2081 35.4961L32.2921 35.6599C32.442 35.9523 32.5302 36.2724 32.5511 36.6004L32.6977 38.9051L32.4048 39.4145L32.2234 39.7301C32.1798 39.8058 32.2456 39.8977 32.3313 39.8808L47.9514 36.8113L35.8053 39.1982V30.8814C35.5251 30.6522 34.9647 30.1733 34.9647 30.0918C34.9647 30.0103 34.9647 28.8521 34.9647 28.2833L34.5572 27.0861L35.6015 21.5332" stroke="#FF7320" stroke-width="0.305664"/>
<path d="M35.8308 21.5843C35.7204 21.5418 35.4487 21.5079 35.4487 20.8456" stroke="#FF7320" stroke-width="0.305664" stroke-linecap="round"/>
<path d="M17.6621 25.4152C17.5897 25.1164 19.1372 21.5777 20.5185 20.4315C20.5543 20.4018 20.5988 20.3874 20.6454 20.388L34.5353 20.5622C34.6747 20.564 34.7868 20.6775 34.7868 20.8169V21.9602C34.7868 22.1844 34.7618 22.4078 34.7121 22.6264L33.817 26.5647C33.7889 26.6885 33.6739 26.7727 33.5474 26.762L17.6882 25.4321C17.6762 25.4311 17.665 25.4269 17.6621 25.4152Z" fill="#FFD9C2"/>
<path d="M25.7473 20.4968L22.0542 25.8135L24.9057 26.0091L28.5673 20.5082L25.7473 20.4968Z" fill="white"/>
<path d="M24.3769 20.4672L20.8691 25.6674L21.5379 25.722L25.114 20.4808L24.3769 20.4672Z" fill="white"/>
<ellipse cx="28.5208" cy="40.5839" rx="3.43872" ry="4.89187" transform="rotate(9.55057 28.5208 40.5839)" fill="#FFA571"/>
<ellipse cx="28.5037" cy="40.7723" rx="2.17981" ry="3.38583" transform="rotate(11.4896 28.5037 40.7723)" fill="#FFD9C2"/>
<path d="M61.9804 39.4734H41.3262C40.8783 39.4734 40.6563 40.0169 40.9761 40.3305L43.4218 42.7287C44.045 43.3398 44.883 43.6821 45.7559 43.6821H57.598C58.4822 43.6821 59.3301 43.3309 59.9553 42.7057L62.334 40.327C62.649 40.012 62.4259 39.4734 61.9804 39.4734Z" fill="#0478E0"/>
<path d="M74.6056 19.1555L63.2652 9.19338C63.0867 9.03656 63.0753 8.76244 63.2401 8.59127L64.7356 7.03826C64.9712 6.79354 65.2963 6.65527 65.6361 6.65527H68.4076C68.7219 6.65527 69.0246 6.77364 69.2556 6.9868L70.9916 8.58934C71.3264 8.8983 71.3369 9.42366 71.0148 9.74574L70.9697 9.7908C70.4762 10.2843 70.4954 11.0902 71.0118 11.5597C71.5036 12.0068 72.2626 11.979 72.7204 11.4971L72.8872 11.3215C73.2208 10.9704 73.7695 10.9385 74.1416 11.2485L75.6592 12.5132C75.8677 12.6869 76.014 12.9237 76.076 13.1879L76.8027 16.2847C76.8888 16.6515 76.8049 17.0376 76.5742 17.3356L75.2101 19.0976C75.063 19.2876 74.7861 19.3141 74.6056 19.1555Z" fill="#8BC8FF"/>
<circle cx="71.9381" cy="10.5305" r="0.875084" fill="#52ADFF"/>
<path d="M28.6845 19.2389L40.0248 9.2767C40.2033 9.11987 40.2148 8.84575 40.05 8.67459L38.5545 7.12157C38.3188 6.87685 37.9937 6.73859 37.654 6.73859H34.8824C34.5681 6.73859 34.2654 6.85695 34.0345 7.07011L32.2984 8.67266C31.9637 8.98161 31.9532 9.50697 32.2753 9.82906L32.3203 9.87411C32.8139 10.3676 32.7947 11.1735 32.2782 11.643C31.7864 12.0901 31.0275 12.0623 30.5697 11.5804L30.4028 11.4048C30.0693 11.0537 29.5205 11.0218 29.1485 11.3318L27.6308 12.5965C27.4224 12.7702 27.2761 13.0071 27.2141 13.2712L26.4873 16.368C26.4012 16.7348 26.4852 17.1209 26.7158 17.4189L28.08 19.1809C28.2271 19.3709 28.504 19.3975 28.6845 19.2389Z" fill="#8BC8FF"/>
<circle cx="0.875084" cy="0.875084" r="0.875084" transform="matrix(-1 0 0 1 32.3091 9.82239)" fill="#52ADFF"/>
<path d="M58.6709 9.44716H44.4098C43.8878 9.44716 43.3822 9.26574 42.9793 8.93396L39.8682 6.37188C39.5414 6.10274 39.3521 5.70156 39.3521 5.2782V3.66433C39.3521 3.17806 39.5452 2.7117 39.8891 2.36785L40.4792 1.77772C40.6128 1.64415 40.7877 1.55992 40.9755 1.53883L49.9952 0.525374C51.2024 0.389736 52.4209 0.388493 53.6284 0.521668L62.7447 1.52714C62.9981 1.5551 63.2249 1.69757 63.36 1.91382L63.7641 2.5603C63.9048 2.78547 63.9794 3.04567 63.9794 3.3112V5.24997C63.9794 5.6894 63.7755 6.10396 63.4275 6.3722L60.0444 8.9793C59.6508 9.28265 59.1678 9.44716 58.6709 9.44716Z" fill="#0478E0"/>
<path fill-rule="evenodd" clip-rule="evenodd" d="M42.6322 11.3419H51.7201H60.7627L61.36 10.8063C61.7079 10.4944 62.2347 10.494 62.583 10.8054L73.1394 20.2428C73.4931 20.559 73.5471 21.0927 73.2641 21.4733L72.5555 22.4263C75.7225 23.7264 74.9307 26.4961 74.139 27.7184C74.5279 28.1907 74.9974 29.6936 73.7639 31.9272C72.7079 33.8395 70.7212 34.0147 69.4828 33.8076C69.2049 33.7612 68.9301 33.9645 68.9301 34.2463V36.6359C68.9301 37.3724 68.3331 37.9694 67.5967 37.9694H35.5936C34.8572 37.9694 34.2602 37.3724 34.2602 36.6359V34.1698C34.2602 33.9121 34.0275 33.7175 33.7711 33.7434C29.2533 34.2005 28.701 29.8036 29.0096 27.4684C27.8911 25.5696 28.8817 23.9701 29.9385 23.0421C30.3591 22.6729 30.4951 22.028 30.1539 21.5844L30.0687 21.4736C29.7767 21.0941 29.8261 20.5538 30.1819 20.2334L40.5735 10.8772C40.9521 10.5364 41.536 10.5695 41.8736 10.9511L41.9456 11.0325C42.1196 11.2292 42.3696 11.3419 42.6322 11.3419ZM73.1206 26.0414C73.6953 24.967 73.2677 24.2945 72.597 23.991C71.741 23.6036 70.4525 23.9743 70.7284 24.8724C71.0754 26.002 72.3533 27.4756 73.1206 26.0414ZM30.5948 24.2412C29.9241 24.5447 29.4965 25.2172 30.0712 26.2915C30.8385 27.7257 32.1164 26.2522 32.4634 25.1226C32.7393 24.2244 31.4508 23.8538 30.5948 24.2412ZM72.5392 29.4084C72.3837 30.5388 71.4193 32.5435 68.806 31.5198C65.5395 30.2402 72.9592 27.617 72.5392 29.4084ZM30.2362 29.6583C30.3918 30.7887 31.3562 32.7934 33.9694 31.7697C37.236 30.4901 29.8163 27.8669 30.2362 29.6583ZM71.4258 27.5706C69.5923 27.4039 68.8474 27.8017 68.4724 28.6352C68.9798 27.3817 69.1109 27.2113 69.3828 26.8581C69.4905 26.7182 69.6203 26.5495 69.8044 26.2734C70.1513 26.9674 70.6113 27.1835 71.1164 27.4209C71.2179 27.4686 71.3212 27.5171 71.4258 27.5706ZM34.553 28.8852C34.1779 28.0518 32.7611 27.8851 30.9276 28.0518C30.9994 28.0151 31.0832 27.9737 31.1761 27.9278C31.8919 27.574 33.1423 26.956 33.5112 26.2183C33.5112 26.7638 33.6292 26.9847 33.8741 27.4429C34.0407 27.7548 34.2661 28.1765 34.553 28.8852Z" fill="#82C2FB"/>
<path d="M41.2164 29.0723L44.5541 20.5747C45.505 18.1535 47.8411 16.5613 50.4423 16.5613H52.9395C55.4781 16.5613 57.7709 18.0788 58.7627 20.4157L62.0815 28.2344C62.5582 29.3575 62.3156 30.6568 61.4658 31.5322L59.5526 33.503C58.9668 34.1063 58.0439 34.2298 57.3201 33.8016L52.0355 30.6748C51.2571 30.2143 50.2872 30.2249 49.5191 30.7023L45.0477 33.4813C44.3322 33.9259 43.4051 33.8214 42.8065 33.2287L41.9053 32.3363C41.0443 31.4836 40.7734 30.2002 41.2164 29.0723Z" stroke="#DCEFFF" stroke-width="1.47321"/>
<circle  cx="51.612" cy="21.135" r="7.39573" fill="#DCEFFF"/>
<circle cx="51.6127" cy="20.9404" r="6.29285" fill="#52ADFF"/>
<circle cx="59.4943" cy="31.0284" r="3.92492" fill="#DCEFFF"/>
<circle cx="59.4626" cy="30.9962" r="3.11399" fill="#52ADFF"/>
<circle cx="51.6769" cy="20.9404" r="5.06023" fill="#DCEFFF"/>
<circle cx="59.4615" cy="30.9959" r="2.27062" fill="#DCEFFF"/>
<circle cx="43.0166" cy="31.8717" r="3.08155" fill="#DCEFFF"/>
<circle cx="50.8012" cy="31.9367" r="2.17331" fill="#DCEFFF"/>
<circle cx="59.4294" cy="30.9636" r="1.00556" fill="#52ADFF"/>
<circle cx="43.0159" cy="31.8718" r="1.39481" fill="#52ADFF"/>
<circle cx="50.8015" cy="31.9367" r="1.45968" fill="#52ADFF"/>
<circle cx="50.8014" cy="31.9366" r="1.07043" fill="#DCEFFF"/>
<path d="M42.0473 13.767L43.4997 14.4729C44.1116 14.7703 44.3811 15.4966 44.1114 16.1212L38.8244 28.362C38.6231 28.8279 38.1642 29.1295 37.6567 29.1295H36.9986C36.3514 29.1295 35.8073 28.6435 35.7347 28.0004L34.9431 20.9925C34.9026 20.6335 35.0166 20.2742 35.2568 20.0043L40.5411 14.0655C40.9197 13.64 41.535 13.518 42.0473 13.767Z" fill="#52ADFF"/>
<path d="M61.459 13.767L60.0067 14.4729C59.3947 14.7703 59.1252 15.4966 59.395 16.1212L64.682 28.362C64.8832 28.8279 65.3421 29.1295 65.8497 29.1295H66.5078C67.155 29.1295 67.699 28.6435 67.7716 28.0004L68.5632 20.9925C68.6038 20.6335 68.4897 20.2742 68.2496 20.0043L62.9653 14.0655C62.5866 13.64 61.9713 13.518 61.459 13.767Z" fill="#52ADFF"/>
<circle cx="51.6777" cy="20.94" r="2.91936" fill="#52ADFF"/>
<circle cx="53.2637" cy="13.9944" r="0.433612" fill="#0478E0"/>
<circle cx="53.8129" cy="19.6892" r="1.27193" fill="#DCEFFF"/>
<path d="M52.078 13.7921C49.5341 13.5608 46.5851 13.3461 44.5043 19.0532L40.0236 31.1076C39.3587 33.5937 41.573 35.4727 43.1456 35.1258" stroke="#0478E0" stroke-width="0.578149" stroke-linecap="round"/>
<circle cx="53.9569" cy="19.6602" r="0.664872" fill="white"/>
<circle cx="44.3604" cy="34.7498" r="0.433612" fill="#0478E0"/>
<circle cx="49.1123" cy="11.4538" r="0.433612" fill="#0478E0"/>
<circle cx="71.0137" cy="16.0178" r="0.433612" fill="#0478E0"/>
<circle cx="74.6963" cy="25.8741" r="0.433612" fill="#0478E0"/>
<circle cx="34.7627" cy="13.7632" r="0.433612" fill="#0478E0"/>
<path d="M47.5389 11.4796H42.86C42.5587 11.4796 42.2672 11.3727 42.0374 11.1779L41.9241 11.0818C41.4331 10.6655 40.7085 10.6817 40.2365 11.1195L30.4447 20.2029C30.1054 20.5175 30.0061 21.0142 30.1983 21.4351V21.4351C30.3721 21.8159 30.3068 22.2616 30.0489 22.5913C29.6339 23.1215 29.1542 23.8009 29.0381 24.1989" stroke="#0478E0" stroke-width="0.693779" stroke-linecap="round"/>
<path d="M33.2876 7.75035L34.0842 7.05329C34.3161 6.85041 34.6137 6.73859 34.9218 6.73859H37.6877C37.965 6.73859 38.2348 6.82925 38.4559 6.99677L39.6662 7.91393C40.3375 8.42264 40.3379 9.43159 39.667 9.94082L35.7736 12.8959" stroke="#0478E0" stroke-width="0.693779" stroke-linecap="round"/>
<path d="M36.4966 37.9009H67.6877C68.3902 37.9009 68.9597 37.3314 68.9597 36.629V35.1836" stroke="#0478E0" stroke-width="0.693779" stroke-linecap="round"/>
<circle cx="35.1665" cy="37.9299" r="0.433612" fill="#0478E0"/>
<circle cx="68.9307" cy="33.8826" r="0.433612" fill="#0478E0"/>
<path d="M63.9302 12.1155L72.9142 20.1524C73.2479 20.451 73.2641 20.9681 72.9497 21.287V21.287C72.4403 21.8035 72.8714 22.7507 73.5438 23.0233C74.1829 23.2824 74.7127 23.7864 74.7127 24.7481" stroke="#0478E0" stroke-width="0.693779" stroke-linecap="round"/>
<path d="M75.551 12.549L76.019 12.9501C76.2399 13.1394 76.3893 13.3988 76.4421 13.6849L76.9465 16.4174C77.0148 16.7872 76.916 17.1682 76.6766 17.4581L75.8412 18.47C75.3826 19.0255 74.5546 19.0897 74.0159 18.6114L71.9087 16.7405" stroke="#0478E0" stroke-width="0.693779" stroke-linecap="round"/>
</svg>
