<svg width="85" height="42" viewBox="0 0 85 42" fill="none" xmlns="http://www.w3.org/2000/svg">
<path d="M5.65332 22.4716C5.65332 19.0579 8.42062 16.2906 11.8343 16.2906H47.0742C50.4878 16.2906 53.2551 19.0579 53.2551 22.4716V32.3123H5.65332V22.4716Z" fill="#FFC7A6"/>
<path fill-rule="evenodd" clip-rule="evenodd" d="M54.2674 37.817H2.03516V38.1303C2.03516 38.8939 2.65416 39.5129 3.41773 39.5129H3.61795V41.4737H6.17979L6.83338 39.5129H50.0393L50.6929 41.4737H53.2547V39.4628C53.8387 39.3011 54.2674 38.7657 54.2674 38.1303V37.817Z" fill="#FF7320"/>
<path d="M4.52246 22.4717H5.98637C7.64827 22.4717 8.99551 23.8189 8.99551 25.4808V31.3364H4.52246V22.4717Z" fill="#FF8F4E"/>
<path d="M52.7671 22.4717H51.3032C49.6413 22.4717 48.294 23.8189 48.294 25.4808V31.3364H52.7671V22.4717Z" fill="#FF8F4E"/>
<path d="M1.68574 38.6965H55.2881C55.9618 38.6965 56.508 38.1504 56.508 37.4766V25.928C56.508 23.9966 54.9423 22.4309 53.0109 22.4309C51.0795 22.4309 49.5138 23.9966 49.5138 25.928V31.3363H7.74469V26.0703C7.74469 24.0603 6.11526 22.4309 4.10525 22.4309C2.09525 22.4309 0.46582 24.0603 0.46582 26.0703V37.4766C0.46582 38.1504 1.012 38.6965 1.68574 38.6965Z" fill="#FFA571"/>
<path d="M26.4165 16.2501H47.9685C50.8206 16.2501 53.1328 18.5622 53.1328 21.4144V21.4144" stroke="#FF7320" stroke-width="0.813281" stroke-linecap="round"/>
<circle cx="25.0987" cy="16.3363" r="0.452227" fill="#FF7320"/>
<circle cx="16.8686" cy="16.2907" r="0.40664" fill="#FF7320"/>
<circle cx="0.508755" cy="27.6985" r="0.508755" fill="#FF7320"/>
<circle cx="53.1737" cy="22.4717" r="0.40664" fill="#FF7320"/>
<circle cx="56.5484" cy="29.9131" r="0.447305" fill="#FF7320"/>
<path d="M15.6984 16.2906H11.3067C8.09515 16.2906 5.4917 18.8941 5.4917 22.1056V22.1056" stroke="#FF7320" stroke-width="0.813281" stroke-linecap="round"/>
<path d="M55.0845 38.7372H55.4098C56.0386 38.7372 56.5484 38.2275 56.5484 37.5986V31.1331" stroke="#FF7320" stroke-width="0.813281" stroke-linecap="round"/>
<path d="M0.488281 26.416V26.139C0.488281 24.2034 2.05741 22.6343 3.99304 22.6343H5.56364C7.49926 22.6343 9.0684 24.2034 9.0684 26.139V27.3513" stroke="#FF7320" stroke-width="0.813281" stroke-linecap="round"/>
<path d="M74.5548 33.2563H67.9223L66.8013 30.9209H71.4842C71.955 30.9209 72.4064 31.1079 72.7393 31.4408L74.5548 33.2563Z" fill="#8BC8FF"/>
<path d="M79.041 27.907L73.2745 31.1841L71.146 29.7075L75.2174 27.3937C75.6267 27.1611 76.1116 27.1007 76.5654 27.2256L79.041 27.907Z" fill="#8BC8FF"/>
<path d="M80.0502 20.8106L77.1926 26.796L74.6021 26.8014L76.6197 22.5754C76.8225 22.1506 77.1858 21.8237 77.6296 21.6668L80.0502 20.8106Z" fill="#8BC8FF"/>
<path d="M68.1859 35.7782L62.3274 32.6687L62.4321 30.0803L66.5686 32.2758C66.9844 32.4965 67.2955 32.8733 67.4334 33.3234L68.1859 35.7782Z" fill="#8BC8FF"/>
<path d="M55.3612 30.0427L55.1989 23.1697L57.793 21.9462L57.9072 26.7839C57.9189 27.2791 57.7231 27.7567 57.3672 28.1012L55.3612 30.0427Z" fill="#8BC8FF"/>
<path d="M60.8908 34.4674L57.5937 28.4347L59.3374 26.1575L61.6582 30.4037C61.8957 30.8384 61.9408 31.3526 61.7826 31.8219L60.8908 34.4674Z" fill="#8BC8FF"/>
<path d="M59.7045 9.32064H66.5283L67.6816 11.7234H62.8425C62.3717 11.7234 61.9203 11.5364 61.5874 11.2035L59.7045 9.32064Z" fill="#8BC8FF"/>
<path d="M55.0898 14.8243L61.0225 11.4527L63.2124 12.9719L59.0051 15.3628C58.5959 15.5954 58.111 15.6559 57.6571 15.531L55.0898 14.8243Z" fill="#8BC8FF"/>
<path d="M54.0515 22.1251L56.9915 15.9672L59.6567 15.9616L57.5718 20.3286C57.369 20.7534 57.0057 21.0802 56.5619 21.2372L54.0515 22.1251Z" fill="#8BC8FF"/>
<path d="M66.258 6.72609L72.2855 9.92522L72.1777 12.5883L67.9033 10.3196C67.4875 10.0989 67.1764 9.72203 67.0384 9.27197L66.258 6.72609Z" fill="#8BC8FF"/>
<path d="M79.4516 12.6269L79.6186 19.6981L76.9497 20.9569L76.8317 15.9573C76.82 15.4621 77.0157 14.9845 77.3717 14.64L79.4516 12.6269Z" fill="#8BC8FF"/>
<path d="M73.7626 8.07448L77.1548 14.2811L75.3608 16.624L72.9624 12.2356C72.7249 11.801 72.6798 11.2868 72.838 10.8174L73.7626 8.07448Z" fill="#8BC8FF"/>
<path d="M52.0889 17.6557L51.0613 20.8786L46.0624 18.8114C45.38 18.5292 45.0337 17.7657 45.271 17.0663L50.6044 1.34658C50.8557 0.606105 51.6643 0.21452 52.4011 0.476598L67.7362 5.93195L61.2904 6.7727L55.109 4.3688C54.812 4.2533 54.4785 4.40835 54.3755 4.7099L50.3552 16.4713C50.2551 16.7643 50.4115 17.0829 50.7045 17.183L52.0889 17.6557Z" fill="#DCEFFF"/>
<path d="M67.701 5.35214C52.801 4.65151 50.1387 17.5742 50.6525 24.0355H57.4604H83.2548C84.3603 17.8233 82.1946 6.03367 67.701 5.35214Z" fill="#52ADFF"/>
<rect x="49.9409" y="23.9147" width="34.1905" height="1.21442" rx="0.28025" fill="#0478E0"/>
<path d="M59.8564 8.56455C58.2309 9.30112 54.744 11.7083 53.8006 15.4443" stroke="white" stroke-width="1.21442" stroke-linecap="round"/>
<circle cx="53.1351" cy="17.0837" r="0.653916" transform="rotate(1.62464 53.1351 17.0837)" fill="white"/>
<circle cx="67.083" cy="21.8869" r="9.34166" fill="#8BC8FF" stroke="white" stroke-width="1.02758"/>
<path d="M68.4118 19H65.8507C65.7047 19 65.5701 19.0786 65.4984 19.2058L64.2394 21.4376C64.172 21.557 64.1698 21.7025 64.2334 21.824L65.5009 24.2437C65.5707 24.377 65.7087 24.4605 65.8592 24.4605H68.4033C68.5538 24.4605 68.6918 24.377 68.7616 24.2437L70.0291 21.824C70.0927 21.7025 70.0905 21.557 70.0231 21.4376L68.7641 19.2058C68.6924 19.0786 68.5578 19 68.4118 19Z" fill="#0478E0"/>
<circle cx="67.1657" cy="21.7641" r="1.28086" fill="#52ADFF" stroke="#8BC8FF" stroke-width="0.539308"/>
<path d="M63.439 13.7791C59.1419 15.6474 58.2544 20.0847 58.2544 22.0931C61.169 11.6679 69.5578 13.312 73.0142 15.3672C71.0525 13.5922 67.6394 11.9528 63.439 13.7791Z" fill="#73BDFF"/>
<path d="M73.1538 6.25903C75.9407 6.94409 81.7948 10.0798 82.9158 17.1421" stroke="#0478E0" stroke-width="1.02758" stroke-linecap="round"/>
<circle cx="71.567" cy="5.83856" r="0.513791" fill="#0478E0"/>
<path d="M49.8681 3.90188L53.7436 5.40382C54.2203 5.58856 54.4629 6.11949 54.2907 6.60085L51.0626 15.6231C50.8857 16.1176 50.3389 16.3722 49.8465 16.1895L46.0903 14.7954C45.8384 14.7019 45.7071 14.4245 45.7945 14.1705L49.2213 4.20244C49.3126 3.93688 49.6063 3.80041 49.8681 3.90188Z" fill="#52ADFF"/>
<path d="M52.2294 4.67093L50.0663 3.85977C49.6166 3.69113 49.1172 3.93286 48.9705 4.3902L48.843 4.7877L46.998 10.6963" stroke="#0478E0" stroke-width="0.653916" stroke-linecap="round"/>
<circle cx="46.671" cy="11.6771" r="0.373666" fill="#0478E0"/>
</svg>
