<svg width="78" height="64" viewBox="0 0 78 64" fill="none" xmlns="http://www.w3.org/2000/svg">
<ellipse cx="31" cy="60.7108" rx="31" ry="3" fill="#DAEEFF"/>
<path d="M49.4328 52.4327L50.4283 53.0074C50.443 53.0159 50.4432 53.037 50.4287 53.0458L49.4085 53.6634C49.3934 53.6725 49.3743 53.6614 49.3747 53.6439L49.3994 52.4515C49.3998 52.4345 49.4181 52.4242 49.4328 52.4327Z" fill="#FF7320"/>
<path fill-rule="evenodd" clip-rule="evenodd" d="M52.056 51.3759L52.2787 50.9901L52.2785 50.99L60.741 36.3326L58.4266 34.9964L49.9641 49.6539L49.9643 49.6541L49.7417 50.0397C49.4507 50.5436 49.5254 51.1583 49.8833 51.5767L49.3444 52.5101L50.4051 53.1225L51.0316 52.0374C51.4447 51.9959 51.8326 51.7629 52.056 51.3759Z" fill="#FFD9C2"/>
<circle cx="58.7304" cy="38.2573" r="0.445397" transform="rotate(120 58.7304 38.2573)" fill="#FFA571"/>
<circle cx="58.062" cy="39.4146" r="0.445397" transform="rotate(120 58.062 39.4146)" fill="#FFA571"/>
<circle cx="57.3935" cy="40.5718" r="0.445397" transform="rotate(120 57.3935 40.5718)" fill="#FFA571"/>
<circle cx="57.7656" cy="37.7007" r="0.445397" transform="rotate(120 57.7656 37.7007)" fill="#FFA571"/>
<circle cx="57.0976" cy="38.858" r="0.445397" transform="rotate(120 57.0976 38.858)" fill="#FFA571"/>
<circle cx="56.4297" cy="40.0151" r="0.445397" transform="rotate(120 56.4297 40.0151)" fill="#FFA571"/>
<circle cx="56.5034" cy="42.1147" r="0.445397" transform="rotate(120 56.5034 42.1147)" fill="#FFA571"/>
<circle cx="55.8349" cy="43.2717" r="0.445397" transform="rotate(120 55.8349 43.2717)" fill="#FFA571"/>
<circle cx="55.539" cy="41.5578" r="0.445397" transform="rotate(120 55.539 41.5578)" fill="#FFA571"/>
<circle cx="54.8711" cy="42.7147" r="0.445397" transform="rotate(120 54.8711 42.7147)" fill="#FFA571"/>
<rect x="69.3965" y="21.7866" width="16.9251" height="3.11778" transform="rotate(120 69.3965 21.7866)" fill="#FFA571"/>
<path d="M69.8763 19.6201C70.3556 19.8969 70.5198 20.5098 70.2431 20.9891L69.742 21.857C69.7113 21.9102 69.6432 21.9285 69.5899 21.8977L66.5041 20.1161C66.4508 20.0854 66.4326 20.0173 66.4633 19.964L66.9644 19.0962C67.2411 18.6168 67.854 18.4526 68.3334 18.7294L69.8763 19.6201Z" fill="#FF8B46"/>
<path fill-rule="evenodd" clip-rule="evenodd" d="M62.9074 38.4436L61.9383 34.7096L60.469 37.2545L62.7439 38.568C62.8295 38.6174 62.9322 38.5392 62.9074 38.4436ZM55.5164 34.1761L59.2347 33.1483L59.2345 33.1487L61.9382 34.7097L60.4689 37.2547L57.7648 35.6935L57.765 35.6931L55.4904 34.3798C55.4048 34.3304 55.4212 34.2024 55.5164 34.1761Z" fill="#FF7320"/>
<circle cx="69.4591" cy="18.6722" r="0.946468" transform="rotate(120 69.4591 18.6722)" fill="#FF7320"/>
<path d="M69.3624 18.6167C71.3092 15.0788 70.1648 7.30008 63.3603 5.51331C52.3618 2.62524 45.7583 14.2108 50 22.5728C54.5462 31.535 51.5199 36.3699 41.2583 34.7108C36.0144 33.7072 34.6152 31.18 35.5 35.2109" stroke="#FF7320" stroke-width="0.668095"/>
<rect x="70.4624" y="18.0262" width="1.4335" height="0.334047" rx="0.167024" transform="rotate(-166.184 70.4624 18.0262)" fill="#FF7320"/>
<rect x="70.5557" y="17.5765" width="1.44115" height="0.334047" rx="0.167024" transform="rotate(-166.184 70.5557 17.5765)" fill="#FF7320"/>
<rect x="9.05475" y="29.4559" width="36.6228" height="30.3551" rx="3.19528" fill="#8BC8FF" stroke="#52ADFF" stroke-width="1.47474"/>
<path d="M25.3037 48.4504L25.3037 49.5195C25.3037 49.6805 25.1732 49.8111 25.0121 49.8111C24.8511 49.8111 24.7206 49.6805 24.7206 49.5195L24.7206 48.4504L25.3037 48.4504Z" fill="#DCEFFF"/>
<path d="M26.8594 48.4504L26.8594 49.5195C26.8594 49.6805 26.7288 49.8111 26.5678 49.8111C26.4068 49.8111 26.2762 49.6805 26.2762 49.5195L26.2762 48.4504L26.8594 48.4504Z" fill="#DCEFFF"/>
<path d="M28.4146 48.4504L28.4146 49.5195C28.4146 49.6805 28.284 49.8111 28.123 49.8111C27.962 49.8111 27.8314 49.6805 27.8314 49.5195L27.8314 48.4504L28.4146 48.4504Z" fill="#DCEFFF"/>
<path d="M29.9702 48.4504L29.9702 49.5195C29.9702 49.6805 29.8397 49.8111 29.6786 49.8111C29.5176 49.8111 29.3871 49.6805 29.3871 49.5195L29.3871 48.4504L29.9702 48.4504Z" fill="#DCEFFF"/>
<path d="M25.3037 42.203L25.3037 41.1339C25.3037 40.9729 25.1732 40.8424 25.0121 40.8424C24.8511 40.8424 24.7206 40.9729 24.7206 41.1339L24.7206 42.203L25.3037 42.203Z" fill="#DCEFFF"/>
<path d="M26.8594 42.203L26.8594 41.1339C26.8594 40.9729 26.7288 40.8424 26.5678 40.8424C26.4068 40.8424 26.2762 40.9729 26.2762 41.1339L26.2762 42.203L26.8594 42.203Z" fill="#DCEFFF"/>
<path d="M28.4146 42.203L28.4146 41.1339C28.4146 40.9729 28.284 40.8424 28.123 40.8424C27.962 40.8424 27.8314 40.9729 27.8314 41.1339L27.8314 42.203L28.4146 42.203Z" fill="#DCEFFF"/>
<path d="M29.9702 42.203L29.9702 41.1339C29.9702 40.9729 29.8397 40.8424 29.6786 40.8424C29.5176 40.8424 29.3871 40.9729 29.3871 41.1339L29.3871 42.203L29.9702 42.203Z" fill="#DCEFFF"/>
<path d="M30.394 43.3051H31.4631C31.6241 43.3051 31.7547 43.1745 31.7547 43.0135C31.7547 42.8525 31.6241 42.7219 31.4631 42.7219H30.394V43.3051Z" fill="#DCEFFF"/>
<path d="M30.394 44.8601H31.4631C31.6241 44.8601 31.7547 44.7296 31.7547 44.5685C31.7547 44.4075 31.6241 44.277 31.4631 44.277H30.394V44.8601Z" fill="#DCEFFF"/>
<path d="M30.394 46.4152H31.4631C31.6241 46.4152 31.7547 46.2846 31.7547 46.1236C31.7547 45.9626 31.6241 45.832 31.4631 45.832H30.394V46.4152Z" fill="#DCEFFF"/>
<path d="M30.394 47.9701H31.4631C31.6241 47.9701 31.7547 47.8396 31.7547 47.6785C31.7547 47.5175 31.6241 47.387 31.4631 47.387H30.394V47.9701Z" fill="#DCEFFF"/>
<path d="M24.1089 43.3051H23.0398C22.8788 43.3051 22.7482 43.1745 22.7482 43.0135C22.7482 42.8525 22.8788 42.7219 23.0398 42.7219H24.1089V43.3051Z" fill="#DCEFFF"/>
<path d="M24.1089 44.8602H23.0398C22.8788 44.8602 22.7482 44.7297 22.7482 44.5687C22.7482 44.4076 22.8788 44.2771 23.0398 44.2771H24.1089V44.8602Z" fill="#DCEFFF"/>
<path d="M24.1089 46.4152H23.0398C22.8788 46.4152 22.7482 46.2846 22.7482 46.1236C22.7482 45.9626 22.8788 45.832 23.0398 45.832H24.1089V46.4152Z" fill="#DCEFFF"/>
<path d="M24.1089 47.9701H23.0398C22.8788 47.9701 22.7482 47.8396 22.7482 47.6785C22.7482 47.5175 22.8788 47.387 23.0398 47.387H24.1089V47.9701Z" fill="#DCEFFF"/>
<rect x="24.2121" y="42.2133" width="6.16806" height="6.16806" rx="0.973861" fill="#52ADFF" stroke="#0478E0" stroke-width="0.440794"/>
<path d="M30.1519 46.2561L30.1519 44.2637L29.8185 44.2637C29.6806 44.2637 29.5687 44.3756 29.5687 44.5135L29.5687 46.0063C29.5687 46.1443 29.6806 46.2561 29.8185 46.2561L30.1519 46.2561Z" fill="#DCEFFF"/>
<path d="M34.8906 48.298H38.9528C39.4514 48.298 39.8555 48.7021 39.8555 49.2007V54.5041" stroke="#0478E0" stroke-width="0.789868"/>
<circle cx="34.8916" cy="48.298" r="1.24122" fill="#0478E0"/>
<circle cx="39.8561" cy="54.5042" r="1.29764" fill="#DCEFFF" stroke="#0478E0" stroke-width="0.564191"/>
<path d="M34.8906 45.3644H39.4042" stroke="#0478E0" stroke-width="0.789868"/>
<circle cx="34.8916" cy="45.3644" r="1.24122" fill="#0478E0"/>
<circle cx="40.4201" cy="45.3643" r="1.29764" fill="#DCEFFF" stroke="#0478E0" stroke-width="0.564191"/>
<path d="M35.5684 42.3178H38.4457C38.9443 42.3178 39.3484 41.9136 39.3484 41.4151V34.0242" stroke="#0478E0" stroke-width="0.789868"/>
<circle cx="35.0039" cy="42.2047" r="1.24122" fill="#0478E0"/>
<circle cx="39.4049" cy="33.2906" r="1.29764" fill="#DCEFFF" stroke="#0478E0" stroke-width="0.564191"/>
<path d="M14.9189 42.1483H19.8838" stroke="#0478E0" stroke-width="0.789868"/>
<circle cx="19.6582" cy="42.2047" r="1.24122" fill="#0478E0"/>
<circle cx="14.6925" cy="42.2047" r="1.29764" fill="#DCEFFF" stroke="#0478E0" stroke-width="0.564191"/>
<path d="M16.4419 45.3079H19.9399" stroke="#0478E0" stroke-width="0.789868"/>
<circle cx="19.6582" cy="45.2514" r="1.24122" fill="#0478E0"/>
<circle cx="16.611" cy="45.3643" r="1.29764" fill="#DCEFFF" stroke="#0478E0" stroke-width="0.564191"/>
<circle cx="19.6582" cy="48.298" r="1.24122" fill="#0478E0"/>
<path d="M14.6924 54.3912V49.2007C14.6924 48.7021 15.0965 48.298 15.5951 48.298H19.4316" stroke="#0478E0" stroke-width="0.789868"/>
<circle cx="14.5797" cy="54.5042" r="1.29764" fill="#DCEFFF" stroke="#0478E0" stroke-width="0.564191"/>
<path d="M20.8984 54.7298V52.6987C20.8984 52.2002 21.3026 51.796 21.8011 51.796H26.3147" stroke="#0478E0" stroke-width="0.789868"/>
<circle cx="26.3159" cy="51.7959" r="1.24122" fill="#0478E0"/>
<circle cx="20.8986" cy="55.0683" r="1.29764" fill="#DCEFFF" stroke="#0478E0" stroke-width="0.564191"/>
<path d="M33.424 54.7298V52.6987C33.424 52.2002 33.0198 51.796 32.5213 51.796H29.9824" stroke="#0478E0" stroke-width="0.789868"/>
<circle cx="33.5363" cy="55.0683" r="1.29764" fill="#DCEFFF" stroke="#0478E0" stroke-width="0.564191"/>
<circle cx="29.4751" cy="51.7959" r="1.24122" fill="#0478E0"/>
<path d="M16.8359 34.0242L22.4067 38.1887C22.5628 38.3054 22.7524 38.3684 22.9472 38.3684H26.4272" stroke="#0478E0" stroke-width="0.789868"/>
<circle cx="16.4987" cy="33.8546" r="1.29764" fill="#DCEFFF" stroke="#0478E0" stroke-width="0.564191"/>
<circle cx="25.9766" cy="38.3684" r="1.24122" fill="#0478E0"/>
<path d="M29.0226 38.6503V35.4344C29.0226 34.9359 28.6184 34.5317 28.1199 34.5317H24.4526" stroke="#0478E0" stroke-width="0.789868"/>
<circle cx="23.7199" cy="34.5316" r="1.29764" fill="#DCEFFF" stroke="#0478E0" stroke-width="0.564191"/>
<circle cx="29.023" cy="38.3684" r="1.24122" fill="#0478E0"/>
<rect x="17.7842" y="31.6681" width="19.356" height="1.72053" rx="0.860267" fill="white"/>
<rect x="38.2876" y="31.6681" width="3.44107" height="1.72053" rx="0.860267" fill="white"/>
<path d="M8.19434 46.907V56.7386C8.19434 58.7069 9.78998 60.3026 11.7583 60.3026H18.8248" stroke="#0478E0" stroke-width="0.860267" stroke-linecap="round"/>
<circle cx="20.2991" cy="60.2413" r="0.553029" fill="#0478E0"/>
<circle cx="8.25664" cy="45.4937" r="0.553029" fill="#0478E0"/>
<path d="M31.8516 28.8414H43.5881C45.0813 28.8414 46.2918 30.0519 46.2918 31.5451V41.8068" stroke="#0478E0" stroke-width="0.860267" stroke-linecap="round"/>
<circle cx="46.3538" cy="43.1586" r="0.553029" fill="#0478E0"/>
<circle cx="30.5008" cy="28.78" r="0.553029" fill="#0478E0"/>
</svg>
