<svg width="79" height="69" viewBox="0 0 79 69" fill="none" xmlns="http://www.w3.org/2000/svg">
<path d="M47.1155 59.2L48.2395 59.849C48.2561 59.8585 48.2563 59.8824 48.24 59.8923L47.088 60.5896C47.0711 60.5999 47.0495 60.5874 47.0499 60.5676L47.0778 59.2213C47.0782 59.2022 47.099 59.1905 47.1155 59.2Z" fill="#FF7320"/>
<path fill-rule="evenodd" clip-rule="evenodd" d="M50.0772 58.0069L50.3287 57.5714L50.3284 57.5712L59.8831 41.022L57.27 39.5133L47.7152 56.0627L47.7155 56.0629L47.4642 56.4982C47.1357 57.0672 47.2199 57.7612 47.6239 58.2335L47.0154 59.2875L48.2131 59.979L48.9204 58.7539C49.3869 58.707 49.8249 58.444 50.0772 58.0069Z" fill="#FFD9C2"/>
<circle cx="57.6133" cy="43.1949" r="0.502884" transform="rotate(120 57.6133 43.1949)" fill="#FFA571"/>
<circle cx="56.8585" cy="44.5017" r="0.502884" transform="rotate(120 56.8585 44.5017)" fill="#FFA571"/>
<circle cx="56.1041" cy="45.8082" r="0.502884" transform="rotate(120 56.1041 45.8082)" fill="#FFA571"/>
<circle cx="56.524" cy="42.5666" r="0.502884" transform="rotate(120 56.524 42.5666)" fill="#FFA571"/>
<circle cx="55.7696" cy="43.8732" r="0.502884" transform="rotate(120 55.7696 43.8732)" fill="#FFA571"/>
<circle cx="55.0157" cy="45.1797" r="0.502884" transform="rotate(120 55.0157 45.1797)" fill="#FFA571"/>
<circle cx="55.0987" cy="47.5504" r="0.502884" transform="rotate(120 55.0987 47.5504)" fill="#FFA571"/>
<circle cx="54.3438" cy="48.8567" r="0.502884" transform="rotate(120 54.3438 48.8567)" fill="#FFA571"/>
<circle cx="54.0098" cy="46.9216" r="0.502884" transform="rotate(120 54.0098 46.9216)" fill="#FFA571"/>
<circle cx="53.2554" cy="48.2278" r="0.502884" transform="rotate(120 53.2554 48.2278)" fill="#FFA571"/>
<rect x="69.6558" y="24.5986" width="19.1096" height="3.52019" transform="rotate(120 69.6558 24.5986)" fill="#FFA571"/>
<path d="M70.1973 22.1525C70.7385 22.465 70.924 23.157 70.6115 23.6982L70.0458 24.6781C70.011 24.7382 69.9342 24.7588 69.874 24.7241L66.3899 22.7125C66.3298 22.6778 66.3092 22.6009 66.3439 22.5408L66.9097 21.5609C67.2221 21.0197 67.9141 20.8343 68.4553 21.1468L70.1973 22.1525Z" fill="#FF8B46"/>
<path fill-rule="evenodd" clip-rule="evenodd" d="M62.3289 43.4054L61.2347 39.1894L59.5757 42.0629L62.1443 43.5459C62.2409 43.6017 62.3569 43.5134 62.3289 43.4054ZM58.1815 37.4269L58.1824 37.4267L58.1821 37.4272L61.2345 39.1896L59.5756 42.063L56.5225 40.3003L56.5228 40.2998L53.9548 38.8171C53.8582 38.7614 53.8766 38.6168 53.9841 38.5871L58.1815 37.4269L58.1815 37.4269L58.1815 37.4269Z" fill="#FF7320"/>
<circle cx="69.7268" cy="21.0822" r="1.06863" transform="rotate(120 69.7268 21.0822)" fill="#FF7320"/>
<path d="M69.6172 21.0196C71.8154 17.0251 70.5232 8.24233 62.8405 6.22495C50.4224 2.96411 42.9666 16.045 47.7558 25.4863C52.8888 35.6053 49.4719 41.0642 37.8857 39.191C31.965 38.0578 30.3852 35.2044 31.3843 39.7556" stroke="#FF7320" stroke-width="0.754325"/>
<rect x="70.8594" y="20.3529" width="1.61852" height="0.377163" rx="0.188581" transform="rotate(-166.184 70.8594 20.3529)" fill="#FF7320"/>
<rect x="70.9648" y="19.8452" width="1.62715" height="0.377163" rx="0.188581" transform="rotate(-166.184 70.9648 19.8452)" fill="#FF7320"/>
<rect x="1.5259" y="33.2577" width="41.3497" height="34.2731" rx="3.60769" fill="#8BC8FF" stroke="#52ADFF" stroke-width="1.66509"/>
<path d="M19.8716 54.7039L19.8716 55.9109C19.8716 56.0927 19.7242 56.2401 19.5424 56.2401C19.3606 56.2401 19.2132 56.0927 19.2132 55.9109L19.2132 54.7039L19.8716 54.7039Z" fill="#DCEFFF"/>
<path d="M21.6284 54.7039L21.6284 55.9109C21.6284 56.0927 21.481 56.2401 21.2992 56.2401C21.1174 56.2401 20.97 56.0927 20.97 55.9109L20.97 54.7039L21.6284 54.7039Z" fill="#DCEFFF"/>
<path d="M23.3843 54.7039L23.3843 55.9109C23.3843 56.0927 23.2369 56.2401 23.0551 56.2401C22.8733 56.2401 22.7259 56.0927 22.7259 55.9109L22.7259 54.7039L23.3843 54.7039Z" fill="#DCEFFF"/>
<path d="M25.1406 54.7039L25.1406 55.9109C25.1406 56.0927 24.9932 56.2401 24.8114 56.2401C24.6296 56.2401 24.4822 56.0927 24.4822 55.9109L24.4822 54.7039L25.1406 54.7039Z" fill="#DCEFFF"/>
<path d="M19.8716 47.6501L19.8716 46.4431C19.8716 46.2613 19.7242 46.1139 19.5424 46.1139C19.3606 46.1139 19.2132 46.2613 19.2132 46.4431L19.2132 47.6501L19.8716 47.6501Z" fill="#DCEFFF"/>
<path d="M21.6284 47.6501L21.6284 46.4431C21.6284 46.2613 21.481 46.1139 21.2992 46.1139C21.1174 46.1139 20.97 46.2613 20.97 46.4431L20.97 47.6501L21.6284 47.6501Z" fill="#DCEFFF"/>
<path d="M23.3843 47.6501L23.3843 46.4431C23.3843 46.2613 23.2369 46.1139 23.0551 46.1139C22.8733 46.1139 22.7259 46.2613 22.7259 46.4431L22.7259 47.6501L23.3843 47.6501Z" fill="#DCEFFF"/>
<path d="M25.1406 47.6501L25.1406 46.4431C25.1406 46.2613 24.9932 46.1139 24.8114 46.1139C24.6296 46.1139 24.4822 46.2613 24.4822 46.4431L24.4822 47.6501L25.1406 47.6501Z" fill="#DCEFFF"/>
<path d="M25.6191 48.8944H26.8262C27.008 48.8944 27.1554 48.747 27.1554 48.5652C27.1554 48.3834 27.008 48.236 26.8262 48.236H25.6191V48.8944Z" fill="#DCEFFF"/>
<path d="M25.6191 50.6501H26.8262C27.008 50.6501 27.1554 50.5028 27.1554 50.3209C27.1554 50.1391 27.008 49.9917 26.8262 49.9917H25.6191V50.6501Z" fill="#DCEFFF"/>
<path d="M25.6191 52.4059H26.8262C27.008 52.4059 27.1554 52.2585 27.1554 52.0767C27.1554 51.8949 27.008 51.7475 26.8262 51.7475H25.6191V52.4059Z" fill="#DCEFFF"/>
<path d="M25.6191 54.1615H26.8262C27.008 54.1615 27.1554 54.0141 27.1554 53.8323C27.1554 53.6505 27.008 53.5031 26.8262 53.5031H25.6191V54.1615Z" fill="#DCEFFF"/>
<path d="M18.5229 48.8944H17.3159C17.1341 48.8944 16.9867 48.747 16.9867 48.5652C16.9867 48.3834 17.1341 48.236 17.3159 48.236H18.5229V48.8944Z" fill="#DCEFFF"/>
<path d="M18.5229 50.6503H17.3159C17.1341 50.6503 16.9867 50.5029 16.9867 50.3211C16.9867 50.1393 17.1341 49.9919 17.3159 49.9919H18.5229V50.6503Z" fill="#DCEFFF"/>
<path d="M18.5229 52.406H17.3159C17.1341 52.406 16.9867 52.2586 16.9867 52.0768C16.9867 51.895 17.1341 51.7476 17.3159 51.7476H18.5229V52.406Z" fill="#DCEFFF"/>
<path d="M18.5229 54.1616H17.3159C17.1341 54.1616 16.9867 54.0142 16.9867 53.8324C16.9867 53.6506 17.1341 53.5032 17.3159 53.5032H18.5229V54.1616Z" fill="#DCEFFF"/>
<rect x="18.6395" y="47.6618" width="6.96417" height="6.96417" rx="1.09956" fill="#52ADFF" stroke="#0478E0" stroke-width="0.497687"/>
<path d="M25.3457 52.2263L25.3457 49.9768L24.9693 49.9768C24.8136 49.9768 24.6873 50.1031 24.6873 50.2588L24.6873 51.9443C24.6873 52.1001 24.8136 52.2263 24.9693 52.2263L25.3457 52.2263Z" fill="#DCEFFF"/>
<path d="M30.6963 54.5317H35.2828C35.8457 54.5317 36.302 54.9881 36.302 55.551V61.5389" stroke="#0478E0" stroke-width="0.891816"/>
<circle cx="30.6973" cy="54.5318" r="1.40143" fill="#0478E0"/>
<circle cx="36.3027" cy="61.539" r="1.46513" fill="#DCEFFF" stroke="#0478E0" stroke-width="0.637011"/>
<path d="M30.6963 51.2196H35.7924" stroke="#0478E0" stroke-width="0.891816"/>
<circle cx="30.6973" cy="51.2195" r="1.40143" fill="#0478E0"/>
<circle cx="36.9394" cy="51.2194" r="1.46513" fill="#DCEFFF" stroke="#0478E0" stroke-width="0.637011"/>
<path d="M31.4614 47.7797H34.7102C35.2731 47.7797 35.7294 47.3234 35.7294 46.7605V38.4156" stroke="#0478E0" stroke-width="0.891816"/>
<circle cx="30.8243" cy="47.652" r="1.40143" fill="#0478E0"/>
<circle cx="35.7934" cy="37.5873" r="1.46513" fill="#DCEFFF" stroke="#0478E0" stroke-width="0.637011"/>
<path d="M8.14697 47.5884H13.7527" stroke="#0478E0" stroke-width="0.891816"/>
<circle cx="13.4976" cy="47.652" r="1.40143" fill="#0478E0"/>
<circle cx="7.89105" cy="47.652" r="1.46513" fill="#DCEFFF" stroke="#0478E0" stroke-width="0.637011"/>
<path d="M9.86621 51.1558H13.8157" stroke="#0478E0" stroke-width="0.891816"/>
<circle cx="13.4976" cy="51.092" r="1.40143" fill="#0478E0"/>
<circle cx="10.0571" cy="51.2194" r="1.46513" fill="#DCEFFF" stroke="#0478E0" stroke-width="0.637011"/>
<circle cx="13.4976" cy="54.5318" r="1.40143" fill="#0478E0"/>
<path d="M7.89111 61.4115V55.551C7.89111 54.9881 8.34743 54.5317 8.91033 54.5317H13.242" stroke="#0478E0" stroke-width="0.891816"/>
<circle cx="7.76361" cy="61.539" r="1.46513" fill="#DCEFFF" stroke="#0478E0" stroke-width="0.637011"/>
<path d="M14.8979 61.7938V59.5005C14.8979 58.9376 15.3543 58.4813 15.9172 58.4813H21.0133" stroke="#0478E0" stroke-width="0.891816"/>
<circle cx="21.0147" cy="58.4811" r="1.40143" fill="#0478E0"/>
<circle cx="14.8984" cy="62.1758" r="1.46513" fill="#DCEFFF" stroke="#0478E0" stroke-width="0.637011"/>
<path d="M29.0401 61.7938V59.5005C29.0401 58.9376 28.5837 58.4813 28.0208 58.4813H25.1543" stroke="#0478E0" stroke-width="0.891816"/>
<circle cx="29.1669" cy="62.1758" r="1.46513" fill="#DCEFFF" stroke="#0478E0" stroke-width="0.637011"/>
<circle cx="24.5816" cy="58.4811" r="1.40143" fill="#0478E0"/>
<path d="M10.311 38.4156L16.6009 43.1177C16.777 43.2495 16.9911 43.3206 17.2111 43.3206H21.1402" stroke="#0478E0" stroke-width="0.891816"/>
<circle cx="9.9306" cy="38.2243" r="1.46513" fill="#DCEFFF" stroke="#0478E0" stroke-width="0.637011"/>
<circle cx="20.6314" cy="43.3205" r="1.40143" fill="#0478E0"/>
<path d="M24.0709 43.639V40.008C24.0709 39.4451 23.6146 38.9888 23.0517 38.9888H18.9111" stroke="#0478E0" stroke-width="0.891816"/>
<circle cx="18.0834" cy="38.9886" r="1.46513" fill="#DCEFFF" stroke="#0478E0" stroke-width="0.637011"/>
<circle cx="24.0713" cy="43.3205" r="1.40143" fill="#0478E0"/>
<rect x="11.3818" y="35.7555" width="21.8543" height="1.9426" rx="0.971301" fill="white"/>
<rect x="34.5317" y="35.7555" width="3.88521" height="1.9426" rx="0.971301" fill="white"/>
<path d="M0.554199 52.9613V64.0619C0.554199 66.2843 2.35579 68.0859 4.57816 68.0859H12.5567" stroke="#0478E0" stroke-width="0.971301" stroke-linecap="round"/>
<circle cx="14.2216" cy="68.0166" r="0.624408" fill="#0478E0"/>
<circle cx="0.624408" cy="51.3656" r="0.624408" fill="#0478E0"/>
<path d="M27.2646 32.5639H40.516C42.2019 32.5639 43.5686 33.9306 43.5686 35.6166V47.2028" stroke="#0478E0" stroke-width="0.971301" stroke-linecap="round"/>
<circle cx="43.6391" cy="48.7291" r="0.624408" fill="#0478E0"/>
<circle cx="25.7396" cy="32.4946" r="0.624408" fill="#0478E0"/>
</svg>
