<svg width="70" height="60" viewBox="0 0 70 60" fill="none" xmlns="http://www.w3.org/2000/svg">
<rect x="16.3022" y="5.62811" width="33.2798" height="51.388" rx="2.93645" fill="#52ADFF"/>
<rect x="19.2388" y="7.58563" width="27.4069" height="42.3195" rx="1.41065" fill="#DCEFFF"/>
<path fill-rule="evenodd" clip-rule="evenodd" d="M36.3686 3.42586C36.3686 3.85693 36.289 4.26941 36.1436 4.64939H40.0392C40.3095 4.64939 40.5286 4.8685 40.5286 5.1388V8.80937C40.5286 9.07966 40.3095 9.29877 40.0392 9.29877H25.8463C25.5761 9.29877 25.3569 9.07966 25.3569 8.80937V5.1388C25.3569 4.8685 25.576 4.64939 25.8463 4.64939H29.7418C29.5965 4.26941 29.5168 3.85693 29.5168 3.42586C29.5168 1.53381 31.0507 0 32.9427 0C34.8348 0 36.3686 1.53381 36.3686 3.42586ZM32.9416 5.38342C34.0227 5.38342 34.8992 4.50696 34.8992 3.42578C34.8992 2.34461 34.0227 1.46815 32.9416 1.46815C31.8604 1.46815 30.9839 2.34461 30.9839 3.42578C30.9839 4.50696 31.8604 5.38342 32.9416 5.38342Z" fill="#0478E0"/>
<rect x="35.144" y="11.0115" width="9.05407" height="8.56466" fill="#8BC8FF"/>
<rect x="21.1963" y="35.4821" width="9.05407" height="8.56466" fill="#8BC8FF"/>
<rect x="21.1963" y="11.0115" width="11.0117" height="1.46823" fill="#C3E3FF"/>
<rect x="33.187" y="35.4821" width="11.0117" height="1.46823" fill="#C3E3FF"/>
<rect x="21.1963" y="13.7033" width="11.0117" height="1.46823" fill="#C3E3FF"/>
<rect x="33.187" y="38.1737" width="11.0117" height="1.46823" fill="#C3E3FF"/>
<rect x="21.1963" y="16.395" width="11.0117" height="3.18116" fill="#C3E3FF"/>
<rect x="33.187" y="40.8655" width="11.0117" height="3.18116" fill="#C3E3FF"/>
<rect x="21.1963" y="20.7998" width="23.0022" height="2.20234" fill="#C3E3FF"/>
<rect x="21.1963" y="24.2256" width="23.0022" height="2.20234" fill="#C3E3FF"/>
<rect x="21.1963" y="27.6516" width="23.0022" height="2.20234" fill="#C3E3FF"/>
<rect x="21.1963" y="31.0773" width="23.0022" height="2.20234" fill="#C3E3FF"/>
<rect x="21.1963" y="45.7598" width="23.0022" height="2.20234" fill="#C3E3FF"/>
<rect x="52.4395" y="31.6393" width="4.45195" height="1.90714" rx="0.191552" transform="rotate(-62.5377 52.4395 31.6393)" fill="#C3E3FF"/>
<rect x="59.8057" y="17.3269" width="6.28084" height="1.79423" rx="0.583445" transform="rotate(-62.5377 59.8057 17.3269)" fill="#C3E3FF"/>
<rect x="53.1206" y="29.0955" width="18.7407" height="2.9413" rx="0.443674" transform="rotate(-62.5377 53.1206 29.0955)" fill="#52ADFF"/>
<path d="M51.0152 36.4425L51.1353 35.9623C51.1632 35.8506 51.2874 35.7934 51.3903 35.8449C51.5002 35.8999 51.524 36.0463 51.4371 36.1332L51.0871 36.4832C51.0564 36.5139 51.0047 36.4846 51.0152 36.4425Z" fill="#C3E3FF"/>
<path d="M54.2609 32.1562L52.7727 31.3535C52.6043 31.2626 52.3932 31.308 52.291 31.4698C51.4419 32.8142 51.1883 34.7749 51.1093 35.7049C51.0983 35.8343 51.1593 35.9581 51.2668 36.031C51.3952 36.1179 51.5649 36.1144 51.687 36.0189C53.3963 34.6814 54.1189 33.3329 54.4316 32.6575C54.5171 32.4727 54.44 32.2529 54.2609 32.1562Z" fill="#52ADFF"/>
<path d="M56.6972 22.9339C56.4191 22.8663 56.1619 22.7057 55.9664 22.5461C55.7669 22.3833 55.6966 22.1195 55.7836 21.8771C56.3085 20.4149 58.5663 16.5931 59.9697 14.3139C60.1883 13.9589 60.469 13.5904 60.8851 13.6154C61.1603 13.632 61.4644 13.7251 61.7109 13.8256C61.848 13.8815 61.8827 14.0784 61.7979 14.1998C60.987 15.3596 58.4646 20.092 57.0886 22.7289C57.0119 22.8759 56.8583 22.9731 56.6972 22.9339Z" fill="#0478E0"/>
<path d="M23.1976 59.1036C24.0919 59.1036 24.8169 58.3786 24.8169 57.4843L24.8169 40.5972L0.296003 40.5972L0.296003 57.4843C0.296003 58.3786 1.02099 59.1036 1.91531 59.1036L23.1976 59.1036Z" fill="#FFA571"/>
<path d="M0.295898 35.9708C0.295898 35.0765 1.02089 34.3515 1.9152 34.3515H23.1975C24.0918 34.3515 24.8168 35.0765 24.8168 35.9708V40.5974H0.295898V35.9708Z" fill="#FF8B46"/>
<path d="M1.91504 35.9707C1.91504 35.5874 2.22575 35.2767 2.60903 35.2767H22.7347C23.1179 35.2767 23.4287 35.5874 23.4287 35.9707V38.978C23.4287 39.3613 23.1179 39.672 22.7347 39.672H2.60903C2.22575 39.672 1.91504 39.3613 1.91504 38.978V35.9707Z" fill="#FFD9C2"/>
<rect width="3.46994" height="3.46994" rx="0.693987" transform="matrix(-4.37114e-08 -1 -1 4.37114e-08 5.38525 45.2238)" fill="#FFD9C2"/>
<rect width="3.46994" height="3.46994" rx="0.693987" transform="matrix(-4.37114e-08 -1 -1 4.37114e-08 9.78027 45.2238)" fill="#FF7320"/>
<rect width="3.46994" height="3.46994" rx="0.693987" transform="matrix(-4.37114e-08 -1 -1 4.37114e-08 14.1753 45.2238)" fill="#FF7320"/>
<rect width="3.46994" height="3.46994" rx="0.693987" transform="matrix(-4.37114e-08 -1 -1 4.37114e-08 18.5708 45.2238)" fill="#FF7320"/>
<rect width="3.46994" height="3.46994" rx="0.693987" transform="matrix(-4.37114e-08 -1 -1 4.37114e-08 22.9658 45.2238)" fill="#FF7320"/>
<rect width="3.46994" height="3.46994" rx="0.693987" transform="matrix(-4.37114e-08 -1 -1 4.37114e-08 5.38525 49.3878)" fill="#FF7320"/>
<rect width="3.46994" height="3.46994" rx="0.693987" transform="matrix(-4.37114e-08 -1 -1 4.37114e-08 9.78027 49.3878)" fill="#FF7320"/>
<rect width="3.46994" height="3.46994" rx="0.693987" transform="matrix(-4.37114e-08 -1 -1 4.37114e-08 14.1753 49.3878)" fill="#FF7320"/>
<rect width="3.46994" height="3.46994" rx="0.693987" transform="matrix(-4.37114e-08 -1 -1 4.37114e-08 18.5708 49.3878)" fill="#FF7320"/>
<rect width="3.46994" height="3.46994" rx="0.693987" transform="matrix(-4.37114e-08 -1 -1 4.37114e-08 22.9658 49.3878)" fill="#FFD9C2"/>
<rect width="3.46994" height="3.46994" rx="0.693987" transform="matrix(-4.37114e-08 -1 -1 4.37114e-08 5.38525 53.5516)" fill="#FFD9C2"/>
<rect width="3.46994" height="3.46994" rx="0.693987" transform="matrix(-4.37114e-08 -1 -1 4.37114e-08 9.78027 53.5516)" fill="#FF7320"/>
<rect width="3.46994" height="3.46994" rx="0.693987" transform="matrix(-4.37114e-08 -1 -1 4.37114e-08 14.1753 53.5516)" fill="#FF7320"/>
<rect width="3.46994" height="3.46994" rx="0.693987" transform="matrix(-4.37114e-08 -1 -1 4.37114e-08 18.5708 53.5516)" fill="#FF7320"/>
<rect width="3.46994" height="3.46994" rx="0.693987" transform="matrix(-4.37114e-08 -1 -1 4.37114e-08 5.38525 57.7157)" fill="#FFD9C2"/>
<rect width="3.46994" height="3.46994" rx="0.693987" transform="matrix(-4.37114e-08 -1 -1 4.37114e-08 9.78027 57.7157)" fill="#FF7320"/>
<rect width="3.46994" height="7.86519" rx="0.693987" transform="matrix(-4.37114e-08 -1 -1 4.37114e-08 18.5708 57.7157)" fill="#FFD9C2"/>
<rect width="7.63386" height="3.46994" rx="0.693987" transform="matrix(-4.37114e-08 -1 -1 4.37114e-08 22.9658 57.7157)" fill="#FFD9C2"/>
<rect x="18.4897" y="36.5348" width="3.63872" height="2.18323" rx="0.727744" fill="#FFA571"/>
<rect x="15.5781" y="36.5348" width="2.18323" height="2.18323" rx="0.727744" fill="#FFA571"/>
</svg>
