<svg width="998" height="818" viewBox="0 0 998 818" fill="none" xmlns="http://www.w3.org/2000/svg">
<path d="M194.811 653.77H225.129H714.676C777.374 653.77 835.544 686.433 868.182 739.967L884.973 767.507C898.254 789.29 882.575 817.212 857.063 817.212H118.1H21.8317C10.9237 817.212 3.13786 806.522 6.21024 796.056C30.7272 712.537 107.768 653.77 194.811 653.77Z" fill="#DAEEFF"/>
<rect x="292.568" y="73.8364" width="436.579" height="674.129" rx="38.5217" fill="#52ADFF"/>
<path d="M532.5 748.5H691C712.539 748.5 730 731.039 730 709.5V652" stroke="#0478E0" stroke-width="16" stroke-linecap="round"/>
<path d="M351.5 72.0002L330 72.0002C308.461 72.0002 291 89.4611 291 111L291 343.5" stroke="#0478E0" stroke-width="16" stroke-linecap="round"/>
<circle cx="290" cy="373" r="10" fill="#0478E0"/>
<circle cx="386" cy="74" r="10" fill="#0478E0"/>
<circle cx="502" cy="749" r="10" fill="#0478E0"/>
<circle cx="730" cy="615" r="10" fill="#0478E0"/>
<rect x="331.09" y="99.5098" width="359.535" height="555.165" rx="18.5055" fill="#DCEFFF"/>
<path fill-rule="evenodd" clip-rule="evenodd" d="M555.806 44.9419C555.806 50.598 554.761 56.0101 552.854 60.9956H603.959C607.505 60.9956 610.38 63.87 610.38 67.4159V115.568C610.38 119.114 607.505 121.988 603.959 121.988H417.771C414.226 121.988 411.351 119.114 411.351 115.568V67.4159C411.351 63.87 414.226 60.9956 417.771 60.9956H468.874C466.967 56.0101 465.922 50.598 465.922 44.9419C465.922 20.1212 486.043 0 510.864 0C535.685 0 555.806 20.1212 555.806 44.9419ZM510.853 70.6194C525.036 70.6194 536.534 59.1216 536.534 44.9383C536.534 30.7551 525.036 19.2572 510.853 19.2572C496.669 19.2572 485.171 30.7551 485.171 44.9383C485.171 59.1216 496.669 70.6194 510.853 70.6194Z" fill="#0478E0"/>
<rect x="539.743" y="144.457" width="118.775" height="112.355" fill="#8BC8FF"/>
<rect x="356.772" y="465.468" width="118.775" height="112.355" fill="#8BC8FF"/>
<rect x="356.772" y="144.457" width="144.456" height="19.2608" fill="#C3E3FF"/>
<rect x="514.069" y="465.468" width="144.456" height="19.2608" fill="#C3E3FF"/>
<rect x="356.772" y="179.763" width="144.456" height="19.2608" fill="#C3E3FF"/>
<rect x="514.069" y="500.782" width="144.456" height="19.2608" fill="#C3E3FF"/>
<rect x="356.772" y="215.077" width="144.456" height="41.7318" fill="#C3E3FF"/>
<rect x="514.069" y="536.096" width="144.456" height="41.7318" fill="#C3E3FF"/>
<rect x="356.772" y="272.864" width="301.753" height="28.8912" fill="#C3E3FF"/>
<rect x="356.772" y="317.803" width="301.753" height="28.8912" fill="#C3E3FF"/>
<rect x="356.772" y="362.75" width="301.753" height="28.8912" fill="#C3E3FF"/>
<rect x="356.772" y="407.688" width="301.753" height="28.8912" fill="#C3E3FF"/>
<rect x="356.772" y="600.299" width="301.753" height="28.8912" fill="#C3E3FF"/>
<rect x="766.65" y="409.344" width="58.4026" height="25.0187" rx="2.51285" transform="rotate(-62.5377 766.65 409.344)" fill="#C3E3FF"/>
<rect x="863.287" y="221.584" width="82.3947" height="23.5375" rx="7.65388" transform="rotate(-62.5377 863.287 221.584)" fill="#C3E3FF"/>
<rect x="775.588" y="375.969" width="245.848" height="38.5852" rx="5.8203" transform="rotate(-62.5377 775.588 375.969)" fill="#52ADFF"/>
<path d="M747.971 472.35L749.546 466.05C749.912 464.585 751.541 463.836 752.892 464.511C754.334 465.232 754.645 467.153 753.506 468.292L748.914 472.884C748.511 473.287 747.833 472.903 747.971 472.35Z" fill="#C3E3FF"/>
<path d="M790.545 416.119L771.023 405.589C768.813 404.397 766.045 404.992 764.704 407.115C753.564 424.75 750.238 450.472 749.202 462.672C749.057 464.37 749.857 465.994 751.268 466.949C752.951 468.09 755.178 468.044 756.779 466.791C779.204 449.246 788.682 431.555 792.784 422.694C793.906 420.271 792.896 417.387 790.545 416.119Z" fill="#52ADFF"/>
<path d="M822.508 295.144C818.859 294.257 815.486 292.15 812.921 290.056C810.304 287.921 809.382 284.46 810.523 281.281C817.409 262.098 847.028 211.963 865.438 182.063C868.305 177.406 871.988 172.572 877.447 172.901C881.057 173.118 885.047 174.339 888.28 175.657C890.079 176.391 890.534 178.974 889.421 180.566C878.783 195.781 845.693 257.863 827.643 292.455C826.636 294.384 824.622 295.659 822.508 295.144Z" fill="#0478E0"/>
<path d="M383.029 775.346C394.761 775.346 404.272 765.835 404.272 754.103L404.272 532.572L82.5966 532.572L82.5966 754.103C82.5966 765.835 92.1073 775.346 103.839 775.346L383.029 775.346Z" fill="#FFA571"/>
<path d="M149 776.5L103 776.5C90.8498 776.5 81.0001 766.65 81.0001 754.5L81.0001 584.5" stroke="#FF7320" stroke-width="12" stroke-linecap="round"/>
<circle cx="82" cy="560" r="8" fill="#FF7320"/>
<circle cx="172" cy="775" r="8" fill="#FF7320"/>
<path d="M82.5908 471.882C82.5908 460.15 92.1015 450.64 103.834 450.64H383.024C394.756 450.64 404.266 460.15 404.266 471.882V532.576H82.5908V471.882Z" fill="#FF8B46"/>
<path d="M269 448L382 448C394.15 448 404 457.85 404 470L404 485.5" stroke="#FF7320" stroke-width="12" stroke-linecap="round"/>
<circle cx="247" cy="448" r="8" fill="#FF7320"/>
<circle cx="405" cy="508" r="8" fill="#FF7320"/>
<path d="M103.835 471.882C103.835 466.854 107.911 462.778 112.939 462.778H376.956C381.984 462.778 386.06 466.854 386.06 471.882V511.333C386.06 516.361 381.984 520.437 376.956 520.437H112.939C107.911 520.437 103.835 516.361 103.835 511.333V471.882Z" fill="#FFD9C2"/>
<rect width="45.5201" height="45.5201" rx="9.10402" transform="matrix(-4.37114e-08 -1 -1 4.37114e-08 149.356 593.269)" fill="#FFD9C2"/>
<rect width="45.5201" height="45.5201" rx="9.10402" transform="matrix(-4.37114e-08 -1 -1 4.37114e-08 207.016 593.269)" fill="#FF7320"/>
<rect width="45.5201" height="45.5201" rx="9.10402" transform="matrix(-4.37114e-08 -1 -1 4.37114e-08 264.668 593.269)" fill="#FF7320"/>
<rect width="45.5201" height="45.5201" rx="9.10402" transform="matrix(-4.37114e-08 -1 -1 4.37114e-08 322.328 593.269)" fill="#FF7320"/>
<rect width="45.5201" height="45.5201" rx="9.10402" transform="matrix(-4.37114e-08 -1 -1 4.37114e-08 379.987 593.269)" fill="#FF7320"/>
<rect width="45.5201" height="45.5201" rx="9.10402" transform="matrix(-4.37114e-08 -1 -1 4.37114e-08 149.356 647.888)" fill="#FF7320"/>
<rect width="45.5201" height="45.5201" rx="9.10402" transform="matrix(-4.37114e-08 -1 -1 4.37114e-08 207.016 647.888)" fill="#FF7320"/>
<rect width="45.5201" height="45.5201" rx="9.10402" transform="matrix(-4.37114e-08 -1 -1 4.37114e-08 264.668 647.888)" fill="#FF7320"/>
<rect width="45.5201" height="45.5201" rx="9.10402" transform="matrix(-4.37114e-08 -1 -1 4.37114e-08 322.328 647.888)" fill="#FF7320"/>
<rect width="45.5201" height="45.5201" rx="9.10402" transform="matrix(-4.37114e-08 -1 -1 4.37114e-08 379.987 647.888)" fill="#FFD9C2"/>
<rect width="45.5201" height="45.5201" rx="9.10402" transform="matrix(-4.37114e-08 -1 -1 4.37114e-08 149.356 702.515)" fill="#FFD9C2"/>
<rect width="45.5201" height="45.5201" rx="9.10402" transform="matrix(-4.37114e-08 -1 -1 4.37114e-08 207.016 702.515)" fill="#FF7320"/>
<rect width="45.5201" height="45.5201" rx="9.10402" transform="matrix(-4.37114e-08 -1 -1 4.37114e-08 264.668 702.515)" fill="#FF7320"/>
<rect width="45.5201" height="45.5201" rx="9.10402" transform="matrix(-4.37114e-08 -1 -1 4.37114e-08 322.328 702.515)" fill="#FF7320"/>
<rect width="45.5201" height="45.5201" rx="9.10402" transform="matrix(-4.37114e-08 -1 -1 4.37114e-08 149.356 757.142)" fill="#FFD9C2"/>
<rect width="45.5201" height="45.5201" rx="9.10402" transform="matrix(-4.37114e-08 -1 -1 4.37114e-08 207.016 757.142)" fill="#FF7320"/>
<rect width="45.5201" height="103.179" rx="9.10402" transform="matrix(-4.37114e-08 -1 -1 4.37114e-08 322.328 757.142)" fill="#FFD9C2"/>
<rect width="100.144" height="45.5201" rx="9.10402" transform="matrix(-4.37114e-08 -1 -1 4.37114e-08 379.987 757.142)" fill="#FFD9C2"/>
<rect x="321.266" y="479.282" width="47.7343" height="28.6406" rx="9.54685" fill="#FFA571"/>
<rect x="283.071" y="479.282" width="28.6406" height="28.6406" rx="9.54685" fill="#FFA571"/>
</svg>
