<svg width="66" height="55" viewBox="0 0 66 55" fill="none" xmlns="http://www.w3.org/2000/svg">
<path d="M61.8999 25.4868H64.2876C64.5807 25.4868 64.8183 25.2492 64.8183 24.9561V16.997" stroke="#C3E3FF" stroke-width="0.928566"/>
<path d="M59.2466 20.2471H60.7058C60.8523 20.2471 60.9711 20.3659 60.9711 20.5124V30.1961C60.9711 30.3426 60.8523 30.4614 60.7058 30.4614H59.2466V20.2471Z" fill="#52ADFF"/>
<path d="M60.9717 21.839H61.5023C61.8686 21.839 62.1656 22.1359 62.1656 22.5023V28.2063C62.1656 28.5726 61.8686 28.8696 61.5023 28.8696H60.9717V21.839Z" fill="#8BC8FF"/>
<rect x="63.7568" y="9.10431" width="1.98979" height="11.2754" rx="0.994893" fill="#0478E0"/>
<path d="M38.2925 43.3496H41.9049V52.3808C41.9049 53.3783 41.0963 54.187 40.0987 54.187C39.1012 54.187 38.2925 53.3783 38.2925 52.3808V43.3496Z" fill="#52ADFF"/>
<path d="M41.9048 45.8783V52.0195C41.9048 53.2165 40.9344 54.187 39.7373 54.187V54.187" stroke="#0478E0" stroke-width="0.44072" stroke-linecap="round"/>
<path d="M20.646 6.45099H58.7022C59.0035 6.45099 59.2478 6.69527 59.2478 6.9966V43.2796C59.2478 43.5809 59.0035 43.8252 58.7022 43.8252H20.646V6.45099Z" fill="#8BC8FF"/>
<path d="M51.1548 6.45122H58.4507C58.8902 6.45122 59.2466 6.80756 59.2466 7.24713V13.6144" stroke="#0478E0" stroke-width="0.712363" stroke-linecap="round"/>
<circle cx="59.1803" cy="14.4767" r="0.331631" fill="#0478E0"/>
<circle cx="50.2926" cy="6.38479" r="0.331631" fill="#0478E0"/>
<path d="M54.1328 11.7026H25.6247V38.7103L21.9419 42.0521V10.0658H22.7603C23.363 10.0658 23.8515 9.57727 23.8515 8.9746V8.08799C23.8515 7.93732 23.9737 7.81519 24.1243 7.81519H57.0323C57.3969 7.81519 57.5795 8.25596 57.3217 8.51375L54.1328 11.7026Z" fill="#0478E0"/>
<path d="M25.6243 38.5739H54.1324V11.7027L57.9517 7.81524V40.0744H56.8604C56.2578 40.0744 55.7692 40.5629 55.7692 41.1656V42.325L22.7352 42.3915C22.3903 42.3921 22.1993 41.9919 22.4168 41.7242L22.7599 41.302L25.6243 38.5739Z" fill="#52ADFF"/>
<path d="M23.3741 10.134H21.9419V7.95159C21.9419 7.87625 22.003 7.81519 22.0783 7.81519H24.1925V9.31561C24.1925 9.76761 23.8261 10.134 23.3741 10.134Z" fill="#8BC8FF"/>
<path d="M24.2607 40.961L24.2607 42.3932L21.9419 42.3932L21.9419 40.1426L23.4423 40.1426C23.8943 40.1426 24.2607 40.509 24.2607 40.961Z" fill="#8BC8FF"/>
<path d="M55.6328 40.8245L55.6328 42.325L57.9517 42.325L57.9517 40.0061L56.4512 40.0061C55.9992 40.0061 55.6328 40.3725 55.6328 40.8245Z" fill="#8BC8FF"/>
<path d="M55.6328 9.24741L55.6328 7.81519L57.9517 7.81519L57.9517 10.0658L56.4512 10.0658C55.9992 10.0658 55.6328 9.69941 55.6328 9.24741Z" fill="#8BC8FF"/>
<circle cx="23.1001" cy="8.97471" r="0.61381" fill="#0478E0"/>
<ellipse cx="23.1001" cy="41.2336" rx="0.61381" ry="0.61381" transform="rotate(-90 23.1001 41.2336)" fill="#0478E0"/>
<ellipse cx="0.61381" cy="0.61381" rx="0.61381" ry="0.61381" transform="matrix(4.37114e-08 -1 -1 -4.37114e-08 57.4062 41.7111)" fill="#52ADFF"/>
<ellipse cx="56.7924" cy="8.97471" rx="0.61381" ry="0.61381" transform="rotate(90 56.7924 8.97471)" fill="#0478E0"/>
<ellipse cx="39.8784" cy="39.8015" rx="1.90963" ry="0.477408" fill="#8BC8FF"/>
<ellipse cx="56.1304" cy="25.1212" rx="1.99043" ry="0.481893" transform="rotate(90 56.1304 25.1212)" fill="#0478E0"/>
<rect x="38.686" y="33.7773" width="0.530609" height="6.36731" fill="#0478E0"/>
<path d="M38.6506 40.167V40.1439H39.2023L39.2003 40.2439C39.1123 40.2501 38.6379 40.1747 38.6506 40.167Z" fill="#0478E0"/>
<rect x="40.5425" y="33.9102" width="0.530609" height="6.23466" fill="#0478E0"/>
<path d="M41.1081 40.1607V40.1357H40.5564L40.5585 40.2441C40.6464 40.2507 41.1376 40.1817 41.1081 40.1607Z" fill="#0478E0"/>
<rect x="39.6152" y="33.3795" width="0.530609" height="6.76527" fill="#0478E0"/>
<path d="M40.155 40.1274H39.603V40.2778C39.7412 40.2933 40.0286 40.2842 40.155 40.2778V40.1274Z" fill="#0478E0"/>
<path d="M44.2212 19.4286H52.8881C53.1274 19.4286 53.3215 19.6226 53.3215 19.8619V24.1013C53.3215 24.3407 53.5155 24.5347 53.7548 24.5347L56.0676 24.5347" stroke="#0478E0" stroke-width="0.433346"/>
<path d="M49.0605 29.0343H52.9607C53.2798 29.0343 53.5385 28.7756 53.5385 28.4565V26.0552C53.5385 25.7361 53.7971 25.4774 54.1162 25.4774H55.9842" stroke="#0478E0" stroke-width="0.433346"/>
<rect x="28.7651" y="20.8731" width="21.8117" height="13.5782" rx="0.288897" fill="#52ADFF"/>
<rect x="34.1089" y="15.9616" width="11.1225" height="5.20015" rx="0.288897" fill="#52ADFF"/>
<path d="M51.0894 43.8593H58.3852C58.8248 43.8593 59.1811 43.5029 59.1811 43.0634V36.696" stroke="#0478E0" stroke-width="0.437753" stroke-linecap="round"/>
<circle cx="59.1803" cy="35.8338" r="0.331631" fill="#0478E0"/>
<circle cx="50.1602" cy="43.7926" r="0.331631" fill="#0478E0"/>
<path d="M32.665 34.4512H29.2806C29.0029 34.4512 28.7778 34.2261 28.7778 33.9484V30.9733" stroke="#C3E3FF" stroke-width="0.288897" stroke-linecap="round"/>
<circle cx="0.167615" cy="0.167615" r="0.167615" transform="matrix(-1 0 0 1 28.9556 30.2545)" fill="#C3E3FF"/>
<circle cx="0.188567" cy="0.188567" r="0.188567" transform="matrix(-1 0 0 1 33.439 34.2352)" fill="#C3E3FF"/>
<path d="M44.3765 15.9654H44.7536C45.0082 15.9654 45.2145 16.1718 45.2145 16.4263V18.3958" stroke="#C3E3FF" stroke-width="0.23834" stroke-linecap="round"/>
<circle cx="45.2175" cy="18.9157" r="0.158893" fill="#C3E3FF"/>
<circle cx="43.802" cy="15.9763" r="0.158893" fill="#C3E3FF"/>
<rect x="30.8232" y="21.6315" width="17.4061" height="2.23895" rx="0.0476953" stroke="#C3E3FF" stroke-width="0.0722243"/>
<path d="M33.3872 27.5177L33.3872 22.8623C33.3872 22.8008 33.4371 22.7509 33.4986 22.7509H37.4649C37.5264 22.7509 37.5762 22.7011 37.5762 22.6396V20.0064" stroke="#0478E0" stroke-width="0.433346" stroke-linecap="round"/>
<path d="M39.7432 19.7175L39.7432 27.59" stroke="#0478E0" stroke-width="0.433346" stroke-linecap="round"/>
<path d="M38.7314 19.7175L38.7314 27.59" stroke="#0478E0" stroke-width="0.433346" stroke-linecap="round"/>
<path d="M40.7544 19.7175L40.7544 27.59" stroke="#0478E0" stroke-width="0.433346" stroke-linecap="round"/>
<path d="M46.0986 27.5177V22.8623C46.0986 22.8008 46.0488 22.7509 45.9873 22.7509H42.021C41.9595 22.7509 41.9096 22.7011 41.9096 22.6396V20.0064" stroke="#0478E0" stroke-width="0.433346" stroke-linecap="round"/>
<rect x="35.1206" y="17.1172" width="9.10026" height="3.03342" rx="0.144449" fill="#8BC8FF"/>
<rect x="30.2129" y="24.4718" width="18.7729" height="7.96171" rx="0.433346" fill="#8BC8FF"/>
<path d="M35.1206 19.1397H44.2209V20.0064C44.2209 20.0862 44.1562 20.1508 44.0764 20.1508H35.2651C35.1853 20.1508 35.1206 20.0862 35.1206 20.0064V19.1397Z" fill="white"/>
<rect x="36.7095" y="18.2729" width="0.722243" height="1.15559" fill="#0478E0"/>
<rect x="38.0093" y="18.2729" width="0.722243" height="1.15559" fill="#0478E0"/>
<rect x="39.3105" y="18.2729" width="0.722243" height="1.15559" fill="#0478E0"/>
<rect x="40.6099" y="18.2729" width="0.722243" height="1.15559" fill="#0478E0"/>
<rect x="41.9097" y="18.2729" width="0.722243" height="1.15559" fill="#0478E0"/>
<rect x="33.0977" y="26.0608" width="2.02726" height="5.06815" rx="0.0921483" fill="#52ADFF"/>
<rect x="33.374" y="25.7843" width="1.47437" height="1.47437" rx="0.0921483" fill="#0478E0"/>
<circle cx="34.1122" cy="26.5214" r="0.368593" fill="#C3E3FF"/>
<path d="M34.6316 30.2723H33.5908L33.374 30.4458V30.7927H34.8484V30.4892L34.6316 30.2723Z" fill="#8BC8FF"/>
<path d="M33.6348 29.9255V30.3591C33.6348 30.407 33.6736 30.4458 33.7215 30.4458H34.502C34.5499 30.4458 34.5888 30.407 34.5888 30.3591V29.9255C34.5888 29.8776 34.5499 29.8387 34.502 29.8387H33.7215C33.6736 29.8387 33.6348 29.8776 33.6348 29.9255Z" fill="white"/>
<rect x="36.854" y="26.0608" width="2.02726" height="5.06815" rx="0.0921483" fill="#52ADFF"/>
<rect x="37.1304" y="25.7843" width="1.47437" height="1.47437" rx="0.0921483" fill="#0478E0"/>
<circle cx="37.8666" cy="26.5214" r="0.368593" fill="#C3E3FF"/>
<path d="M38.3879 30.2723H37.3472L37.1304 30.4458V30.7927H38.6047V30.4892L38.3879 30.2723Z" fill="#8BC8FF"/>
<path d="M37.3901 29.9255V30.3591C37.3901 30.407 37.429 30.4458 37.4769 30.4458H38.2574C38.3053 30.4458 38.3441 30.407 38.3441 30.3591V29.9255C38.3441 29.8776 38.3053 29.8387 38.2574 29.8387H37.4769C37.429 29.8387 37.3901 29.8776 37.3901 29.9255Z" fill="white"/>
<rect x="40.6099" y="26.0608" width="2.02726" height="5.06815" rx="0.0921483" fill="#52ADFF"/>
<rect x="40.8857" y="25.7843" width="1.47437" height="1.47437" rx="0.0921483" fill="#0478E0"/>
<circle cx="41.6225" cy="26.5214" r="0.368593" fill="#C3E3FF"/>
<path d="M42.1433 30.2723H41.1026L40.8857 30.4458V30.7927H42.3601V30.4892L42.1433 30.2723Z" fill="#8BC8FF"/>
<path d="M41.1465 29.9255V30.3591C41.1465 30.407 41.1853 30.4458 41.2332 30.4458H42.0138C42.0617 30.4458 42.1005 30.407 42.1005 30.3591V29.9255C42.1005 29.8776 42.0617 29.8387 42.0138 29.8387H41.2332C41.1853 29.8387 41.1465 29.8776 41.1465 29.9255Z" fill="white"/>
<rect x="44.3657" y="26.0608" width="2.02726" height="5.06815" rx="0.0921483" fill="#52ADFF"/>
<rect x="44.6416" y="25.7843" width="1.47437" height="1.47437" rx="0.0921483" fill="#0478E0"/>
<circle cx="45.3788" cy="26.5214" r="0.368593" fill="#C3E3FF"/>
<path d="M45.8992 30.2723H44.8584L44.6416 30.4458V30.7927H46.116V30.4892L45.8992 30.2723Z" fill="#8BC8FF"/>
<path d="M44.9019 29.9255V30.3591C44.9019 30.407 44.9407 30.4458 44.9886 30.4458H45.7691C45.817 30.4458 45.8559 30.407 45.8559 30.3591V29.9255C45.8559 29.8776 45.817 29.8387 45.7691 29.8387H44.9886C44.9407 29.8387 44.9019 29.8776 44.9019 29.9255Z" fill="white"/>
<path d="M33.8174 25.7478C33.8174 25.5966 33.94 25.474 34.0912 25.474C34.2424 25.474 34.3649 25.5966 34.3649 25.7478V25.839H33.8174V25.7478Z" fill="#0478E0"/>
<path d="M37.605 25.7478C37.605 25.5966 37.7276 25.474 37.8788 25.474C38.03 25.474 38.1525 25.5966 38.1525 25.7478V25.839H37.605V25.7478Z" fill="#0478E0"/>
<path d="M41.3467 25.7478C41.3467 25.5966 41.4693 25.474 41.6205 25.474C41.7717 25.474 41.8942 25.5966 41.8942 25.7478V25.839H41.3467V25.7478Z" fill="#0478E0"/>
<path d="M45.0879 25.7478C45.0879 25.5966 45.2105 25.474 45.3617 25.474H45.4073C45.5585 25.474 45.6811 25.5966 45.6811 25.7478V25.839H45.0879V25.7478Z" fill="#0478E0"/>
<ellipse cx="39.7494" cy="15.8689" rx="0.593191" ry="0.616006" fill="#8BC8FF"/>
<path d="M0.879883 0L20.6451 6.44764V43.8187L0.879883 49.5457V0Z" fill="#8BC8FF"/>
<path d="M0 48.6922V0.879978C0 0.39398 0.39398 0 0.879979 0V49.5721C0.39398 49.5721 0 49.1781 0 48.6922Z" fill="#C3E3FF"/>
<path d="M2.38818 2.63995L19.2963 8.48553V42.0714L2.38818 47.016V2.63995Z" fill="#52ADFF"/>
<path d="M20.6162 43.8314L20.6162 6.49512" stroke="#C3E3FF" stroke-width="0.251422"/>
<rect x="19.9463" y="16.5101" width="1.32652" height="7.69384" rx="0.530609" fill="#0478E0"/>
<rect x="19.9463" y="27.3875" width="1.32652" height="7.69384" rx="0.530609" fill="#0478E0"/>
<rect x="16.9111" y="47.4613" width="10.8497" height="6.72553" rx="1.11035" fill="#FF8B46"/>
<rect x="18.2432" y="49.4917" width="8.15311" height="0.824829" rx="0.412414" fill="#FF7320"/>
<rect x="18.2432" y="50.824" width="8.15311" height="0.824829" rx="0.412414" fill="#FF7320"/>
<rect x="18.2432" y="52.1566" width="8.15311" height="0.824829" rx="0.412414" fill="#FF7320"/>
<rect x="15.959" y="37.6584" width="12.5628" height="10.469" rx="0.905969" fill="#FFA571"/>
<rect x="17.5771" y="39.4669" width="9.51725" height="6.09104" rx="0.666208" fill="#FFD9C2"/>
<rect x="18.1479" y="42.5443" width="0.507587" height="0.190345" transform="rotate(29.8901 18.1479 42.5443)" fill="#FF8B46"/>
<rect width="0.507587" height="0.190345" transform="matrix(-0.866983 0.498338 0.498338 0.866983 26.5317 42.5443)" fill="#FF8B46"/>
<rect x="19.2466" y="41.2435" width="0.507587" height="0.190345" transform="rotate(50.5087 19.2466 41.2435)" fill="#FF8B46"/>
<rect width="0.507587" height="0.190345" transform="matrix(-0.635961 0.771721 0.771721 0.635961 25.4316 41.2435)" fill="#FF8B46"/>
<rect x="20.7378" y="40.4503" width="0.507587" height="0.190345" transform="rotate(69.4575 20.7378 40.4503)" fill="#FF8B46"/>
<rect width="0.507587" height="0.190345" transform="matrix(-0.350902 0.936412 0.936412 0.350902 23.9419 40.4503)" fill="#FF8B46"/>
<rect x="22.4307" y="40.1649" width="0.697932" height="0.190345" transform="rotate(90 22.4307 40.1649)" fill="#FF8B46"/>
<path d="M24.7858 40.6091L22.5264 45.0533L22.8812 45.184L24.7858 40.6091Z" fill="#FF8B46"/>
<ellipse cx="22.3204" cy="46.0654" rx="1.76083" ry="1.77655" fill="#FFA571"/>
<ellipse cx="22.32" cy="46.0555" rx="1.15793" ry="1.13191" fill="#FF7320"/>
<path d="M22.0618 43.5442H21.7802L22.146 42.4599H22.4949L22.8607 43.5442H22.5791L22.3244 42.7331H22.3159L22.0618 43.5442ZM22.0242 43.1175H22.613V43.3165H22.0242V43.1175Z" fill="#FF7320"/>
<path d="M26.7768 36.2231V36.2231C26.7768 33.7746 24.7919 31.7897 22.3434 31.7897H16.1492C12.9079 31.7897 10.2803 34.4173 10.2803 37.6586V41.566" stroke="#FF7320" stroke-width="0.795748"/>
<path d="M10.6286 44.3374H9.88721L10.0276 46.3597C10.0355 46.4733 10.13 46.5614 10.2438 46.5614C10.3565 46.5614 10.4504 46.475 10.4598 46.3627L10.6286 44.3374Z" fill="#FFD9C2"/>
<path d="M10.5633 41.4338H9.9816C9.82245 41.4338 9.68932 41.5551 9.67409 41.7135L9.42463 44.3079C9.40719 44.4893 9.54983 44.6463 9.73211 44.6463H10.8128C10.995 44.6463 11.1377 44.4893 11.1202 44.3079L10.8707 41.7132C10.8555 41.5548 10.7224 41.4338 10.5633 41.4338Z" fill="#FFA571"/>
<path d="M26.0801 36.5243C26.0801 36.2747 26.2825 36.0723 26.5321 36.0723H27.0239C27.2735 36.0723 27.4759 36.2747 27.4759 36.5243V37.6585H26.0801V36.5243Z" fill="#FF8B46"/>
<path d="M24.5653 36.3936V36.3936C24.5653 34.7613 23.242 33.438 21.6096 33.438H17.1004C14.3798 33.438 12.1743 35.6435 12.1743 38.364V43.4985" stroke="#FF7320" stroke-width="0.795748"/>
<path d="M12.5314 46.2091H11.79L11.9305 48.2315C11.9384 48.345 12.0328 48.4331 12.1467 48.4331C12.2594 48.4331 12.3532 48.3467 12.3626 48.2344L12.5314 46.2091Z" fill="#FFD9C2"/>
<path d="M12.4676 43.3057H11.8859C11.7268 43.3057 11.5936 43.4269 11.5784 43.5853L11.3289 46.1797C11.3115 46.3611 11.4541 46.5182 11.6364 46.5182H12.7171C12.8993 46.5182 13.042 46.3611 13.0245 46.1797L12.775 43.585C12.7598 43.4266 12.6267 43.3057 12.4676 43.3057Z" fill="#FFA571"/>
<path d="M23.8589 36.5245C23.8589 36.2748 24.0613 36.0724 24.311 36.0724H24.8027C25.0524 36.0724 25.2548 36.2748 25.2548 36.5245V37.6586H23.8589V36.5245Z" fill="#FF8B46"/>
</svg>
