<svg width="59" height="51" viewBox="0 0 59 51" fill="none" xmlns="http://www.w3.org/2000/svg">
<ellipse cx="29.3734" cy="48.0949" rx="29.3734" ry="2.90506" fill="#DAEEFF"/>
<path d="M55.3096 22.7732H57.4431C57.7049 22.7732 57.9172 22.561 57.9172 22.2991V15.1874" stroke="#C3E3FF" stroke-width="0.829703"/>
<path d="M52.9385 18.0914H54.2423C54.3732 18.0914 54.4794 18.1975 54.4794 18.3284V26.981C54.4794 27.112 54.3732 27.2181 54.2423 27.2181H52.9385V18.0914Z" fill="#52ADFF"/>
<path d="M54.48 19.5138H54.9541C55.2814 19.5138 55.5467 19.7791 55.5467 20.1064V25.2032C55.5467 25.5305 55.2814 25.7958 54.9541 25.7958H54.48V19.5138Z" fill="#8BC8FF"/>
<rect x="56.9688" y="8.13501" width="1.77793" height="10.075" rx="0.888967" fill="#0478E0"/>
<path d="M34.2153 38.7343H37.4432V46.8039C37.4432 47.6952 36.7206 48.4178 35.8293 48.4178C34.9379 48.4178 34.2153 47.6952 34.2153 46.8039V38.7343Z" fill="#52ADFF"/>
<path d="M37.4431 40.9937V46.481C37.4431 47.5506 36.576 48.4177 35.5063 48.4177V48.4177" stroke="#0478E0" stroke-width="0.393797" stroke-linecap="round"/>
<path d="M18.4478 5.76416H52.4522C52.7214 5.76416 52.9397 5.98243 52.9397 6.25168V38.6716C52.9397 38.9409 52.7214 39.1592 52.4522 39.1592H18.4478V5.76416Z" fill="#8BC8FF"/>
<path d="M45.7085 5.76435H52.2276C52.6204 5.76435 52.9388 6.08276 52.9388 6.47553V12.1649" stroke="#0478E0" stroke-width="0.636519" stroke-linecap="round"/>
<circle cx="52.8793" cy="12.9354" r="0.296322" fill="#0478E0"/>
<circle cx="44.9379" cy="5.70501" r="0.296322" fill="#0478E0"/>
<path d="M48.369 10.4567H22.8962V34.5889L19.6055 37.5749V8.99417H20.3367C20.8752 8.99417 21.3118 8.55763 21.3118 8.01913V7.22691C21.3118 7.09229 21.4209 6.98315 21.5555 6.98315H50.9599C51.2856 6.98315 51.4487 7.377 51.2184 7.60734L48.369 10.4567Z" fill="#0478E0"/>
<path d="M22.8958 34.467H48.3686V10.4567L51.7812 6.98316V35.8077H50.8062C50.2677 35.8077 49.8312 36.2442 49.8312 36.7827V37.8187L20.3143 37.8781C20.0061 37.8787 19.8354 37.5211 20.0298 37.2819L20.3363 36.9046L22.8958 34.467Z" fill="#52ADFF"/>
<path d="M20.8852 9.05511H19.6055V7.10503C19.6055 7.03772 19.66 6.98315 19.7273 6.98315H21.6165V8.32383C21.6165 8.7277 21.2891 9.05511 20.8852 9.05511Z" fill="#8BC8FF"/>
<path d="M21.6774 36.5999L21.6774 37.8796L19.6055 37.8796L19.6055 35.8686L20.9461 35.8686C21.35 35.8686 21.6774 36.196 21.6774 36.5999Z" fill="#8BC8FF"/>
<path d="M49.7093 36.4781L49.7093 37.8187L51.7812 37.8187L51.7813 35.7468L50.4406 35.7468C50.0367 35.7468 49.7093 36.0742 49.7093 36.4781Z" fill="#8BC8FF"/>
<path d="M49.7093 8.26289L49.7093 6.98315L51.7812 6.98315L51.7813 8.99417L50.4406 8.99417C50.0367 8.99417 49.7093 8.66676 49.7093 8.26289Z" fill="#8BC8FF"/>
<circle cx="20.6407" cy="8.01922" r="0.548458" fill="#0478E0"/>
<ellipse cx="20.6407" cy="36.8435" rx="0.548458" ry="0.548458" transform="rotate(-90 20.6407 36.8435)" fill="#0478E0"/>
<ellipse cx="0.548458" cy="0.548458" rx="0.548458" ry="0.548458" transform="matrix(4.37114e-08 -1 -1 -4.37114e-08 51.2939 37.2701)" fill="#52ADFF"/>
<ellipse cx="50.7455" cy="8.01922" rx="0.548458" ry="0.548458" transform="rotate(90 50.7455 8.01922)" fill="#0478E0"/>
<ellipse cx="35.6326" cy="35.5639" rx="1.70631" ry="0.426579" fill="#8BC8FF"/>
<ellipse cx="50.1544" cy="22.4466" rx="1.77851" ry="0.430586" transform="rotate(90 50.1544 22.4466)" fill="#0478E0"/>
<rect x="34.5674" y="30.1812" width="0.474116" height="5.68939" fill="#0478E0"/>
<path d="M34.5354 35.8905V35.8699H35.0283L35.0265 35.9592C34.9479 35.9647 34.524 35.8974 34.5354 35.8905Z" fill="#0478E0"/>
<rect x="36.2261" y="30.2998" width="0.474116" height="5.57086" fill="#0478E0"/>
<path d="M36.7313 35.8849V35.8625H36.2383L36.2402 35.9593C36.3187 35.9653 36.7577 35.9036 36.7313 35.8849Z" fill="#0478E0"/>
<rect x="35.3975" y="29.8256" width="0.474116" height="6.04498" fill="#0478E0"/>
<path d="M35.8799 35.8551H35.3867V35.9894C35.5102 36.0033 35.7669 35.9952 35.8799 35.9894V35.8551Z" fill="#0478E0"/>
<path d="M39.5132 17.36H47.2573C47.4712 17.36 47.6446 17.5334 47.6446 17.7473V21.5353C47.6446 21.7491 47.8179 21.9225 48.0318 21.9225L50.0983 21.9225" stroke="#0478E0" stroke-width="0.387208"/>
<path d="M43.8369 25.9432H47.3218C47.6069 25.9432 47.8381 25.712 47.8381 25.4269V23.2812C47.8381 22.9961 48.0692 22.765 48.3543 22.765H50.0234" stroke="#0478E0" stroke-width="0.387208"/>
<rect x="25.7026" y="18.6508" width="19.4895" height="12.1325" rx="0.258139" fill="#52ADFF"/>
<rect x="30.4775" y="14.2622" width="9.93834" height="4.6465" rx="0.258139" fill="#52ADFF"/>
<path d="M45.6499 39.1896H52.169C52.5618 39.1896 52.8802 38.8712 52.8802 38.4785V32.7891" stroke="#0478E0" stroke-width="0.391146" stroke-linecap="round"/>
<circle cx="52.8793" cy="32.0186" r="0.296322" fill="#0478E0"/>
<circle cx="44.8198" cy="39.1301" r="0.296322" fill="#0478E0"/>
<path d="M29.187 30.7831H26.1629C25.9148 30.7831 25.7136 30.5819 25.7136 30.3338V27.6754" stroke="#C3E3FF" stroke-width="0.258139" stroke-linecap="round"/>
<circle cx="0.149769" cy="0.149769" r="0.149769" transform="matrix(-1 0 0 1 25.8726 27.0332)" fill="#C3E3FF"/>
<circle cx="0.16849" cy="0.16849" r="0.16849" transform="matrix(-1 0 0 1 29.8789 30.5902)" fill="#C3E3FF"/>
<path d="M39.6519 14.2656H39.9888C40.2163 14.2656 40.4007 14.45 40.4007 14.6774V16.4372" stroke="#C3E3FF" stroke-width="0.212964" stroke-linecap="round"/>
<circle cx="40.4032" cy="16.9017" r="0.141976" fill="#C3E3FF"/>
<circle cx="39.1386" cy="14.2753" r="0.141976" fill="#C3E3FF"/>
<rect x="27.5415" y="19.3283" width="15.5529" height="2.00057" rx="0.0426173" stroke="#C3E3FF" stroke-width="0.0645347"/>
<path d="M29.8325 24.5879L29.8325 20.4281C29.8325 20.3731 29.8771 20.3286 29.932 20.3286H33.476C33.531 20.3286 33.5755 20.2841 33.5755 20.2291V17.8763" stroke="#0478E0" stroke-width="0.387208" stroke-linecap="round"/>
<path d="M35.5117 17.6182L35.5117 24.6524" stroke="#0478E0" stroke-width="0.387208" stroke-linecap="round"/>
<path d="M34.6079 17.6182L34.6079 24.6524" stroke="#0478E0" stroke-width="0.387208" stroke-linecap="round"/>
<path d="M36.4155 17.6182L36.4155 24.6524" stroke="#0478E0" stroke-width="0.387208" stroke-linecap="round"/>
<path d="M41.1904 24.5879V20.4281C41.1904 20.3731 41.1459 20.3286 41.0909 20.3286H37.5469C37.492 20.3286 37.4474 20.2841 37.4474 20.2291V17.8763" stroke="#0478E0" stroke-width="0.387208" stroke-linecap="round"/>
<rect x="31.3813" y="15.2948" width="8.13137" height="2.71046" rx="0.129069" fill="#8BC8FF"/>
<rect x="26.9961" y="21.8663" width="16.7741" height="7.11404" rx="0.387208" fill="#8BC8FF"/>
<path d="M31.3813 17.1019H39.5127V17.8763C39.5127 17.9476 39.4549 18.0054 39.3836 18.0054H31.5104C31.4391 18.0054 31.3813 17.9476 31.3813 17.8763V17.1019Z" fill="white"/>
<rect x="32.8013" y="16.3275" width="0.645347" height="1.03255" fill="#0478E0"/>
<rect x="33.9624" y="16.3275" width="0.645347" height="1.03255" fill="#0478E0"/>
<rect x="35.125" y="16.3275" width="0.645347" height="1.03255" fill="#0478E0"/>
<rect x="36.2861" y="16.3275" width="0.645347" height="1.03255" fill="#0478E0"/>
<rect x="37.4478" y="16.3275" width="0.645347" height="1.03255" fill="#0478E0"/>
<rect x="29.5737" y="23.2861" width="1.81142" height="4.52855" rx="0.0823373" fill="#52ADFF"/>
<rect x="29.8208" y="23.0392" width="1.3174" height="1.3174" rx="0.0823373" fill="#0478E0"/>
<circle cx="30.4802" cy="23.6979" r="0.329349" fill="#C3E3FF"/>
<path d="M30.9445 27.0494H30.0145L29.8208 27.2044V27.5143H31.1382V27.2431L30.9445 27.0494Z" fill="#8BC8FF"/>
<path d="M30.0537 26.7395V27.127C30.0537 27.1697 30.0884 27.2044 30.1312 27.2044H30.8287C30.8714 27.2044 30.9061 27.1697 30.9061 27.127V26.7395C30.9061 26.6967 30.8714 26.662 30.8287 26.662H30.1312C30.0884 26.662 30.0537 26.6967 30.0537 26.7395Z" fill="white"/>
<rect x="32.9302" y="23.2861" width="1.81142" height="4.52855" rx="0.0823373" fill="#52ADFF"/>
<rect x="33.1772" y="23.0392" width="1.3174" height="1.3174" rx="0.0823373" fill="#0478E0"/>
<circle cx="33.8352" cy="23.6979" r="0.329349" fill="#C3E3FF"/>
<path d="M34.3009 27.0494H33.371L33.1772 27.2044V27.5143H34.4946V27.2431L34.3009 27.0494Z" fill="#8BC8FF"/>
<path d="M33.4092 26.7395V27.127C33.4092 27.1697 33.4439 27.2044 33.4867 27.2044H34.1841C34.2269 27.2044 34.2616 27.1697 34.2616 27.127V26.7395C34.2616 26.6967 34.2269 26.662 34.1841 26.662H33.4867C33.4439 26.662 33.4092 26.6967 33.4092 26.7395Z" fill="white"/>
<rect x="36.2861" y="23.2861" width="1.81142" height="4.52855" rx="0.0823373" fill="#52ADFF"/>
<rect x="36.5327" y="23.0392" width="1.3174" height="1.3174" rx="0.0823373" fill="#0478E0"/>
<circle cx="37.1912" cy="23.6979" r="0.329349" fill="#C3E3FF"/>
<path d="M37.6564 27.0494H36.7264L36.5327 27.2044V27.5143H37.8501V27.2431L37.6564 27.0494Z" fill="#8BC8FF"/>
<path d="M36.7656 26.7395V27.127C36.7656 27.1697 36.8003 27.2044 36.8431 27.2044H37.5406C37.5834 27.2044 37.6181 27.1697 37.6181 27.127V26.7395C37.6181 26.6967 37.5834 26.662 37.5406 26.662H36.8431C36.8003 26.662 36.7656 26.6967 36.7656 26.7395Z" fill="white"/>
<rect x="39.6421" y="23.2861" width="1.81142" height="4.52855" rx="0.0823373" fill="#52ADFF"/>
<rect x="39.8887" y="23.0392" width="1.3174" height="1.3174" rx="0.0823373" fill="#0478E0"/>
<circle cx="40.5476" cy="23.6979" r="0.329349" fill="#C3E3FF"/>
<path d="M41.0123 27.0494H40.0824L39.8887 27.2044V27.5143H41.2061V27.2431L41.0123 27.0494Z" fill="#8BC8FF"/>
<path d="M40.1211 26.7395V27.127C40.1211 27.1697 40.1558 27.2044 40.1986 27.2044H40.896C40.9388 27.2044 40.9735 27.1697 40.9735 27.127V26.7395C40.9735 26.6967 40.9388 26.662 40.896 26.662H40.1986C40.1558 26.662 40.1211 26.6967 40.1211 26.7395Z" fill="white"/>
<path d="M30.2168 23.0065C30.2168 22.8714 30.3263 22.7618 30.4614 22.7618C30.5965 22.7618 30.7061 22.8714 30.7061 23.0065V23.088H30.2168V23.0065Z" fill="#0478E0"/>
<path d="M33.6011 23.0065C33.6011 22.8714 33.7106 22.7618 33.8457 22.7618C33.9808 22.7618 34.0903 22.8714 34.0903 23.0065V23.088H33.6011V23.0065Z" fill="#0478E0"/>
<path d="M36.9443 23.0065C36.9443 22.8714 37.0539 22.7618 37.189 22.7618C37.3241 22.7618 37.4336 22.8714 37.4336 23.0065V23.088H36.9443V23.0065Z" fill="#0478E0"/>
<path d="M40.2876 23.0065C40.2876 22.8714 40.3971 22.7618 40.5322 22.7618H40.573C40.7081 22.7618 40.8176 22.8714 40.8176 23.0065V23.088H40.2876V23.0065Z" fill="#0478E0"/>
<ellipse cx="35.5173" cy="14.1793" rx="0.530035" ry="0.550421" fill="#8BC8FF"/>
<path d="M0.786133 0L18.447 5.76117V39.1534L0.786133 44.2706V0Z" fill="#8BC8FF"/>
<path d="M0 43.5079V0.786288C0 0.352033 0.352033 0 0.786288 0V44.2942C0.352033 44.2942 0 43.9422 0 43.5079Z" fill="#C3E3FF"/>
<path d="M2.13379 2.35889L17.2418 7.58209V37.5921L2.13379 42.0103V2.35889Z" fill="#52ADFF"/>
<path d="M18.4214 39.1647L18.4214 5.80359" stroke="#C3E3FF" stroke-width="0.224654"/>
<rect x="17.8228" y="14.7523" width="1.18529" height="6.87468" rx="0.474116" fill="#0478E0"/>
<rect x="17.8228" y="24.4716" width="1.18529" height="6.87468" rx="0.474116" fill="#0478E0"/>
<rect x="15.1108" y="42.4082" width="9.69452" height="6.00947" rx="0.992129" fill="#FF8B46"/>
<rect x="16.3008" y="44.2224" width="7.28506" height="0.73701" rx="0.368505" fill="#FF7320"/>
<rect x="16.3008" y="45.4128" width="7.28506" height="0.73701" rx="0.368505" fill="#FF7320"/>
<rect x="16.3008" y="46.6035" width="7.28506" height="0.73701" rx="0.368505" fill="#FF7320"/>
<rect x="14.2598" y="33.649" width="11.2252" height="9.35436" rx="0.809512" fill="#FFA571"/>
<rect x="15.7056" y="35.2649" width="8.50396" height="5.44254" rx="0.595277" fill="#FFD9C2"/>
<rect x="16.2158" y="38.0148" width="0.453545" height="0.170079" transform="rotate(29.8901 16.2158 38.0148)" fill="#FF8B46"/>
<rect width="0.453545" height="0.170079" transform="matrix(-0.866983 0.498338 0.498338 0.866983 23.707 38.0148)" fill="#FF8B46"/>
<rect x="17.1973" y="36.8524" width="0.453545" height="0.170079" transform="rotate(50.5087 17.1973 36.8524)" fill="#FF8B46"/>
<rect width="0.453545" height="0.170079" transform="matrix(-0.635961 0.771721 0.771721 0.635961 22.7241 36.8524)" fill="#FF8B46"/>
<rect x="18.5298" y="36.1437" width="0.453545" height="0.170079" transform="rotate(69.4575 18.5298 36.1437)" fill="#FF8B46"/>
<rect width="0.453545" height="0.170079" transform="matrix(-0.350902 0.936412 0.936412 0.350902 21.3926 36.1437)" fill="#FF8B46"/>
<rect x="20.0425" y="35.8887" width="0.623624" height="0.170079" transform="rotate(90 20.0425 35.8887)" fill="#FF8B46"/>
<path d="M22.1468 36.2855L20.1279 40.2565L20.4449 40.3733L22.1468 36.2855Z" fill="#FF8B46"/>
<ellipse cx="19.944" cy="41.1609" rx="1.57336" ry="1.58741" fill="#FFA571"/>
<ellipse cx="19.9438" cy="41.152" rx="1.03465" ry="1.0114" fill="#FF7320"/>
<path d="M19.7128 39.0145H19.4612L19.7881 38.0457H20.0998L20.4267 39.0145H20.175L19.9475 38.2898H19.9399L19.7128 39.0145ZM19.6793 38.6332H20.2053V38.8111H19.6793V38.6332Z" fill="#FF7320"/>
<path d="M23.9257 32.3665V32.3665C23.9257 30.1787 22.1522 28.4051 19.9643 28.4051H14.4297C11.5334 28.4051 9.18555 30.753 9.18555 33.6492V37.1405" stroke="#FF7320" stroke-width="0.711026"/>
<path d="M9.49689 39.6168H8.83447L8.95996 41.4239C8.96701 41.5253 9.05139 41.6041 9.15312 41.6041C9.25382 41.6041 9.33772 41.5269 9.34608 41.4265L9.49689 39.6168Z" fill="#FFD9C2"/>
<path d="M9.43858 37.0225H8.91884C8.77663 37.0225 8.65768 37.1308 8.64407 37.2724L8.42117 39.5905C8.40558 39.7526 8.53304 39.8929 8.69591 39.8929H9.6615C9.82438 39.8929 9.95183 39.7526 9.93624 39.5905L9.71332 37.272C9.69971 37.1305 9.58078 37.0225 9.43858 37.0225Z" fill="#FFA571"/>
<path d="M23.3032 32.6356C23.3032 32.4125 23.4841 32.2317 23.7072 32.2317H24.1465C24.3696 32.2317 24.5505 32.4125 24.5505 32.6356V33.649H23.3032V32.6356Z" fill="#FF8B46"/>
<path d="M21.9496 32.5189V32.5189C21.9496 31.0603 20.7672 29.8779 19.3087 29.8779H15.2795C12.8486 29.8779 10.8779 31.8486 10.8779 34.2795V38.8673" stroke="#FF7320" stroke-width="0.711026"/>
<path d="M11.1971 41.2893H10.5347L10.6602 43.0963C10.6672 43.1978 10.7516 43.2765 10.8533 43.2765C10.954 43.2765 11.0379 43.1994 11.0463 43.099L11.1971 41.2893Z" fill="#FFD9C2"/>
<path d="M11.1402 38.6949H10.6205C10.4783 38.6949 10.3593 38.8033 10.3457 38.9448L10.1228 41.263C10.1072 41.4251 10.2347 41.5654 10.3976 41.5654H11.3632C11.526 41.5654 11.6535 41.4251 11.6379 41.263L11.415 38.9445C11.4014 38.803 11.2824 38.6949 11.1402 38.6949Z" fill="#FFA571"/>
<path d="M21.3188 32.6357C21.3188 32.4127 21.4997 32.2318 21.7228 32.2318H22.1622C22.3852 32.2318 22.5661 32.4127 22.5661 32.6357V33.6491H21.3188V32.6357Z" fill="#FF8B46"/>
</svg>
