<svg width="64" height="63" viewBox="0 0 64 63" fill="none" xmlns="http://www.w3.org/2000/svg">
<path d="M31.9808 38.4698C31.9808 30.3695 25.4142 23.8029 17.3139 23.8029C9.21357 23.8029 2.64697 30.3695 2.64697 38.4698C2.64697 46.5701 9.21357 53.1367 17.3139 53.1367C25.4142 53.1367 31.9808 46.5701 31.9808 38.4698Z" fill="#52ADFF"/>
<path d="M15.6209 55.4445L14.813 52.6977L19.8866 52.6977L19.111 55.4445C17.715 55.7289 16.2026 55.563 15.6209 55.4445Z" fill="#52ADFF"/>
<path d="M15.6209 21.3786L14.813 24.1254L19.8866 24.1254L19.111 21.3786C17.715 21.0942 16.2026 21.2601 15.6209 21.3786Z" fill="#52ADFF"/>
<path d="M24.2611 54.0752L22.2018 52.086L26.6132 49.5797L27.2957 52.3512C26.2224 53.2881 24.8254 53.8909 24.2611 54.0752Z" fill="#52ADFF"/>
<path d="M7.43285 24.4561L8.08727 27.2435L12.4987 24.7373L10.4674 22.732C9.11313 23.1744 7.88008 24.0657 7.43285 24.4561Z" fill="#52ADFF"/>
<path d="M30.6082 49.2423L27.871 48.4024L30.6675 44.169L32.5319 46.3302C31.9997 47.6518 31.0277 48.8222 30.6082 49.2423Z" fill="#52ADFF"/>
<path d="M2.1852 30.4659L4.03185 32.654L6.82833 28.4207L4.1089 27.5538C3.10214 28.5619 2.40695 29.9152 2.1852 30.4659Z" fill="#52ADFF"/>
<path d="M34.1523 41.6999L31.3428 42.2517L31.8095 37.1996L34.4734 38.2245C34.6281 39.6408 34.3238 41.1316 34.1523 41.6999Z" fill="#52ADFF"/>
<path d="M0.230667 38.5663L2.89158 39.6234L3.35825 34.5713L0.551693 35.0909C0.140107 36.4549 0.166182 37.9762 0.230667 38.5663Z" fill="#52ADFF"/>
<path d="M33.586 32.9788L31.4149 34.8454L29.3272 30.2212L32.1499 29.7978C32.9835 30.9532 33.4546 32.3999 33.586 32.9788Z" fill="#52ADFF"/>
<path d="M2.53773 46.9962L5.37372 46.6022L3.28605 41.978L1.10163 43.8152C1.41688 45.2046 2.19039 46.5148 2.53773 46.9962Z" fill="#52ADFF"/>
<path d="M28.1217 25.1041L27.2942 27.8451L23.0482 25.0677L25.201 23.1935C26.5249 23.7197 27.6998 24.6865 28.1217 25.1041Z" fill="#52ADFF"/>
<path d="M9.47333 53.6124L11.6531 51.7559L7.40719 48.9785L6.55257 51.7018C7.5652 52.704 8.92167 53.3931 9.47333 53.6124Z" fill="#52ADFF"/>
<path d="M28.1598 38.5065C28.1598 32.5097 23.2984 27.6483 17.3016 27.6483C11.3048 27.6483 6.44343 32.5097 6.44343 38.5065C6.44343 44.5033 11.3048 49.3647 17.3016 49.3647C23.2984 49.3647 28.1598 44.5033 28.1598 38.5065Z" fill="#52ADFF" stroke="#DCEFFF" stroke-width="2.52065"/>
<path d="M56.1783 27.9996C57.6919 21.9863 54.044 15.8845 48.0307 14.371C42.0174 12.8575 35.9156 16.5053 34.4021 22.5186C32.8886 28.532 36.5364 34.6337 42.5497 36.1472C48.5631 37.6607 54.6648 34.0129 56.1783 27.9996Z" fill="#52ADFF"/>
<path d="M40.8615 37.5439L40.775 35.3538L44.5415 36.3018L43.4524 38.196C42.3629 38.1463 41.2712 37.7406 40.8615 37.5439Z" fill="#52ADFF"/>
<path d="M47.2276 12.2551L46.1146 14.1433L49.8811 15.0913L49.8186 12.9072C48.8353 12.4352 47.6816 12.2758 47.2276 12.2551Z" fill="#52ADFF"/>
<path d="M47.5308 38.142L46.3737 36.2805L50.1168 35.2442L50.1057 37.4292C49.1338 37.9241 47.9841 38.1106 47.5308 38.142Z" fill="#52ADFF"/>
<path d="M40.5734 13.0094L40.5384 15.201L44.2815 14.1647L43.1483 12.2966C42.0603 12.3719 40.9784 12.8032 40.5734 13.0094Z" fill="#52ADFF"/>
<path d="M53.1469 35.7404L51.2718 34.6054L54.1388 31.9853L55.1191 33.938C54.4771 34.8196 53.5368 35.5069 53.1469 35.7404Z" fill="#52ADFF"/>
<path d="M35.5547 16.4907L36.5167 18.4601L39.3837 15.84L37.5269 14.6883C36.5912 15.2486 35.8222 16.1234 35.5547 16.4907Z" fill="#52ADFF"/>
<path d="M57.1863 30.803L54.9976 30.6877L56.288 27.0244L58.074 28.283C57.9243 29.3634 57.4198 30.4132 57.1863 30.803Z" fill="#52ADFF"/>
<path d="M32.5903 22.1388L34.3682 23.4208L35.6586 19.7575L33.478 19.6188C32.9176 20.5545 32.6527 21.6887 32.5903 22.1388Z" fill="#52ADFF"/>
<path d="M58.396 24.2232L56.4355 25.2032L55.7497 21.3803L57.9243 21.5934C58.3273 22.6069 58.4067 23.7689 58.396 24.2232Z" fill="#52ADFF"/>
<path d="M32.7269 28.8275L34.9058 29.065L34.22 25.2421L32.2551 26.1977C32.2296 27.2881 32.559 28.4052 32.7269 28.8275Z" fill="#52ADFF"/>
<path d="M55.8097 17.3559L54.6832 19.2361L52.0502 16.3809L53.9985 15.3919C54.883 16.0299 55.5745 16.9671 55.8097 17.3559Z" fill="#52ADFF"/>
<path d="M36.6398 35.035L38.6048 34.0641L35.9718 31.209L34.8285 33.071C35.393 34.0042 36.2712 34.7692 36.6398 35.035Z" fill="#52ADFF"/>
<path d="M53.3355 27.3126C54.456 22.8608 51.7554 18.3436 47.3036 17.2231C42.8518 16.1026 38.3346 18.8031 37.2141 23.2549C36.0936 27.7067 38.7942 32.224 43.2459 33.3445C47.6977 34.4649 52.215 31.7644 53.3355 27.3126Z" fill="#52ADFF" stroke="#DCEFFF" stroke-width="1.92959"/>
<path d="M46.5765 28.068L44.1011 28.068C43.826 28.068 43.5722 27.9198 43.4371 27.6802L42.214 25.5119C42.0869 25.2868 42.0827 25.0126 42.2026 24.7836L43.4418 22.4179C43.5734 22.1667 43.8335 22.0093 44.1172 22.0093L46.5605 22.0093C46.8441 22.0093 47.1042 22.1667 47.2358 22.4179L48.475 24.7836C48.5949 25.0126 48.5907 25.2868 48.4637 25.5119L47.2406 27.6802C47.1054 27.9198 46.8516 28.068 46.5765 28.068Z" fill="#0478E0"/>
<path d="M46.7935 25.0815C46.7935 24.2996 46.1596 23.6657 45.3777 23.6657C44.5958 23.6657 43.9619 24.2996 43.9619 25.0815C43.9619 25.8635 44.5958 26.4973 45.3777 26.4973C46.1596 26.4973 46.7935 25.8635 46.7935 25.0815Z" fill="white" stroke="#DCEFFF" stroke-width="0.853476"/>
<circle cx="0.355477" cy="0.355477" r="0.355477" transform="matrix(1 -8.68008e-08 -8.68008e-08 -1 33.3501 19.8597)" fill="#0478E0"/>
<path d="M50.9914 53.0409C52.9181 48.7362 50.9904 43.6846 46.6857 41.7579C42.381 39.8312 37.3294 41.759 35.4027 46.0637C33.476 50.3684 35.4037 55.4199 39.7084 57.3467C44.0131 59.2734 49.0647 57.3456 50.9914 53.0409Z" fill="#52ADFF"/>
<path d="M38.2601 58.1705L38.4842 56.5186L41.1804 57.7254L40.1149 59.0006C39.3054 58.8197 38.5411 58.3718 38.2601 58.1705Z" fill="#52ADFF"/>
<path d="M46.3637 40.067L45.281 41.3346L47.9772 42.5414L48.2184 40.8971C47.5442 40.414 46.701 40.1424 46.3637 40.067Z" fill="#52ADFF"/>
<path d="M43.1768 59.4979L42.5555 57.9509L45.496 57.6684L45.1995 59.3035C44.4062 59.5461 43.5205 59.5342 43.1768 59.4979Z" fill="#52ADFF"/>
<path d="M41.2802 39.7547L40.965 41.3917L43.9054 41.1091L43.3029 39.5604C42.478 39.4733 41.6107 39.6537 41.2802 39.7547Z" fill="#52ADFF"/>
<path d="M47.7 58.4397L46.4451 57.3423L48.9382 55.7577L49.415 57.3497C48.8178 57.9254 48.0228 58.3162 47.7 58.4397Z" fill="#52ADFF"/>
<path d="M37.0617 41.7004L37.5226 43.3025L40.0157 41.718L38.7767 40.6104C38.0019 40.9067 37.3106 41.4606 37.0617 41.7004Z" fill="#52ADFF"/>
<path d="M51.3768 55.2738L49.7525 54.8988L51.2021 52.325L52.374 53.5033C52.1194 54.2927 51.6031 55.0126 51.3768 55.2738Z" fill="#52ADFF"/>
<path d="M34.0961 45.5404L35.2588 46.7351L36.7085 44.1613L35.0934 43.7699C34.5502 44.3968 34.2022 45.2115 34.0961 45.5404Z" fill="#52ADFF"/>
<path d="M53.1497 50.5046L51.552 50.9802L51.5424 48.0262L53.1432 48.4726C53.3114 49.2849 53.2176 50.1658 53.1497 50.5046Z" fill="#52ADFF"/>
<path d="M33.3165 50.5685L34.9173 51.0337L34.9077 48.0797L33.3099 48.5365C33.147 49.3498 33.2464 50.2301 33.3165 50.5685Z" fill="#52ADFF"/>
<path d="M52.1187 45.0199L51.0269 46.2797L49.4311 43.7938L51.0209 43.3098C51.5994 43.9044 51.9938 44.6976 52.1187 45.0199Z" fill="#52ADFF"/>
<path d="M35.4283 55.7346L37.0283 55.2665L35.4325 52.7806L34.3306 54.0245C34.6303 54.798 35.1873 55.4868 35.4283 55.7346Z" fill="#52ADFF"/>
<path d="M48.9523 52.1515C50.3787 48.9647 48.9515 45.2249 45.7646 43.7985C42.5778 42.3721 38.838 43.7993 37.4116 46.9861C35.9852 50.173 37.4124 53.9128 40.5992 55.3392C43.7861 56.7656 47.5259 55.3384 48.9523 52.1515Z" fill="#52ADFF" stroke="#DCEFFF" stroke-width="1.46759"/>
<path d="M17.354 48.0395C19.6808 48.0718 24.0111 47.3931 25.9501 42.5134C27.7315 38.0302 26.3379 34.5637 25.2068 33.1741" stroke="#0478E0" stroke-width="0.581689" stroke-linecap="round"/>
<circle cx="0.355477" cy="0.355477" r="0.355477" transform="matrix(1 -8.74228e-08 -8.74228e-08 -1 15.8984 48.3628)" fill="#0478E0"/>
<circle cx="0.355477" cy="0.355477" r="0.355477" transform="matrix(1 -8.74228e-08 -8.74228e-08 -1 14.9951 54.5028)" fill="#0478E0"/>
<circle cx="0.355477" cy="0.355477" r="0.355477" transform="matrix(1 -8.74228e-08 -8.74228e-08 -1 21.9746 52.6931)" fill="#0478E0"/>
<circle cx="0.355477" cy="0.355477" r="0.355477" transform="matrix(1 -8.74228e-08 -8.74228e-08 -1 7.49756 37.1169)" fill="#0478E0"/>
<circle cx="0.355477" cy="0.355477" r="0.355477" transform="matrix(1 -8.74228e-08 -8.74228e-08 -1 15.8984 29.2962)" fill="#0478E0"/>
<circle cx="0.355477" cy="0.355477" r="0.355477" transform="matrix(1 -8.74228e-08 -8.74228e-08 -1 16.9336 21.6052)" fill="#0478E0"/>
<circle cx="0.355477" cy="0.355477" r="0.355477" transform="matrix(1 -8.74228e-08 -8.74228e-08 -1 9.95312 23.0918)" fill="#0478E0"/>
<circle cx="0.355477" cy="0.355477" r="0.355477" transform="matrix(1 -8.74228e-08 -8.74228e-08 -1 24.2368 32.657)" fill="#0478E0"/>
<path d="M8.17578 35.6948C8.91905 33.0126 11.2781 29.5548 14.9945 29.167" stroke="#0478E0" stroke-width="0.581689" stroke-linecap="round"/>
<path d="M21.8454 38.4743C21.8454 35.9756 19.8198 33.95 17.3211 33.95C14.8225 33.95 12.7969 35.9756 12.7969 38.4743C12.7969 40.973 14.8225 42.9985 17.3211 42.9985C19.8198 42.9985 21.8454 40.973 21.8454 38.4743Z" fill="#DCEFFF"/>
<path d="M18.3227 40.7368L16.4481 40.7368C16.2398 40.7368 16.0476 40.6246 15.9452 40.4431L15.019 38.8012C14.9228 38.6306 14.9196 38.423 15.0104 38.2496L15.9488 36.4581C16.0485 36.2679 16.2455 36.1487 16.4603 36.1487L18.3105 36.1487C18.5253 36.1487 18.7223 36.2679 18.822 36.4581L19.7604 38.2496C19.8512 38.423 19.848 38.6306 19.7518 38.8012L18.8256 40.4431C18.7232 40.6246 18.531 40.7368 18.3227 40.7368Z" fill="#0478E0"/>
<path d="M18.8102 38.4753C18.8102 37.7047 18.1855 37.08 17.4148 37.08C16.6442 37.08 16.0195 37.7047 16.0195 38.4753C16.0195 39.2459 16.6442 39.8706 17.4148 39.8706C18.1855 39.8706 18.8102 39.2459 18.8102 38.4753Z" fill="white"/>
<path d="M21.3609 52.5961L20.4208 52.7724C20.0484 52.8422 19.7509 53.1226 19.659 53.4901L19.3419 54.7585C19.2364 55.1805 18.8628 55.4805 18.428 55.4925L16.2051 55.5537C15.8766 55.5627 15.587 55.3397 15.5117 55.0198V55.0198" stroke="#0478E0" stroke-width="0.581689" stroke-linecap="round"/>
<path d="M6.59229 28.3911L7.6292 27.512C7.90542 27.2778 8.0281 26.9092 7.94729 26.5562L7.61749 25.1155C7.52596 24.7156 7.69597 24.3015 8.04203 24.0812L9.2422 23.3175" stroke="#0478E0" stroke-width="0.581689" stroke-linecap="round"/>
<path d="M18.3232 21.2816L18.5674 21.3286C18.932 21.3987 19.2245 21.6708 19.3207 22.0294L19.7315 23.5606C19.8201 23.8908 20.0761 24.1499 20.4052 24.2425L22.6563 24.8764C22.9939 24.9714 23.3565 24.8767 23.6046 24.6287L23.9786 24.2547" stroke="#0478E0" stroke-width="0.581689" stroke-linecap="round"/>
<path d="M30.668 44.2908C31.0357 43.778 31.2359 43.4129 31.3332 43.1427C31.5297 42.5972 31.6563 42.0521 32.2301 41.9685L33.5915 41.7699C33.9908 41.7117 34.3105 41.4121 34.3614 41.0119C34.4659 40.1885 34.5442 39.0255 34.4853 38.4851C34.4655 38.3028 34.3262 38.1794 34.1558 38.1117L32.414 37.4194C32.0933 37.292 31.8645 37.0036 31.8133 36.6622L31.7022 35.9209" stroke="#0478E0" stroke-width="0.581689" stroke-linecap="round"/>
<circle cx="0.355477" cy="0.355477" r="0.355477" transform="matrix(1 -8.74228e-08 -8.74228e-08 -1 31.1528 35.307)" fill="#0478E0"/>
<path d="M13.1203 36.7292C12.7433 37.8064 12.5322 40.4068 14.7038 42.1906C17.4184 44.4204 20.9359 42.4862 21.5659 40.3" stroke="#0478E0" stroke-width="0.581689" stroke-linecap="round"/>
<circle cx="0.355477" cy="0.355477" r="0.355477" transform="matrix(1 -8.74228e-08 -8.74228e-08 -1 13.2495 36.1472)" fill="#0478E0"/>
<circle cx="0.355477" cy="0.355477" r="0.355477" transform="matrix(1 -8.74228e-08 -8.74228e-08 -1 37.6816 24.7723)" fill="#0478E0"/>
<circle cx="0.355477" cy="0.355477" r="0.355477" transform="matrix(1 -8.74228e-08 -8.74228e-08 -1 35.936 16.0468)" fill="#0478E0"/>
<circle cx="0.355477" cy="0.355477" r="0.355477" transform="matrix(1 -8.74228e-08 -8.74228e-08 -1 42.6128 12.6198)" fill="#0478E0"/>
<circle cx="0.355477" cy="0.355477" r="0.355477" transform="matrix(1 -8.74228e-08 -8.74228e-08 -1 58.04 24.0612)" fill="#0478E0"/>
<circle cx="0.355477" cy="0.355477" r="0.355477" transform="matrix(1 -8.74228e-08 -8.74228e-08 -1 34.7075 30.3304)" fill="#0478E0"/>
<circle cx="0.355477" cy="0.355477" r="0.355477" transform="matrix(1 -8.74228e-08 -8.74228e-08 -1 40.395 36.0178)" fill="#0478E0"/>
<path d="M37.9075 25.3538C37.7459 27.1958 38.6568 30.215 41.6241 31.8493C45.4379 33.9499 49.2504 32.1402 50.9631 29.8781" stroke="#0478E0" stroke-width="0.581689" stroke-linecap="round"/>
<path d="M35.5803 30.8473V30.8473C35.7958 31.1608 35.8031 31.5728 35.5989 31.8937L35.2185 32.4915C34.9762 32.8722 35.0287 33.3697 35.345 33.6915L36.1813 34.5425C36.4618 34.828 36.8889 34.9117 37.2565 34.7533L37.9762 34.443C38.3106 34.2989 38.6958 34.3568 38.9898 34.5715C39.3104 34.8057 39.6814 35.0475 39.9106 35.113" stroke="#0478E0" stroke-width="0.581689" stroke-linecap="round"/>
<path d="M44.564 36.5673C44.8214 36.696 45.6983 36.6401 46.188 36.4814C46.344 36.4308 46.5488 36.4737 46.632 36.6149L47.2558 37.6735C47.4301 37.9692 47.7483 38.1531 48.0898 38.1178C48.3632 38.0895 48.6871 38.0398 48.9913 37.9569" stroke="#0478E0" stroke-width="0.581689" stroke-linecap="round"/>
<path d="M54.7114 19.0846C55.03 19.3723 55.6876 20.2167 55.8822 21.3711C55.8985 21.4675 55.9805 21.5406 56.0783 21.5406L57.2416 21.5406C57.6444 21.5406 57.9998 21.7923 58.0889 22.1851C58.1334 22.3814 58.172 22.5709 58.2016 22.704" stroke="#0478E0" stroke-width="0.581689" stroke-linecap="round"/>
<path d="M34.1584 24.0933V24.0933C34.1068 23.7322 33.8888 23.064 33.5889 22.8564L32.6659 22.2174C32.6054 22.1755 32.5444 22.1294 32.5153 22.0618C32.4353 21.8757 32.437 21.4433 33.092 20.3447" stroke="#0478E0" stroke-width="0.581689" stroke-linecap="round"/>
<path d="M37.0342 15.0449L37.1153 15.0043C37.4251 14.8495 37.7939 14.8716 38.0829 15.0623L38.6563 15.4408C39.0008 15.6681 39.449 15.6485 39.794 15.422C39.9601 15.313 40.1311 15.209 40.2812 15.133C40.5072 15.0185 40.7083 14.8805 40.7198 14.6273C40.7299 14.4052 40.7267 14.072 40.6956 13.5887C40.6738 13.2491 40.8234 12.9177 41.1331 12.7769C41.2742 12.7127 41.4395 12.6469 41.6231 12.5889" stroke="#0478E0" stroke-width="0.581689" stroke-linecap="round"/>
<circle cx="0.355477" cy="0.355477" r="0.355477" transform="matrix(1 -8.74228e-08 -8.74228e-08 -1 33.7197 45.8949)" fill="#0478E0"/>
<path d="M53.1604 50.3987L51.9102 50.8879C51.7634 50.9454 51.6571 51.0751 51.6296 51.2303L51.4693 52.1345C51.4464 52.2633 51.4805 52.3957 51.5627 52.4976L52.3202 53.4364" stroke="#0478E0" stroke-width="0.581689" stroke-linecap="round"/>
<path d="M44.5576 49.6222C44.5576 48.8403 43.9238 48.2064 43.1418 48.2064C42.3599 48.2064 41.7261 48.8403 41.7261 49.6222C41.7261 50.4041 42.3599 51.038 43.1418 51.038C43.9238 51.038 44.5576 50.4041 44.5576 49.6222Z" fill="white" stroke="#DCEFFF" stroke-width="0.853476"/>
<circle cx="0.355477" cy="0.355477" r="0.355477" transform="matrix(1 -8.74228e-08 -8.74228e-08 -1 41.2993 48.8799)" fill="#0478E0"/>
<circle cx="0.355477" cy="0.355477" r="0.355477" transform="matrix(1 -8.74228e-08 -8.74228e-08 -1 38.1333 58.0574)" fill="#0478E0"/>
<circle cx="0.355477" cy="0.355477" r="0.355477" transform="matrix(1 -8.74228e-08 -8.74228e-08 -1 34.707 52.3051)" fill="#0478E0"/>
<circle cx="0.355477" cy="0.355477" r="0.355477" transform="matrix(1 -8.74228e-08 -8.74228e-08 -1 47.5703 47.1348)" fill="#0478E0"/>
<path d="M41.3006 49.4614C40.8487 51.9498 44.2414 52.3699 44.8548 50.4955" stroke="#0478E0" stroke-width="0.581689" stroke-linecap="round"/>
<path d="M48.4739 47.6843C48.7324 48.3091 49.075 49.9981 48.377 51.7561" stroke="#0478E0" stroke-width="0.581689" stroke-linecap="round"/>
<path d="M38.4889 56.7003L37.087 55.4701C36.9735 55.3705 36.8179 55.3341 36.672 55.373L35.5998 55.6589C35.5086 55.6832 35.4115 55.6542 35.3486 55.5839V55.5839C35.052 55.2523 34.7986 54.8844 34.5945 54.4891L34.4893 54.2853C34.4262 54.163 34.444 54.0145 34.5342 53.9106L35.4512 52.8547" stroke="#0478E0" stroke-width="0.581689" stroke-linecap="round"/>
<path d="M34.6094 44.7461L34.948 44.1482C35.074 43.9257 35.3306 43.8115 35.5803 43.867L36.3218 44.0318C36.5053 44.0726 36.6973 44.0221 36.8371 43.8963L37.2796 43.4981C37.4621 43.3338 37.5218 43.0727 37.4288 42.8455L37.293 42.5133" stroke="#0478E0" stroke-width="0.581689" stroke-linecap="round"/>
<path d="M44.4663 41.0916L45.1767 41.2337C45.3368 41.2657 45.5017 41.209 45.6082 41.0853L46.2415 40.3499C46.3603 40.2119 46.5503 40.1586 46.7236 40.2147L47.5363 40.4776" stroke="#0478E0" stroke-width="0.581689" stroke-linecap="round"/>
<path d="M5.69048 9.89038L2.06592 9.89038L2.06592 10.5966C2.06592 10.7749 2.08673 10.9525 2.12792 11.126L3.78777 18.1148C3.93284 18.7257 4.32222 19.2502 4.86492 19.5658L5.69048 20.046L5.69048 9.89038Z" fill="#FF7320"/>
<path d="M11.0073 9.89093L14.6318 9.89093L14.6318 10.5971C14.6318 10.7754 14.611 10.9531 14.5698 11.1265L12.91 18.1154C12.7649 18.7262 12.3755 19.2507 11.8328 19.5664L11.0073 20.0465L11.0073 9.89093Z" fill="#FF7320"/>
<path d="M14.6152 9.89093L25.3863 9.89093V10.3355C25.3863 10.5054 25.2486 10.6432 25.0786 10.6432L14.6152 10.6432L14.6152 9.89093Z" fill="#FF7320"/>
<path d="M20.5303 11.1195V10.8142C20.5303 10.7198 20.6068 10.6432 20.7012 10.6432L23.9155 10.6432C24.0099 10.6432 24.0865 10.7198 24.0865 10.8142V11.1195C24.0865 11.1649 24.0684 11.2084 24.0364 11.2404L23.2475 12.0293C23.2154 12.0614 23.1719 12.0794 23.1266 12.0794L21.4901 12.0794C21.4448 12.0794 21.4013 12.0614 21.3692 12.0293L20.5803 11.2404C20.5483 11.2084 20.5303 11.1649 20.5303 11.1195Z" fill="#FFD9C2"/>
<path d="M2.06592 6.09503L62.5893 6.09503C62.7026 6.09503 62.7945 6.18689 62.7945 6.3002L62.7945 9.48024C62.7945 9.70686 62.6108 9.89057 62.3842 9.89057L2.06592 9.89057L2.06592 6.09503Z" fill="#FFA571"/>
<path d="M11.3325 4.69277C11.3325 4.57947 11.4244 4.48761 11.5377 4.48761L25.1811 4.48761C25.2944 4.48761 25.3863 4.57946 25.3863 4.69277L25.3863 6.09473L11.3325 6.09473L11.3325 4.69277Z" fill="#FF7320"/>
<path d="M7.70752 3.88711L7.70752 6.09491L11.3321 6.09491L11.3321 4.88911L9.34883 4.88911C9.21664 4.88911 9.10947 4.78195 9.10947 4.64975L9.10947 3.53138C9.10947 3.45584 9.17071 3.39461 9.24625 3.39461C9.32179 3.39461 9.38303 3.33337 9.38303 3.25783L9.38303 1.07511C9.38303 1.04577 9.34847 1.03027 9.32667 1.0499C8.25913 2.01105 7.80274 3.33627 7.70752 3.88711Z" fill="#FFD9C2"/>
<path d="M2.06592 4.89328L2.06592 6.09491L5.51951 6.09491L5.51951 4.16095C5.51951 3.79287 5.49185 3.4229 5.38651 3.07022C5.03789 1.90303 4.43014 1.25351 4.09936 1.03169C4.07739 1.01695 4.04917 1.03338 4.04917 1.05984L4.04917 4.55134C4.04917 4.608 4.00324 4.65392 3.94659 4.65392L2.30528 4.65392C2.17308 4.65392 2.06592 4.76109 2.06592 4.89328Z" fill="#FFD9C2"/>
<path d="M4.0916 8.55701C4.0916 8.49563 4.04184 8.44588 3.98047 8.44588C3.91909 8.44588 3.86934 8.49563 3.86934 8.55701H4.0916ZM3.86934 8.55701L3.86934 9.89057H4.0916L4.0916 8.55701H3.86934Z" fill="#FFD9C2"/>
<path d="M4.98027 9.22369C4.98027 9.16232 4.93052 9.11256 4.86914 9.11256C4.80776 9.11256 4.75801 9.16232 4.75801 9.22369L4.98027 9.22369ZM4.75801 9.22369L4.75801 9.89048L4.98027 9.89048L4.98027 9.22369L4.75801 9.22369Z" fill="#FFD9C2"/>
<path d="M8.49248 9.22369C8.49248 9.16232 8.44272 9.11256 8.38135 9.11256C8.31997 9.11256 8.27022 9.16232 8.27022 9.22369L8.49248 9.22369ZM8.27022 9.22369L8.27022 9.89048L8.49248 9.89048L8.49248 9.22369L8.27022 9.22369Z" fill="#FFD9C2"/>
<path d="M11.9598 9.22369C11.9598 9.16232 11.91 9.11256 11.8486 9.11256C11.7873 9.11256 11.7375 9.16232 11.7375 9.22369L11.9598 9.22369ZM11.7375 9.22369L11.7375 9.89048L11.9598 9.89048L11.9598 9.22369L11.7375 9.22369Z" fill="#FFD9C2"/>
<path d="M15.3836 9.22369C15.3836 9.16232 15.3338 9.11256 15.2725 9.11256C15.2111 9.11256 15.1613 9.16232 15.1613 9.22369L15.3836 9.22369ZM15.1613 9.22369L15.1613 9.89048L15.3836 9.89048L15.3836 9.22369L15.1613 9.22369Z" fill="#FFD9C2"/>
<path d="M18.8938 9.13464C18.8938 9.07327 18.8441 9.02351 18.7827 9.02351C18.7213 9.02351 18.6716 9.07327 18.6716 9.13464L18.8938 9.13464ZM18.6716 9.13464L18.6716 9.80143L18.8938 9.80143L18.8938 9.13464L18.6716 9.13464Z" fill="#FFD9C2"/>
<path d="M18.8499 9.13513C18.8499 9.07376 18.8001 9.024 18.7388 9.024C18.6774 9.024 18.6276 9.07376 18.6276 9.13513L18.8499 9.13513ZM18.6276 9.13513L18.6276 9.80191L18.8499 9.80191L18.8499 9.13513L18.6276 9.13513Z" fill="#FFD9C2"/>
<path d="M22.3167 9.17944C22.3167 9.11807 22.2669 9.06831 22.2056 9.06831C22.1442 9.06831 22.0944 9.11807 22.0944 9.17944L22.3167 9.17944ZM22.0944 9.17944L22.0944 9.84623L22.3167 9.84623L22.3167 9.17944L22.0944 9.17944Z" fill="#FFD9C2"/>
<path d="M39.6541 9.17944C39.6541 9.11807 39.6043 9.06831 39.543 9.06831C39.4816 9.06831 39.4318 9.11807 39.4318 9.17944L39.6541 9.17944ZM39.4318 9.17944L39.4318 9.84623L39.6541 9.84623L39.6541 9.17944L39.4318 9.17944Z" fill="#FFD9C2"/>
<path d="M25.8289 9.17944C25.8289 9.11807 25.7791 9.06831 25.7178 9.06831C25.6564 9.06831 25.6066 9.11807 25.6066 9.17944L25.8289 9.17944ZM25.6066 9.17944L25.6066 9.84623L25.8289 9.84623L25.8289 9.17944L25.6066 9.17944Z" fill="#FFD9C2"/>
<path d="M43.1648 9.17944C43.1648 9.11807 43.1151 9.06831 43.0537 9.06831C42.9923 9.06831 42.9426 9.11807 42.9426 9.17944L43.1648 9.17944ZM42.9426 9.17944L42.9426 9.84623L43.1648 9.84623L43.1648 9.17944L42.9426 9.17944Z" fill="#FFD9C2"/>
<path d="M29.2513 9.17944C29.2513 9.11807 29.2015 9.06831 29.1401 9.06831C29.0788 9.06831 29.029 9.11807 29.029 9.17944L29.2513 9.17944ZM29.029 9.17944L29.029 9.84623L29.2513 9.84623L29.2513 9.17944L29.029 9.17944Z" fill="#FFD9C2"/>
<path d="M46.5877 9.17944C46.5877 9.11807 46.5379 9.06831 46.4766 9.06831C46.4152 9.06831 46.3654 9.11807 46.3654 9.17944L46.5877 9.17944ZM46.3654 9.17944L46.3654 9.84623L46.5877 9.84623L46.5877 9.17944L46.3654 9.17944Z" fill="#FFD9C2"/>
<path d="M32.6741 9.17944C32.6741 9.11807 32.6244 9.06831 32.563 9.06831C32.5016 9.06831 32.4519 9.11807 32.4519 9.17944L32.6741 9.17944ZM32.4519 9.17944L32.4519 9.84623L32.6741 9.84623L32.6741 9.17944L32.4519 9.17944Z" fill="#FFD9C2"/>
<path d="M50.0105 9.17944C50.0105 9.11807 49.9608 9.06831 49.8994 9.06831C49.838 9.06831 49.7883 9.11807 49.7883 9.17944L50.0105 9.17944ZM49.7883 9.17944L49.7883 9.84623L50.0105 9.84623L50.0105 9.17944L49.7883 9.17944Z" fill="#FFD9C2"/>
<path d="M36.1858 9.17944C36.1858 9.11807 36.1361 9.06831 36.0747 9.06831C36.0133 9.06831 35.9636 9.11807 35.9636 9.17944L36.1858 9.17944ZM35.9636 9.17944L35.9636 9.84623L36.1858 9.84623L36.1858 9.17944L35.9636 9.17944Z" fill="#FFD9C2"/>
<path d="M53.5223 9.17944C53.5223 9.11807 53.4725 9.06831 53.4111 9.06831C53.3498 9.06831 53.3 9.11807 53.3 9.17944L53.5223 9.17944ZM53.3 9.17944L53.3 9.84623L53.5223 9.84623L53.5223 9.17944L53.3 9.17944Z" fill="#FFD9C2"/>
<path d="M56.9012 9.17944C56.9012 9.11807 56.8514 9.06831 56.79 9.06831C56.7287 9.06831 56.6789 9.11807 56.6789 9.17944L56.9012 9.17944ZM56.6789 9.17944L56.6789 9.84623L56.9012 9.84623L56.9012 9.17944L56.6789 9.17944Z" fill="#FFD9C2"/>
<path d="M5.91484 9.22369C5.91484 9.16232 5.86509 9.11256 5.80371 9.11256C5.74234 9.11256 5.69258 9.16232 5.69258 9.22369L5.91484 9.22369ZM5.69258 9.22369L5.69258 9.89048L5.91484 9.89048L5.91484 9.22369L5.69258 9.22369Z" fill="#FFD9C2"/>
<path d="M9.42656 9.22369C9.42656 9.16232 9.37681 9.11256 9.31543 9.11256C9.25405 9.11256 9.2043 9.16232 9.2043 9.22369L9.42656 9.22369ZM9.2043 9.22369L9.2043 9.89048L9.42656 9.89048L9.42656 9.22369L9.2043 9.22369Z" fill="#FFD9C2"/>
<path d="M12.8934 9.22369C12.8934 9.16232 12.8436 9.11256 12.7822 9.11256C12.7209 9.11256 12.6711 9.16232 12.6711 9.22369L12.8934 9.22369ZM12.6711 9.22369L12.6711 9.89048L12.8934 9.89048L12.8934 9.22369L12.6711 9.22369Z" fill="#FFD9C2"/>
<path d="M16.3162 9.22369C16.3162 9.16232 16.2665 9.11256 16.2051 9.11256C16.1437 9.11256 16.0939 9.16232 16.0939 9.22369L16.3162 9.22369ZM16.0939 9.22369L16.0939 9.89048L16.3162 9.89048L16.3162 9.22369L16.0939 9.22369Z" fill="#FFD9C2"/>
<path d="M19.8284 9.13464C19.8284 9.07327 19.7787 9.02351 19.7173 9.02351C19.6559 9.02351 19.6062 9.07327 19.6062 9.13464L19.8284 9.13464ZM19.6062 9.13464L19.6062 9.80143L19.8284 9.80143L19.8284 9.13464L19.6062 9.13464Z" fill="#FFD9C2"/>
<path d="M19.783 9.13464C19.783 9.07327 19.7333 9.02351 19.6719 9.02351C19.6105 9.02351 19.5607 9.07327 19.5607 9.13464L19.783 9.13464ZM19.5607 9.13464L19.5607 9.80143L19.783 9.80143L19.783 9.13464L19.5607 9.13464Z" fill="#FFD9C2"/>
<path d="M23.2508 9.17944C23.2508 9.11807 23.201 9.06831 23.1396 9.06831C23.0783 9.06831 23.0285 9.11807 23.0285 9.17944L23.2508 9.17944ZM23.0285 9.17944L23.0285 9.84623L23.2508 9.84623L23.2508 9.17944L23.0285 9.17944Z" fill="#FFD9C2"/>
<path d="M40.5867 9.17944C40.5867 9.11807 40.537 9.06831 40.4756 9.06831C40.4142 9.06831 40.3645 9.11807 40.3645 9.17944L40.5867 9.17944ZM40.3645 9.17944L40.3645 9.84623L40.5867 9.84623L40.5867 9.17944L40.3645 9.17944Z" fill="#FFD9C2"/>
<path d="M26.763 9.17944C26.763 9.11807 26.7132 9.06831 26.6519 9.06831C26.5905 9.06831 26.5407 9.11807 26.5407 9.17944L26.763 9.17944ZM26.5407 9.17944L26.5407 9.84623L26.763 9.84623L26.763 9.17944L26.5407 9.17944Z" fill="#FFD9C2"/>
<path d="M44.0994 9.17944C44.0994 9.11807 44.0497 9.06831 43.9883 9.06831C43.9269 9.06831 43.8772 9.11807 43.8772 9.17944L44.0994 9.17944ZM43.8772 9.17944L43.8772 9.84623L44.0994 9.84623L44.0994 9.17944L43.8772 9.17944Z" fill="#FFD9C2"/>
<path d="M30.1858 9.17944C30.1858 9.11807 30.1361 9.06831 30.0747 9.06831C30.0133 9.06831 29.9636 9.11807 29.9636 9.17944L30.1858 9.17944ZM29.9636 9.17944L29.9636 9.84623L30.1858 9.84623L30.1858 9.17944L29.9636 9.17944Z" fill="#FFD9C2"/>
<path d="M47.5223 9.17944C47.5223 9.11807 47.4725 9.06831 47.4111 9.06831C47.3498 9.06831 47.3 9.11807 47.3 9.17944L47.5223 9.17944ZM47.3 9.17944L47.3 9.84623L47.5223 9.84623L47.5223 9.17944L47.3 9.17944Z" fill="#FFD9C2"/>
<path d="M33.6082 9.17944C33.6082 9.11807 33.5584 9.06831 33.4971 9.06831C33.4357 9.06831 33.3859 9.11807 33.3859 9.17944L33.6082 9.17944ZM33.3859 9.17944L33.3859 9.84623L33.6082 9.84623L33.6082 9.17944L33.3859 9.17944Z" fill="#FFD9C2"/>
<path d="M50.9441 9.17944C50.9441 9.11807 50.8944 9.06831 50.833 9.06831C50.7716 9.06831 50.7219 9.11807 50.7219 9.17944L50.9441 9.17944ZM50.7219 9.17944L50.7219 9.84623L50.9441 9.84623L50.9441 9.17944L50.7219 9.17944Z" fill="#FFD9C2"/>
<path d="M37.1199 9.17944C37.1199 9.11807 37.0702 9.06831 37.0088 9.06831C36.9474 9.06831 36.8977 9.11807 36.8977 9.17944L37.1199 9.17944ZM36.8977 9.17944L36.8977 9.84623L37.1199 9.84623L37.1199 9.17944L36.8977 9.17944Z" fill="#FFD9C2"/>
<path d="M54.4568 9.17944C54.4568 9.11807 54.4071 9.06831 54.3457 9.06831C54.2843 9.06831 54.2346 9.11807 54.2346 9.17944L54.4568 9.17944ZM54.2346 9.17944L54.2346 9.84623L54.4568 9.84623L54.4568 9.17944L54.2346 9.17944Z" fill="#FFD9C2"/>
<path d="M57.8348 9.17944C57.8348 9.11807 57.785 9.06831 57.7236 9.06831C57.6623 9.06831 57.6125 9.11807 57.6125 9.17944L57.8348 9.17944ZM57.6125 9.17944L57.6125 9.84623L57.8348 9.84623L57.8348 9.17944L57.6125 9.17944Z" fill="#FFD9C2"/>
<path d="M6.84795 9.22369C6.84795 9.16232 6.79819 9.11256 6.73682 9.11256C6.67544 9.11256 6.62569 9.16232 6.62569 9.22369L6.84795 9.22369ZM6.62569 9.22369L6.62569 9.89048L6.84795 9.89048L6.84795 9.22369L6.62569 9.22369Z" fill="#FFD9C2"/>
<path d="M10.3592 9.22369C10.3592 9.16232 10.3094 9.11256 10.248 9.11256C10.1867 9.11256 10.1369 9.16232 10.1369 9.22369L10.3592 9.22369ZM10.1369 9.22369L10.1369 9.89048L10.3592 9.89048L10.3592 9.22369L10.1369 9.22369Z" fill="#FFD9C2"/>
<path d="M13.8265 9.22369C13.8265 9.16232 13.7767 9.11256 13.7153 9.11256C13.654 9.11256 13.6042 9.16232 13.6042 9.22369L13.8265 9.22369ZM13.6042 9.22369L13.6042 9.89048L13.8265 9.89048L13.8265 9.22369L13.6042 9.22369Z" fill="#FFD9C2"/>
<path d="M17.2498 9.22369C17.2498 9.16232 17.2 9.11256 17.1387 9.11256C17.0773 9.11256 17.0275 9.16232 17.0275 9.22369L17.2498 9.22369ZM17.0275 9.22369L17.0275 9.89048L17.2498 9.89048L17.2498 9.22369L17.0275 9.22369Z" fill="#FFD9C2"/>
<path d="M20.7615 9.13464C20.7615 9.07327 20.7118 9.02351 20.6504 9.02351C20.589 9.02351 20.5393 9.07327 20.5393 9.13464L20.7615 9.13464ZM20.5393 9.13464L20.5393 9.80143L20.7615 9.80143L20.7615 9.13464L20.5393 9.13464Z" fill="#FFD9C2"/>
<path d="M20.7161 9.13513C20.7161 9.07376 20.6664 9.024 20.605 9.024C20.5436 9.024 20.4938 9.07376 20.4938 9.13513L20.7161 9.13513ZM20.4938 9.13513L20.4938 9.80191L20.7161 9.80191L20.7161 9.13513L20.4938 9.13513Z" fill="#FFD9C2"/>
<path d="M24.1849 9.17944C24.1849 9.11807 24.1351 9.06831 24.0737 9.06831C24.0124 9.06831 23.9626 9.11807 23.9626 9.17944L24.1849 9.17944ZM23.9626 9.17944L23.9626 9.84623L24.1849 9.84623L24.1849 9.17944L23.9626 9.17944Z" fill="#FFD9C2"/>
<path d="M41.5203 9.17944C41.5203 9.11807 41.4706 9.06831 41.4092 9.06831C41.3478 9.06831 41.298 9.11807 41.298 9.17944L41.5203 9.17944ZM41.298 9.17944L41.298 9.84623L41.5203 9.84623L41.5203 9.17944L41.298 9.17944Z" fill="#FFD9C2"/>
<path d="M27.6961 9.17944C27.6961 9.11807 27.6463 9.06831 27.585 9.06831C27.5236 9.06831 27.4738 9.11807 27.4738 9.17944L27.6961 9.17944ZM27.4738 9.17944L27.4738 9.84623L27.6961 9.84623L27.6961 9.17944L27.4738 9.17944Z" fill="#FFD9C2"/>
<path d="M45.032 9.17944C45.032 9.11807 44.9823 9.06831 44.9209 9.06831C44.8595 9.06831 44.8098 9.11807 44.8098 9.17944L45.032 9.17944ZM44.8098 9.17944L44.8098 9.84623L45.032 9.84623L45.032 9.17944L44.8098 9.17944Z" fill="#FFD9C2"/>
<path d="M31.1185 9.17944C31.1185 9.11807 31.0687 9.06831 31.0073 9.06831C30.9459 9.06831 30.8962 9.11807 30.8962 9.17944L31.1185 9.17944ZM30.8962 9.17944L30.8962 9.84623L31.1185 9.84623L31.1185 9.17944L30.8962 9.17944Z" fill="#FFD9C2"/>
<path d="M48.4549 9.17944C48.4549 9.11807 48.4051 9.06831 48.3437 9.06831C48.2824 9.06831 48.2326 9.11807 48.2326 9.17944L48.4549 9.17944ZM48.2326 9.17944L48.2326 9.84623L48.4549 9.84623L48.4549 9.17944L48.2326 9.17944Z" fill="#FFD9C2"/>
<path d="M34.5413 9.17944C34.5413 9.11807 34.4916 9.06831 34.4302 9.06831C34.3688 9.06831 34.319 9.11807 34.319 9.17944L34.5413 9.17944ZM34.319 9.17944L34.319 9.84623L34.5413 9.84623L34.5413 9.17944L34.319 9.17944Z" fill="#FFD9C2"/>
<path d="M51.8782 9.17944C51.8782 9.11807 51.8285 9.06831 51.7671 9.06831C51.7057 9.06831 51.656 9.11807 51.656 9.17944L51.8782 9.17944ZM51.656 9.17944L51.656 9.84623L51.8782 9.84623L51.8782 9.17944L51.656 9.17944Z" fill="#FFD9C2"/>
<path d="M38.0535 9.17944C38.0535 9.11807 38.0038 9.06831 37.9424 9.06831C37.881 9.06831 37.8313 9.11807 37.8313 9.17944L38.0535 9.17944ZM37.8313 9.17944L37.8313 9.84623L38.0535 9.84623L38.0535 9.17944L37.8313 9.17944Z" fill="#FFD9C2"/>
<path d="M55.3895 9.17944C55.3895 9.11807 55.3397 9.06831 55.2783 9.06831C55.2169 9.06831 55.1672 9.11807 55.1672 9.17944L55.3895 9.17944ZM55.1672 9.17944L55.1672 9.84623L55.3895 9.84623L55.3895 9.17944L55.1672 9.17944Z" fill="#FFD9C2"/>
<path d="M58.7669 9.17944C58.7669 9.11807 58.7171 9.06831 58.6558 9.06831C58.5944 9.06831 58.5446 9.11807 58.5446 9.17944L58.7669 9.17944ZM58.5446 9.17944L58.5446 9.84623L58.7669 9.84623L58.7669 9.17944L58.5446 9.17944Z" fill="#FFD9C2"/>
<path d="M7.69316 8.55701C7.69316 8.49563 7.64341 8.44588 7.58203 8.44588C7.52066 8.44588 7.4709 8.49563 7.4709 8.55701H7.69316ZM7.4709 8.55701L7.4709 9.89057H7.69316L7.69316 8.55701H7.4709Z" fill="#FFD9C2"/>
<path d="M11.1595 8.55701C11.1595 8.49563 11.1097 8.44588 11.0483 8.44588C10.987 8.44588 10.9372 8.49563 10.9372 8.55701H11.1595ZM10.9372 8.55701L10.9372 9.89057H11.1595L11.1595 8.55701H10.9372Z" fill="#FFD9C2"/>
<path d="M14.5833 8.55701C14.5833 8.49563 14.5335 8.44588 14.4722 8.44588C14.4108 8.44588 14.361 8.49563 14.361 8.55701H14.5833ZM14.361 8.55701L14.361 9.89057H14.5833L14.5833 8.55701H14.361Z" fill="#FFD9C2"/>
<path d="M18.0496 8.55701C18.0496 8.49563 17.9999 8.44588 17.9385 8.44588C17.8771 8.44588 17.8273 8.49563 17.8273 8.55701H18.0496ZM17.8273 8.55701L17.8273 9.89057H18.0496L18.0496 8.55701H17.8273Z" fill="#FFD9C2"/>
<path d="M21.5169 8.55701C21.5169 8.49563 21.4671 8.44588 21.4058 8.44588C21.3444 8.44588 21.2946 8.49563 21.2946 8.55701H21.5169ZM21.2946 8.55701L21.2946 9.89057H21.5169L21.5169 8.55701H21.2946Z" fill="#FFD9C2"/>
<path d="M24.9402 8.55701C24.9402 8.49563 24.8905 8.44588 24.8291 8.44588C24.7677 8.44588 24.718 8.49563 24.718 8.55701H24.9402ZM24.718 8.55701L24.718 9.89057H24.9402L24.9402 8.55701H24.718Z" fill="#FFD9C2"/>
<path d="M28.4515 8.55701C28.4515 8.49563 28.4017 8.44588 28.3403 8.44588C28.279 8.44588 28.2292 8.49563 28.2292 8.55701H28.4515ZM28.2292 8.55701L28.2292 9.89057H28.4515L28.4515 8.55701H28.2292Z" fill="#FFD9C2"/>
<path d="M31.9187 8.55701C31.9187 8.49563 31.869 8.44588 31.8076 8.44588C31.7462 8.44588 31.6965 8.49563 31.6965 8.55701H31.9187ZM31.6965 8.55701L31.6965 9.89057H31.9187L31.9187 8.55701H31.6965Z" fill="#FFD9C2"/>
<path d="M35.2967 8.55701C35.2967 8.49563 35.2469 8.44588 35.1855 8.44588C35.1242 8.44588 35.0744 8.49563 35.0744 8.55701H35.2967ZM35.0744 8.55701L35.0744 9.89057H35.2967L35.2967 8.55701H35.0744Z" fill="#FFD9C2"/>
<path d="M38.8982 8.55701C38.8982 8.49563 38.8485 8.44588 38.7871 8.44588C38.7257 8.44588 38.676 8.49563 38.676 8.55701H38.8982ZM38.676 8.55701L38.676 9.89057H38.8982L38.8982 8.55701H38.676Z" fill="#FFD9C2"/>
<path d="M42.2317 8.55701C42.2317 8.49563 42.182 8.44588 42.1206 8.44588C42.0592 8.44588 42.0095 8.49563 42.0095 8.55701H42.2317ZM42.0095 8.55701L42.0095 9.89057H42.2317L42.2317 8.55701H42.0095Z" fill="#FFD9C2"/>
<path d="M45.7439 8.55701C45.7439 8.49563 45.6942 8.44588 45.6328 8.44588C45.5714 8.44588 45.5217 8.49563 45.5217 8.55701H45.7439ZM45.5217 8.55701L45.5217 9.89057H45.7439L45.7439 8.55701H45.5217Z" fill="#FFD9C2"/>
<path d="M49.1663 8.55701C49.1663 8.49563 49.1166 8.44588 49.0552 8.44588C48.9938 8.44588 48.944 8.49563 48.944 8.55701H49.1663ZM48.944 8.55701L48.944 9.89057H49.1663L49.1663 8.55701H48.944Z" fill="#FFD9C2"/>
<path d="M52.5896 8.55701C52.5896 8.49563 52.5399 8.44588 52.4785 8.44588C52.4171 8.44588 52.3674 8.49563 52.3674 8.55701H52.5896ZM52.3674 8.55701L52.3674 9.89057H52.5896L52.5896 8.55701H52.3674Z" fill="#FFD9C2"/>
<path d="M56.1004 8.55701C56.1004 8.49563 56.0506 8.44588 55.9893 8.44588C55.9279 8.44588 55.8781 8.49563 55.8781 8.55701H56.1004ZM55.8781 8.55701L55.8781 9.89057H56.1004L56.1004 8.55701H55.8781Z" fill="#FFD9C2"/>
<path d="M59.5232 8.55701C59.5232 8.49563 59.4735 8.44588 59.4121 8.44588C59.3507 8.44588 59.301 8.49563 59.301 8.55701H59.5232ZM59.301 8.55701L59.301 9.89057H59.5232L59.5232 8.55701H59.301Z" fill="#FFD9C2"/>
<path d="M62.7946 7.58253V6.47123C62.7946 6.26349 62.6262 6.09509 62.4185 6.09509L34.4307 6.09509" stroke="#FF7320" stroke-width="0.538363" stroke-linecap="round"/>
<circle cx="33.6431" cy="6.07796" r="0.188067" fill="#FF7320"/>
<circle cx="62.7774" cy="8.40311" r="0.222261" fill="#FF7320"/>
<circle cx="9.11044" cy="4.59036" r="0.205164" fill="#FF7320"/>
<circle cx="7.74179" cy="5.65084" r="0.205164" fill="#FF7320"/>
<path d="M7.74268 5.13759L7.74268 4.01222C7.74268 3.82844 7.76168 3.64471 7.81519 3.4689C8.01664 2.80709 8.48583 1.73716 9.24556 1.13166C9.30987 1.0804 9.40109 1.12816 9.40109 1.21039L9.40109 1.78658L9.40109 3.32531C9.40109 3.34419 9.38578 3.3595 9.36689 3.3595L9.17882 3.3595C9.15994 3.3595 9.14463 3.37481 9.14463 3.3937L9.14463 4.00919" stroke="#FF7320" stroke-width="0.307746" stroke-linecap="round"/>
<circle cx="5.51962" cy="5.34268" r="0.205164" fill="#FF7320"/>
<path d="M5.50304 4.77861C5.50304 3.9002 5.73671 2.77142 4.12616 1.07895C4.10499 1.0567 4.06689 1.0709 4.06689 1.10162L4.06689 1.85503L4.06689 4.67603" stroke="#FF7320" stroke-width="0.307746" stroke-linecap="round"/>
<circle cx="2.04941" cy="8.19779" r="0.222261" fill="#FF7320"/>
<path d="M4.03209 4.67603L2.10013 4.67603C2.06236 4.67603 2.03174 4.70664 2.03174 4.74441L2.03174 7.56542" stroke="#FF7320" stroke-width="0.307746" stroke-linecap="round"/>
<path d="M24.0871 10.6255V11.0456C24.0871 11.1817 24.0331 11.3121 23.9369 11.4083L23.4338 11.9114C23.3376 12.0076 23.2071 12.0616 23.0711 12.0616L22.4629 12.0616" stroke="#FF7320" stroke-width="0.307746" stroke-linecap="round"/>
<circle cx="21.8975" cy="12.0786" r="0.17097" fill="#FF7320"/>
</svg>
