<svg width="56" height="59" viewBox="0 0 56 59" fill="none" xmlns="http://www.w3.org/2000/svg">
<ellipse cx="26" cy="56" rx="21" ry="3" fill="#DAEEFF"/>
<path d="M27.9199 33.7118C27.9199 26.6401 22.1872 20.9073 15.1155 20.9073C8.04378 20.9073 2.31103 26.6401 2.31103 33.7118C2.31103 40.7835 8.04378 46.5162 15.1155 46.5162C22.1872 46.5162 27.9199 40.7835 27.9199 33.7118Z" fill="#52ADFF"/>
<path d="M13.6374 48.531L12.9321 46.1329L17.3615 46.1329L16.6844 48.531C15.4656 48.7793 14.1453 48.6345 13.6374 48.531Z" fill="#52ADFF"/>
<path d="M13.6374 18.7908L12.9321 21.1889L17.3615 21.1889L16.6844 18.7908C15.4656 18.5426 14.1453 18.6874 13.6374 18.7908Z" fill="#52ADFF"/>
<path d="M21.1803 47.3355L19.3825 45.5989L23.2337 43.4109L23.8296 45.8304C22.8925 46.6483 21.6729 47.1746 21.1803 47.3355Z" fill="#52ADFF"/>
<path d="M6.48907 21.4775L7.06039 23.911L10.9116 21.723L9.13832 19.9724C7.95599 20.3586 6.87952 21.1367 6.48907 21.4775Z" fill="#52ADFF"/>
<path d="M26.7216 43.1163L24.332 42.3831L26.7734 38.6873L28.4011 40.574C27.9364 41.7278 27.0879 42.7496 26.7216 43.1163Z" fill="#52ADFF"/>
<path d="M1.90792 26.7242L3.52007 28.6345L5.96145 24.9387L3.58734 24.1819C2.70842 25.062 2.10151 26.2435 1.90792 26.7242Z" fill="#52ADFF"/>
<path d="M29.8156 36.5317L27.3628 37.0134L27.7702 32.6028L30.0958 33.4976C30.231 34.7341 29.9653 36.0355 29.8156 36.5317Z" fill="#52ADFF"/>
<path d="M0.201376 33.796L2.52439 34.7189L2.93181 30.3083L0.481637 30.762C0.122316 31.9528 0.145079 33.2808 0.201376 33.796Z" fill="#52ADFF"/>
<path d="M29.3212 28.918L27.4257 30.5475L25.6032 26.5105L28.0674 26.1409C28.7952 27.1496 29.2065 28.4126 29.3212 28.918Z" fill="#52ADFF"/>
<path d="M2.21558 41.1554L4.69144 40.8115L2.86888 36.7745L0.961844 38.3783C1.23706 39.5913 1.91234 40.7351 2.21558 41.1554Z" fill="#52ADFF"/>
<path d="M24.5505 22.0433L23.828 24.4362L20.1213 22.0115L22.0007 20.3753C23.1565 20.8347 24.1822 21.6787 24.5505 22.0433Z" fill="#52ADFF"/>
<path d="M8.27044 46.9314L10.1734 45.3107L6.46666 42.886L5.72057 45.2635C6.60461 46.1384 7.78883 46.74 8.27044 46.9314Z" fill="#52ADFF"/>
<path d="M24.584 33.7438C24.584 28.5085 20.3399 24.2644 15.1046 24.2644C9.86925 24.2644 5.62519 28.5085 5.62519 33.7438C5.62519 38.9791 9.86925 43.2232 15.1046 43.2232C20.3399 43.2232 24.584 38.9791 24.584 33.7438Z" fill="#52ADFF" stroke="#DCEFFF" stroke-width="2.20057"/>
<path d="M49.0446 24.5711C50.3659 19.3214 47.1813 13.9944 41.9316 12.6731C36.6818 11.3518 31.3549 14.5364 30.0336 19.7861C28.7123 25.0359 31.8969 30.3628 37.1466 31.6841C42.3964 33.0054 47.7233 29.8208 49.0446 24.5711Z" fill="#52ADFF"/>
<path d="M35.6727 32.9034L35.5972 30.9914L38.8854 31.819L37.9347 33.4728C36.9835 33.4293 36.0304 33.0751 35.6727 32.9034Z" fill="#52ADFF"/>
<path d="M41.2304 10.8258L40.2587 12.4743L43.5469 13.3019L43.4923 11.3952C42.6339 10.9831 41.6267 10.8439 41.2304 10.8258Z" fill="#52ADFF"/>
<path d="M41.4953 33.4256L40.4851 31.8004L43.753 30.8958L43.7432 32.8033C42.8947 33.2354 41.8911 33.3982 41.4953 33.4256Z" fill="#52ADFF"/>
<path d="M35.4214 11.4844L35.3908 13.3977L38.6586 12.493L37.6693 10.8621C36.7194 10.9279 35.7749 11.3044 35.4214 11.4844Z" fill="#52ADFF"/>
<path d="M46.3981 31.3289L44.7611 30.3381L47.264 28.0506L48.1198 29.7554C47.5593 30.5251 46.7385 31.1251 46.3981 31.3289Z" fill="#52ADFF"/>
<path d="M31.0397 14.5236L31.8795 16.243L34.3825 13.9555L32.7614 12.9501C31.9445 13.4392 31.2732 14.2029 31.0397 14.5236Z" fill="#52ADFF"/>
<path d="M49.9246 27.0184L48.0138 26.9178L49.1404 23.7197L50.6996 24.8185C50.5689 25.7616 50.1285 26.6781 49.9246 27.0184Z" fill="#52ADFF"/>
<path d="M28.4517 19.4545L30.0038 20.5737L31.1303 17.3756L29.2267 17.2545C28.7374 18.0714 28.5062 19.0615 28.4517 19.4545Z" fill="#52ADFF"/>
<path d="M50.9806 21.2743L49.269 22.1298L48.6703 18.7924L50.5687 18.9784C50.9205 19.8632 50.9899 20.8776 50.9806 21.2743Z" fill="#52ADFF"/>
<path d="M28.5709 25.2938L30.4732 25.5012L29.8745 22.1637L28.1591 22.998C28.1368 23.9499 28.4244 24.9252 28.5709 25.2938Z" fill="#52ADFF"/>
<path d="M48.7228 15.279L47.7394 16.9204L45.4407 14.4278L47.1416 13.5643C47.9138 14.1213 48.5175 14.9395 48.7228 15.279Z" fill="#52ADFF"/>
<path d="M31.987 30.713L33.7025 29.8654L31.4038 27.3728L30.4057 28.9984C30.8985 29.8131 31.6652 30.4809 31.987 30.713Z" fill="#52ADFF"/>
<path d="M46.5626 23.9713C47.5408 20.0848 45.1832 16.1412 41.2967 15.163C37.4102 14.1848 33.4666 16.5424 32.4884 20.4289C31.5102 24.3154 33.8678 28.259 37.7543 29.2372C41.6408 30.2154 45.5844 27.8578 46.5626 23.9713Z" fill="#52ADFF" stroke="#DCEFFF" stroke-width="1.68456"/>
<path d="M40.6622 24.6308L38.5011 24.6308C38.261 24.6308 38.0394 24.5014 37.9214 24.2922L36.8536 22.3993C36.7427 22.2027 36.739 21.9634 36.8437 21.7634L37.9255 19.6982C38.0404 19.4789 38.2675 19.3414 38.5151 19.3414L40.6482 19.3414C40.8958 19.3414 41.1229 19.4789 41.2378 19.6982L42.3196 21.7634C42.4243 21.9634 42.4206 22.2027 42.3097 22.3993L41.2419 24.2922C41.1239 24.5014 40.9024 24.6308 40.6622 24.6308Z" fill="#0478E0"/>
<path d="M40.8514 22.0236C40.8514 21.3409 40.298 20.7876 39.6154 20.7876C38.9328 20.7876 38.3794 21.3409 38.3794 22.0236C38.3794 22.7062 38.9328 23.2596 39.6154 23.2596C40.298 23.2596 40.8514 22.7062 40.8514 22.0236Z" fill="white" stroke="#DCEFFF" stroke-width="0.745098"/>
<circle cx="0.310337" cy="0.310337" r="0.310337" transform="matrix(1 -8.68008e-08 -8.68008e-08 -1 29.1152 17.4648)" fill="#0478E0"/>
<path d="M44.5162 46.4326C46.1982 42.6746 44.5153 38.2645 40.7572 36.5824C36.9991 34.9003 32.589 36.5833 30.907 40.3414C29.2249 44.0995 30.9079 48.5096 34.6659 50.1916C38.424 51.8737 42.8341 50.1907 44.5162 46.4326Z" fill="#52ADFF"/>
<path d="M33.4016 50.9108L33.5971 49.4687L35.951 50.5222L35.0208 51.6356C34.314 51.4776 33.6468 51.0866 33.4016 50.9108Z" fill="#52ADFF"/>
<path d="M40.476 35.1061L39.5308 36.2127L41.8847 37.2663L42.0952 35.8308C41.5066 35.409 40.7705 35.1719 40.476 35.1061Z" fill="#52ADFF"/>
<path d="M37.6941 52.0696L37.1518 50.7191L39.7188 50.4724L39.46 51.8999C38.7675 52.1117 37.9942 52.1013 37.6941 52.0696Z" fill="#52ADFF"/>
<path d="M36.038 34.8335L35.7628 36.2626L38.3298 36.0159L37.8039 34.6638C37.0837 34.5878 36.3265 34.7453 36.038 34.8335Z" fill="#52ADFF"/>
<path d="M41.6426 51.1458L40.5471 50.1878L42.7236 48.8044L43.1398 50.1942C42.6185 50.6969 41.9245 51.0381 41.6426 51.1458Z" fill="#52ADFF"/>
<path d="M32.3552 36.5321L32.7576 37.9308L34.9341 36.5474L33.8524 35.5805C33.176 35.8392 32.5724 36.3227 32.3552 36.5321Z" fill="#52ADFF"/>
<path d="M44.8527 48.382L43.4346 48.0546L44.7002 45.8076L45.7233 46.8363C45.501 47.5255 45.0503 48.1539 44.8527 48.382Z" fill="#52ADFF"/>
<path d="M29.7662 39.8845L30.7812 40.9275L32.0468 38.6805L30.6368 38.3388C30.1626 38.8861 29.8588 39.5973 29.7662 39.8845Z" fill="#52ADFF"/>
<path d="M46.4003 44.2184L45.0054 44.6335L44.9971 42.0547L46.3946 42.4444C46.5414 43.1535 46.4596 43.9225 46.4003 44.2184Z" fill="#52ADFF"/>
<path d="M29.0858 44.2742L30.4833 44.6803L30.475 42.1014L29.0801 42.5001C28.9378 43.2102 29.0246 43.9787 29.0858 44.2742Z" fill="#52ADFF"/>
<path d="M45.5005 39.4301L44.5474 40.5299L43.1543 38.3597L44.5422 37.9372C45.0472 38.4563 45.3915 39.1487 45.5005 39.4301Z" fill="#52ADFF"/>
<path d="M30.9293 48.7842L32.3261 48.3755L30.933 46.2053L29.971 47.2913C30.2327 47.9665 30.7189 48.5679 30.9293 48.7842Z" fill="#52ADFF"/>
<path d="M42.7359 45.6562C43.9812 42.874 42.7352 39.6091 39.9531 38.3639C37.1709 37.1186 33.906 38.3645 32.6607 41.1467C31.4155 43.9289 32.6614 47.1938 35.4436 48.4391C38.2258 49.6843 41.4907 48.4384 42.7359 45.6562Z" fill="#52ADFF" stroke="#DCEFFF" stroke-width="1.28123"/>
<path d="M15.1504 42.0662C17.1817 42.0944 20.9622 41.502 22.6549 37.2419C24.2101 33.328 22.9935 30.3016 22.006 29.0885" stroke="#0478E0" stroke-width="0.507824" stroke-linecap="round"/>
<circle cx="0.310337" cy="0.310337" r="0.310337" transform="matrix(1 -8.74228e-08 -8.74228e-08 -1 13.8794 42.3485)" fill="#0478E0"/>
<circle cx="0.310337" cy="0.310337" r="0.310337" transform="matrix(1 -8.74228e-08 -8.74228e-08 -1 13.0908 47.7089)" fill="#0478E0"/>
<circle cx="0.310337" cy="0.310337" r="0.310337" transform="matrix(1 -8.74228e-08 -8.74228e-08 -1 19.1841 46.1289)" fill="#0478E0"/>
<circle cx="0.310337" cy="0.310337" r="0.310337" transform="matrix(1 -8.74228e-08 -8.74228e-08 -1 6.54541 32.5306)" fill="#0478E0"/>
<circle cx="0.310337" cy="0.310337" r="0.310337" transform="matrix(1 -8.74228e-08 -8.74228e-08 -1 13.8794 25.7031)" fill="#0478E0"/>
<circle cx="0.310337" cy="0.310337" r="0.310337" transform="matrix(1 -8.74228e-08 -8.74228e-08 -1 14.7832 18.9886)" fill="#0478E0"/>
<circle cx="0.310337" cy="0.310337" r="0.310337" transform="matrix(1 -8.74228e-08 -8.74228e-08 -1 8.68945 20.2865)" fill="#0478E0"/>
<circle cx="0.310337" cy="0.310337" r="0.310337" transform="matrix(1 -8.74228e-08 -8.74228e-08 -1 21.1592 28.6371)" fill="#0478E0"/>
<path d="M7.1377 31.2892C7.78658 28.9476 9.84609 25.9289 13.0905 25.5903" stroke="#0478E0" stroke-width="0.507824" stroke-linecap="round"/>
<path d="M19.0714 33.7157C19.0714 31.5343 17.303 29.7659 15.1216 29.7659C12.9402 29.7659 11.1719 31.5343 11.1719 33.7157C11.1719 35.897 12.9402 37.6654 15.1216 37.6654C17.303 37.6654 19.0714 35.897 19.0714 33.7157Z" fill="#DCEFFF"/>
<path d="M15.9959 35.6909L14.3594 35.6909C14.1775 35.6909 14.0097 35.5929 13.9203 35.4345L13.1117 34.0011C13.0277 33.8522 13.0249 33.6709 13.1042 33.5195L13.9235 31.9556C14.0105 31.7895 14.1825 31.6854 14.37 31.6854L15.9853 31.6854C16.1728 31.6854 16.3448 31.7895 16.4318 31.9556L17.251 33.5195C17.3303 33.6709 17.3275 33.8522 17.2435 34.0011L16.4349 35.4345C16.3455 35.5929 16.1778 35.6909 15.9959 35.6909Z" fill="#0478E0"/>
<path d="M16.4216 33.7166C16.4216 33.0438 15.8762 32.4984 15.2035 32.4984C14.5307 32.4984 13.9854 33.0438 13.9854 33.7166C13.9854 34.3893 14.5307 34.9347 15.2035 34.9347C15.8762 34.9347 16.4216 34.3893 16.4216 33.7166Z" fill="white"/>
<path d="M18.6484 46.0442L17.8277 46.1981C17.5026 46.2591 17.2428 46.5038 17.1626 46.8247L16.8858 47.932C16.7937 48.3004 16.4675 48.5624 16.088 48.5728L14.1474 48.6262C13.8606 48.6341 13.6077 48.4394 13.542 48.1602V48.1602" stroke="#0478E0" stroke-width="0.507824" stroke-linecap="round"/>
<path d="M5.75537 24.9129L6.66061 24.1454C6.90176 23.941 7.00886 23.6192 6.93831 23.311L6.65039 22.0532C6.57048 21.7041 6.71891 21.3426 7.02103 21.1503L8.06879 20.4835" stroke="#0478E0" stroke-width="0.507824" stroke-linecap="round"/>
<path d="M15.9966 18.7062L16.2098 18.7472C16.5281 18.8084 16.7834 19.046 16.8674 19.359L17.226 20.6957C17.3034 20.984 17.5268 21.2102 17.8141 21.2911L19.7794 21.8444C20.0742 21.9274 20.3907 21.8447 20.6073 21.6282L20.9338 21.3017" stroke="#0478E0" stroke-width="0.507824" stroke-linecap="round"/>
<path d="M26.7734 38.7936C27.0944 38.3459 27.2693 38.0272 27.3542 37.7913C27.5258 37.315 27.6363 36.8392 28.1372 36.7662L29.3257 36.5928C29.6743 36.542 29.9534 36.2805 29.9978 35.931C30.0891 35.2122 30.1574 34.1969 30.1061 33.7251C30.0887 33.566 29.9671 33.4583 29.8183 33.3991L28.2978 32.7948C28.0178 32.6835 27.818 32.4317 27.7734 32.1337L27.6763 31.4866" stroke="#0478E0" stroke-width="0.507824" stroke-linecap="round"/>
<circle cx="0.310337" cy="0.310337" r="0.310337" transform="matrix(1 -8.74228e-08 -8.74228e-08 -1 27.1968 30.9505)" fill="#0478E0"/>
<path d="M11.4541 32.1922C11.125 33.1326 10.9406 35.4028 12.8365 36.9601C15.2064 38.9068 18.2773 37.2182 18.8272 35.3096" stroke="#0478E0" stroke-width="0.507824" stroke-linecap="round"/>
<circle cx="0.310337" cy="0.310337" r="0.310337" transform="matrix(1 -8.74228e-08 -8.74228e-08 -1 11.5669 31.6841)" fill="#0478E0"/>
<circle cx="0.310337" cy="0.310337" r="0.310337" transform="matrix(1 -8.74228e-08 -8.74228e-08 -1 32.8965 21.7536)" fill="#0478E0"/>
<circle cx="0.310337" cy="0.310337" r="0.310337" transform="matrix(1 -8.74228e-08 -8.74228e-08 -1 31.3726 14.136)" fill="#0478E0"/>
<circle cx="0.310337" cy="0.310337" r="0.310337" transform="matrix(1 -8.74228e-08 -8.74228e-08 -1 37.2017 11.1443)" fill="#0478E0"/>
<circle cx="0.310337" cy="0.310337" r="0.310337" transform="matrix(1 -8.74228e-08 -8.74228e-08 -1 50.6699 21.1328)" fill="#0478E0"/>
<circle cx="0.310337" cy="0.310337" r="0.310337" transform="matrix(1 -8.74228e-08 -8.74228e-08 -1 30.3003 26.606)" fill="#0478E0"/>
<circle cx="0.310337" cy="0.310337" r="0.310337" transform="matrix(1 -8.74228e-08 -8.74228e-08 -1 35.2656 31.5712)" fill="#0478E0"/>
<path d="M33.0937 22.2612C32.9526 23.8694 33.7479 26.5051 36.3384 27.9319C39.6679 29.7658 42.9962 28.1859 44.4915 26.211" stroke="#0478E0" stroke-width="0.507824" stroke-linecap="round"/>
<path d="M31.0624 27.0573V27.0573C31.2505 27.331 31.2569 27.6906 31.0786 27.9708L30.7465 28.4926C30.535 28.825 30.5808 29.2593 30.8569 29.5403L31.587 30.2832C31.832 30.5324 32.2048 30.6055 32.5257 30.4672L33.1541 30.1964C33.446 30.0705 33.7823 30.1211 34.0389 30.3086C34.3188 30.513 34.6427 30.7241 34.8428 30.7813" stroke="#0478E0" stroke-width="0.507824" stroke-linecap="round"/>
<path d="M38.9053 32.0508C39.13 32.1632 39.8956 32.1144 40.3231 31.9758C40.4593 31.9317 40.638 31.9691 40.7107 32.0924L41.2553 33.0166C41.4074 33.2747 41.6853 33.4353 41.9834 33.4044C42.2221 33.3797 42.5048 33.3364 42.7704 33.264" stroke="#0478E0" stroke-width="0.507824" stroke-linecap="round"/>
<path d="M47.7642 16.7881C48.0422 17.0393 48.6164 17.7765 48.7863 18.7843C48.8005 18.8685 48.8721 18.9323 48.9575 18.9323L49.973 18.9323C50.3247 18.9323 50.635 19.152 50.7127 19.495C50.7516 19.6664 50.7853 19.8318 50.8111 19.9479" stroke="#0478E0" stroke-width="0.507824" stroke-linecap="round"/>
<path d="M29.8207 21.1608V21.1608C29.7757 20.8456 29.5854 20.2622 29.3235 20.0809L28.5177 19.5231C28.4649 19.4865 28.4116 19.4463 28.3862 19.3873C28.3164 19.2248 28.3179 18.8473 28.8897 17.8882" stroke="#0478E0" stroke-width="0.507824" stroke-linecap="round"/>
<path d="M32.3315 13.2614L32.4024 13.226C32.6728 13.0908 32.9948 13.1101 33.2471 13.2766L33.7477 13.607C34.0484 13.8055 34.4397 13.7884 34.7409 13.5907C34.8859 13.4955 35.0352 13.4047 35.1662 13.3384C35.3636 13.2384 35.5391 13.1179 35.5492 12.8969C35.558 12.7029 35.5552 12.412 35.528 11.9901C35.509 11.6937 35.6396 11.4043 35.9099 11.2814C36.0332 11.2254 36.1774 11.1679 36.3377 11.1173" stroke="#0478E0" stroke-width="0.507824" stroke-linecap="round"/>
<circle cx="0.310337" cy="0.310337" r="0.310337" transform="matrix(1 -8.74228e-08 -8.74228e-08 -1 29.438 40.194)" fill="#0478E0"/>
<path d="M46.4101 44.1259L45.3186 44.553C45.1905 44.6032 45.0977 44.7164 45.0737 44.8519L44.9337 45.6413C44.9138 45.7538 44.9435 45.8694 45.0152 45.9583L45.6766 46.7779" stroke="#0478E0" stroke-width="0.507824" stroke-linecap="round"/>
<path d="M38.8998 43.448C38.8998 42.7653 38.3464 42.2119 37.6637 42.2119C36.9811 42.2119 36.4277 42.7653 36.4277 43.448C36.4277 44.1306 36.9811 44.684 37.6637 44.684C38.3464 44.684 38.8998 44.1306 38.8998 43.448Z" fill="white" stroke="#DCEFFF" stroke-width="0.745098"/>
<circle cx="0.310337" cy="0.310337" r="0.310337" transform="matrix(1 -8.74228e-08 -8.74228e-08 -1 36.0552 42.7999)" fill="#0478E0"/>
<circle cx="0.310337" cy="0.310337" r="0.310337" transform="matrix(1 -8.74228e-08 -8.74228e-08 -1 33.291 50.812)" fill="#0478E0"/>
<circle cx="0.310337" cy="0.310337" r="0.310337" transform="matrix(1 -8.74228e-08 -8.74228e-08 -1 30.2998 45.7902)" fill="#0478E0"/>
<circle cx="0.310337" cy="0.310337" r="0.310337" transform="matrix(1 -8.74228e-08 -8.74228e-08 -1 41.5298 41.2764)" fill="#0478E0"/>
<path d="M36.0561 43.3076C35.6615 45.48 38.6234 45.8467 39.159 44.2104" stroke="#0478E0" stroke-width="0.507824" stroke-linecap="round"/>
<path d="M42.3185 41.7561C42.5442 42.3016 42.8433 43.7762 42.2339 45.3109" stroke="#0478E0" stroke-width="0.507824" stroke-linecap="round"/>
<path d="M33.6015 49.6273L32.3776 48.5533C32.2786 48.4664 32.1427 48.4346 32.0154 48.4685L31.0793 48.7181C30.9997 48.7394 30.915 48.714 30.86 48.6527V48.6527C30.601 48.3632 30.3798 48.042 30.2017 47.6969L30.1098 47.5189C30.0547 47.4122 30.0702 47.2826 30.149 47.1919L30.9496 46.27" stroke="#0478E0" stroke-width="0.507824" stroke-linecap="round"/>
<path d="M30.2144 39.191L30.5099 38.6691C30.62 38.4748 30.844 38.3752 31.062 38.4236L31.7093 38.5674C31.8696 38.6031 32.0371 38.559 32.1592 38.4492L32.5455 38.1015C32.7048 37.9581 32.7569 37.7301 32.6758 37.5318L32.5572 37.2418" stroke="#0478E0" stroke-width="0.507824" stroke-linecap="round"/>
<path d="M38.8198 36.0006L39.44 36.1247C39.5797 36.1526 39.7237 36.1031 39.8167 35.9951L40.3696 35.3531C40.4733 35.2326 40.6392 35.1861 40.7904 35.235L41.5 35.4646" stroke="#0478E0" stroke-width="0.507824" stroke-linecap="round"/>
<path d="M4.96802 8.76147L1.80371 8.76147L1.80371 9.378C1.80371 9.53364 1.82188 9.68874 1.85784 9.84017L3.30692 15.9416C3.43357 16.4748 3.7735 16.9327 4.24728 17.2083L4.96802 17.6275L4.96802 8.76147Z" fill="#FF7320"/>
<path d="M9.60962 8.7619L12.7739 8.7619L12.7739 9.37843C12.7739 9.53407 12.7558 9.68917 12.7198 9.84059L11.2707 15.942C11.1441 16.4752 10.8041 16.9332 10.3304 17.2087L9.60962 17.6279L9.60962 8.7619Z" fill="#FF7320"/>
<path d="M12.7593 8.7619L22.1626 8.7619V9.14998C22.1626 9.29836 22.0423 9.41864 21.894 9.41864L12.7593 9.41864L12.7593 8.7619Z" fill="#FF7320"/>
<path d="M17.9233 9.83451V9.56796C17.9233 9.48553 17.9902 9.4187 18.0726 9.4187L20.8787 9.4187C20.9611 9.4187 21.0279 9.48553 21.0279 9.56796V9.83451C21.0279 9.87409 21.0122 9.91206 20.9842 9.94005L20.2955 10.6288C20.2675 10.6568 20.2296 10.6725 20.19 10.6725L18.7613 10.6725C18.7217 10.6725 18.6838 10.6568 18.6558 10.6288L17.9671 9.94005C17.9391 9.91206 17.9233 9.87409 17.9233 9.83451Z" fill="#FFD9C2"/>
<path d="M1.80371 5.44806L54.6416 5.44806C54.7406 5.44806 54.8207 5.52825 54.8207 5.62717L54.8207 8.4034C54.8207 8.60124 54.6604 8.76162 54.4625 8.76162L1.80371 8.76162L1.80371 5.44806Z" fill="#FFA571"/>
<path d="M9.89355 4.22385C9.89355 4.12493 9.97375 4.04474 10.0727 4.04474L21.9836 4.04474C22.0825 4.04474 22.1627 4.12493 22.1627 4.22385L22.1627 5.44778L9.89355 5.44778L9.89355 4.22385Z" fill="#FF7320"/>
<path d="M6.729 3.5205L6.729 5.44794L9.89331 5.44794L9.89331 4.39526L8.1619 4.39526C8.04649 4.39526 7.95293 4.3017 7.95293 4.1863L7.95293 3.20994C7.95293 3.14399 8.00639 3.09053 8.07234 3.09053C8.13829 3.09053 8.19175 3.03707 8.19175 2.97112L8.19175 1.06557C8.19175 1.03996 8.16158 1.02643 8.14255 1.04356C7.21057 1.88266 6.81214 3.0396 6.729 3.5205Z" fill="#FFD9C2"/>
<path d="M1.80371 4.3989L1.80371 5.44794L4.81876 5.44794L4.81876 3.75956C4.81876 3.43823 4.79461 3.11523 4.70265 2.80734C4.3983 1.78836 3.86772 1.22132 3.57894 1.02766C3.55976 1.0148 3.53512 1.02914 3.53512 1.05224L3.53512 4.10038C3.53512 4.14984 3.49503 4.18994 3.44557 4.18994L2.01267 4.18994C1.89727 4.18994 1.80371 4.28349 1.80371 4.3989Z" fill="#FFD9C2"/>
<path d="M3.57212 7.59741C3.57212 7.54383 3.52868 7.50039 3.4751 7.50039C3.42152 7.50039 3.37808 7.54383 3.37808 7.59741H3.57212ZM3.37808 7.59741L3.37808 8.76164H3.57212L3.57212 7.59741H3.37808Z" fill="#FFD9C2"/>
<path d="M4.348 8.17944C4.348 8.12586 4.30456 8.08242 4.25098 8.08242C4.19739 8.08242 4.15396 8.12586 4.15396 8.17944L4.348 8.17944ZM4.15396 8.17944L4.15396 8.76156L4.348 8.76156L4.348 8.17944L4.15396 8.17944Z" fill="#FFD9C2"/>
<path d="M7.41391 8.17944C7.41391 8.12586 7.37048 8.08242 7.31689 8.08242C7.26331 8.08242 7.21988 8.12586 7.21988 8.17944L7.41391 8.17944ZM7.21988 8.17944L7.21988 8.76156L7.41391 8.76156L7.41391 8.17944L7.21988 8.17944Z" fill="#FFD9C2"/>
<path d="M10.4413 8.17944C10.4413 8.12586 10.3978 8.08242 10.3442 8.08242C10.2907 8.08242 10.2472 8.12586 10.2472 8.17944L10.4413 8.17944ZM10.2472 8.17944L10.2472 8.76156L10.4413 8.76156L10.4413 8.17944L10.2472 8.17944Z" fill="#FFD9C2"/>
<path d="M13.43 8.17944C13.43 8.12586 13.3866 8.08242 13.333 8.08242C13.2794 8.08242 13.236 8.12586 13.236 8.17944L13.43 8.17944ZM13.236 8.17944L13.236 8.76156L13.43 8.76156L13.43 8.17944L13.236 8.17944Z" fill="#FFD9C2"/>
<path d="M16.4945 8.10168C16.4945 8.0481 16.451 8.00467 16.3975 8.00467C16.3439 8.00467 16.3004 8.0481 16.3004 8.10168L16.4945 8.10168ZM16.3004 8.10168L16.3004 8.6838L16.4945 8.6838L16.4945 8.10168L16.3004 8.10168Z" fill="#FFD9C2"/>
<path d="M16.4564 8.10211C16.4564 8.04853 16.413 8.00509 16.3594 8.00509C16.3058 8.00509 16.2624 8.04853 16.2624 8.10211L16.4564 8.10211ZM16.2624 8.10211L16.2624 8.68422L16.4564 8.68422L16.4564 8.10211L16.2624 8.10211Z" fill="#FFD9C2"/>
<path d="M19.4828 8.14081C19.4828 8.08723 19.4393 8.04379 19.3857 8.04379C19.3322 8.04379 19.2887 8.08723 19.2887 8.14081L19.4828 8.14081ZM19.2887 8.14081L19.2887 8.72292L19.4828 8.72292L19.4828 8.14081L19.2887 8.14081Z" fill="#FFD9C2"/>
<path d="M34.6185 8.14081C34.6185 8.08723 34.5751 8.04379 34.5215 8.04379C34.4679 8.04379 34.4245 8.08723 34.4245 8.14081L34.6185 8.14081ZM34.4245 8.14081L34.4245 8.72292L34.6185 8.72292L34.6185 8.14081L34.4245 8.14081Z" fill="#FFD9C2"/>
<path d="M22.5492 8.14081C22.5492 8.08723 22.5057 8.04379 22.4521 8.04379C22.3986 8.04379 22.3551 8.08723 22.3551 8.14081L22.5492 8.14081ZM22.3551 8.14081L22.3551 8.72292L22.5492 8.72292L22.5492 8.14081L22.3551 8.14081Z" fill="#FFD9C2"/>
<path d="M37.6834 8.14081C37.6834 8.08723 37.64 8.04379 37.5864 8.04379C37.5328 8.04379 37.4894 8.08723 37.4894 8.14081L37.6834 8.14081ZM37.4894 8.14081L37.4894 8.72292L37.6834 8.72292L37.6834 8.14081L37.4894 8.14081Z" fill="#FFD9C2"/>
<path d="M25.537 8.14081C25.537 8.08723 25.4935 8.04379 25.4399 8.04379C25.3864 8.04379 25.3429 8.08723 25.3429 8.14081L25.537 8.14081ZM25.3429 8.14081L25.3429 8.72292L25.537 8.72292L25.537 8.14081L25.3429 8.14081Z" fill="#FFD9C2"/>
<path d="M40.6717 8.14081C40.6717 8.08723 40.6283 8.04379 40.5747 8.04379C40.5211 8.04379 40.4777 8.08723 40.4777 8.14081L40.6717 8.14081ZM40.4777 8.14081L40.4777 8.72292L40.6717 8.72292L40.6717 8.14081L40.4777 8.14081Z" fill="#FFD9C2"/>
<path d="M28.5252 8.14081C28.5252 8.08723 28.4818 8.04379 28.4282 8.04379C28.3746 8.04379 28.3312 8.08723 28.3312 8.14081L28.5252 8.14081ZM28.3312 8.14081L28.3312 8.72292L28.5252 8.72292L28.5252 8.14081L28.3312 8.14081Z" fill="#FFD9C2"/>
<path d="M43.66 8.14081C43.66 8.08723 43.6166 8.04379 43.563 8.04379C43.5094 8.04379 43.466 8.08723 43.466 8.14081L43.66 8.14081ZM43.466 8.14081L43.466 8.72292L43.66 8.72292L43.66 8.14081L43.466 8.14081Z" fill="#FFD9C2"/>
<path d="M31.5907 8.14081C31.5907 8.08723 31.5472 8.04379 31.4937 8.04379C31.4401 8.04379 31.3966 8.08723 31.3966 8.14081L31.5907 8.14081ZM31.3966 8.14081L31.3966 8.72292L31.5907 8.72292L31.5907 8.14081L31.3966 8.14081Z" fill="#FFD9C2"/>
<path d="M46.7259 8.14081C46.7259 8.08723 46.6825 8.04379 46.6289 8.04379C46.5753 8.04379 46.5319 8.08723 46.5319 8.14081L46.7259 8.14081ZM46.5319 8.14081L46.5319 8.72292L46.7259 8.72292L46.7259 8.14081L46.5319 8.14081Z" fill="#FFD9C2"/>
<path d="M49.6756 8.14081C49.6756 8.08723 49.6322 8.04379 49.5786 8.04379C49.525 8.04379 49.4816 8.08723 49.4816 8.14081L49.6756 8.14081ZM49.4816 8.14081L49.4816 8.72292L49.6756 8.72292L49.6756 8.14081L49.4816 8.14081Z" fill="#FFD9C2"/>
<path d="M5.16391 8.17944C5.16391 8.12586 5.12048 8.08242 5.06689 8.08242C5.01331 8.08242 4.96988 8.12586 4.96988 8.17944L5.16391 8.17944ZM4.96988 8.17944L4.96988 8.76156L5.16391 8.76156L5.16391 8.17944L4.96988 8.17944Z" fill="#FFD9C2"/>
<path d="M8.22934 8.17944C8.22934 8.12586 8.18591 8.08242 8.13232 8.08242C8.07874 8.08242 8.03531 8.12586 8.03531 8.17944L8.22934 8.17944ZM8.03531 8.17944L8.03531 8.76156L8.22934 8.76156L8.22934 8.17944L8.03531 8.17944Z" fill="#FFD9C2"/>
<path d="M11.2562 8.17944C11.2562 8.12586 11.2128 8.08242 11.1592 8.08242C11.1056 8.08242 11.0622 8.12586 11.0622 8.17944L11.2562 8.17944ZM11.0622 8.17944L11.0622 8.76156L11.2562 8.76156L11.2562 8.17944L11.0622 8.17944Z" fill="#FFD9C2"/>
<path d="M14.2445 8.17944C14.2445 8.12586 14.201 8.08242 14.1475 8.08242C14.0939 8.08242 14.0504 8.12586 14.0504 8.17944L14.2445 8.17944ZM14.0504 8.17944L14.0504 8.76156L14.2445 8.76156L14.2445 8.17944L14.0504 8.17944Z" fill="#FFD9C2"/>
<path d="M17.3104 8.10168C17.3104 8.0481 17.267 8.00467 17.2134 8.00467C17.1598 8.00467 17.1164 8.0481 17.1164 8.10168L17.3104 8.10168ZM17.1164 8.10168L17.1164 8.6838L17.3104 8.6838L17.3104 8.10168L17.1164 8.10168Z" fill="#FFD9C2"/>
<path d="M17.2708 8.10168C17.2708 8.0481 17.2274 8.00467 17.1738 8.00467C17.1202 8.00467 17.0768 8.0481 17.0768 8.10168L17.2708 8.10168ZM17.0768 8.10168L17.0768 8.6838L17.2708 8.6838L17.2708 8.10168L17.0768 8.10168Z" fill="#FFD9C2"/>
<path d="M20.2982 8.14081C20.2982 8.08723 20.2548 8.04379 20.2012 8.04379C20.1476 8.04379 20.1042 8.08723 20.1042 8.14081L20.2982 8.14081ZM20.1042 8.14081L20.1042 8.72292L20.2982 8.72292L20.2982 8.14081L20.1042 8.14081Z" fill="#FFD9C2"/>
<path d="M35.433 8.14081C35.433 8.08723 35.3895 8.04379 35.3359 8.04379C35.2824 8.04379 35.2389 8.08723 35.2389 8.14081L35.433 8.14081ZM35.2389 8.14081L35.2389 8.72292L35.433 8.72292L35.433 8.14081L35.2389 8.14081Z" fill="#FFD9C2"/>
<path d="M23.3646 8.14081C23.3646 8.08723 23.3212 8.04379 23.2676 8.04379C23.214 8.04379 23.1706 8.08723 23.1706 8.14081L23.3646 8.14081ZM23.1706 8.14081L23.1706 8.72292L23.3646 8.72292L23.3646 8.14081L23.1706 8.14081Z" fill="#FFD9C2"/>
<path d="M38.4994 8.14081C38.4994 8.08723 38.4559 8.04379 38.4023 8.04379C38.3488 8.04379 38.3053 8.08723 38.3053 8.14081L38.4994 8.14081ZM38.3053 8.14081L38.3053 8.72292L38.4994 8.72292L38.4994 8.14081L38.3053 8.14081Z" fill="#FFD9C2"/>
<path d="M26.3529 8.14081C26.3529 8.08723 26.3094 8.04379 26.2559 8.04379C26.2023 8.04379 26.1588 8.08723 26.1588 8.14081L26.3529 8.14081ZM26.1588 8.14081L26.1588 8.72292L26.3529 8.72292L26.3529 8.14081L26.1588 8.14081Z" fill="#FFD9C2"/>
<path d="M41.4876 8.14081C41.4876 8.08723 41.4442 8.04379 41.3906 8.04379C41.337 8.04379 41.2936 8.08723 41.2936 8.14081L41.4876 8.14081ZM41.2936 8.14081L41.2936 8.72292L41.4876 8.72292L41.4876 8.14081L41.2936 8.14081Z" fill="#FFD9C2"/>
<path d="M29.3407 8.14081C29.3407 8.08723 29.2972 8.04379 29.2437 8.04379C29.1901 8.04379 29.1466 8.08723 29.1466 8.14081L29.3407 8.14081ZM29.1466 8.14081L29.1466 8.72292L29.3407 8.72292L29.3407 8.14081L29.1466 8.14081Z" fill="#FFD9C2"/>
<path d="M44.4749 8.14081C44.4749 8.08723 44.4315 8.04379 44.3779 8.04379C44.3243 8.04379 44.2809 8.08723 44.2809 8.14081L44.4749 8.14081ZM44.2809 8.14081L44.2809 8.72292L44.4749 8.72292L44.4749 8.14081L44.2809 8.14081Z" fill="#FFD9C2"/>
<path d="M32.4061 8.14081C32.4061 8.08723 32.3627 8.04379 32.3091 8.04379C32.2555 8.04379 32.2121 8.08723 32.2121 8.14081L32.4061 8.14081ZM32.2121 8.14081L32.2121 8.72292L32.4061 8.72292L32.4061 8.14081L32.2121 8.14081Z" fill="#FFD9C2"/>
<path d="M47.5418 8.14081C47.5418 8.08723 47.4984 8.04379 47.4448 8.04379C47.3912 8.04379 47.3478 8.08723 47.3478 8.14081L47.5418 8.14081ZM47.3478 8.14081L47.3478 8.72292L47.5418 8.72292L47.5418 8.14081L47.3478 8.14081Z" fill="#FFD9C2"/>
<path d="M50.4906 8.14081C50.4906 8.08723 50.4471 8.04379 50.3936 8.04379C50.34 8.04379 50.2965 8.08723 50.2965 8.14081L50.4906 8.14081ZM50.2965 8.14081L50.2965 8.72292L50.4906 8.72292L50.4906 8.14081L50.2965 8.14081Z" fill="#FFD9C2"/>
<path d="M5.97837 8.17944C5.97837 8.12586 5.93493 8.08242 5.88135 8.08242C5.82777 8.08242 5.78433 8.12586 5.78433 8.17944L5.97837 8.17944ZM5.78433 8.17944L5.78433 8.76156L5.97837 8.76156L5.97837 8.17944L5.78433 8.17944Z" fill="#FFD9C2"/>
<path d="M9.0438 8.17944C9.0438 8.12586 9.00036 8.08242 8.94678 8.08242C8.8932 8.08242 8.84976 8.12586 8.84976 8.17944L9.0438 8.17944ZM8.84976 8.17944L8.84976 8.76156L9.0438 8.76156L9.0438 8.17944L8.84976 8.17944Z" fill="#FFD9C2"/>
<path d="M12.0707 8.17944C12.0707 8.12586 12.0272 8.08242 11.9736 8.08242C11.9201 8.08242 11.8766 8.12586 11.8766 8.17944L12.0707 8.17944ZM11.8766 8.17944L11.8766 8.76156L12.0707 8.76156L12.0707 8.17944L11.8766 8.17944Z" fill="#FFD9C2"/>
<path d="M15.0594 8.17944C15.0594 8.12586 15.016 8.08242 14.9624 8.08242C14.9088 8.08242 14.8654 8.12586 14.8654 8.17944L15.0594 8.17944ZM14.8654 8.17944L14.8654 8.76156L15.0594 8.76156L15.0594 8.17944L14.8654 8.17944Z" fill="#FFD9C2"/>
<path d="M18.1253 8.10168C18.1253 8.0481 18.0819 8.00467 18.0283 8.00467C17.9747 8.00467 17.9313 8.0481 17.9313 8.10168L18.1253 8.10168ZM17.9313 8.10168L17.9313 8.6838L18.1253 8.6838L18.1253 8.10168L17.9313 8.10168Z" fill="#FFD9C2"/>
<path d="M18.0853 8.10211C18.0853 8.04853 18.0419 8.00509 17.9883 8.00509C17.9347 8.00509 17.8913 8.04853 17.8913 8.10211L18.0853 8.10211ZM17.8913 8.10211L17.8913 8.68422L18.0853 8.68422L18.0853 8.10211L17.8913 8.10211Z" fill="#FFD9C2"/>
<path d="M21.1136 8.14081C21.1136 8.08723 21.0702 8.04379 21.0166 8.04379C20.963 8.04379 20.9196 8.08723 20.9196 8.14081L21.1136 8.14081ZM20.9196 8.14081L20.9196 8.72292L21.1136 8.72292L21.1136 8.14081L20.9196 8.14081Z" fill="#FFD9C2"/>
<path d="M36.2479 8.14081C36.2479 8.08723 36.2045 8.04379 36.1509 8.04379C36.0973 8.04379 36.0539 8.08723 36.0539 8.14081L36.2479 8.14081ZM36.0539 8.14081L36.0539 8.72292L36.2479 8.72292L36.2479 8.14081L36.0539 8.14081Z" fill="#FFD9C2"/>
<path d="M24.1791 8.14081C24.1791 8.08723 24.1356 8.04379 24.082 8.04379C24.0284 8.04379 23.985 8.08723 23.985 8.14081L24.1791 8.14081ZM23.985 8.14081L23.985 8.72292L24.1791 8.72292L24.1791 8.14081L23.985 8.14081Z" fill="#FFD9C2"/>
<path d="M39.3138 8.14081C39.3138 8.08723 39.2704 8.04379 39.2168 8.04379C39.1632 8.04379 39.1198 8.08723 39.1198 8.14081L39.3138 8.14081ZM39.1198 8.14081L39.1198 8.72292L39.3138 8.72292L39.3138 8.14081L39.1198 8.14081Z" fill="#FFD9C2"/>
<path d="M27.1668 8.14081C27.1668 8.08723 27.1234 8.04379 27.0698 8.04379C27.0162 8.04379 26.9728 8.08723 26.9728 8.14081L27.1668 8.14081ZM26.9728 8.14081L26.9728 8.72292L27.1668 8.72292L27.1668 8.14081L26.9728 8.14081Z" fill="#FFD9C2"/>
<path d="M42.3021 8.14081C42.3021 8.08723 42.2587 8.04379 42.2051 8.04379C42.1515 8.04379 42.1081 8.08723 42.1081 8.14081L42.3021 8.14081ZM42.1081 8.14081L42.1081 8.72292L42.3021 8.72292L42.3021 8.14081L42.1081 8.14081Z" fill="#FFD9C2"/>
<path d="M30.1551 8.14081C30.1551 8.08723 30.1117 8.04379 30.0581 8.04379C30.0045 8.04379 29.9611 8.08723 29.9611 8.14081L30.1551 8.14081ZM29.9611 8.14081L29.9611 8.72292L30.1551 8.72292L30.1551 8.14081L29.9611 8.14081Z" fill="#FFD9C2"/>
<path d="M45.2904 8.14081C45.2904 8.08723 45.2469 8.04379 45.1934 8.04379C45.1398 8.04379 45.0963 8.08723 45.0963 8.14081L45.2904 8.14081ZM45.0963 8.14081L45.0963 8.72292L45.2904 8.72292L45.2904 8.14081L45.0963 8.14081Z" fill="#FFD9C2"/>
<path d="M33.2215 8.14081C33.2215 8.08723 33.1781 8.04379 33.1245 8.04379C33.0709 8.04379 33.0275 8.08723 33.0275 8.14081L33.2215 8.14081ZM33.0275 8.14081L33.0275 8.72292L33.2215 8.72292L33.2215 8.14081L33.0275 8.14081Z" fill="#FFD9C2"/>
<path d="M48.3558 8.14081C48.3558 8.08723 48.3124 8.04379 48.2588 8.04379C48.2052 8.04379 48.1618 8.08723 48.1618 8.14081L48.3558 8.14081ZM48.1618 8.14081L48.1618 8.72292L48.3558 8.72292L48.3558 8.14081L48.1618 8.14081Z" fill="#FFD9C2"/>
<path d="M51.3045 8.14081C51.3045 8.08723 51.2611 8.04379 51.2075 8.04379C51.1539 8.04379 51.1105 8.08723 51.1105 8.14081L51.3045 8.14081ZM51.1105 8.14081L51.1105 8.72292L51.3045 8.72292L51.3045 8.14081L51.1105 8.14081Z" fill="#FFD9C2"/>
<path d="M6.71616 7.59741C6.71616 7.54383 6.67272 7.50039 6.61914 7.50039C6.56556 7.50039 6.52212 7.54383 6.52212 7.59741H6.71616ZM6.52212 7.59741L6.52212 8.76164H6.71616L6.71616 7.59741H6.52212Z" fill="#FFD9C2"/>
<path d="M9.74253 7.59741C9.74253 7.54383 9.69909 7.50039 9.64551 7.50039C9.59193 7.50039 9.54849 7.54383 9.54849 7.59741H9.74253ZM9.54849 7.59741L9.54849 8.76164H9.74253L9.74253 7.59741H9.54849Z" fill="#FFD9C2"/>
<path d="M12.7313 7.59741C12.7313 7.54383 12.6879 7.50039 12.6343 7.50039C12.5807 7.50039 12.5373 7.54383 12.5373 7.59741H12.7313ZM12.5373 7.59741L12.5373 8.76164H12.7313L12.7313 7.59741H12.5373Z" fill="#FFD9C2"/>
<path d="M15.7577 7.59741C15.7577 7.54383 15.7142 7.50039 15.6606 7.50039C15.6071 7.50039 15.5636 7.54383 15.5636 7.59741H15.7577ZM15.5636 7.59741L15.5636 8.76164H15.7577L15.7577 7.59741H15.5636Z" fill="#FFD9C2"/>
<path d="M18.7845 7.59741C18.7845 7.54383 18.7411 7.50039 18.6875 7.50039C18.6339 7.50039 18.5905 7.54383 18.5905 7.59741H18.7845ZM18.5905 7.59741L18.5905 8.76164H18.7845L18.7845 7.59741H18.5905Z" fill="#FFD9C2"/>
<path d="M21.7733 7.59741C21.7733 7.54383 21.7299 7.50039 21.6763 7.50039C21.6227 7.50039 21.5793 7.54383 21.5793 7.59741H21.7733ZM21.5793 7.59741L21.5793 8.76164H21.7733L21.7733 7.59741H21.5793Z" fill="#FFD9C2"/>
<path d="M24.8387 7.59741C24.8387 7.54383 24.7953 7.50039 24.7417 7.50039C24.6881 7.50039 24.6447 7.54383 24.6447 7.59741H24.8387ZM24.6447 7.59741L24.6447 8.76164H24.8387L24.8387 7.59741H24.6447Z" fill="#FFD9C2"/>
<path d="M27.8656 7.59741C27.8656 7.54383 27.8221 7.50039 27.7686 7.50039C27.715 7.50039 27.6715 7.54383 27.6715 7.59741H27.8656ZM27.6715 7.59741L27.6715 8.76164H27.8656L27.8656 7.59741H27.6715Z" fill="#FFD9C2"/>
<path d="M30.8148 7.59741C30.8148 7.54383 30.7714 7.50039 30.7178 7.50039C30.6642 7.50039 30.6208 7.54383 30.6208 7.59741H30.8148ZM30.6208 7.59741L30.6208 8.76164H30.8148L30.8148 7.59741H30.6208Z" fill="#FFD9C2"/>
<path d="M33.9588 7.59741C33.9588 7.54383 33.9154 7.50039 33.8618 7.50039C33.8082 7.50039 33.7648 7.54383 33.7648 7.59741H33.9588ZM33.7648 7.59741L33.7648 8.76164H33.9588L33.9588 7.59741H33.7648Z" fill="#FFD9C2"/>
<path d="M36.869 7.59741C36.869 7.54383 36.8256 7.50039 36.772 7.50039C36.7184 7.50039 36.675 7.54383 36.675 7.59741H36.869ZM36.675 7.59741L36.675 8.76164H36.869L36.869 7.59741H36.675Z" fill="#FFD9C2"/>
<path d="M39.9354 7.59741C39.9354 7.54383 39.892 7.50039 39.8384 7.50039C39.7848 7.50039 39.7414 7.54383 39.7414 7.59741H39.9354ZM39.7414 7.59741L39.7414 8.76164H39.9354L39.9354 7.59741H39.7414Z" fill="#FFD9C2"/>
<path d="M42.9232 7.59741C42.9232 7.54383 42.8798 7.50039 42.8262 7.50039C42.7726 7.50039 42.7292 7.54383 42.7292 7.59741H42.9232ZM42.7292 7.59741L42.7292 8.76164H42.9232L42.9232 7.59741H42.7292Z" fill="#FFD9C2"/>
<path d="M45.9115 7.59741C45.9115 7.54383 45.868 7.50039 45.8145 7.50039C45.7609 7.50039 45.7174 7.54383 45.7174 7.59741H45.9115ZM45.7174 7.59741L45.7174 8.76164H45.9115L45.9115 7.59741H45.7174Z" fill="#FFD9C2"/>
<path d="M48.9764 7.59741C48.9764 7.54383 48.933 7.50039 48.8794 7.50039C48.8258 7.50039 48.7824 7.54383 48.7824 7.59741H48.9764ZM48.7824 7.59741L48.7824 8.76164H48.9764L48.9764 7.59741H48.7824Z" fill="#FFD9C2"/>
<path d="M51.9647 7.59741C51.9647 7.54383 51.9213 7.50039 51.8677 7.50039C51.8141 7.50039 51.7707 7.54383 51.7707 7.59741H51.9647ZM51.7707 7.59741L51.7707 8.76164H51.9647L51.9647 7.59741H51.7707Z" fill="#FFD9C2"/>
<path d="M54.8208 6.74668V5.77649C54.8208 5.59514 54.6738 5.44812 54.4924 5.44812L30.0586 5.44812" stroke="#FF7320" stroke-width="0.47" stroke-linecap="round"/>
<circle cx="29.3712" cy="5.43317" r="0.164186" fill="#FF7320"/>
<circle cx="54.8059" cy="7.46302" r="0.194038" fill="#FF7320"/>
<circle cx="7.95353" cy="4.13443" r="0.179112" fill="#FF7320"/>
<circle cx="6.7587" cy="5.06028" r="0.179112" fill="#FF7320"/>
<path d="M6.75928 4.61217L6.75928 3.62971C6.75928 3.46926 6.77587 3.30887 6.82259 3.15538C6.99845 2.5776 7.40806 1.64354 8.07132 1.11493C8.12746 1.07018 8.2071 1.11187 8.2071 1.18366L8.2071 1.68668L8.2071 3.03002C8.2071 3.04651 8.19373 3.05987 8.17724 3.05987L8.01306 3.05987C7.99657 3.05987 7.98321 3.07324 7.98321 3.08972L7.98321 3.62706" stroke="#FF7320" stroke-width="0.268667" stroke-linecap="round"/>
<circle cx="4.81876" cy="4.79123" r="0.179112" fill="#FF7320"/>
<path d="M4.80407 4.29879C4.80407 3.53192 5.00807 2.54647 3.60203 1.06892C3.58355 1.04949 3.55029 1.0619 3.55029 1.08871L3.55029 1.74645L3.55029 4.20923" stroke="#FF7320" stroke-width="0.268667" stroke-linecap="round"/>
<circle cx="1.78925" cy="7.28376" r="0.194038" fill="#FF7320"/>
<path d="M3.52026 4.20923L1.83363 4.20923C1.80066 4.20923 1.77393 4.23596 1.77393 4.26893L1.77393 6.73172" stroke="#FF7320" stroke-width="0.268667" stroke-linecap="round"/>
<path d="M21.0283 9.4032V9.76998C21.0283 9.88874 20.9811 10.0026 20.8972 10.0866L20.4579 10.5258C20.374 10.6098 20.2601 10.657 20.1413 10.657L19.6104 10.657" stroke="#FF7320" stroke-width="0.268667" stroke-linecap="round"/>
<circle cx="19.117" cy="10.6718" r="0.14926" fill="#FF7320"/>
</svg>
