<svg width="134" height="140" viewBox="0 0 134 140" fill="none">
    <g opacity="0.6" >
        <circle cx="17.9372" cy="130.937" r="7.29728" transform="rotate(-165 17.9372 130.937)" fill="#00488D"/>
        <circle cx="80.3976" cy="12.5032" r="4.35657" transform="rotate(-150 80.3976 12.5032)" fill="#8BC8FF"/>
        <circle cx="48.4668" cy="27.4668" r="9.85835" transform="rotate(-150 48.4668 27.4668)" fill="#52ADFF"/>
        <path fill-rule="evenodd" clip-rule="evenodd" d="M13.9029 66.1166C0.821956 62.6116 -12.6236 70.3744 -16.1286 83.4553C-19.6336 96.5362 -11.8708 109.982 1.21007 113.487C14.291 116.992 27.7365 109.229 31.2415 96.1481C31.3509 95.74 31.4493 95.3315 31.5369 94.923C31.9408 93.0393 33.8859 91.7336 35.7626 91.2983C35.845 91.2791 35.9275 91.2586 36.0098 91.2365C39.9529 90.1799 42.2929 86.1269 41.2364 82.1838C40.1798 78.2408 36.1268 75.9008 32.1837 76.9573V76.9573C30.5613 77.392 28.5627 77.0421 27.5953 75.669C24.4055 71.141 19.6713 67.6623 13.9029 66.1166Z" fill="#52ADFF"/>
        <circle cx="53.1275" cy="63.1275" r="3.12746" fill="#0478E0"/>
        <circle cx="19.0755" cy="-1.29021" r="29.2303" fill="#52ADFF"/>
        <circle cx="59.9662" cy="-16.9579" r="26.3617" fill="#52ADFF"/>
        <circle cx="-3.97689" cy="52.1798" r="38.0231" fill="#52ADFF"/>
        <path d="M42.8295 15.521C47.1381 8.40238 62.2653 9.66691 68.1195 8.02772L66.012 4.28106L42.127 -4.61728L42.8295 15.521Z" fill="#52ADFF"/>
        <path d="M32.1444 40.2975C29.2927 33.6435 29.055 26.1181 32.6197 24.613L17.8857 26.0388L32.1444 40.2975Z" fill="#52ADFF"/>
        <path d="M86.2852 91.9744C83.3089 91.9445 69.4009 96.7502 62.3309 99.3352C62.1289 99.4091 62.0009 99.5907 62.0525 99.7996C62.8511 103.032 72.5627 119.66 77.6527 128.122C77.744 128.274 77.8976 128.364 78.0744 128.354C82.0887 128.132 96.7356 122.44 104.245 119.339C104.544 119.216 104.651 118.85 104.469 118.581L86.6407 92.1799C86.5586 92.0583 86.432 91.9759 86.2852 91.9744Z" fill="#0478E0"/>
        <path d="M87.0933 89.7252C84.117 89.6954 70.209 94.501 63.139 97.086C62.937 97.1599 62.809 97.3416 62.8606 97.5504C63.6593 100.782 73.3708 117.411 78.4608 125.873C78.5521 126.025 78.7057 126.115 78.8825 126.105C82.8968 125.883 97.5437 120.191 105.053 117.09C105.352 116.966 105.459 116.6 105.278 116.332L87.4488 89.9307C87.3667 89.8091 87.2401 89.7267 87.0933 89.7252Z" fill="#C3E3FF"/>
        <path d="M88.4644 87.9331C85.4881 87.9033 71.5801 92.7089 64.5101 95.294C64.3081 95.3678 64.1801 95.5495 64.2317 95.7583C65.0303 98.9903 74.7419 115.618 79.8319 124.081C79.9232 124.233 80.0768 124.323 80.2536 124.313C84.2679 124.091 98.9148 118.399 106.424 115.298C106.724 115.174 106.83 114.808 106.649 114.54L88.8199 88.1387C88.7378 88.0171 88.6112 87.9346 88.4644 87.9331Z" fill="#52ADFF"/>
        <path d="M71.2818 97.3158C72.1135 96.203 73.3753 93.3447 71.0007 92.0972C68.2245 90.6389 66.0457 92.2905 66.3092 94.8032" stroke="#0478E0" stroke-width="0.907449" stroke-linecap="round"/>
        <path d="M74.9566 95.982C75.7883 94.8692 77.0501 92.0109 74.6755 90.7634C71.8993 89.305 69.7205 90.9567 69.984 93.4694" stroke="#0478E0" stroke-width="0.907449" stroke-linecap="round"/>
        <path d="M78.8946 94.4358C79.7263 93.323 80.9881 90.4646 78.6135 89.2172C75.8373 87.7588 73.6585 89.4105 73.922 91.9231" stroke="#0478E0" stroke-width="0.907449" stroke-linecap="round"/>
        <path d="M83.0411 93.1004C83.8728 91.9875 85.1346 89.1292 82.76 87.8818C79.9838 86.4234 77.8049 88.0751 78.0685 90.5877" stroke="#0478E0" stroke-width="0.907449" stroke-linecap="round"/>
        <path d="M87.2579 91.7649C88.0896 90.652 89.3514 87.7937 86.9768 86.5463C84.2006 85.0879 82.0217 86.7396 82.2853 89.2522" stroke="#0478E0" stroke-width="0.907449" stroke-linecap="round"/>
        <rect x="65.6294" y="94.8924" width="1.54625" height="1.51796" transform="rotate(-20.3283 65.6294 94.8924)" fill="#52ADFF"/>
        <rect x="69.0293" y="93.7063" width="1.54625" height="1.51796" transform="rotate(-20.3283 69.0293 93.7063)" fill="#52ADFF"/>
        <rect x="73.1401" y="92.2745" width="1.54625" height="1.51796" transform="rotate(-19.2696 73.1401 92.2745)" fill="#52ADFF"/>
        <rect x="77.1538" y="90.9128" width="1.54625" height="1.50805" transform="rotate(-17.6963 77.1538 90.9128)" fill="#52ADFF"/>
        <rect x="81.4058" y="89.5727" width="1.54625" height="1.47758" transform="rotate(-15.5928 81.4058 89.5727)" fill="#52ADFF"/>
        <path d="M88.1729 95.9806C86.2245 96.0097 77.6889 98.9569 73.2737 100.57C73.1071 100.631 73.0025 100.783 73.0505 100.954C73.6615 103.128 79.6171 113.329 82.7802 118.59C82.8555 118.715 82.9878 118.79 83.1334 118.78C85.7108 118.59 94.6556 115.119 99.3575 113.181C99.6047 113.079 99.695 112.776 99.5454 112.555L88.4672 96.1472C88.3995 96.0469 88.2939 95.9788 88.1729 95.9806Z" stroke="#0478E0" stroke-width="1.20383"/>
        <path d="M129.606 10.3363L130.253 10.2486C131.156 10.1262 131.641 11.2751 130.924 11.8367L123.126 17.9432" stroke="#0478E0" stroke-width="1.11637" stroke-linecap="round"/>
        <path d="M108.117 26.6197L106.324 24.0356C106.175 23.8211 105.848 23.8518 105.742 24.0904L105.289 25.1099C105.241 25.2183 105.253 25.3441 105.322 25.4406L106.578 27.1979C106.654 27.3045 106.785 27.357 106.914 27.332L107.906 27.1394C108.143 27.0933 108.255 26.8184 108.117 26.6197Z" fill="#C3E3FF"/>
        <rect x="105.543" y="24.1163" width="15.8419" height="4.04372" rx="0.520974" transform="rotate(-37.7472 105.543 24.1163)" fill="#8BC8FF"/>
        <rect x="116.255" y="15.0022" width="16.3387" height="5.38398" rx="0.520974" transform="rotate(-37.7472 116.255 15.0022)" fill="#0478E0"/>
        <path d="M123.348 10.8105L128.919 6.52464" stroke="#C3E3FF" stroke-width="0.768964" stroke-linecap="round"/>
        <circle cx="122.33" cy="11.5347" r="0.408317" transform="rotate(-0.726774 122.33 11.5347)" fill="#C3E3FF"/>
    </g>
</svg>
