<svg width="276" height="391" viewBox="0 0 276 391" fill="none" xmlns="http://www.w3.org/2000/svg">
    <path fill-rule="evenodd" clip-rule="evenodd" d="M276 88C276 136.601 238.168 176 191.5 176C188.418 176 185.374 175.828 182.378 175.493C173.427 174.493 164 182.994 164 192V192C164 212.312 156.241 230.856 143.456 244.965C131.905 257.712 127.313 289.171 132.672 305.517C134.829 312.095 136 319.154 136 326.5C136 362.122 108.466 391 74.5 391C40.5345 391 13 362.122 13 326.5C13 316.71 15.0797 307.429 18.8011 299.117C25.8193 283.442 24.7402 251.734 14.7391 237.772C5.44942 224.803 0 209.022 0 192C0 147.817 36.7127 112 82 112C82.1735 112 82.3469 112.001 82.5202 112.002C94.4461 112.074 107 99.9262 107 88V88C107 39.3989 144.832 0 191.5 0C238.168 0 276 39.3989 276 88Z" fill="#52ADFF"/>
</svg>
