<svg width="235" height="358" viewBox="0 0 235 358" fill="none" xmlns="http://www.w3.org/2000/svg">
    <path fill-rule="evenodd" clip-rule="evenodd" d="M71.076 158.476C71.6202 170.895 63.6952 183.715 52.2748 188.626C21.5925 201.818 0 233.283 0 270C0 318.601 37.8319 358 84.5 358C131.168 358 169 318.601 169 270C169 266.366 168.788 262.784 168.378 259.265C166.897 246.588 174.881 233.134 186.571 228.01C215.119 215.497 235 187.513 235 155C235 138.115 229.638 122.451 220.485 109.542C214.513 101.12 213.737 89.452 217.536 79.8516C220.399 72.6153 222 64.5304 222 56C222 25.0721 200.957 0 175 0C149.043 0 128 25.0721 128 56C128 56.4972 128.005 56.9929 128.016 57.4869C128.259 68.6041 122.266 80.0076 112.541 85.3999C87.7332 99.1555 71 125.171 71 155C71 156.165 71.0255 157.323 71.076 158.476Z" fill="#FF8B46"/>
</svg>
