<svg width="26" height="37" viewBox="0 0 26 37" fill="none" xmlns="http://www.w3.org/2000/svg">
<path d="M23 26H3" stroke="white" stroke-width="2" stroke-linecap="round" stroke-linejoin="round"/>
<path d="M6.45 19.6842L3 26V31.5C3 31.9863 3.21071 32.4526 3.58579 32.7964C3.96086 33.1402 4.46957 33.3334 5 33.3334H21C21.5304 33.3334 22.0391 33.1402 22.4142 32.7964C22.7893 32.4526 23 31.9863 23 31.5V26L19.55 19.6842C19.3844 19.3787 19.1292 19.1217 18.813 18.9419C18.4967 18.7622 18.1321 18.6669 17.76 18.6667H8.24C7.86792 18.6669 7.50326 18.7622 7.18704 18.9419C6.87083 19.1217 6.61558 19.3787 6.45 19.6842Z" stroke="white" stroke-width="2" stroke-linecap="round" stroke-linejoin="round"/>
<path d="M7 29.6667H7.01" stroke="white" stroke-width="2" stroke-linecap="round" stroke-linejoin="round"/>
<path d="M11 29.6667H11.01" stroke="white" stroke-width="2" stroke-linecap="round" stroke-linejoin="round"/>
<path d="M8.66699 22.75H17.3337" stroke="white" stroke-width="2" stroke-linecap="round" stroke-linejoin="round"/>
<path d="M13 18.4167V22.75" stroke="white" stroke-width="2.16667" stroke-linecap="round" stroke-linejoin="round"/>
<rect x="3" y="16" width="20" height="1" fill="white"/>
<path fill-rule="evenodd" clip-rule="evenodd" d="M4.20033 6.08335C3.40434 6.08335 3.08366 6.59456 3.08366 6.85716V16.1429C3.08366 16.4055 3.40434 16.9167 4.20033 16.9167H21.8003C22.5963 16.9167 22.917 16.4055 22.917 16.1429V6.85716C22.917 6.59456 22.5963 6.08335 21.8003 6.08335H4.20033ZM0.916992 6.85716C0.916992 5.06842 2.56626 3.91669 4.20033 3.91669H21.8003C23.4344 3.91669 25.0837 5.06842 25.0837 6.85716V16.1429C25.0837 17.9316 23.4344 19.0834 21.8003 19.0834H4.20033C2.56626 19.0834 0.916992 17.9316 0.916992 16.1429V6.85716ZM22 17.5C22 17.7761 21.7761 18 21.5 18C21.2239 18 21 17.7761 21 17.5C21 17.2239 21.2239 17 21.5 17C21.7761 17 22 17.2239 22 17.5ZM19.5 18C19.7761 18 20 17.7761 20 17.5C20 17.2239 19.7761 17 19.5 17C19.2239 17 19 17.2239 19 17.5C19 17.7761 19.2239 18 19.5 18Z" 
fill="white"/>
</svg>
