<svg width="88" height="88" viewBox="0 0 88 88" fill="none" xmlns="http://www.w3.org/2000/svg">
<g style="mix-blend-mode:luminosity" opacity="0.4">
<path d="M83.8652 46.3171C83.8652 69.031 65.4519 87.4443 42.738 87.4443C20.0241 87.4443 1.61084 69.031 1.61084 46.3171C1.61084 23.6032 20.0241 5.18994 42.738 5.18994C65.4519 5.18994 83.8652 23.6032 83.8652 46.3171Z" fill="#666666"/>
<path d="M80.0963 46.2029C80.0963 66.8981 63.3195 83.6749 42.6243 83.6749C21.9291 83.6749 5.15234 66.8981 5.15234 46.2029C5.15234 25.5077 21.9291 8.73096 42.6243 8.73096C63.3195 8.73096 80.0963 25.5077 80.0963 46.2029Z" fill="white"/>
<path d="M78.9561 46.1812C78.9561 66.1122 62.7988 82.2696 42.8677 82.2696C22.9366 82.2696 6.7793 66.1122 6.7793 46.1812C6.7793 26.2501 22.9366 10.0928 42.8677 10.0928C62.7988 10.0928 78.9561 26.2501 78.9561 46.1812Z" fill="#F07400"/>
<rect x="39.2041" y="12.8164" width="6.79836" height="2.57414" fill="white"/>
<rect x="39.2041" y="76.9717" width="6.79836" height="2.57414" fill="white"/>
<rect x="39.2046" y="12.8159" width="6.79836" height="2.57414" fill="white"/>
<rect x="39.2046" y="76.9717" width="6.79836" height="2.57414" fill="white"/>
<rect x="51.8198" y="13.9346" width="6.79836" height="2.57414" transform="rotate(21.7694 51.8198 13.9346)" fill="white"/>
<rect x="28.0264" y="73.5151" width="6.79836" height="2.57414" transform="rotate(21.7694 28.0264 73.5151)" fill="white"/>
<rect x="63.7393" y="20.1421" width="6.79836" height="2.57414" transform="rotate(44.8844 63.7393 20.1421)" fill="white"/>
<rect x="18.4663" y="65.5981" width="6.79836" height="2.57414" transform="rotate(44.8844 18.4663 65.5981)" fill="white"/>
<rect x="72.4673" y="30.9194" width="6.79836" height="2.57414" transform="rotate(68.7487 72.4673 30.9194)" fill="white"/>
<rect x="12.6748" y="54.1733" width="6.79836" height="2.57414" transform="rotate(68.7487 12.6748 54.1733)" fill="white"/>
<rect x="10.396" y="36.8291" width="6.79836" height="2.57414" transform="rotate(-67.9909 10.396 36.8291)" fill="white"/>
<rect x="69.8755" y="60.8711" width="6.79836" height="2.57414" transform="rotate(-67.9909 69.8755 60.8711)" fill="white"/>
<rect x="16.6528" y="24.9355" width="6.79836" height="2.57414" transform="rotate(-44.8759 16.6528 24.9355)" fill="white"/>
<rect x="61.9194" y="70.3989" width="6.79836" height="2.57414" transform="rotate(-44.8759 61.9194 70.3989)" fill="white"/>
<rect x="26.6768" y="16.666" width="6.79836" height="2.57414" transform="rotate(-22.534 26.6768 16.666)" fill="white"/>
<rect x="51.2632" y="75.9233" width="6.79836" height="2.57414" transform="rotate(-22.534 51.2632 75.9233)" fill="white"/>
<rect x="75.9678" y="42.7822" width="6.79836" height="2.57414" transform="rotate(89.8116 75.9678 42.7822)" fill="white"/>
<rect x="11.8135" y="42.7822" width="6.79836" height="2.57414" transform="rotate(89.8116 11.8135 42.7822)" fill="white"/>
<path d="M73.8568 45.9423C73.8568 63.1845 59.8793 77.162 42.6371 77.162C25.395 77.162 11.4175 63.1845 11.4175 45.9423C11.4175 28.7002 25.395 14.7227 42.6371 14.7227C59.8793 14.7227 73.8568 28.7002 73.8568 45.9423Z" fill="white"/>
<path d="M25.1695 69.5763C24.8727 69.4077 24.6706 69.1852 24.563 68.9086C24.4606 68.6306 24.4454 68.3288 24.5171 68.0032L25.2939 68.0694L25.2939 68.1987C25.2906 68.4123 25.3039 68.588 25.3339 68.7257C25.3672 68.8653 25.449 68.9721 25.5794 69.0462C25.6642 69.0943 25.7637 69.097 25.8778 69.054C25.9952 69.0129 26.0833 68.9444 26.142 68.8485C26.1968 68.7589 26.2238 68.6644 26.2232 68.5649C26.2226 68.4654 26.2001 68.3729 26.1557 68.2873L25.744 67.5492C25.6207 67.3413 25.5516 67.1274 25.5366 66.9077C25.5217 66.688 25.5739 66.4806 25.6933 66.2855C25.8205 66.0776 25.9829 65.9198 26.1805 65.8122C26.3814 65.7065 26.594 65.657 26.8184 65.6637C27.046 65.6723 27.2674 65.7377 27.4826 65.86C27.7337 66.0026 27.9101 66.1846 28.0118 66.4062C28.1135 66.6277 28.1334 66.8826 28.0714 67.1706L27.3005 67.0949C27.3031 67.0619 27.3106 66.9885 27.323 66.8749C27.3354 66.7613 27.3224 66.6677 27.2839 66.5941C27.2507 66.5192 27.19 66.4567 27.102 66.4067C26.9944 66.3456 26.8907 66.332 26.7909 66.3658C26.6944 66.4015 26.6138 66.4721 26.5492 66.5777C26.5023 66.6544 26.4804 66.7369 26.4836 66.8249C26.4921 66.9116 26.5166 66.9901 26.557 67.0605L26.9404 67.7373C27.2286 68.2286 27.2628 68.679 27.0429 69.0886C26.904 69.3157 26.7285 69.4876 26.5166 69.6043C26.3098 69.7196 26.0874 69.7743 25.8494 69.7684C25.6146 69.7644 25.3879 69.7003 25.1695 69.5763Z" fill="#666666"/>
<path d="M26.8198 70.4589L29.548 67.1589L30.6254 67.6347L29.5033 71.7468L28.6807 71.3781L28.9642 70.5084L28.0615 70.0624L27.4805 70.7852L26.8198 70.4589ZM28.5104 69.5315L29.1408 69.8429L29.7285 67.8816L28.5104 69.5315Z" fill="#666666"/>
<path d="M32.0656 72.8362L31.6393 69.9496L30.9062 72.4134L30.1915 72.2316L31.3849 68.2205L32.218 68.4383L32.5467 71.16L33.2429 68.8201L33.9295 68.9581L32.7361 72.9693L32.0656 72.8362Z" fill="#666666"/>
<path d="M34.1684 73.9624L34.993 70.464L34.1583 70.2545L34.3693 69.629L36.7699 70.2314L36.5534 70.8555L35.7896 70.6639L34.9804 74.0966L34.1684 73.9624Z" fill="#666666"/>
<path d="M36.6949 74.637L37.3969 70.5114L38.2199 70.6027L37.5179 74.7283L36.6949 74.637Z" fill="#666666"/>
<path d="M38.552 75.0229L39.4911 70.9062L40.6654 70.9229L41.5231 75.1598L40.6242 75.1419L40.4838 74.2277L39.4786 74.17L39.2877 75.0652L38.552 75.0229ZM39.6386 73.5037L40.3406 73.544L39.9782 71.5026L39.6386 73.5037Z" fill="#666666"/>
<path d="M43.4002 75.3233C42.9839 75.3228 42.6676 75.1146 42.4511 74.6987C42.2383 74.2828 42.1155 73.7566 42.0825 73.1199C42.0641 72.7642 42.0914 72.4216 42.1644 72.0921C42.2411 71.7627 42.3751 71.4913 42.5666 71.2781C42.7616 71.0611 43.0185 70.9528 43.3372 70.9531C43.611 70.9534 43.8413 71.0211 44.0283 71.1561C44.2188 71.2874 44.3629 71.4635 44.4606 71.6846C44.5618 71.9019 44.6193 72.1435 44.6331 72.4094L43.8538 72.4591L43.8309 72.3411C43.7969 72.1201 43.7484 71.9441 43.6854 71.8129C43.6224 71.6818 43.514 71.6161 43.3603 71.616C43.1653 71.6158 43.0346 71.7729 42.9684 72.0874C42.9058 72.3981 42.885 72.7576 42.9061 73.1658C42.921 73.4541 42.9431 73.6994 42.9723 73.9017C43.0015 74.1039 43.0595 74.2819 43.1461 74.4355C43.2326 74.5854 43.3584 74.6604 43.5234 74.6606C43.6621 74.6607 43.7664 74.5747 43.8363 74.4025C43.9098 74.2304 43.9401 74.0188 43.9272 73.7679L43.5109 73.7675L43.5459 73.1384L44.6877 73.1396L44.795 75.2124L44.4817 75.2458L44.2501 74.4648C44.2239 74.6108 44.1875 74.7418 44.141 74.8579C44.0983 74.9739 44.0176 75.0805 43.8989 75.1778C43.7802 75.275 43.6139 75.3235 43.4002 75.3233Z" fill="#666666"/>
<path d="M46.9517 75.1307C46.4768 75.1661 46.1143 74.9886 45.8642 74.5982C45.6174 74.2037 45.4496 73.6833 45.3609 73.0369C45.2665 72.3496 45.2967 71.8125 45.4514 71.4257C45.606 71.0388 45.9115 70.8284 46.3677 70.7944C47.239 70.7294 47.7718 71.4047 47.9662 72.8201C48.0534 73.4554 48.0267 73.9903 47.8861 74.4249C47.7493 74.8592 47.4378 75.0945 46.9517 75.1307ZM46.8726 74.4723C47.0708 74.4575 47.1841 74.3196 47.2125 74.0585C47.2404 73.7937 47.2183 73.3994 47.1464 72.8756C47.0888 72.4558 47.0093 72.1108 46.908 71.8406C46.8099 71.5665 46.6599 71.4369 46.458 71.452C46.256 71.467 46.144 71.6142 46.1219 71.8936C46.0998 72.173 46.1176 72.5226 46.1753 72.9424C46.2477 73.4699 46.3317 73.8615 46.4272 74.1171C46.526 74.3687 46.6744 74.4871 46.8726 74.4723Z" fill="#666666"/>
<path d="M52.8603 72.0401L52.596 72.1483L53.2157 73.6436L52.5616 73.9761L51.1225 70.504L51.9366 70.1386C52.3355 69.9754 52.6811 69.9279 52.9733 69.9961C53.2643 70.0612 53.4775 70.2573 53.6131 70.5844C53.7027 70.8005 53.7329 70.9956 53.7039 71.1699C53.678 71.3429 53.6038 71.5086 53.4814 71.667L54.1049 72.2945L54.7312 72.9154L54.1381 73.3692L52.8603 72.0401ZM52.6206 71.5534C52.7814 71.4877 52.8932 71.404 52.9561 71.3026C53.0207 71.1967 53.0146 71.0512 52.9379 70.866C52.8189 70.579 52.6172 70.4937 52.3327 70.61L52.0127 70.7409L52.3887 71.6483L52.6206 71.5534ZM55.0914 72.9413L54.8094 72.2608L55.4587 71.9952L55.7178 72.6202L55.0914 72.9413Z" fill="#666666"/>
<path d="M55.3337 68.3302L55.9698 67.8932C56.3774 67.6133 56.7678 67.5356 57.141 67.6601C57.5142 67.7846 57.8749 68.1123 58.223 68.6431C58.4081 68.9252 58.539 69.2101 58.6158 69.4978C58.6953 69.7835 58.7001 70.0558 58.6301 70.3145C58.5583 70.5705 58.3944 70.7864 58.1383 70.9623L57.3948 71.4731L55.3337 68.3302ZM57.7631 70.5089C57.9724 70.3652 58.0574 70.1751 58.0182 69.9386C57.9799 69.6975 57.8728 69.4428 57.6969 69.1746L57.6034 69.0322C57.477 68.8394 57.3529 68.6775 57.231 68.5465C57.11 68.4107 56.9711 68.3177 56.8143 68.2674C56.6584 68.2124 56.4965 68.2426 56.3285 68.358L56.2583 68.4062L57.6763 70.5685L57.7631 70.5089ZM59.5352 70.0393L59.1312 69.4233L59.7095 69.0261L60.0805 69.5918L59.5352 70.0393Z" fill="#666666"/>
<path d="M48.9814 74.8142C49.0892 74.7996 49.1563 74.7453 49.1828 74.6511C49.1909 74.616 49.1934 74.5723 49.1903 74.5199L48.7945 74.5732L48.6354 73.7962L49.4214 73.6903L49.5805 74.4673C49.6167 74.6436 49.6144 74.7911 49.5738 74.9099C49.537 75.0281 49.4758 75.1213 49.3905 75.1894C49.3052 75.2575 49.2042 75.3051 49.0875 75.3321L48.9814 74.8142Z" fill="#666666"/>
<path d="M23.4201 58.7102C23.1166 58.3318 22.9691 57.9355 22.9777 57.5212C22.994 57.1081 23.1398 56.7118 23.4149 56.3323L24.416 56.8408L24.3448 57.007C24.2228 57.2799 24.1439 57.513 24.1081 57.7064C24.0757 57.9039 24.1261 58.0859 24.2596 58.2522C24.3463 58.3603 24.4777 58.4179 24.6538 58.4249C24.8332 58.4361 24.9886 58.396 25.1198 58.3046C25.2423 58.2193 25.3305 58.1126 25.3845 57.9843C25.4384 57.856 25.4593 57.7248 25.4471 57.5907L25.3036 56.4173C25.2534 56.0828 25.2789 55.7703 25.3798 55.4796C25.4808 55.189 25.6647 54.9508 25.9316 54.765C26.216 54.5671 26.5197 54.4528 26.8429 54.4222C27.1695 54.3958 27.4807 54.448 27.7767 54.579C28.076 54.7141 28.3357 54.9189 28.5558 55.1933C28.8127 55.5135 28.9481 55.8437 28.9619 56.184C28.9758 56.5243 28.862 56.8627 28.6206 57.1992L27.6327 56.6816C27.6544 56.6406 27.7048 56.5505 27.7839 56.4111C27.863 56.2718 27.8972 56.1444 27.8863 56.0288C27.8831 55.9144 27.8365 55.801 27.7464 55.6887C27.6364 55.5515 27.5054 55.4775 27.3534 55.4666C27.2049 55.4598 27.0584 55.5067 26.914 55.6072C26.809 55.6803 26.7344 55.7744 26.6903 55.8893C26.6539 56.0054 26.6433 56.1197 26.6585 56.2322L26.798 57.3113C26.9125 58.1 26.7102 58.6977 26.191 59.1045C25.8804 59.3207 25.5514 59.4461 25.204 59.4805C24.8643 59.5161 24.5372 59.4652 24.2224 59.3279C23.9111 59.1947 23.6436 58.9888 23.4201 58.7102Z" fill="#666666"/>
<path d="M25.3604 60.6712L30.4447 57.2593L31.7518 58.3092L28.5751 63.4248L27.5794 62.6159L28.3153 61.5514L27.2389 60.608L26.1482 61.3616L25.3604 60.6712ZM28.0707 60.0629L28.8224 60.7217L30.4104 58.3016L28.0707 60.0629Z" fill="#666666"/>
<path d="M29.6829 64.5429L32.6796 59.4592L33.7482 59.9446L31.1779 64.305L32.8964 65.2622L32.3165 66.0098L29.6829 64.5429Z" fill="#666666"/>
<path d="M33.586 66.8845L35.2576 61.1251L38.175 62.0027L37.8224 62.8735L36.1225 62.3622L35.7235 63.7367L36.9333 64.1007L36.6449 65.066L35.4427 64.7043L34.9724 66.3247L36.8254 66.8821L36.4728 67.7529L33.586 66.8845Z" fill="#666666"/>
<path d="M39.9395 68.5881C39.4592 68.5203 39.067 68.3304 38.7631 68.0184C38.4649 67.7019 38.2636 67.3076 38.1591 66.8355L39.1906 66.513L39.2685 66.6854C39.393 66.972 39.5159 67.1992 39.6371 67.367C39.7636 67.5355 39.9325 67.6347 40.1436 67.6645C40.2808 67.6839 40.4094 67.6348 40.5292 67.5172C40.6544 67.4003 40.7255 67.2624 40.7426 67.1034C40.7586 66.955 40.7363 66.8146 40.6755 66.6823C40.6147 66.55 40.5303 66.4385 40.4222 66.3479L39.4518 65.5813C39.1692 65.3693 38.9522 65.1207 38.8007 64.8356C38.6493 64.5506 38.591 64.2464 38.6258 63.9231C38.663 63.5786 38.7753 63.2824 38.9628 63.0344C39.1555 62.7872 39.3972 62.6088 39.6876 62.4992C39.9834 62.3903 40.3055 62.3604 40.6538 62.4096C41.0603 62.467 41.3952 62.6165 41.6585 62.8582C41.9218 63.0998 42.1007 63.4291 42.195 63.846L41.1653 64.1526C41.1487 64.1072 41.1141 64.0054 41.0615 63.8473C41.0089 63.6893 40.9359 63.5713 40.8424 63.4936C40.7548 63.4112 40.6398 63.36 40.4973 63.3399C40.3231 63.3153 40.1825 63.352 40.0755 63.4498C39.9737 63.5485 39.9135 63.6852 39.8946 63.8601C39.8809 63.9873 39.9026 64.1088 39.9598 64.2245C40.0229 64.3356 40.1014 64.4274 40.1954 64.4999L41.0926 65.1996C41.7565 65.7023 42.0714 66.2849 42.0375 66.9473C41.997 67.3236 41.8765 67.6456 41.6762 67.9132C41.4817 68.1763 41.2307 68.3669 40.9233 68.4849C40.6211 68.6036 40.2932 68.638 39.9395 68.5881Z" fill="#666666"/>
<path d="M43.4256 68.7837L43.3699 62.8348L44.5436 62.7827L44.5993 68.7316L43.4256 68.7837Z" fill="#666666"/>
<path d="M46.4528 68.4379L45.944 62.4885L47.5508 62.0422L50.5594 67.4366L49.3272 67.7714L48.7389 66.5895L47.3445 66.9128L47.4732 68.2013L46.4528 68.4379ZM47.2731 65.9468L48.2468 65.721L46.8665 63.1015L47.2731 65.9468Z" fill="#666666"/>
<path d="M54.1067 65.1605L50.6701 62.652L52.4773 65.8281L51.5547 66.3191L48.6126 61.1483L49.6941 60.5819L52.8591 63.0163L51.1429 60L51.9911 59.4914L54.9332 64.6621L54.1067 65.1605Z" fill="#666666"/>
<path d="M57.561 63.2921C56.9789 63.6379 56.4029 63.643 55.8329 63.3075C55.2644 62.9649 54.7154 62.4128 54.1859 61.6512C53.6229 60.8415 53.3153 60.1429 53.2631 59.5555C53.2109 58.9681 53.4643 58.5083 54.0235 58.1761C55.0913 57.5418 56.205 58.0584 57.3644 59.726C57.8847 60.4744 58.1954 61.1681 58.2964 61.807C58.4019 62.4431 58.1568 62.9382 57.561 63.2921ZM57.0361 62.5092C57.279 62.3649 57.3344 62.1187 57.2024 61.7704C57.0673 61.4177 56.7852 60.9328 56.3561 60.3157C56.0122 59.8211 55.6888 59.435 55.3857 59.1574C55.0841 58.8727 54.8096 58.8038 54.5621 58.9508C54.3146 59.0979 54.2668 59.3551 54.4186 59.7225C54.5705 60.09 54.8184 60.521 55.1622 61.0156C55.5943 61.6371 55.9536 62.0793 56.2399 62.3421C56.5278 62.5978 56.7932 62.6535 57.0361 62.5092Z" fill="#666666"/>
<path d="M62.1163 60.4269C61.784 60.7803 61.4012 60.9931 60.968 61.0653C60.5343 61.1301 60.0918 61.0722 59.6405 60.8916L59.9661 59.8691L60.1538 59.9027C60.4629 59.9626 60.7218 59.9903 60.9305 59.986C61.1429 59.9777 61.3221 59.8959 61.4682 59.7405C61.5632 59.6396 61.5963 59.5071 61.5678 59.3432C61.5429 59.1754 61.4694 59.0398 61.3475 58.9363C61.2337 58.8397 61.1045 58.7789 60.9599 58.7539C60.8153 58.729 60.6744 58.735 60.5372 58.7722L59.3441 59.1317C59.0059 59.2427 58.6752 59.2796 58.3519 59.2426C58.0286 59.2056 57.743 59.0819 57.4951 58.8715C57.2309 58.6473 57.05 58.3889 56.9522 58.0965C56.8582 57.8002 56.8492 57.5027 56.9253 57.2042C57.005 56.9018 57.1654 56.6224 57.4064 56.3661C57.6876 56.067 58.004 55.8782 58.3557 55.7996C58.7073 55.721 59.083 55.7605 59.4827 55.9183L59.1449 56.9304C59.0978 56.9184 58.9936 56.8893 58.8323 56.8432C58.671 56.7971 58.5313 56.7902 58.4132 56.8226C58.2946 56.8476 58.186 56.9126 58.0874 57.0175C57.9669 57.1456 57.9165 57.2809 57.9361 57.4232C57.9594 57.5617 58.0381 57.6878 58.1722 57.8017C58.2697 57.8845 58.3829 57.9351 58.5116 57.9536C58.6399 57.9648 58.7612 57.9525 58.8753 57.9166L59.9709 57.5792C60.7691 57.3209 61.4329 57.3921 61.9624 57.7927C62.251 58.0376 62.4486 58.3171 62.5553 58.6311C62.6615 58.9378 62.6752 59.2497 62.5963 59.5668C62.521 59.88 62.361 60.1667 62.1163 60.4269Z" fill="#666666"/>
<path d="M32.6484 47.4497L45.9615 47.2422" stroke="#666666" stroke-width="1.1174"/>
<path d="M52.2985 39.3247H45.9453" stroke="#666666" stroke-width="0.798144"/>
<path d="M49.6485 37.0259L49.2974 42.8683" stroke="#666666" stroke-width="0.798144"/>
<path d="M27.1802 50.3278L59.0608 31.3928C59.1227 31.356 59.1887 31.4338 59.1422 31.4889L38.7599 55.6352" stroke="#666666" stroke-width="0.798144"/>
<path d="M32.1533 47.6572L33.8454 49.461" stroke="#666666" stroke-width="1.1174"/>
<path d="M39.5749 34.735C40.1566 32.7652 42.0151 32.4215 42.7642 32.3389C43.271 32.6253 44.3307 33.2609 44.5158 33.5121C44.7472 33.8261 46.8954 37.0815 46.9284 37.3954C46.9549 37.6466 46.6751 42.105 46.5318 44.3028L44.8298 49.2272L40.4342 49.442L39.2279 48.9628L38.1207 45.3108L37.939 39.5271C38.2419 38.7505 38.9932 36.7047 39.5749 34.735Z" fill="white"/>
<path d="M35.98 36.4747L37.0172 33.6225L38.5729 34.4004L38.3136 30.511L39.61 28.9553H40.5175L40.7768 30.6407L42.2029 29.8628C41.9868 29.2146 41.6584 27.8404 42.0733 27.5292C42.4881 27.2181 43.2833 27.3996 43.629 27.5292V29.9925H43.8883C44.1908 29.4739 44.9514 28.4627 45.5736 28.5664C46.1959 28.6701 46.7837 29.5603 46.9997 29.9925L46.3515 32.3261C46.5589 32.4298 46.8701 32.8014 46.9997 32.9743L48.2962 33.1039C48.9185 33.7262 49.2469 35.3511 49.3333 36.0857L48.1665 37.3822C48.374 37.797 48.5122 39.4565 48.5555 40.2343L49.5926 39.8454C50.0075 40.4677 49.9383 42.4383 49.8519 43.3458L48.4258 43.7347C48.5295 44.2533 48.2097 45.9386 48.0369 46.7165L49.2037 47.7537L48.6851 49.0501L48.1665 49.439L44.6661 49.1798L46.4812 41.7901C45.9626 38.16 44.4069 31.1852 42.3326 32.3261C39.7397 33.7521 38.8322 36.4747 38.5729 39.5861C38.3136 42.6976 38.3136 42.3086 38.5729 44.9015C38.7803 46.9758 39.6965 48.618 40.1286 49.1798V49.439H37.1468L36.7579 49.1798L36.3689 47.624L36.7579 44.6422L35.4614 42.9569V40.8826L36.7579 38.9379L35.98 36.4747Z" fill="white"/>
<path d="M43.8173 50.2873L45.1994 50.3062L45.775 49.6026L46.3679 48.6006L46.9537 47.1823L47.3094 45.9369L47.5395 44.7809L47.7013 43.486L47.7523 42.7258V40.8749L47.6235 39.3994L47.3691 37.9215L47.0597 36.7459L46.7377 35.8287L46.3255 34.9178L45.8771 34.1474L45.2119 33.3071L44.7926 32.9224L44.1094 32.4959L43.5487 32.309L42.8953 32.2588L42.6982 32.2878L43.1019 32.5336L43.416 32.7692L43.8872 33.2404L44.2798 33.7901L44.6724 34.5754L44.9866 35.3607L45.3007 36.303L45.6933 38.0306L45.8504 39.5227L45.9289 40.7006L45.9493 41.7215L45.9289 42.5067V42.9779L45.8504 43.8417L45.7718 44.8626L45.5363 46.0405L45.3792 46.8258L45.0651 47.9252L44.8295 48.5534L44.5154 49.1817L44.2013 49.8099L43.9657 50.124L43.8173 50.2873Z" fill="#666666"/>
<path d="M38.8052 49.4932L39.0581 50.0578L39.1759 50.2965L36.0732 50.2635" fill="#666666"/>
<path d="M36.0731 50.2382L35.7661 49.4929L35.3585 48.2663L35.0789 47.2195L36.0731 46.79C36.0001 46.373 35.9365 45.9262 35.8886 45.4471C35.8344 44.9053 35.81 44.3949 35.7991 43.9205L34.534 43.8844L34.4641 42.9774L34.4248 41.4854V40.3742L34.4656 40.0161L36.231 40.364V40.7566L36.2066 41.8042L36.231 42.7049L36.2702 43.3748L36.3024 43.5994L37.4803 43.608L37.551 44.3689L37.6193 45.1315L37.7536 45.7942L37.9217 46.6486L36.9008 47.6153L37.1089 48.4988L37.3249 49.2401L37.5086 49.8L37.529 49.8926L37.6264 50.1337L36.0731 50.2382Z" fill="#666666"/>
<path d="M47.422 34.4203L48.5891 33.4024C48.531 33.2453 48.4726 33.0859 48.414 32.9241L47.6229 32.9241L46.8441 32.7885L46.7754 32.7598L46.983 33.2158L47.2142 33.7167C47.2171 33.7231 47.2199 33.7293 47.2226 33.7357C47.2438 33.7858 47.3426 34.0237 47.3812 34.1902C47.4018 34.2791 47.422 34.4203 47.422 34.4203Z" fill="#666666"/>
<path d="M45.1834 30.9386C45.3462 30.0863 45.5091 29.2348 45.6719 28.3841L45.5203 28.2568L44.0856 28.3354L43.7715 30.0983L44.4398 30.4124L44.9895 30.8051L45.1834 30.9386Z" fill="#666666"/>
<path d="M42.335 30.0605L42.3233 27.6C42.709 27.388 43.0733 27.4651 43.6587 27.4451C43.6587 27.4451 43.3197 27.346 43.2521 27.3256C43.0555 27.2938 42.9022 27.2443 42.3855 27.2505C41.8707 27.2638 41.358 27.3407 40.854 27.4461V30.1232L42.335 30.0605Z" fill="#666666"/>
<path d="M40.6158 28.9875C40.5929 28.9502 39.9226 28.8662 38.7871 28.7212C38.5723 28.8916 38.3442 29.0921 38.158 29.2934C37.9071 29.5648 37.6845 29.8611 37.4937 30.1776C37.6083 30.9372 37.7232 31.6963 37.8384 32.4549L39.4875 32.612L38.9763 30.1776L39.2519 29.7064L39.7231 29.1567L39.8801 28.9997C40.2695 29.0322 40.549 29.0288 40.6158 28.9875Z" fill="#666666"/>
<path d="M34.9058 36.5349L36.6334 36.7093L36.8336 35.6821L37.2263 34.1351L37.3213 33.821L38.5322 34.6558L38.7552 34.0684L39.0049 33.4951L39.3685 32.7813L39.4667 32.6101L37.8404 32.3745C37.7357 32.5839 37.631 32.7933 37.5263 33.0027L37.2907 33.7095L35.7986 33.3954L35.6832 33.7095L35.4233 34.4948L35.1704 35.3641L35.0133 35.9923L34.9058 36.5349Z" fill="#666666"/>
<path d="M36.231 40.3642L37.4489 40.3147L37.5023 39.5734L37.5675 38.9318L37.8196 37.2906L36.6464 36.6412L34.907 36.5352L36.5058 37.7955L36.4006 38.3641L36.3488 39.2876L36.2922 39.6143L36.2702 39.7587L34.4248 40.0163L35.9019 40.3642H36.231Z" fill="#666666"/>
<path d="M40.9043 30.842L40.6753 30.1169L42.3347 30.0601L42.1872 30.1025C42.012 30.1528 41.8419 30.2192 41.6788 30.3007V30.3007C41.5284 30.3759 41.3845 30.4638 41.2489 30.5633L41.1261 30.6535C41.0478 30.711 40.9737 30.774 40.9043 30.842V30.842Z" fill="#666666"/>
<path d="M48.4717 39.644L49.8608 39.8427L49.8255 39.8678L48.6292 40.3751H48.5219L48.4717 39.644Z" fill="#666666"/>
<path d="M40.9391 50.3371C39.2887 48.7216 38.3511 45.466 38.3511 41.8034C38.3511 36.5342 40.4603 32.2622 43.0628 32.2622C45.6652 32.2622 47.7745 36.5342 47.7745 41.8034C47.7745 45.5374 46.7151 48.7697 45.1721 50.3371" stroke="#666666" stroke-width="0.374603" stroke-miterlimit="10"/>
<path d="M42.5278 32.3027C44.4588 32.7676 45.9682 36.8425 45.9682 41.8C45.9682 45.512 45.1216 48.7285 43.8864 50.3062" stroke="#666666" stroke-width="0.0785284" stroke-miterlimit="10"/>
<path d="M40.7969 30.8583L40.5093 29.0034" stroke="#666666" stroke-width="0.215873" stroke-miterlimit="10"/>
<path d="M43.5518 27.4448L43.5621 30.0599" stroke="#666666" stroke-width="0.215873" stroke-miterlimit="10"/>
<path d="M36.0602 37.2524C35.9817 37.6749 35.9165 38.1296 35.8647 38.6118C35.8081 39.141 35.7767 39.6405 35.7642 40.1038L36.6123 39.9358L36.9617 37.6137L36.0602 37.2524Z" fill="#666666"/>
<path d="M46.3555 32.3659L47.0151 30.0705C46.8164 29.7569 46.597 29.4567 46.3586 29.1721C46.1094 28.8745 45.7537 28.606 45.4648 28.3467" stroke="#666666" stroke-width="0.215873" stroke-miterlimit="10"/>
<path d="M46.2842 32.2798C46.4085 32.3553 46.9231 32.8438 47.1555 33.3459" stroke="#666666" stroke-width="0.215892" stroke-miterlimit="10"/>
<path d="M45.1624 30.7788C44.9624 30.6041 44.6911 30.4492 44.4579 30.3222C44.1728 30.1666 43.7924 30.0373 43.4766 29.9614" stroke="#666666" stroke-width="0.212198" stroke-miterlimit="10"/>
<path d="M48.1411 37.4572L49.3775 36.0879" stroke="#666666" stroke-width="0.215873" stroke-miterlimit="10"/>
<path d="M49.8976 43.332L48.3867 43.6562" stroke="#666666" stroke-width="0.215873" stroke-miterlimit="10"/>
<path d="M49.3469 36.1668C49.2644 35.6867 49.1884 35.1634 49.0486 34.6968C48.8701 34.1015 48.5975 33.5561 48.3291 32.9956" stroke="#666666" stroke-width="0.249735" stroke-miterlimit="10"/>
<path d="M49.7578 39.8667C49.9013 40.3975 49.9432 41.1102 49.9425 41.7426C49.9424 42.2911 49.8747 42.8835 49.8168 43.4289" stroke="#666666" stroke-width="0.215873" stroke-miterlimit="10"/>
<path d="M48.1753 37.3765C48.2559 37.8267 48.3266 38.3023 48.3873 38.8033C48.4525 39.353 48.4957 39.8784 48.5224 40.3739" stroke="#666666" stroke-width="0.215873" stroke-miterlimit="10"/>
<path d="M47.9937 46.8073C48.1334 46.2544 48.2393 45.6962 48.3204 45.1316C48.3989 44.5678 48.4484 44.0401 48.472 43.5571" stroke="#666666" stroke-width="0.224762" stroke-miterlimit="10"/>
<path d="M46.7969 50.2594C46.9147 50.0243 46.9373 49.9669 47.0446 49.7119" stroke="#666666" stroke-width="0.0785284" stroke-miterlimit="10"/>
<path d="M47.9536 46.6943L49.2877 47.6453" stroke="#666666" stroke-width="0.224988" stroke-miterlimit="10"/>
<path d="M49.2467 47.5327C49.1462 47.9835 49.0091 48.4772 48.867 48.9711C48.739 49.4125 48.5692 49.9319 48.431 50.3246L47.0537 49.5996" stroke="#666666" stroke-width="0.215873" stroke-miterlimit="10"/>
<path d="M46.7969 50.2593L48.4939 50.247L47.078 49.7197L46.7969 50.2593Z" fill="#666666"/>
<path d="M42.5768 50.4192C43.9034 50.4903 44.2877 49.6522 44.5007 48.641C45.3198 44.7523 43.7878 43.1411 44.0016 39.2711C44.0025 39.2556 43.9855 39.2467 43.9757 39.2588C43.651 39.6583 43.1527 42.2336 43.0055 43.187C42.9791 40.1786 42.3642 35.0741 41.9959 33.5625C41.9912 33.5433 41.9642 33.5509 41.9625 33.5706C41.1239 43.177 39.0291 41.8029 40.2922 48.9866C40.5981 50.7267 40.9184 50.3303 42.5768 50.4192Z" fill="#FF7625"/>
<path d="M36.0635 50.3599H48.4937" stroke="#666666" stroke-width="0.235585" stroke-miterlimit="10"/>
<path fill-rule="evenodd" clip-rule="evenodd" d="M40.0874 56.7207H34.9V55.3024L27.3008 50.4671H32.8599V49.2422H40.0874H44.1878H51.4154V50.4671H56.9745L49.3753 55.3024V56.7207H44.1878H40.0874Z" fill="white"/>
<path d="M34.9 56.7207H34.6284V56.9923H34.9V56.7207ZM34.9 55.3024H35.1715V55.1533L35.0457 55.0733L34.9 55.3024ZM27.3008 50.4671V50.1956H26.3681L27.155 50.6962L27.3008 50.4671ZM32.8599 50.4671V50.7387H33.1315V50.4671H32.8599ZM32.8599 49.2422V48.9706H32.5884V49.2422H32.8599ZM51.4154 49.2422H51.6869V48.9706H51.4154V49.2422ZM51.4154 50.4671H51.1438V50.7387H51.4154V50.4671ZM56.9745 50.4671L57.1203 50.6962L57.9072 50.1956H56.9745V50.4671ZM49.3753 55.3024L49.2295 55.0733L49.1038 55.1533V55.3024H49.3753ZM49.3753 56.7207V56.9923H49.6469V56.7207H49.3753ZM34.9 56.9923H40.0874V56.4492H34.9V56.9923ZM34.6284 55.3024V56.7207H35.1715V55.3024H34.6284ZM27.155 50.6962L34.7542 55.5315L35.0457 55.0733L27.4466 50.238L27.155 50.6962ZM32.8599 50.1956H27.3008V50.7387H32.8599V50.1956ZM32.5884 49.2422V50.4671H33.1315V49.2422H32.5884ZM40.0874 48.9706H32.8599V49.5137H40.0874V48.9706ZM40.0874 49.5137H44.1878V48.9706H40.0874V49.5137ZM44.1878 49.5137H51.4154V48.9706H44.1878V49.5137ZM51.1438 49.2422V50.4671H51.6869V49.2422H51.1438ZM51.4154 50.7387H56.9745V50.1956H51.4154V50.7387ZM56.8287 50.238L49.2295 55.0733L49.5211 55.5315L57.1203 50.6962L56.8287 50.238ZM49.1038 55.3024V56.7207H49.6469V55.3024H49.1038ZM49.3753 56.4492H44.1878V56.9923H49.3753V56.4492ZM44.1878 56.4492H40.0874V56.9923H44.1878V56.4492Z" fill="#0668C0"/>
<path d="M31.4951 27.981L53.3757 54.5749L51.6667 55.9967L29.7633 29.4085L31.4951 27.981Z" fill="#666666"/>
<rect x="26.9409" y="33.1859" width="10.9759" height="4.37701" rx="2.18851" transform="rotate(-39.4985 26.9409 33.1859)" fill="#666666" stroke="#666666" stroke-width="0.516778"/>
<path d="M47.7969 31.7733L50.4786 32.2362L49.7603 30.3047L54.2618 33.0822L51.2449 32.0766L51.8993 33.625L47.7969 31.7733Z" fill="#666666"/>
<path d="M56.8801 40.9844V35.9082L56.1458 38.6698L54.9167 37.3449L54.4697 41.7825L55.1721 39.0689L56.8801 40.9844Z" fill="#666666"/>
<path d="M61.7482 37.2171L57.7256 35.2537L60.2637 35.988L59.7369 34.4556L63.7276 36.2115L61.0139 35.7326L61.7482 37.2171Z" fill="#666666"/>
<path d="M55.3873 27.576C55.2852 28.8401 55.1064 31.0849 55.057 31.8161C55.0545 31.8531 55.0965 31.8585 55.1066 31.8228L55.7275 29.6215C55.7349 29.5952 55.7697 29.5898 55.7848 29.6124L56.6299 30.8801C56.6456 30.9037 56.6819 30.8967 56.6877 30.869L57.5022 26.9688L56.6934 29.4887C56.685 29.5146 56.6501 29.5189 56.6358 29.4956L55.4463 27.5627C55.4301 27.5364 55.3898 27.5452 55.3873 27.576Z" fill="#666666"/>
<path d="M26.4565 50.2066L27.4215 49.7241L27.1803 50.4479L26.4565 50.2066Z" fill="#666666"/>
<path d="M19.7054 53.4609L14.9151 54.9726L14.5352 54.0518L19.3255 52.54L19.7054 53.4609Z" fill="#666666"/>
<path d="M18.7207 49.5633L15.8951 51.6202L18.9236 51.0302L19.1324 51.8906L14.2018 52.8511L13.9647 51.8449L16.6702 49.9834L13.7941 50.5437L13.5546 49.7374L18.4851 48.7769L18.7207 49.5633Z" fill="#666666"/>
<path d="M18.5191 46.8196C18.5359 47.2289 18.4376 47.5804 18.2244 47.8742C18.0065 48.1638 17.7091 48.3826 17.3323 48.5309L16.9069 47.7126L17.0385 47.6254C17.258 47.4845 17.4282 47.3526 17.5494 47.2298C17.6703 47.1025 17.7271 46.9489 17.7197 46.769C17.7149 46.6521 17.6545 46.5513 17.5384 46.4666C17.4221 46.3774 17.2966 46.3359 17.1617 46.3422C17.0358 46.3481 16.9224 46.3849 16.8216 46.4527C16.7208 46.5205 16.6409 46.6053 16.582 46.7072L16.0921 47.6155C15.9587 47.8785 15.7849 48.0917 15.5709 48.2548C15.3568 48.418 15.1127 48.506 14.8384 48.5188C14.5461 48.5324 14.2826 48.4772 14.0478 48.3529C13.8128 48.2242 13.6275 48.0459 13.4921 47.8179C13.3564 47.5854 13.2825 47.3207 13.2704 47.0239C13.2562 46.6776 13.3296 46.379 13.4906 46.1282C13.6515 45.8774 13.8982 45.6857 14.2306 45.553L14.6425 46.3719C14.6072 46.3915 14.5279 46.4335 14.4044 46.4979C14.2809 46.5622 14.1939 46.6384 14.1434 46.7263C14.0883 46.81 14.0632 46.9126 14.0682 47.034C14.0742 47.1824 14.1261 47.2949 14.2239 47.3714C14.3214 47.4435 14.4444 47.4761 14.5927 47.4691C14.7007 47.4641 14.7984 47.4303 14.8859 47.3676C14.9688 47.3006 15.0332 47.2233 15.0791 47.1355L15.5246 46.2969C15.8417 45.6783 16.2783 45.3403 16.8346 45.2828C17.1538 45.2679 17.44 45.3267 17.6932 45.4591C17.9417 45.5871 18.1384 45.7717 18.2834 46.0128C18.4282 46.2493 18.5068 46.5183 18.5191 46.8196Z" fill="#666666"/>
<path d="M18.5127 44.2248L14.2131 43.8697L14.1175 44.8983L13.3371 44.7593L13.6119 41.8013L14.3917 41.947L14.3043 42.8882L18.5232 43.2366L18.5127 44.2248Z" fill="#666666"/>
<path d="M18.8139 41.8837L13.8726 40.9802L13.9843 39.9917L18.9256 40.8953L18.8139 41.8837Z" fill="#666666"/>
<path d="M19.3521 39.5805L15.2042 38.3939L14.9046 39.3825L14.1667 39.0942L15.0283 36.2512L15.7643 36.546L15.4901 37.4506L19.5602 38.6149L19.3521 39.5805Z" fill="#666666"/>
<path d="M20.723 36.0963C20.5128 36.5545 20.2067 36.8332 19.8046 36.9325C19.4026 37.0318 18.9603 36.9759 18.4778 36.7649L15.4032 35.4207L15.7799 34.5024L18.9658 35.8953C19.1267 35.9656 19.2665 36.017 19.3854 36.0493C19.5061 36.0775 19.6226 36.0719 19.7347 36.0325C19.8469 35.9932 19.9376 35.8978 20.0071 35.7464C20.0728 35.6032 20.0815 35.4818 20.0331 35.3821C19.9826 35.2764 19.9074 35.192 19.8077 35.1288C19.7038 35.0637 19.5674 34.9942 19.3983 34.9203L16.299 33.5653L16.602 32.7105L19.6085 34.025C20.0457 34.2161 20.4022 34.4751 20.678 34.802C20.9557 35.1248 20.9707 35.5562 20.723 36.0963Z" fill="#666666"/>
<path d="M21.9633 33.691L18.2766 31.45L17.7234 32.3224L17.0882 31.8494L18.6791 29.3406L19.3107 29.8193L18.8045 30.6175L22.4219 32.8164L21.9633 33.691Z" fill="#666666"/>
<path d="M23.3746 30.1504C23.0078 30.5889 22.5583 30.744 22.026 30.6158C21.4931 30.4812 20.9216 30.1684 20.3117 29.6771C19.6632 29.1548 19.2431 28.6575 19.0514 28.1853C18.8597 27.7131 18.94 27.2664 19.2924 26.8452C19.9653 26.0408 20.9696 26.1765 22.3052 27.2522C22.9046 27.735 23.3258 28.2274 23.5689 28.7294C23.8148 29.228 23.7501 29.7016 23.3746 30.1504ZM22.7628 29.6403C22.9159 29.4574 22.896 29.2391 22.7032 28.9856C22.5069 28.7293 22.1617 28.4021 21.6674 28.004C21.2713 27.685 20.919 27.4503 20.6105 27.3001C20.3013 27.1436 20.0688 27.1585 19.9128 27.3449C19.7569 27.5314 19.7855 27.7567 19.9987 28.0208C20.2119 28.285 20.5165 28.5766 20.9127 28.8956C21.4104 29.2966 21.8051 29.5682 22.0967 29.7106C22.3877 29.8467 22.6097 29.8233 22.7628 29.6403Z" fill="#666666"/>
<path d="M22.7744 23.4284L23.2729 23.0355C23.6723 22.7207 24.0047 22.4874 24.27 22.3357C24.5324 22.1804 24.8234 22.1173 25.1428 22.1463C25.4659 22.1725 25.7808 22.3742 26.0875 22.7513C26.3659 23.0935 26.4998 23.4149 26.4891 23.7155C26.4791 24.0099 26.3837 24.2742 26.2029 24.5084C26.0228 24.7362 25.786 24.9658 25.4926 25.197L26.7239 26.7106L25.9956 27.3878L22.7744 23.4284ZM25.1234 24.4651C25.3285 24.3036 25.4552 24.1349 25.5037 23.9592C25.5557 23.7806 25.4909 23.5796 25.3091 23.3562C25.1301 23.1362 24.9546 23.031 24.7825 23.0406C24.6104 23.0501 24.4059 23.1482 24.1691 23.3349L24.0577 23.4226L24.9908 24.5696L25.1234 24.4651Z" fill="#666666"/>
<path d="M29.9462 24.6725C29.4526 24.961 28.9785 24.9539 28.5239 24.6514C28.0708 24.3427 27.6427 23.8527 27.2395 23.1813C26.8109 22.4674 26.5875 21.855 26.5696 21.3442C26.5516 20.8334 26.7797 20.4395 27.2538 20.1624C28.1592 19.6332 29.0534 20.1038 29.9362 21.574C30.3324 22.2339 30.5585 22.842 30.6143 23.3984C30.6741 23.9526 30.4514 24.3773 29.9462 24.6725ZM29.5477 23.9827C29.7537 23.8623 29.8097 23.6497 29.7159 23.3448C29.6198 23.0361 29.4084 22.6097 29.0816 22.0656C28.8198 21.6295 28.5701 21.288 28.3326 21.0411C28.0966 20.788 27.8737 20.7228 27.6639 20.8454C27.454 20.9681 27.4038 21.1903 27.513 21.5122C27.6223 21.8341 27.8079 22.2131 28.0697 22.6492C28.3988 23.1971 28.6755 23.588 28.8998 23.8218C29.1258 24.0494 29.3417 24.1031 29.5477 23.9827Z" fill="#666666"/>
<path d="M31.8586 23.5478L29.8813 18.9743L30.7569 18.5156L32.4529 22.4385L33.9824 21.7911L34.2027 22.5556L31.8586 23.5478Z" fill="#666666"/>
<path d="M34.8262 22.4331L33.3134 17.6431L34.2366 17.2708L35.7494 22.0608L34.8262 22.4331Z" fill="#666666"/>
<path d="M37.2199 21.773L36.3461 17.5481L35.3345 17.757L35.2472 16.9684L38.1565 16.3675L38.2372 17.1575L37.3115 17.3487L38.1688 21.4942L37.2199 21.773Z" fill="#666666"/>
<path d="M39.6213 21.2878L39.2389 16.2385L41.8031 16.0328L41.7819 16.8269L40.2879 16.9468L40.3791 18.1519L41.4425 18.0666L41.5 18.9154L40.4434 19.0002L40.5509 20.4207L42.1796 20.29L42.1585 21.0842L39.6213 21.2878Z" fill="#666666"/>
<path d="M44.1127 21.2394C43.5327 21.2108 43.139 20.9277 42.9316 20.3902C42.7286 19.8529 42.6497 19.2001 42.6947 18.4317C42.7189 18.0183 42.7962 17.6233 42.9264 17.2467C43.0567 16.8701 43.2482 16.5641 43.501 16.3288C43.7585 16.0891 44.0716 15.9784 44.4402 15.9966C44.7234 16.0106 44.9656 16.1105 45.1666 16.2962C45.3721 16.4821 45.5228 16.7194 45.6186 17.008C45.7191 17.2924 45.7604 17.5873 45.7425 17.8929L44.7822 17.8927C44.7941 17.6905 44.7738 17.4597 44.7213 17.2002C44.6692 16.9363 44.542 16.7993 44.3397 16.7893C44.1284 16.7789 43.9724 16.9401 43.8717 17.2732C43.771 17.6062 43.7069 18.0086 43.6792 18.4804C43.645 19.0645 43.6624 19.5363 43.7315 19.8957C43.8009 20.2506 43.9637 20.4344 44.22 20.4471C44.3998 20.456 44.5341 20.3567 44.6229 20.1493C44.712 19.9374 44.7767 19.6792 44.8171 19.3748L45.6553 19.4973C45.6363 19.8209 45.5647 20.1193 45.4405 20.3925C45.3165 20.6613 45.1418 20.8735 44.9163 21.029C44.6907 21.1846 44.4229 21.2548 44.1127 21.2394Z" fill="#666666"/>
<path d="M48.4095 21.7599L47.6034 18.378L46.9745 21.3988L46.098 21.2699L47.1219 16.3521L48.1442 16.5093L48.8162 19.7069L49.4135 16.8382L50.2518 16.9185L49.228 21.8362L48.4095 21.7599Z" fill="#666666"/>
<path d="M49.9956 22.1735L51.5937 17.4113L52.5654 17.6349L50.9673 22.3971L49.9956 22.1735Z" fill="#666666"/>
<path d="M52.9791 23.3192C52.4471 23.0866 52.1816 22.6832 52.1826 22.109C52.1877 21.5366 52.3508 20.9006 52.6717 20.201C52.8444 19.8246 53.06 19.4842 53.3185 19.1797C53.577 18.8753 53.8672 18.6583 54.189 18.5288C54.5168 18.3971 54.8498 18.4052 55.1879 18.553C55.4478 18.6666 55.638 18.8456 55.7586 19.0899C55.8834 19.336 55.9382 19.6104 55.9231 19.9133C55.9139 20.2138 55.8455 20.5031 55.7179 20.7813L54.8198 20.4402C54.9042 20.2561 54.969 20.034 55.0141 19.7737C55.0611 19.5094 54.9918 19.3367 54.8062 19.2555C54.6124 19.1708 54.408 19.2656 54.193 19.54C53.978 19.8143 53.772 20.1663 53.5749 20.5959C53.3309 21.1277 53.176 21.5733 53.1102 21.9325C53.0463 22.2877 53.1319 22.5167 53.367 22.6195C53.5319 22.6916 53.6936 22.6468 53.8519 22.4852C54.0121 22.3195 54.1663 22.102 54.3146 21.8329L55.0541 22.2446C54.9189 22.5391 54.7437 22.7916 54.5283 23.002C54.3149 23.2083 54.0744 23.3438 53.807 23.4086C53.5396 23.4735 53.2637 23.4437 52.9791 23.3192Z" fill="#666666"/>
<path d="M55.3808 25.679C54.8923 25.3821 54.6795 24.9657 54.7422 24.4297C54.8112 23.8924 55.0554 23.293 55.4748 22.6316C55.9208 21.9283 56.37 21.4509 56.8226 21.1994C57.2752 20.9479 57.7361 20.9647 58.2054 21.25C59.1015 21.7947 59.0904 22.7912 58.1721 24.2395C57.7599 24.8895 57.3157 25.3673 56.8394 25.6729C56.367 25.9809 55.8808 25.9829 55.3808 25.679ZM55.819 25.0132C56.0229 25.1371 56.2406 25.0878 56.4723 24.8652C56.7065 24.6389 56.9935 24.2577 57.3333 23.7218C57.6057 23.2922 57.7984 22.9169 57.9114 22.5959C58.0306 22.2734 57.9864 22.049 57.7787 21.9228C57.571 21.7965 57.3472 21.8553 57.1073 22.0992C56.8674 22.3431 56.6112 22.6798 56.3388 23.1094C55.9966 23.6491 55.7718 24.0708 55.6646 24.3743C55.5637 24.6763 55.6152 24.8893 55.819 25.0132Z" fill="#666666"/>
<path d="M58.411 27.758L61.8006 24.0509L62.5998 24.6474L59.2102 28.3545L58.411 27.758Z" fill="#666666"/>
<path d="M61.8669 30.0428L63.2679 26.8654L60.9395 28.89L60.3177 28.2588L64.1083 24.9628L64.8294 25.7045L63.4328 28.6544L65.644 26.7317L66.2648 27.3012L62.4742 30.5972L61.8669 30.0428Z" fill="#666666"/>
<path d="M67.1057 28.4962L67.675 29.3662C68.0398 29.9236 68.1336 30.4533 67.9565 30.9554C67.7794 31.4574 67.3301 31.9378 66.6084 32.3968C66.2248 32.6408 65.839 32.8115 65.451 32.9089C65.0654 33.0102 64.6999 33.0106 64.3546 32.9102C64.013 32.8074 63.7276 32.5809 63.4984 32.2306L62.8329 31.2137L67.1057 28.4962ZM64.1169 31.7332C64.3042 32.0195 64.557 32.1387 64.8753 32.0909C65.2 32.0445 65.5446 31.9053 65.9092 31.6734L66.1029 31.5502C66.3649 31.3836 66.5855 31.2193 66.7646 31.0573C66.95 30.8968 67.0785 30.711 67.1503 30.5C67.2282 30.2904 67.1921 30.0707 67.0417 29.841L66.9789 29.7449L64.0392 31.6146L64.1169 31.7332Z" fill="#666666"/>
<path d="M65.1666 35.5833C64.9557 35.1254 64.9453 34.7154 65.1354 34.3534C65.3254 33.9914 65.6605 33.7022 66.1407 33.486L69.2003 32.1081L69.6524 32.9929L66.482 34.4207C66.3219 34.4928 66.1903 34.562 66.087 34.6282C65.9856 34.6986 65.9129 34.7881 65.8688 34.8968C65.8247 35.0055 65.8375 35.1355 65.9071 35.2868C65.973 35.4299 66.06 35.5166 66.1682 35.5469C66.2822 35.5794 66.3964 35.5798 66.5106 35.5481C66.629 35.5146 66.7723 35.4599 66.9406 35.3841L70.0248 33.9951L70.4771 34.7836L67.4852 36.131C67.0502 36.3269 66.6167 36.4185 66.1846 36.4058C65.7545 36.3971 65.4151 36.1229 65.1666 35.5833Z" fill="#666666"/>
<path d="M66.1619 39.0253C66.0478 38.6319 66.0594 38.268 66.1967 37.9337C66.3396 37.6024 66.5768 37.3213 66.9082 37.0905L67.5179 37.7867L67.4107 37.9017C67.2307 38.0891 67.0964 38.2563 67.0079 38.4035C66.9206 38.5549 66.902 38.7171 66.9522 38.89C66.9848 39.0024 67.0677 39.0863 67.201 39.1418C67.3355 39.2016 67.4676 39.2128 67.5974 39.1756C67.7186 39.1409 67.8201 39.079 67.9021 38.9899C67.9841 38.9009 68.0415 38.8001 68.0745 38.6877L68.3343 37.6931C68.4013 37.407 68.5195 37.1601 68.6889 36.9523C68.8582 36.7446 69.0749 36.6029 69.3388 36.5272C69.6201 36.4466 69.8898 36.4395 70.1481 36.5059C70.4077 36.5766 70.6306 36.7071 70.817 36.8971C71.0046 37.0915 71.1398 37.3313 71.2226 37.6166C71.3191 37.9495 71.3191 38.2562 71.2224 38.5368C71.1257 38.8174 70.9314 39.0604 70.6394 39.2658L70.0427 38.5659C70.0723 38.5387 70.1396 38.4796 70.2444 38.3887C70.3493 38.2978 70.4157 38.2038 70.4438 38.1068C70.4775 38.0128 70.4774 37.9075 70.4435 37.7908C70.4022 37.6481 70.3248 37.5509 70.2113 37.4992C70.0991 37.4517 69.9717 37.4485 69.8289 37.4894C69.725 37.5192 69.638 37.5746 69.5678 37.6556C69.5031 37.7397 69.4589 37.8296 69.4351 37.9254L69.2019 38.8421C69.0411 39.5156 68.6969 39.9444 68.1691 40.1285C67.8619 40.2165 67.5693 40.2255 67.2912 40.1554C67.0186 40.0884 66.783 39.9546 66.5842 39.7541C66.3867 39.5578 66.2459 39.3149 66.1619 39.0253Z" fill="#666666"/>
<path d="M67.0542 41.5498L71.3194 40.9005L71.1657 39.879L71.9577 39.8336L72.3996 42.7712L71.6066 42.81L71.466 41.8753L67.2809 42.5124L67.0542 41.5498Z" fill="#666666"/>
<path d="M69.3173 44.8566L69.3119 44.4718L67.1316 44.5169L67.0368 43.5329L72.0995 43.4283L72.1568 44.6291C72.1649 45.2097 72.0543 45.6667 71.8249 46C71.5999 46.3333 71.249 46.5049 70.772 46.5148C70.457 46.5213 70.1973 46.4636 69.9931 46.3418C69.7888 46.2245 69.6176 46.0502 69.4793 45.8189L68.3854 46.294L67.2983 46.7757L67.0214 45.809L69.3173 44.8566ZM70.0457 44.7943C70.049 45.0283 70.0988 45.2096 70.1951 45.3382C70.296 45.4712 70.4814 45.5349 70.7514 45.5293C71.1699 45.5206 71.3763 45.3093 71.3705 44.8952L71.364 44.4294L70.041 44.4567L70.0457 44.7943Z" fill="#666666"/>
<path d="M67.2313 47.3296L72.2361 47.7594L72.2128 48.7534L67.208 48.3236L67.2313 47.3296Z" fill="#666666"/>
<path d="M67.1056 48.9904L71.7829 50.9766L71.5312 52.3644L66.3572 52.4816L66.5558 51.4203L67.6634 51.448L67.9301 50.2693L66.9104 49.853L67.1056 48.9904ZM68.6855 50.6002L68.4992 51.4234L70.9822 51.4272L68.6855 50.6002Z" fill="#666666"/>
<path d="M65.9934 53.0754L70.7306 54.6201L70.4595 55.5675L66.3963 54.2425L65.8098 55.7964L65.0945 55.4568L65.9934 53.0754Z" fill="#666666"/>
</g>
</svg>
