<svg width="316" height="316" viewBox="0 0 316 316" fill="none" xmlns="http://www.w3.org/2000/svg">
<path d="M308 164C308 247.395 240.395 315 157 315C73.605 315 6 247.395 6 164C6 80.605 73.605 13 157 13C240.395 13 308 80.605 308 164Z" fill="#0966C2"/>
<path d="M294.16 163.58C294.16 239.563 232.563 301.16 156.58 301.16C80.5966 301.16 19 239.563 19 163.58C19 87.5966 80.5966 26 156.58 26C232.563 26 294.16 87.5966 294.16 163.58Z" fill="white"/>
<path d="M290 163.5C290 236.678 230.678 296 157.5 296C84.3223 296 25 236.678 25 163.5C25 90.3223 84.3223 31 157.5 31C230.678 31 290 90.3223 290 163.5Z" fill="#F07400"/>
<rect x="144.021" y="41" width="24.9605" height="9.45105" fill="white"/>
<rect x="144.021" y="276.549" width="24.9605" height="9.45105" fill="white"/>
<rect x="144.02" y="41" width="24.9605" height="9.45105" fill="white"/>
<rect x="144.02" y="276.549" width="24.9605" height="9.45105" fill="white"/>
<rect x="190.342" y="45.1077" width="24.9605" height="9.45105" transform="rotate(21.7694 190.342 45.1077)" fill="white"/>
<rect x="102.983" y="263.858" width="24.9605" height="9.45105" transform="rotate(21.7694 102.983 263.858)" fill="white"/>
<rect x="234.103" y="67.8979" width="24.9605" height="9.45105" transform="rotate(44.8844 234.103 67.8979)" fill="white"/>
<rect x="67.8812" y="234.792" width="24.9605" height="9.45105" transform="rotate(44.8844 67.8812 234.792)" fill="white"/>
<rect x="266.147" y="107.467" width="24.9605" height="9.45105" transform="rotate(68.7487 266.147 107.467)" fill="white"/>
<rect x="46.6149" y="192.844" width="24.9605" height="9.45105" transform="rotate(68.7487 46.6149 192.844)" fill="white"/>
<rect x="38.2502" y="129.163" width="24.9605" height="9.45105" transform="rotate(-67.9909 38.2502 129.163)" fill="white"/>
<rect x="256.634" y="217.436" width="24.9605" height="9.45105" transform="rotate(-67.9909 256.634 217.436)" fill="white"/>
<rect x="61.2233" y="85.4976" width="24.9605" height="9.45105" transform="rotate(-44.8759 61.2233 85.4976)" fill="white"/>
<rect x="227.421" y="252.417" width="24.9605" height="9.45105" transform="rotate(-44.8759 227.421 252.417)" fill="white"/>
<rect x="98.0267" y="55.1353" width="24.9605" height="9.45105" transform="rotate(-22.534 98.0267 55.1353)" fill="white"/>
<rect x="188.297" y="272.701" width="24.9605" height="9.45105" transform="rotate(-22.534 188.297 272.701)" fill="white"/>
<rect x="278.999" y="151.02" width="24.9605" height="9.45105" transform="rotate(89.8116 278.999 151.02)" fill="white"/>
<rect x="43.451" y="151.02" width="24.9605" height="9.45105" transform="rotate(89.8116 43.451 151.02)" fill="white"/>
<path d="M271.248 162.624C271.248 225.929 219.929 277.248 156.624 277.248C93.319 277.248 42 225.929 42 162.624C42 99.319 93.319 48 156.624 48C219.929 48 271.248 99.319 271.248 162.624Z" fill="white"/>
<path d="M104.77 252.522C104.86 252.368 104.919 252.217 104.945 252.068C104.975 251.915 104.96 251.748 104.902 251.567C104.844 251.387 104.731 251.174 104.565 250.93C104.405 250.683 104.175 250.39 103.876 250.049C103.527 249.648 103.204 249.239 102.908 248.821C102.615 248.398 102.381 247.971 102.208 247.54C102.038 247.105 101.958 246.667 101.967 246.227C101.978 245.783 102.115 245.339 102.376 244.896C102.626 244.47 102.947 244.144 103.337 243.916C103.729 243.684 104.166 243.548 104.647 243.508C105.134 243.466 105.646 243.518 106.183 243.663C106.722 243.804 107.265 244.035 107.813 244.358C108.537 244.784 109.1 245.287 109.503 245.865C109.913 246.442 110.139 247.053 110.179 247.699C110.227 248.342 110.067 248.976 109.699 249.601L107.33 248.206C107.476 247.957 107.553 247.707 107.561 247.455C107.573 247.207 107.51 246.968 107.37 246.739C107.23 246.511 107.007 246.306 106.699 246.125C106.4 245.949 106.122 245.846 105.865 245.817C105.608 245.787 105.383 245.819 105.188 245.912C104.996 246 104.847 246.134 104.74 246.315C104.652 246.465 104.613 246.624 104.622 246.795C104.639 246.963 104.694 247.144 104.786 247.339C104.883 247.536 105.015 247.748 105.181 247.974C105.351 248.202 105.55 248.444 105.777 248.7C106.203 249.176 106.559 249.639 106.844 250.087C107.136 250.533 107.345 250.97 107.471 251.397C107.604 251.823 107.646 252.244 107.596 252.66C107.551 253.078 107.406 253.495 107.16 253.912C106.899 254.355 106.581 254.698 106.207 254.941C105.832 255.184 105.414 255.331 104.951 255.381C104.491 255.427 104.001 255.38 103.481 255.238C102.961 255.096 102.425 254.863 101.873 254.538C101.366 254.239 100.903 253.881 100.485 253.464C100.073 253.045 99.7468 252.585 99.5058 252.083C99.2674 251.577 99.1522 251.043 99.1602 250.481C99.1754 249.917 99.3548 249.343 99.6986 248.759L102.088 250.166C101.918 250.456 101.812 250.723 101.772 250.967C101.732 251.212 101.75 251.439 101.828 251.649C101.908 251.855 102.04 252.049 102.226 252.231C102.414 252.409 102.648 252.58 102.928 252.746C103.232 252.924 103.501 253.025 103.738 253.048C103.976 253.067 104.181 253.029 104.353 252.935C104.527 252.836 104.666 252.699 104.77 252.522Z" fill="black"/>
<path d="M115.147 252.632L108.552 259.444L105.903 258.099L114.855 249.779L116.534 250.632L115.147 252.632ZM113.111 261.759L114.712 252.41L115.48 250.097L117.18 250.96L115.766 263.107L113.111 261.759ZM114.949 257.894L113.982 259.798L108.735 257.133L109.702 255.23L114.949 257.894Z" fill="black"/>
<path d="M129.431 255.629L126.127 266.613L123.486 265.819L121.657 257.815L119.601 264.651L116.953 263.854L120.257 252.869L122.905 253.666L124.734 261.67L126.79 254.834L129.431 255.629Z" fill="black"/>
<path d="M135.92 257.649L133.205 268.794L130.518 268.14L133.233 256.995L135.92 257.649ZM139.273 258.466L138.767 260.54L129.452 258.271L129.957 256.197L139.273 258.466Z" fill="black"/>
<path d="M142.764 259.444L140.701 270.728L137.989 270.232L140.051 258.948L142.764 259.444Z" fill="black"/>
<path d="M148.607 262.392L145.489 271.347L142.52 271.241L147.142 259.928L149.023 259.995L148.607 262.392ZM150.599 271.529L148.119 262.375L147.842 259.953L149.748 260.021L153.575 271.636L150.599 271.529ZM150.641 267.25L150.565 269.384L144.683 269.174L144.759 267.04L150.641 267.25Z" fill="black"/>
<path d="M162.935 265.176L163.05 269.886C162.861 270.106 162.568 270.345 162.17 270.601C161.776 270.853 161.277 271.072 160.673 271.261C160.068 271.449 159.353 271.553 158.529 271.573C157.768 271.592 157.074 271.488 156.449 271.262C155.823 271.03 155.281 270.683 154.823 270.222C154.371 269.755 154.015 269.18 153.757 268.498C153.503 267.811 153.366 267.021 153.344 266.128L153.328 265.491C153.307 264.598 153.408 263.802 153.632 263.103C153.857 262.404 154.181 261.813 154.606 261.33C155.035 260.841 155.543 260.466 156.131 260.205C156.723 259.943 157.376 259.804 158.091 259.786C159.146 259.761 160.009 259.908 160.678 260.227C161.348 260.542 161.861 260.989 162.216 261.569C162.572 262.143 162.796 262.813 162.888 263.578L160.234 263.643C160.172 263.266 160.065 262.948 159.911 262.689C159.763 262.425 159.553 262.228 159.282 262.098C159.011 261.963 158.662 261.9 158.237 261.911C157.906 261.919 157.606 261.997 157.337 262.146C157.072 262.294 156.849 262.515 156.667 262.808C156.485 263.096 156.347 263.457 156.252 263.89C156.163 264.323 156.126 264.828 156.14 265.406L156.156 266.06C156.17 266.632 156.229 267.132 156.334 267.56C156.445 267.989 156.6 268.345 156.802 268.629C157.008 268.907 157.266 269.116 157.574 269.256C157.887 269.39 158.254 269.452 158.674 269.442C158.968 269.435 159.219 269.405 159.428 269.352C159.637 269.295 159.809 269.228 159.943 269.151C160.083 269.068 160.189 268.992 160.261 268.922L160.217 267.142L158.295 267.189L158.249 265.291L162.935 265.176Z" fill="black"/>
<path d="M174.897 264.403L174.946 264.865C175.038 265.737 174.997 266.534 174.824 267.254C174.657 267.969 174.376 268.595 173.984 269.133C173.591 269.665 173.105 270.094 172.527 270.418C171.948 270.738 171.293 270.936 170.561 271.013C169.825 271.09 169.137 271.033 168.499 270.841C167.866 270.644 167.299 270.326 166.799 269.887C166.303 269.443 165.897 268.889 165.579 268.225C165.266 267.555 165.063 266.784 164.972 265.912L164.923 265.45C164.831 264.578 164.869 263.781 165.037 263.061C165.209 262.341 165.489 261.715 165.877 261.183C166.27 260.645 166.755 260.217 167.334 259.897C167.918 259.572 168.578 259.37 169.315 259.293C170.046 259.216 170.728 259.277 171.362 259.474C172 259.666 172.567 259.984 173.062 260.429C173.557 260.868 173.964 261.422 174.282 262.091C174.601 262.76 174.806 263.53 174.897 264.403ZM172.157 265.158L172.106 264.68C172.047 264.116 171.945 263.625 171.801 263.207C171.662 262.783 171.483 262.435 171.264 262.162C171.045 261.889 170.79 261.694 170.497 261.577C170.21 261.454 169.891 261.411 169.541 261.448C169.175 261.486 168.865 261.595 168.609 261.775C168.353 261.95 168.149 262.193 167.996 262.505C167.844 262.817 167.744 263.194 167.696 263.638C167.652 264.075 167.659 264.576 167.719 265.141L167.769 265.618C167.828 266.177 167.924 266.669 168.058 267.093C168.197 267.512 168.374 267.86 168.588 268.139C168.807 268.417 169.061 268.617 169.348 268.74C169.641 268.863 169.97 268.905 170.336 268.866C170.686 268.829 170.989 268.721 171.244 268.541C171.5 268.361 171.704 268.113 171.855 267.796C172.012 267.478 172.115 267.1 172.164 266.662C172.218 266.218 172.215 265.717 172.157 265.158Z" fill="black"/>
<path d="M182.12 254.203L186.297 252.489C187.113 252.154 187.872 251.985 188.575 251.98C189.277 251.976 189.888 252.145 190.409 252.488C190.935 252.829 191.342 253.349 191.629 254.049C191.878 254.656 191.991 255.203 191.969 255.689C191.947 256.175 191.821 256.621 191.591 257.028C191.363 257.428 191.06 257.804 190.683 258.158L190.039 258.975L186.533 260.414L185.708 258.445L188.303 257.38C188.629 257.246 188.875 257.077 189.041 256.873C189.207 256.669 189.299 256.438 189.318 256.18C189.34 255.916 189.29 255.633 189.166 255.331C189.04 255.025 188.877 254.786 188.675 254.613C188.474 254.44 188.24 254.34 187.973 254.313C187.712 254.285 187.423 254.335 187.107 254.464L185.489 255.128L189.033 263.766L186.474 264.815L182.12 254.203ZM192.283 262.432L188.011 258.701L190.716 257.574L194.979 261.198L195.024 261.308L192.283 262.432ZM195.783 259.651C195.64 259.301 195.646 258.957 195.803 258.62C195.958 258.279 196.235 258.026 196.634 257.863C197.037 257.697 197.411 257.683 197.757 257.819C198.105 257.949 198.351 258.188 198.495 258.538C198.638 258.888 198.632 259.234 198.477 259.576C198.325 259.911 198.048 260.161 197.644 260.326C197.246 260.49 196.872 260.507 196.524 260.377C196.174 260.243 195.927 260 195.783 259.651Z" fill="black"/>
<path d="M206.195 255.707L204.08 257.121L202.91 255.344L205.012 253.938C205.449 253.646 205.748 253.295 205.909 252.884C206.074 252.47 206.097 252.003 205.977 251.483C205.858 250.956 205.594 250.387 205.185 249.776L204.909 249.363C204.603 248.905 204.288 248.534 203.966 248.25C203.645 247.959 203.32 247.756 202.991 247.642C202.658 247.523 202.322 247.492 201.981 247.549C201.645 247.604 201.308 247.743 200.972 247.968L198.85 249.387L197.663 247.613L199.785 246.194C200.431 245.761 201.097 245.477 201.783 245.341C202.471 245.197 203.148 245.199 203.815 245.346C204.484 245.487 205.112 245.765 205.7 246.18C206.289 246.589 206.81 247.132 207.263 247.808L207.53 248.208C207.98 248.88 208.282 249.569 208.438 250.273C208.597 250.975 208.617 251.661 208.495 252.329C208.374 252.998 208.119 253.624 207.731 254.205C207.344 254.78 206.832 255.28 206.195 255.707ZM199.019 246.706L205.396 256.241L203.097 257.778L196.72 248.243L199.019 246.706ZM210.329 251.444C210.119 251.13 210.057 250.792 210.144 250.43C210.228 250.065 210.449 249.762 210.807 249.523C211.17 249.28 211.534 249.192 211.899 249.257C212.267 249.314 212.555 249.5 212.765 249.815C212.976 250.129 213.039 250.469 212.955 250.835C212.872 251.193 212.65 251.494 212.288 251.736C211.93 251.976 211.567 252.066 211.2 252.009C210.83 251.947 210.54 251.758 210.329 251.444Z" fill="black"/>
<path d="M179.129 266.009L179.394 267.674C179.5 268.301 179.449 268.946 179.242 269.609C179.039 270.272 178.748 270.835 178.368 271.299L176.935 270.902C177.004 270.645 177.082 270.384 177.17 270.119C177.26 269.859 177.325 269.571 177.368 269.254C177.41 268.938 177.398 268.578 177.329 268.174L177.024 266.364L179.129 266.009Z" fill="black"/>
<path d="M93.5198 217.753C93.7435 217.576 93.9182 217.385 94.044 217.178C94.1762 216.967 94.2512 216.71 94.2689 216.408C94.2865 216.106 94.2418 215.724 94.1348 215.264C94.0395 214.805 93.8677 214.236 93.6193 213.556C93.3311 212.758 93.0874 211.962 92.8883 211.169C92.6956 210.37 92.5952 209.6 92.5868 208.859C92.585 208.113 92.7178 207.415 92.9852 206.766C93.2591 206.112 93.7185 205.53 94.3633 205.021C94.9818 204.533 95.647 204.232 96.3587 204.118C97.077 204 97.8053 204.05 98.5437 204.268C99.2939 204.488 100.026 204.86 100.74 205.386C101.461 205.906 102.136 206.565 102.764 207.361C103.596 208.414 104.144 209.487 104.409 210.581C104.686 211.676 104.669 212.715 104.356 213.699C104.055 214.685 103.451 215.536 102.542 216.253L99.8227 212.808C100.185 212.522 100.444 212.195 100.601 211.825C100.763 211.462 100.806 211.07 100.73 210.649C100.654 210.229 100.44 209.795 100.086 209.347C99.7435 208.913 99.3894 208.6 99.024 208.407C98.6586 208.215 98.3043 208.132 97.961 208.157C97.6244 208.177 97.3245 208.291 97.0613 208.499C96.8441 208.67 96.6935 208.885 96.6093 209.144C96.537 209.404 96.5134 209.706 96.5387 210.049C96.5692 210.399 96.6427 210.79 96.7591 211.221C96.8807 211.659 97.0367 212.134 97.2272 212.646C97.5864 213.602 97.8485 214.495 98.0134 215.326C98.1901 216.159 98.2486 216.93 98.1891 217.639C98.1413 218.35 97.9604 219 97.6463 219.59C97.3374 220.186 96.8803 220.723 96.2749 221.201C95.6301 221.71 94.9589 222.037 94.2614 222.182C93.5639 222.327 92.8563 222.304 92.1387 222.112C91.4276 221.915 90.7261 221.561 90.0341 221.049C89.3421 220.538 88.6792 219.881 88.0453 219.079C87.4635 218.342 86.9815 217.542 86.5994 216.679C86.2291 215.818 86.0095 214.944 85.9406 214.059C85.8782 213.168 86.0153 212.307 86.3519 211.475C86.7002 210.644 87.2988 209.894 88.1477 209.224L90.8908 212.698C90.4697 213.03 90.1585 213.367 89.9573 213.707C89.7561 214.048 89.6524 214.397 89.6462 214.754C89.6466 215.106 89.732 215.472 89.9024 215.85C90.0794 216.223 90.3289 216.613 90.6511 217.021C90.9992 217.462 91.3422 217.768 91.6803 217.939C92.0249 218.105 92.3518 218.167 92.6611 218.126C92.9769 218.08 93.2632 217.955 93.5198 217.753Z" fill="black"/>
<path d="M110.163 221.168L97.2771 229.102L93.7117 225.978L110.836 216.641L113.096 218.622L110.163 221.168ZM103.415 234.479L109.577 220.654L111.678 217.379L113.966 219.384L106.99 237.612L103.415 234.479ZM107.782 229.228L105.536 231.791L98.4717 225.601L100.717 223.039L107.782 229.228Z" fill="black"/>
<path d="M122.699 240.951L121.089 243.939L112.942 239.549L114.553 236.561L122.699 240.951ZM123.011 224.179L114.326 240.295L110.441 238.201L119.125 222.085L123.011 224.179Z" fill="black"/>
<path d="M137.456 246.541L136.578 249.82L127.153 247.295L128.032 244.016L137.456 246.541ZM133.41 230.018L128.671 247.702L124.408 246.56L129.147 228.876L133.41 230.018ZM138.221 238.831L137.371 242.001L129.161 239.801L130.01 236.632L138.221 238.831ZM141.352 232.147L140.471 235.438L131.009 232.903L131.891 229.612L141.352 232.147Z" fill="black"/>
<path d="M152.097 247.013C152.125 246.73 152.109 246.471 152.048 246.238C151.987 245.996 151.854 245.764 151.649 245.541C151.444 245.319 151.138 245.086 150.733 244.844C150.336 244.594 149.807 244.323 149.145 244.03C148.371 243.684 147.629 243.307 146.92 242.9C146.211 242.484 145.587 242.022 145.048 241.514C144.509 240.998 144.099 240.418 143.818 239.775C143.537 239.124 143.437 238.39 143.518 237.572C143.595 236.788 143.84 236.101 144.252 235.51C144.665 234.91 145.207 234.421 145.876 234.04C146.555 233.653 147.331 233.384 148.205 233.235C149.08 233.077 150.022 233.048 151.031 233.148C152.366 233.28 153.519 233.63 154.49 234.198C155.471 234.758 156.207 235.493 156.698 236.4C157.199 237.301 157.392 238.326 157.278 239.478L152.911 239.045C152.957 238.587 152.901 238.172 152.744 237.803C152.595 237.435 152.343 237.132 151.987 236.894C151.631 236.657 151.17 236.51 150.603 236.454C150.052 236.4 149.581 236.437 149.189 236.567C148.797 236.696 148.491 236.894 148.271 237.158C148.052 237.415 147.926 237.71 147.893 238.043C147.866 238.318 147.916 238.576 148.044 238.816C148.181 239.049 148.382 239.275 148.647 239.495C148.92 239.716 149.252 239.934 149.643 240.15C150.043 240.366 150.493 240.583 150.994 240.801C151.931 241.206 152.756 241.637 153.469 242.095C154.19 242.545 154.786 243.038 155.255 243.573C155.734 244.101 156.076 244.682 156.283 245.318C156.498 245.954 156.568 246.656 156.492 247.423C156.411 248.24 156.18 248.95 155.801 249.553C155.421 250.156 154.913 250.649 154.277 251.032C153.642 251.407 152.9 251.667 152.052 251.81C151.204 251.954 150.271 251.975 149.253 251.874C148.319 251.782 147.409 251.574 146.523 251.25C145.646 250.919 144.865 250.471 144.179 249.906C143.495 249.333 142.97 248.637 142.605 247.817C142.248 246.99 142.124 246.039 142.23 244.963L146.634 245.399C146.582 245.932 146.608 246.39 146.713 246.771C146.819 247.152 146.998 247.469 147.251 247.721C147.505 247.965 147.827 248.157 148.218 248.297C148.609 248.428 149.063 248.52 149.58 248.571C150.139 248.626 150.597 248.592 150.955 248.467C151.314 248.334 151.585 248.142 151.77 247.891C151.956 247.631 152.065 247.339 152.097 247.013Z" fill="black"/>
<path d="M165.608 233.105L165.811 251.411L161.41 251.46L161.208 233.154L165.608 233.105Z" fill="black"/>
<path d="M175.568 235.704L175.399 250.836L170.854 252.183L172.1 232.719L174.981 231.865L175.568 235.704ZM183.222 248.516L174.821 235.925L173.173 232.401L176.09 231.536L187.779 247.166L183.222 248.516ZM181.113 242.021L182.082 245.287L173.076 247.957L172.108 244.69L181.113 242.021Z" fill="black"/>
<path d="M195.037 221.844L203.912 237.856L200.063 239.989L188.877 233.165L194.399 243.129L190.539 245.268L181.664 229.256L185.524 227.117L196.71 233.941L191.188 223.977L195.037 221.844Z" fill="black"/>
<path d="M215.704 218.578L216.122 219.191C216.91 220.348 217.455 221.498 217.757 222.641C218.061 223.773 218.14 224.865 217.995 225.917C217.845 226.963 217.486 227.932 216.918 228.826C216.345 229.713 215.574 230.486 214.604 231.147C213.627 231.812 212.618 232.251 211.576 232.464C210.537 232.665 209.499 232.646 208.465 232.407C207.432 232.157 206.442 231.685 205.493 230.993C204.547 230.288 203.68 229.357 202.892 228.2L202.475 227.587C201.687 226.43 201.138 225.282 200.829 224.144C200.528 223.001 200.448 221.909 200.591 220.868C200.737 219.816 201.096 218.846 201.668 217.959C202.243 217.061 203.019 216.279 203.996 215.614C204.966 214.953 205.97 214.522 207.01 214.322C208.052 214.109 209.089 214.128 210.121 214.378C211.149 214.621 212.139 215.093 213.093 215.793C214.046 216.492 214.916 217.421 215.704 218.578ZM212.422 221.71L211.99 221.076C211.481 220.328 210.967 219.715 210.448 219.236C209.932 218.746 209.417 218.392 208.903 218.174C208.39 217.956 207.883 217.875 207.384 217.931C206.887 217.975 206.406 218.156 205.942 218.472C205.457 218.802 205.103 219.19 204.879 219.637C204.651 220.076 204.548 220.572 204.57 221.125C204.591 221.678 204.736 222.285 205.003 222.945C205.272 223.593 205.661 224.292 206.171 225.04L206.602 225.674C207.107 226.415 207.614 227.033 208.124 227.528C208.635 228.011 209.147 228.368 209.658 228.598C210.177 228.823 210.684 228.913 211.181 228.868C211.686 228.819 212.18 228.63 212.665 228.299C213.129 227.983 213.473 227.602 213.696 227.156C213.92 226.709 214.018 226.206 213.992 225.646C213.972 225.081 213.832 224.473 213.569 223.819C213.309 223.155 212.927 222.452 212.422 221.71Z" fill="black"/>
<path d="M227.855 212.489C227.637 212.305 227.415 212.172 227.188 212.089C226.955 212.002 226.689 211.979 226.389 212.022C226.089 212.064 225.724 212.184 225.294 212.38C224.864 212.564 224.34 212.846 223.723 213.224C222.998 213.664 222.266 214.061 221.528 214.414C220.784 214.761 220.049 215.012 219.325 215.167C218.594 215.317 217.884 215.325 217.195 215.192C216.499 215.053 215.838 214.718 215.211 214.187C214.61 213.678 214.183 213.086 213.931 212.411C213.673 211.73 213.577 211.006 213.644 210.24C213.711 209.461 213.931 208.67 214.304 207.865C214.672 207.056 215.183 206.264 215.838 205.49C216.705 204.467 217.648 203.717 218.668 203.24C219.686 202.751 220.708 202.563 221.734 202.674C222.76 202.773 223.714 203.197 224.596 203.945L221.76 207.293C221.408 206.995 221.035 206.806 220.642 206.725C220.254 206.638 219.862 206.674 219.464 206.832C219.067 206.99 218.684 207.286 218.316 207.721C217.958 208.143 217.722 208.552 217.606 208.948C217.49 209.344 217.478 209.708 217.571 210.04C217.657 210.365 217.829 210.637 218.084 210.853C218.296 211.032 218.536 211.137 218.806 211.168C219.076 211.188 219.376 211.151 219.707 211.058C220.044 210.959 220.412 210.81 220.812 210.61C221.217 210.404 221.652 210.157 222.116 209.869C222.981 209.327 223.804 208.893 224.586 208.567C225.367 208.229 226.111 208.018 226.818 207.936C227.524 207.842 228.197 207.89 228.837 208.081C229.483 208.266 230.1 208.607 230.688 209.106C231.315 209.637 231.769 210.229 232.049 210.884C232.329 211.539 232.446 212.237 232.401 212.978C232.348 213.714 232.141 214.472 231.777 215.251C231.413 216.031 230.901 216.811 230.24 217.591C229.633 218.307 228.945 218.938 228.175 219.484C227.404 220.017 226.592 220.406 225.738 220.649C224.877 220.887 224.006 220.923 223.124 220.758C222.241 220.582 221.387 220.144 220.562 219.445L223.423 216.068C223.832 216.415 224.224 216.653 224.597 216.782C224.971 216.912 225.333 216.945 225.685 216.88C226.03 216.81 226.371 216.653 226.707 216.411C227.038 216.164 227.371 215.842 227.707 215.446C228.07 215.017 228.302 214.62 228.402 214.255C228.497 213.884 228.493 213.552 228.391 213.257C228.283 212.956 228.104 212.701 227.855 212.489Z" fill="black"/>
<path d="M55.0988 202.859L69.7019 196.74L71.1727 200.251L56.5696 206.369L55.0988 202.859Z" fill="black"/>
<path d="M49.6774 186.041L64.8881 181.645L65.9448 185.301L58.0347 193.417L67.4996 190.682L68.5593 194.348L53.3486 198.744L52.2889 195.077L60.199 186.962L50.7341 189.697L49.6774 186.041Z" fill="black"/>
<path d="M59.4306 172.797C59.1863 172.829 58.9719 172.895 58.7875 172.992C58.5959 173.091 58.4268 173.249 58.2803 173.466C58.1337 173.683 57.9987 173.986 57.8752 174.376C57.7436 174.759 57.6201 175.258 57.5048 175.874C57.367 176.594 57.1971 177.293 56.9951 177.971C56.7859 178.65 56.5209 179.267 56.2001 179.822C55.872 180.378 55.4654 180.838 54.9802 181.203C54.4878 181.568 53.8895 181.798 53.1853 181.892C52.5099 181.982 51.8825 181.913 51.3033 181.683C50.7168 181.454 50.1972 181.096 49.7443 180.608C49.2834 180.113 48.9033 179.513 48.6042 178.807C48.2979 178.102 48.0867 177.315 47.9705 176.445C47.8169 175.295 47.8828 174.255 48.1681 173.325C48.4452 172.388 48.9172 171.623 49.5839 171.029C50.2424 170.429 51.0676 170.063 52.0592 169.931L52.5617 173.692C52.1665 173.745 51.829 173.874 51.5493 174.08C51.2686 174.278 51.0636 174.551 50.9344 174.897C50.8051 175.244 50.7731 175.661 50.8384 176.15C50.9017 176.624 51.0269 177.013 51.2138 177.317C51.4007 177.622 51.6274 177.84 51.8937 177.973C52.153 178.106 52.4263 178.154 52.7137 178.115C52.9508 178.084 53.1578 177.99 53.3345 177.835C53.5031 177.674 53.6537 177.46 53.7864 177.193C53.918 176.92 54.0358 176.597 54.1397 176.224C54.2426 175.845 54.3361 175.423 54.4203 174.958C54.5748 174.089 54.7742 173.309 55.0183 172.618C55.2543 171.921 55.551 171.322 55.9082 170.821C56.2574 170.313 56.6788 169.91 57.1727 169.61C57.6656 169.302 58.2426 169.105 58.9037 169.016C59.6079 168.922 60.2513 168.975 60.8339 169.175C61.4165 169.376 61.9322 169.705 62.3812 170.165C62.8231 170.625 63.1885 171.198 63.4775 171.883C63.7666 172.569 63.9697 173.35 64.0868 174.226C64.1943 175.031 64.1998 175.839 64.1032 176.649C63.9985 177.453 63.7764 178.199 63.4369 178.888C63.0902 179.578 62.6082 180.158 61.9908 180.628C61.3652 181.092 60.589 181.386 59.662 181.51L59.1552 177.716C59.615 177.654 59.9949 177.541 60.2948 177.377C60.5946 177.213 60.8257 176.999 60.9881 176.736C61.1432 176.474 61.2409 176.164 61.281 175.808C61.314 175.453 61.3007 175.052 61.2412 174.607C61.1769 174.125 61.0568 173.746 60.8809 173.47C60.6978 173.194 60.4822 173.004 60.234 172.898C59.9787 172.793 59.7108 172.759 59.4306 172.797Z" fill="black"/>
<path d="M47.285 160.279L63.1179 160.372L63.0954 164.189L47.2625 164.096L47.285 160.279ZM47.3131 155.516L50.26 155.533L50.182 168.767L47.235 168.75L47.3131 155.516Z" fill="black"/>
<path d="M48.1577 148.456L63.8897 150.243L63.4601 154.025L47.7281 152.238L48.1577 148.456Z" fill="black"/>
<path d="M50.1498 137.479L65.6163 140.867L64.7996 144.596L49.3331 141.208L50.1498 137.479ZM51.1689 132.827L54.0477 133.457L51.216 146.385L48.3373 145.754L51.1689 132.827Z" fill="black"/>
<path d="M55.1332 121.651L56.4689 118.076L66.1566 121.695C67.3111 122.126 68.199 122.732 68.8202 123.514C69.4347 124.293 69.7833 125.193 69.866 126.215C69.9487 127.236 69.7706 128.334 69.3317 129.509C68.8979 130.67 68.3123 131.616 67.5751 132.347C66.8403 133.071 65.9831 133.532 65.0033 133.731C64.0193 133.921 62.95 133.8 61.7955 133.369L52.1078 129.75L53.4474 126.164L63.135 129.783C63.7462 130.011 64.2784 130.109 64.7314 130.078C65.1777 130.043 65.5525 129.889 65.856 129.615C66.1594 129.342 66.4012 128.964 66.5813 128.482C66.764 127.993 66.8292 127.549 66.7769 127.15C66.7246 126.751 66.5401 126.396 66.2232 126.084C65.8995 125.77 65.4321 125.499 64.8209 125.27L55.1332 121.651Z" fill="black"/>
<path d="M61.4734 108.521L75.3726 116.104L73.5445 119.455L59.6453 111.872L61.4734 108.521ZM63.7545 104.34L66.3415 105.751L60.0033 117.369L57.4163 115.958L63.7545 104.34Z" fill="black"/>
<path d="M79.8752 95.2587L80.386 95.6469C81.3498 96.3796 82.1124 97.1733 82.6738 98.028C83.2338 98.8726 83.5986 99.7464 83.7683 100.649C83.9321 101.548 83.9038 102.442 83.6835 103.331C83.4574 104.215 83.0372 105.061 82.423 105.869C81.8044 106.683 81.0971 107.32 80.301 107.78C79.5035 108.23 78.6477 108.5 77.7337 108.588C76.8183 108.666 75.8765 108.551 74.9085 108.244C73.9391 107.925 72.9725 107.4 72.0087 106.668L71.4979 106.279C70.534 105.547 69.7692 104.756 69.2034 103.907C68.642 103.052 68.2772 102.178 68.109 101.285C67.9394 100.382 67.9676 99.4888 68.1938 98.6043C68.4185 97.7097 68.8401 96.8555 69.4587 96.0417C70.0729 95.2337 70.7788 94.6046 71.5763 94.1545C72.3724 93.6942 73.2281 93.425 74.1436 93.3468C75.0532 93.2642 75.9949 93.3791 76.9687 93.6913C77.9425 94.0036 78.9114 94.526 79.8752 95.2587ZM78.0432 98.7289L77.5151 98.3275C76.8918 97.8536 76.3018 97.4917 75.7452 97.2416C75.1872 96.9813 74.6677 96.8323 74.1865 96.7944C73.7054 96.7564 73.2677 96.829 72.8736 97.0121C72.4781 97.1849 72.1334 97.4647 71.8395 97.8514C71.5324 98.2554 71.3484 98.6711 71.2877 99.0984C71.2211 99.5214 71.2727 99.9567 71.4423 100.404C71.612 100.852 71.8968 101.31 72.2969 101.778C72.6956 102.236 73.2066 102.702 73.8299 103.175L74.358 103.577C74.9755 104.046 75.5611 104.414 76.1147 104.68C76.6669 104.936 77.1843 105.088 77.6668 105.136C78.1538 105.178 78.595 105.113 78.9905 104.94C79.3904 104.761 79.7439 104.47 80.051 104.066C80.3449 103.679 80.5223 103.272 80.583 102.845C80.6438 102.418 80.5864 101.978 80.411 101.526C80.24 101.068 79.9573 100.607 79.563 100.144C79.1674 99.6699 78.6608 99.1983 78.0432 98.7289Z" fill="black"/>
<path d="M92.8274 86.8991L89.826 89.4463L87.9192 87.1994L90.9205 84.6522C91.3295 84.3051 91.6025 83.9545 91.7395 83.6006C91.8765 83.2466 91.8998 82.8987 91.8095 82.557C91.72 82.2051 91.5439 81.8744 91.2812 81.5648C90.9997 81.2332 90.6786 80.978 90.3177 80.7993C89.9624 80.616 89.5849 80.5465 89.1853 80.5909C88.7809 80.6298 88.3742 80.8229 87.9652 81.17L86.0582 82.7884L94.3965 92.6132L91.4863 95.083L81.2412 83.0113L86.0583 78.9231C87.0256 78.1022 88.0075 77.5731 89.0042 77.3358C90.0064 77.0938 90.9581 77.1228 91.8594 77.4229C92.7559 77.7174 93.5396 78.2599 94.2104 79.0503C94.8719 79.8296 95.2609 80.669 95.3776 81.5684C95.4943 82.4677 95.3401 83.3783 94.9149 84.3002C94.4905 85.2119 93.7947 86.0781 92.8274 86.8991Z" fill="black"/>
<path d="M109.186 72.2309L109.522 72.7775C110.156 73.809 110.58 74.8247 110.795 75.8246C111.011 76.8145 111.036 77.7611 110.868 78.6643C110.695 79.5614 110.346 80.3844 109.819 81.1335C109.289 81.8764 108.591 82.5136 107.726 83.0449C106.856 83.5801 105.966 83.9184 105.057 84.0598C104.151 84.1912 103.256 84.1329 102.371 83.8849C101.49 83.6268 100.653 83.1794 99.8618 82.5424C99.0729 81.8955 98.3615 81.0563 97.7277 80.0248L97.3918 79.4781C96.758 78.4466 96.3307 77.4328 96.1101 76.4367C95.8956 75.4368 95.8713 74.4903 96.0372 73.597C96.2054 72.6938 96.5548 71.8707 97.0853 71.1278C97.6182 70.3749 98.3202 69.7309 99.1911 69.1957C100.056 68.6644 100.941 68.333 101.848 68.2016C102.756 68.0602 103.651 68.1185 104.533 68.3765C105.411 68.6283 106.248 69.0758 107.043 69.7189C107.838 70.362 108.552 71.1993 109.186 72.2309ZM106.224 74.8042L105.876 74.2391C105.467 73.572 105.047 73.0212 104.619 72.5869C104.193 72.1425 103.762 71.8157 103.327 71.6064C102.892 71.3972 102.458 71.3066 102.024 71.3349C101.593 71.3531 101.171 71.4893 100.757 71.7436C100.324 72.0093 100.003 72.3304 99.7914 72.7069C99.5765 73.0772 99.4672 73.5017 99.4636 73.9804C99.4599 74.4592 99.56 74.989 99.7639 75.57C99.9701 76.141 100.278 76.7601 100.688 77.4272L101.035 77.9923C101.441 78.6533 101.854 79.2078 102.275 79.6559C102.697 80.0941 103.124 80.4228 103.557 80.6421C103.996 80.8575 104.431 80.9561 104.862 80.9379C105.299 80.9158 105.734 80.772 106.167 80.5063C106.58 80.252 106.893 79.9366 107.104 79.5601C107.315 79.1837 107.421 78.753 107.42 78.268C107.426 77.7793 107.329 77.2476 107.129 76.6728C106.932 76.088 106.63 75.4651 106.224 74.8042Z" fill="black"/>
<path d="M123.703 71.6662L124.879 74.3564L117.546 77.5629L116.37 74.8727L123.703 71.6662ZM112.448 62.5114L118.792 77.0183L115.294 78.5475L108.951 64.0406L112.448 62.5114Z" fill="black"/>
<path d="M124.413 58.0369L129.331 73.0867L125.714 74.269L120.795 59.2192L124.413 58.0369Z" fill="black"/>
<path d="M135.394 55.2841L138.674 70.7737L134.94 71.5645L131.66 56.0749L135.394 55.2841ZM140.053 54.2973L140.664 57.1803L127.717 59.9222L127.106 57.0392L140.053 54.2973Z" fill="black"/>
<path d="M155.206 65.989L155.419 68.9174L147.002 69.529L146.79 66.6007L155.206 65.989ZM147.21 53.639L148.358 69.4305L144.551 69.7072L143.404 53.9157L147.21 53.639ZM153.642 59.4736L153.848 62.3043L146.516 62.8372L146.31 60.0064L153.642 59.4736ZM154.304 53.1235L154.517 56.0627L146.068 56.6767L145.855 53.7375L154.304 53.1235Z" fill="black"/>
<path d="M165.738 64.1485L169.536 64.3964C169.413 65.4927 169.053 66.4427 168.456 67.2465C167.859 68.0502 167.063 68.6558 166.071 69.0632C165.086 69.4639 163.942 69.6217 162.64 69.5367C161.583 69.4677 160.651 69.2288 159.842 68.82C159.041 68.4117 158.372 67.8559 157.837 67.1526C157.309 66.4497 156.924 65.6145 156.682 64.647C156.447 63.6799 156.369 62.6032 156.446 61.4168L156.502 60.5595C156.579 59.3731 156.805 58.3162 157.178 57.3889C157.558 56.4547 158.06 55.6738 158.682 55.046C159.312 54.4115 160.047 53.9437 160.888 53.6426C161.728 53.3415 162.648 53.2235 163.646 53.2887C165.021 53.3784 166.166 53.7002 167.081 54.254C167.997 54.8078 168.687 55.5321 169.151 56.427C169.617 57.3147 169.861 58.3077 169.883 59.4062L166.085 59.1583C166.11 58.5641 166.041 58.062 165.878 57.6518C165.717 57.2344 165.44 56.9112 165.048 56.6822C164.656 56.4532 164.124 56.3167 163.451 56.2728C162.981 56.2421 162.567 56.3022 162.208 56.4532C161.849 56.6041 161.542 56.8601 161.286 57.2212C161.03 57.5823 160.824 58.0592 160.67 58.6521C160.522 59.2382 160.421 59.9509 160.366 60.7901L160.309 61.669C160.254 62.5082 160.258 63.2277 160.321 63.8275C160.383 64.4273 160.514 64.9226 160.714 65.3134C160.914 65.7043 161.185 66.0017 161.528 66.2057C161.878 66.4029 162.314 66.5185 162.835 66.5525C163.413 66.5903 163.907 66.5318 164.317 66.3769C164.727 66.2148 165.053 65.9527 165.295 65.5907C165.537 65.2215 165.684 64.7407 165.738 64.1485Z" fill="black"/>
<path d="M186.356 57.2776L182.968 72.744L179.25 71.9297L175.887 61.1074L173.779 70.7314L170.051 69.9147L173.438 54.4482L177.167 55.2649L180.53 66.0873L182.638 56.4632L186.356 57.2776Z" fill="black"/>
<path d="M193.514 59.8134L188.352 74.7815L184.754 73.5406L189.916 58.5725L193.514 59.8134Z" fill="black"/>
<path d="M201.243 74.5331L204.684 76.1582C204.168 77.133 203.485 77.8845 202.634 78.4128C201.783 78.9411 200.821 79.2125 199.748 79.2269C198.685 79.2379 197.563 78.9648 196.383 78.4076C195.426 77.9557 194.646 77.3912 194.044 76.714C193.448 76.0399 193.031 75.2775 192.791 74.4267C192.558 73.5791 192.506 72.6609 192.636 71.6721C192.773 70.6864 193.095 69.656 193.603 68.5809L193.97 67.804C194.477 66.7289 195.075 65.8285 195.762 65.1028C196.459 64.3737 197.212 63.8314 198.022 63.4759C198.84 63.1169 199.696 62.9517 200.589 62.9803C201.481 63.0088 202.38 63.2367 203.284 63.6638C204.53 64.2519 205.477 64.9716 206.125 65.8229C206.773 66.6742 207.149 67.6013 207.253 68.6043C207.36 69.6007 207.222 70.614 206.84 71.6441L203.398 70.0191C203.639 69.4753 203.759 68.9829 203.759 68.5419C203.762 68.0943 203.623 67.692 203.343 67.3351C203.062 66.9783 202.617 66.6559 202.007 66.368C201.581 66.1668 201.174 66.0706 200.785 66.0794C200.396 66.0881 200.016 66.2134 199.645 66.4553C199.275 66.6971 198.908 67.0653 198.546 67.5599C198.194 68.051 197.839 68.6768 197.48 69.4373L197.104 70.2338C196.745 70.9942 196.484 71.6649 196.322 72.2458C196.16 72.8267 196.1 73.3356 196.142 73.7724C196.185 74.2093 196.328 74.5855 196.571 74.901C196.825 75.2131 197.188 75.4806 197.66 75.7035C198.184 75.9511 198.665 76.0781 199.103 76.0844C199.544 76.0842 199.944 75.9601 200.301 75.7121C200.662 75.4575 200.976 75.0645 201.243 74.5331Z" fill="black"/>
<path d="M219.04 82.2672L218.68 82.7986C218.002 83.8015 217.252 84.6068 216.429 85.2146C215.617 85.8205 214.765 86.233 213.872 86.4523C212.984 86.6655 212.09 86.6867 211.191 86.5159C210.295 86.339 209.427 85.9662 208.586 85.3976C207.739 84.825 207.064 84.1539 206.561 83.3845C206.067 82.6131 205.751 81.7735 205.612 80.8658C205.484 79.9561 205.546 79.0094 205.8 78.0259C206.064 77.0404 206.535 76.0462 207.213 75.0433L207.573 74.5119C208.251 73.509 208.998 72.7016 209.815 72.0898C210.637 71.482 211.489 71.0694 212.372 70.8521C213.264 70.6329 214.158 70.6117 215.053 70.7886C215.959 70.9635 216.835 71.3373 217.682 71.9099C218.523 72.4786 219.19 73.1485 219.683 73.9199C220.187 74.6894 220.503 75.5289 220.632 76.4386C220.764 77.3423 220.702 78.289 220.444 79.2786C220.186 80.2681 219.718 81.2643 219.04 82.2672ZM215.473 80.6298L215.845 80.0804C216.284 79.4318 216.612 78.8227 216.831 78.2532C217.06 77.6816 217.181 77.1546 217.192 76.6721C217.203 76.1896 217.106 75.7567 216.902 75.3733C216.707 74.9879 216.409 74.6592 216.007 74.3871C215.586 74.1028 215.161 73.9421 214.731 73.905C214.305 73.862 213.873 73.9375 213.436 74.1317C212.998 74.3258 212.557 74.6355 212.111 75.0609C211.676 75.4842 211.239 76.0202 210.801 76.6687L210.429 77.2182C209.995 77.8608 209.66 78.4658 209.425 79.0332C209.2 79.5988 209.077 80.1238 209.055 80.6082C209.04 81.0967 209.13 81.5336 209.324 81.919C209.525 82.3084 209.835 82.6452 210.255 82.9295C210.658 83.2017 211.074 83.3562 211.504 83.3933C211.934 83.4303 212.37 83.3488 212.812 83.1486C213.259 82.9526 213.704 82.6449 214.145 82.2255C214.596 81.8043 215.039 81.2724 215.473 80.6298Z" fill="black"/>
<path d="M233.737 85.4794L222.683 96.8151L219.958 94.1579L231.012 82.8222L233.737 85.4794Z" fill="black"/>
<path d="M245.249 98.8355L232.947 108.803L230.551 105.846L234.681 95.2923L227.026 101.495L224.623 98.5291L236.925 88.5614L239.327 91.527L235.198 102.081L242.853 95.8783L245.249 98.8355Z" fill="black"/>
<path d="M236.378 114.57L234.608 111.536L237.156 110.076L238.914 113.091C239.279 113.718 239.738 114.159 240.291 114.416C240.847 114.679 241.488 114.75 242.215 114.628C242.951 114.51 243.758 114.194 244.634 113.683L245.226 113.338C245.884 112.955 246.422 112.553 246.84 112.133C247.268 111.716 247.575 111.285 247.76 110.841C247.953 110.393 248.024 109.932 247.974 109.458C247.927 108.99 247.763 108.514 247.482 108.032L245.707 104.989L248.253 103.504L250.028 106.548C250.569 107.475 250.904 108.416 251.033 109.373C251.173 110.332 251.113 111.265 250.853 112.172C250.603 113.081 250.166 113.923 249.544 114.698C248.931 115.475 248.139 116.146 247.169 116.712L246.596 117.046C245.631 117.609 244.657 117.967 243.673 118.121C242.692 118.282 241.746 118.25 240.835 118.026C239.924 117.802 239.084 117.398 238.316 116.814C237.557 116.233 236.911 115.485 236.378 114.57ZM249.387 105.449L235.71 113.424L233.787 110.127L247.464 102.151L249.387 105.449Z" fill="black"/>
<path d="M258.46 124.062L259.88 127.605L250.282 131.454C249.138 131.912 248.073 132.062 247.088 131.903C246.109 131.741 245.245 131.31 244.496 130.611C243.747 129.911 243.139 128.979 242.672 127.815C242.211 126.665 242.006 125.571 242.059 124.534C242.115 123.504 242.438 122.586 243.028 121.779C243.628 120.976 244.5 120.346 245.644 119.887L255.242 116.038L256.667 119.591L247.068 123.44C246.463 123.683 246.003 123.968 245.69 124.297C245.383 124.623 245.21 124.989 245.17 125.396C245.13 125.803 245.206 126.245 245.397 126.723C245.591 127.207 245.842 127.579 246.149 127.839C246.456 128.098 246.832 128.237 247.276 128.254C247.727 128.268 248.256 128.154 248.861 127.911L258.46 124.062Z" fill="black"/>
<path d="M251.651 142.031C251.891 141.973 252.097 141.886 252.271 141.77C252.451 141.652 252.603 141.478 252.727 141.247C252.85 141.016 252.953 140.701 253.036 140.3C253.128 139.906 253.2 139.396 253.252 138.773C253.315 138.042 253.412 137.329 253.544 136.634C253.682 135.937 253.883 135.296 254.145 134.712C254.414 134.125 254.772 133.626 255.217 133.213C255.669 132.799 256.241 132.509 256.932 132.343C257.595 132.184 258.226 132.19 258.825 132.359C259.432 132.526 259.986 132.83 260.486 133.269C260.995 133.713 261.435 134.271 261.805 134.943C262.182 135.613 262.473 136.375 262.677 137.228C262.948 138.356 262.989 139.397 262.8 140.352C262.62 141.312 262.229 142.121 261.627 142.78C261.033 143.445 260.25 143.893 259.277 144.127L258.392 140.436C258.78 140.343 259.102 140.18 259.359 139.947C259.618 139.721 259.794 139.429 259.887 139.071C259.98 138.713 259.97 138.295 259.855 137.815C259.743 137.35 259.579 136.976 259.362 136.692C259.144 136.409 258.897 136.215 258.618 136.11C258.347 136.004 258.07 135.984 257.788 136.052C257.555 136.108 257.359 136.222 257.199 136.395C257.048 136.572 256.92 136.801 256.815 137.079C256.712 137.365 256.628 137.698 256.563 138.079C256.5 138.467 256.45 138.897 256.414 139.367C256.349 140.248 256.23 141.044 256.058 141.756C255.895 142.474 255.661 143.1 255.357 143.635C255.062 144.176 254.684 144.621 254.223 144.97C253.765 145.326 253.211 145.582 252.562 145.737C251.871 145.903 251.226 145.916 250.626 145.777C250.026 145.637 249.479 145.362 248.985 144.951C248.499 144.539 248.077 144.006 247.719 143.354C247.361 142.702 247.079 141.945 246.873 141.085C246.683 140.296 246.595 139.493 246.608 138.677C246.63 137.867 246.775 137.102 247.042 136.382C247.316 135.66 247.736 135.033 248.302 134.503C248.877 133.977 249.619 133.605 250.528 133.387L251.421 137.109C250.97 137.218 250.604 137.369 250.322 137.563C250.041 137.757 249.833 137.994 249.698 138.272C249.571 138.548 249.505 138.866 249.502 139.225C249.505 139.582 249.56 139.979 249.665 140.416C249.778 140.888 249.936 141.253 250.139 141.51C250.35 141.765 250.584 141.932 250.841 142.012C251.106 142.09 251.376 142.097 251.651 142.031Z" fill="black"/>
<path d="M264.986 152.878L249.23 154.441L248.854 150.643L264.61 149.08L264.986 152.878ZM265.456 157.618L262.524 157.909L261.218 144.739L264.15 144.449L265.456 157.618Z" fill="black"/>
<path d="M265.55 161.262L265.259 167.486C265.202 168.703 264.971 169.751 264.567 170.632C264.163 171.513 263.595 172.18 262.863 172.632C262.13 173.091 261.242 173.297 260.199 173.248C259.294 173.205 258.544 173.029 257.949 172.718C257.354 172.407 256.869 171.989 256.494 171.463C256.127 170.945 255.832 170.347 255.609 169.669L254.962 168.387L255.206 163.162L258.151 163.278L257.97 167.145C257.947 167.63 258.015 168.036 258.174 168.363C258.333 168.69 258.568 168.94 258.879 169.115C259.198 169.296 259.581 169.398 260.03 169.419C260.486 169.44 260.881 169.375 261.215 169.224C261.549 169.072 261.81 168.838 261.999 168.52C262.188 168.21 262.293 167.819 262.315 167.348L262.428 164.937L249.556 164.335L249.734 160.522L265.55 161.262ZM249.329 169.18L256.488 166.009L256.321 170.051L249.301 173.272L249.138 173.264L249.329 169.18Z" fill="black"/>
<path d="M263.795 180.854L248.157 178.376L248.752 174.616L264.39 177.094L263.795 180.854Z" fill="black"/>
<path d="M258.159 190.685L247.138 183.626L248.232 179.675L261.937 189.509L261.243 192.014L258.159 190.685ZM245.253 190.427L258.339 190.035L261.679 190.442L260.976 192.978L244.156 194.388L245.253 190.427ZM250.985 191.857L248.145 191.07L250.313 183.242L253.153 184.029L250.985 191.857Z" fill="black"/>
<path d="M242.206 205.935L239.511 204.769L242.69 197.424L245.384 198.59L242.206 205.935ZM256.681 204.959L242.15 198.672L243.666 195.169L258.197 201.456L256.681 204.959Z" fill="black"/>
<path d="M112.169 173.568L167.354 172.708" stroke="#0865BF" stroke-width="4.63184"/>
<path d="M193.623 139.888H167.288" stroke="#0865BF" stroke-width="3.30846"/>
<path d="M182.639 130.36L181.183 154.578" stroke="#0865BF" stroke-width="3.30846"/>
<path d="M89.5 185.5L221.651 107.011C221.908 106.858 222.181 107.181 221.989 107.409L137.5 207.5" stroke="#0865BF" stroke-width="3.30846"/>
<path d="M110.118 174.429L117.131 181.906" stroke="#0865BF" stroke-width="4.63184"/>
<path d="M140.158 123.081C142.488 115.194 149.929 113.818 152.929 113.487C154.958 114.634 159.202 117.179 159.943 118.185C160.869 119.442 169.471 132.477 169.604 133.735C169.709 134.74 168.589 152.593 168.016 161.393L161.2 181.112L143.599 181.972L138.769 180.053L134.335 165.43L133.608 142.27C134.821 139.16 137.829 130.969 140.158 123.081Z" fill="white"/>
<path d="M125.762 130.049L129.915 118.628L136.144 121.743L135.106 106.169L140.297 99.9393H143.931L144.969 106.688L150.68 103.573C149.815 100.978 148.5 95.4748 150.161 94.2289C151.822 92.983 155.006 93.7098 156.39 94.2289V104.092H157.428C158.64 102.016 161.685 97.9666 164.177 98.3819C166.669 98.7972 169.022 102.362 169.887 104.092L167.292 113.437C168.122 113.852 169.368 115.34 169.887 116.032L175.079 116.551C177.571 119.043 178.886 125.549 179.232 128.491L174.56 133.682C175.39 135.344 175.944 141.988 176.117 145.103L180.27 143.546C181.931 146.038 181.654 153.928 181.308 157.562L175.598 159.12C176.013 161.196 174.733 167.945 174.04 171.059L178.713 175.212L176.636 180.404L174.56 181.961L160.543 180.923L167.811 151.333C165.734 136.797 159.505 108.868 151.199 113.437C140.816 119.147 137.183 130.049 136.144 142.508C135.106 154.967 135.106 153.409 136.144 163.792C136.975 172.098 140.643 178.673 142.374 180.923V181.961H130.434L128.877 180.923L127.319 174.693L128.877 162.753L123.685 156.005V147.699L128.877 139.912L125.762 130.049Z" fill="white"/>
<path d="M157.143 185.358L162.677 185.434L164.982 182.616L167.356 178.604L169.702 172.925L171.127 167.938L172.048 163.309L172.696 158.124L172.9 155.08V147.669L172.384 141.76L171.366 135.842L170.127 131.135L168.837 127.462L167.187 123.815L165.391 120.73L162.728 117.366L161.049 115.825L158.313 114.117L156.068 113.369L153.452 113.168L152.662 113.284L154.279 114.268L155.536 115.212L157.423 117.098L158.995 119.299L160.567 122.444L161.825 125.588L163.083 129.362L164.655 136.28L165.284 142.254L165.599 146.971L165.68 151.059L165.599 154.203V156.09L165.284 159.549L164.97 163.636L164.026 168.353L163.397 171.498L162.14 175.9L161.196 178.415L159.939 180.931L158.681 183.447L157.737 184.704L157.143 185.358Z" fill="#0865BF"/>
<path d="M137.072 182.176L138.085 184.437L138.556 185.393L126.133 185.261" fill="#0865BF"/>
<path d="M126.133 185.161L124.903 182.176L123.271 177.265L122.152 173.073L126.133 171.353C125.84 169.683 125.585 167.894 125.394 165.976C125.177 163.806 125.079 161.763 125.035 159.863L119.969 159.719L119.69 156.087L119.532 150.112V145.663L119.696 144.229L126.765 145.622V147.194L126.667 151.389L126.765 154.996L126.922 157.678L127.051 158.577L131.767 158.612L132.05 161.659L132.324 164.712L132.862 167.366L133.535 170.787L129.447 174.658L130.28 178.196L131.145 181.164L131.881 183.406L131.962 183.777L132.352 184.742L126.133 185.161Z" fill="#0865BF"/>
<path d="M171.579 121.822L176.252 117.746C176.019 117.117 175.786 116.479 175.551 115.831L172.383 115.831L169.265 115.288L168.99 115.173L169.821 116.999L170.747 119.005C170.758 119.03 170.77 119.055 170.78 119.081C170.865 119.282 171.261 120.234 171.415 120.901C171.498 121.257 171.579 121.822 171.579 121.822Z" fill="#0865BF"/>
<path d="M162.615 107.882C163.267 104.469 163.919 101.059 164.57 97.653L163.964 97.1436L158.219 97.458L156.961 104.517L159.637 105.775L161.838 107.347L162.615 107.882Z" fill="#0865BF"/>
<path d="M151.209 104.363L151.162 94.5113C152.707 93.6622 154.166 93.9711 156.51 93.8907C156.51 93.8907 155.152 93.4939 154.882 93.4122C154.094 93.2849 153.481 93.0866 151.412 93.1118C149.35 93.1647 147.297 93.473 145.279 93.895V104.614L151.209 104.363Z" fill="#0865BF"/>
<path d="M144.323 100.066C144.231 99.9171 141.547 99.5807 137 99C136.14 99.6823 135.227 100.485 134.481 101.291C133.477 102.378 132.585 103.564 131.821 104.832C132.28 107.874 132.74 110.913 133.201 113.951L139.805 114.58L137.758 104.832L138.861 102.945L140.748 100.744L141.377 100.115C142.936 100.245 144.055 100.232 144.323 100.066Z" fill="#0865BF"/>
<path d="M121.46 130.29L128.378 130.988L129.18 126.875L130.752 120.68L131.132 119.422L135.981 122.765L136.874 120.413L137.874 118.117L139.33 115.259L139.723 114.573L133.211 113.63C132.792 114.469 132.372 115.307 131.953 116.146L131.01 118.976L125.035 117.718L124.573 118.976L123.532 122.12L122.52 125.601L121.891 128.117L121.46 130.29Z" fill="#0865BF"/>
<path d="M126.765 145.622L131.642 145.424L131.856 142.456L132.117 139.887L133.126 133.315L128.428 130.714L121.463 130.29L127.865 135.337L127.444 137.613L127.236 141.311L127.01 142.619L126.922 143.198L119.532 144.229L125.447 145.622H126.765Z" fill="#0865BF"/>
<path d="M145.479 107.493L144.562 104.59L151.207 104.362L150.616 104.532C149.915 104.733 149.234 104.999 148.581 105.325C147.978 105.627 147.402 105.979 146.859 106.377L146.367 106.739C146.054 106.969 145.757 107.221 145.479 107.493Z" fill="#0865BF"/>
<path d="M175.784 142.738L181.346 143.534L181.205 143.634L176.415 145.666H175.985L175.784 142.738Z" fill="#0865BF"/>
<path d="M145.621 185.557C139.012 179.088 135.258 166.051 135.258 151.386C135.258 130.286 143.704 113.18 154.125 113.18C164.545 113.18 172.991 130.286 172.991 151.386C172.991 166.338 168.75 179.28 162.571 185.557" stroke="#0865BF" stroke-width="1.5" stroke-miterlimit="10"/>
<path d="M151.98 113.344C159.712 115.205 165.756 131.522 165.756 151.373C165.756 166.237 162.366 179.116 157.42 185.434" stroke="#0865BF" stroke-width="0.314446" stroke-miterlimit="10"/>
<path d="M145.053 107.558L143.901 100.131" stroke="#0865BF" stroke-width="0.864408" stroke-miterlimit="10"/>
<path d="M156.08 93.8918L156.121 104.363" stroke="#0865BF" stroke-width="0.864408" stroke-miterlimit="10"/>
<path d="M126.085 133.163C125.771 134.855 125.51 136.676 125.302 138.606C125.076 140.726 124.95 142.726 124.9 144.581L128.296 143.908L129.695 134.61L126.085 133.163Z" fill="#0865BF"/>
<path d="M167.306 113.595L169.948 104.404C169.152 103.148 168.273 101.947 167.319 100.807C166.321 99.6154 164.896 98.54 163.74 97.5017" stroke="#0865BF" stroke-width="0.864408" stroke-miterlimit="10"/>
<path d="M167.021 113.253C167.518 113.555 169.579 115.511 170.509 117.522" stroke="#0865BF" stroke-width="0.864483" stroke-miterlimit="10"/>
<path d="M162.528 107.242C161.727 106.542 160.641 105.922 159.708 105.413C158.566 104.79 157.043 104.273 155.778 103.969" stroke="#0865BF" stroke-width="0.849692" stroke-miterlimit="10"/>
<path d="M174.456 133.984L179.406 128.5" stroke="#0865BF" stroke-width="0.864408" stroke-miterlimit="10"/>
<path d="M181.489 157.507L175.439 158.805" stroke="#0865BF" stroke-width="0.864408" stroke-miterlimit="10"/>
<path d="M179.286 128.815C178.956 126.892 178.652 124.797 178.092 122.928C177.377 120.545 176.286 118.361 175.211 116.116" stroke="#0865BF" stroke-miterlimit="10"/>
<path d="M180.93 143.629C181.505 145.755 181.673 148.609 181.67 151.141C181.67 153.337 181.398 155.709 181.166 157.893" stroke="#0865BF" stroke-width="0.864408" stroke-miterlimit="10"/>
<path d="M174.595 133.66C174.918 135.463 175.201 137.368 175.444 139.374C175.705 141.575 175.878 143.679 175.985 145.663" stroke="#0865BF" stroke-width="0.864408" stroke-miterlimit="10"/>
<path d="M173.865 171.422C174.425 169.208 174.849 166.972 175.174 164.712C175.488 162.454 175.686 160.341 175.781 158.407" stroke="#0865BF" stroke-width="0.9" stroke-miterlimit="10"/>
<path d="M169.073 185.245C169.545 184.304 169.636 184.074 170.065 183.053" stroke="#0865BF" stroke-width="0.314446" stroke-miterlimit="10"/>
<path d="M173.708 170.968L179.05 174.776" stroke="#0865BF" stroke-width="0.9" stroke-miterlimit="10"/>
<path d="M178.886 174.329C178.484 176.134 177.935 178.111 177.365 180.088C176.853 181.856 176.173 183.936 175.62 185.508L170.105 182.605" stroke="#0865BF" stroke-width="0.864408" stroke-miterlimit="10"/>
<path d="M169.073 185.246L175.869 185.196L170.199 183.085L169.073 185.246Z" fill="#0865BF"/>
<path d="M151.922 185.883C157.234 186.168 158.772 182.812 159.625 178.763C162.905 163.192 156.771 156.74 157.627 141.244C157.631 141.182 157.563 141.146 157.523 141.194C156.223 142.794 154.228 153.106 153.638 156.924C153.534 144.968 151.107 124.745 149.629 118.524C149.61 118.444 149.497 118.459 149.497 118.542C149.412 138.78 144.626 161.203 144.626 172.623C144.626 179.698 145.281 185.527 151.922 185.883Z" fill="#FF7625"/>
<path d="M126.095 185.647H175.869" stroke="#0865BF" stroke-width="0.943339" stroke-miterlimit="10"/>
<path fill-rule="evenodd" clip-rule="evenodd" d="M143 212H121.5V206.121L90.0001 186.078H113.044V181H143H160H189.956V186.078H213L181.5 206.121V212H160H143Z" fill="white"/>
<path d="M121.5 212H120.374V213.126H121.5V212ZM121.5 206.121H122.626V205.503L122.104 205.171L121.5 206.121ZM90.0001 186.078V184.952H86.1341L89.3958 187.027L90.0001 186.078ZM113.044 186.078V187.203H114.169V186.078H113.044ZM113.044 181V179.874H111.918V181H113.044ZM189.956 181H191.082V179.874H189.956V181ZM189.956 186.078H188.831V187.203H189.956V186.078ZM213 186.078L213.604 187.027L216.866 184.952H213V186.078ZM181.5 206.121L180.896 205.171L180.374 205.503V206.121H181.5ZM181.5 212V213.126H182.626V212H181.5ZM121.5 213.126H143V210.874H121.5V213.126ZM120.374 206.121V212H122.626V206.121H120.374ZM89.3958 187.027L120.896 207.07L122.104 205.171L90.6044 185.128L89.3958 187.027ZM113.044 184.952H90.0001V187.203H113.044V184.952ZM111.918 181V186.078H114.169V181H111.918ZM143 179.874H113.044V182.126H143V179.874ZM143 182.126H160V179.874H143V182.126ZM160 182.126H189.956V179.874H160V182.126ZM188.831 181V186.078H191.082V181H188.831ZM189.956 187.203H213V184.952H189.956V187.203ZM212.396 185.128L180.896 205.171L182.104 207.07L213.604 187.027L212.396 185.128ZM180.374 206.121V212H182.626V206.121H180.374ZM181.5 210.874H160V213.126H181.5V210.874ZM160 210.874H143V213.126H160V210.874Z" fill="#0668C0"/>
<path d="M106.286 93.7756L197 204L191 209L100.201 98.7908L106.286 93.7756Z" fill="#0668C0"/>
<rect x="88.6892" y="114.464" width="45.2393" height="17.8857" rx="8.94284" transform="rotate(-39.4985 88.6892 114.464)" fill="#E47813" stroke="#0668C0" stroke-width="2.4"/>
<path d="M174.963 108.59L186.08 110.509L183.102 102.503L201.762 114.016L189.256 109.848L191.969 116.266L174.963 108.59Z" fill="#0865BF"/>
<path d="M212.613 146.77V125.728L209.57 137.176L204.475 131.683L202.622 150.079L205.533 138.83L212.613 146.77Z" fill="#0865BF"/>
<path d="M232.795 131.154L216.12 123.015L226.641 126.059L224.458 119.707L241 126.985L229.751 125L232.795 131.154Z" fill="#0865BF"/>
<path d="M206.427 91.1903C206.004 96.4303 205.263 105.736 205.058 108.767C205.048 108.92 205.222 108.942 205.264 108.794L207.837 99.6694C207.868 99.5606 208.012 99.5379 208.075 99.6319L211.578 104.887C211.643 104.984 211.794 104.955 211.818 104.84L215.194 88.6733L211.841 99.1188C211.807 99.2264 211.662 99.244 211.602 99.1477L206.672 91.1353C206.605 91.0263 206.438 91.0628 206.427 91.1903Z" fill="#0865BF"/>
<path d="M86.5 185L90.5 183L89.5 186L86.5 185Z" fill="#0865BF"/>
</svg>
