<svg width="338" height="322" viewBox="0 0 338 322" fill="none" xmlns="http://www.w3.org/2000/svg">
    <path d="M182.486 49.1143C160.185 48.8908 55.9807 84.8965 3.00969 104.265C1.49581 104.818 0.537039 106.179 0.923712 107.744C6.90742 131.96 79.6708 256.545 117.807 319.948C118.491 321.085 119.642 321.762 120.967 321.689C151.044 320.026 260.784 277.377 317.045 254.144C319.29 253.217 320.089 250.475 318.729 248.461L185.149 50.6544C184.534 49.7433 183.585 49.1253 182.486 49.1143Z" fill="#0478E0"/>
    <path d="M188.544 32.2559C166.244 32.0324 62.0393 68.0381 9.06828 87.4064C7.5544 87.9599 6.59563 89.321 6.98231 90.8858C12.966 115.101 85.7294 239.686 123.866 303.09C124.55 304.227 125.701 304.904 127.025 304.831C157.102 303.167 266.843 260.518 323.104 237.286C325.349 236.359 326.148 233.616 324.788 231.603L191.207 33.796C190.592 32.8849 189.643 32.2669 188.544 32.2559Z" fill="#C3E3FF"/>
    <path d="M198.817 18.8292C176.517 18.6056 72.3118 54.6114 19.3407 73.9796C17.8269 74.5332 16.8681 75.8942 17.2548 77.459C23.2385 101.675 96.0018 226.26 134.138 289.663C134.822 290.8 135.973 291.477 137.298 291.404C167.375 289.741 277.115 247.092 333.376 223.859C335.621 222.932 336.42 220.19 335.06 218.176L201.48 20.3693C200.865 19.4582 199.916 18.8402 198.817 18.8292Z" fill="#52ADFF"/>
    <path d="M70.0703 89.131C76.3017 80.7932 85.7557 59.3774 67.9639 50.0311C47.1633 39.1042 30.8387 51.4793 32.8134 70.3051" stroke="#0478E0" stroke-width="6.79899" stroke-linecap="round"/>
    <path d="M97.6035 79.1359C103.835 70.7981 113.289 49.3823 95.4971 40.036C74.6965 29.1091 58.3719 41.4841 60.3466 60.31" stroke="#0478E0" stroke-width="6.79899" stroke-linecap="round"/>
    <path d="M127.104 67.5539C133.336 59.2161 142.79 37.8003 124.998 28.454C104.197 17.5271 87.8729 29.9021 89.8476 48.728" stroke="#0478E0" stroke-width="6.79899" stroke-linecap="round"/>
    <path d="M158.18 57.5441C164.411 49.2063 173.865 27.7905 156.073 18.4442C135.273 7.51733 118.948 19.8923 120.923 38.7182" stroke="#0478E0" stroke-width="6.79899" stroke-linecap="round"/>
    <path d="M189.766 47.5422C195.997 39.2044 205.451 17.7885 187.659 8.44224C166.859 -2.48462 150.534 9.89039 152.509 28.7163" stroke="#0478E0" stroke-width="6.79899" stroke-linecap="round"/>
    <rect x="27.7266" y="70.9756" width="11.5852" height="11.3732" transform="rotate(-20.3283 27.7266 70.9756)" fill="#52ADFF"/>
    <rect x="53.1973" y="62.0859" width="11.5852" height="11.3732" transform="rotate(-20.3283 53.1973 62.0859)" fill="#52ADFF"/>
    <rect x="84.001" y="51.3594" width="11.5852" height="11.3732" transform="rotate(-19.2696 84.001 51.3594)" fill="#52ADFF"/>
    <rect x="114.065" y="41.1592" width="11.5852" height="11.2989" transform="rotate(-17.6963 114.065 41.1592)" fill="#52ADFF"/>
    <rect x="145.93" y="31.1133" width="11.5852" height="11.0707" transform="rotate(-15.5928 145.93 31.1133)" fill="#52ADFF"/>
    <path d="M196.625 79.1276C182.027 79.3453 118.075 101.427 84.9941 113.512C83.7456 113.968 82.9617 115.107 83.3213 116.386C87.8991 132.677 132.522 209.105 156.221 248.526C156.785 249.464 157.776 250.027 158.867 249.947C178.178 248.528 245.196 222.521 280.425 207.999C282.277 207.235 282.954 204.966 281.833 203.306L198.83 80.3755C198.323 79.6241 197.532 79.1141 196.625 79.1276Z" stroke="#0478E0" stroke-width="9.01962"/>
</svg>
