<svg width="215" height="170" viewBox="0 0 215 170" fill="none" xmlns="http://www.w3.org/2000/svg">
    <path d="M185.062 40.4422L189.912 39.7845C196.675 38.8675 200.31 47.4758 194.936 51.6837L136.512 97.4358" stroke="#0478E0" stroke-width="8.36434" stroke-linecap="round"/>
    <path d="M24.0532 162.45L10.6164 143.089C9.501 141.482 7.05714 141.712 6.26213 143.5L2.86486 151.138C2.50361 151.95 2.59904 152.893 3.11572 153.616L12.52 166.782C13.091 167.581 14.0759 167.974 15.0402 167.787L22.47 166.344C24.249 165.999 25.0864 163.939 24.0532 162.45Z" fill="#C3E3FF"/>
    <rect x="4.77246" y="143.689" width="118.694" height="30.2972" rx="3.90336" transform="rotate(-37.7472 4.77246 143.689)" fill="#8BC8FF"/>
    <rect x="85.0303" y="75.4014" width="122.416" height="40.3391" rx="3.90336" transform="rotate(-37.7472 85.0303 75.4014)" fill="#0478E0"/>
    <path d="M138.178 43.9961L179.913 11.8844" stroke="#C3E3FF" stroke-width="5.76141" stroke-linecap="round"/>
    <circle cx="130.551" cy="49.4255" r="3.05928" transform="rotate(-0.726774 130.551 49.4255)" fill="#C3E3FF"/>
</svg>
