<svg width="168" height="132" viewBox="0 0 168 132" fill="none" xmlns="http://www.w3.org/2000/svg">
<path fill-rule="evenodd" clip-rule="evenodd" d="M93.6137 51.7609C93.7004 51.253 93.2744 50.832 92.7592 50.832H73.984C73.4687 50.832 73.0427 51.253 73.1294 51.7609C73.4914 53.8814 75.0715 55.5865 77.1241 56.1305C77.5854 56.2527 77.9491 56.6446 77.9491 57.1219V60.0445C77.9491 60.5597 78.3668 60.9774 78.882 60.9774H87.6282C88.1435 60.9774 88.5612 60.5597 88.5612 60.0445V57.178C88.5612 56.6855 88.9473 56.2864 89.4276 56.1775C91.5729 55.6914 93.2406 53.9469 93.6137 51.7609Z" fill="#FFC5B2"/>
<path fill-rule="evenodd" clip-rule="evenodd" d="M95.8564 47.5541C98.8821 43.0132 103.389 36.2497 95.5795 31.3064C88.2918 26.6932 84.8516 27.294 82.1348 27.7685C80.6549 28.0269 79.3897 28.2479 77.8342 27.5683C71.646 24.8645 60.9783 29.3326 66.0484 41.7739C67.2802 44.7965 69.2665 47.5105 71.7793 49.5763C72.2438 49.9582 72.2864 50.6431 72.156 51.2301C72.1269 51.3612 72.112 51.4938 72.112 51.6278C72.112 54.1396 77.3331 56.1758 83.7736 56.1758C90.2142 56.1758 95.4352 54.1396 95.4352 51.6278C95.4352 51.2334 95.3065 50.8507 95.0645 50.4858C94.7118 49.9538 94.6483 49.2198 95.0428 48.718C95.2221 48.4899 95.3915 48.2535 95.5518 48.0118C95.6512 47.8619 95.7529 47.7093 95.8564 47.5541Z" fill="#2F2F3D"/>
<path d="M73.8179 61.0943C73.8179 59.8062 74.8621 58.762 76.1502 58.762H90.494C91.7821 58.762 92.8263 59.8062 92.8263 61.0943V64.9426H73.8179V61.0943Z" fill="#A1B7CA"/>
<path fill-rule="evenodd" clip-rule="evenodd" d="M100.78 93.8776L100.687 95.0449C100.617 95.9212 100.707 96.8028 100.953 97.6467L106.364 116.19C106.561 116.866 106.136 117.565 105.444 117.701C105.033 117.781 104.75 118.16 104.789 118.577L105.095 121.889C105.116 122.118 105.244 122.324 105.439 122.446C105.613 122.554 105.734 122.73 105.773 122.931L106.226 125.277C106.3 125.661 106.636 125.938 107.027 125.938H108.241C108.416 125.938 108.587 125.994 108.727 126.098L109.918 126.98C110.271 127.241 110.768 127.176 111.042 126.832L114.03 123.08C114.251 122.803 114.268 122.415 114.072 122.12L111.202 117.785C111.055 117.564 110.876 117.347 110.863 117.082C110.706 113.724 110.135 101.182 109.984 94.2373C109.973 93.7319 109.782 93.248 109.444 92.8722L108.189 91.4775C107.978 91.2427 107.81 90.9725 107.692 90.6793L107.291 89.6773C106.771 88.3764 105.303 87.7336 103.994 88.2334L102.041 88.979C100.839 89.4382 100.163 90.7177 100.461 91.97L100.716 93.0424C100.781 93.3157 100.803 93.5975 100.78 93.8776Z" fill="#FFC5B2"/>
<path fill-rule="evenodd" clip-rule="evenodd" d="M68.2371 93.8458L68.3305 95.0132C68.4006 95.8894 68.3103 96.7711 68.0641 97.6149L62.6536 116.158C62.4564 116.834 62.8819 117.533 63.5727 117.669C63.9838 117.749 64.2671 118.128 64.2285 118.545L63.922 121.857C63.9008 122.086 63.7735 122.292 63.5781 122.414C63.4041 122.522 63.2832 122.698 63.2444 122.899L62.7916 125.245C62.7174 125.629 62.3812 125.906 61.9901 125.906H60.7757C60.6009 125.906 60.4306 125.962 60.2901 126.066L59.0991 126.948C58.7457 127.209 58.2487 127.144 57.9749 126.8L54.987 123.048C54.7666 122.771 54.7497 122.384 54.945 122.089L57.8154 117.753C57.962 117.532 58.1419 117.315 58.1544 117.05C58.3122 113.69 58.8827 101.15 59.0333 94.2056C59.0443 93.7002 59.2351 93.2163 59.5733 92.8405L60.8286 91.4457C61.0399 91.211 61.208 90.9408 61.3253 90.6476L61.7261 89.6456C62.2465 88.3447 63.7143 87.7019 65.0233 88.2016L66.9762 88.9473C68.1789 89.4065 68.855 90.6859 68.5568 91.9383L68.3015 93.0107C68.2364 93.284 68.2147 93.5658 68.2371 93.8458Z" fill="#FFC5B2"/>
<rect x="62.3896" y="64.9426" width="42.215" height="23.2066" rx="11.6033" fill="#A1B7CA"/>
<path d="M96.1012 68.4945C99.5842 67.5613 103.164 69.6282 104.098 73.1112L108.163 88.2838C108.563 89.7769 107.677 91.3115 106.184 91.7116L98.9777 93.6425C97.4847 94.0426 95.95 93.1565 95.5499 91.6635L91.4845 76.4909C90.5512 73.0079 92.6182 69.4278 96.1012 68.4945Z" fill="#A1B7CA"/>
<path d="M70.9774 68.4945C67.4944 67.5613 63.9143 69.6282 62.9811 73.1112L58.9156 88.2838C58.5155 89.7769 59.4016 91.3115 60.8946 91.7116L68.1009 93.6425C69.5939 94.0426 71.1286 93.1565 71.5287 91.6635L75.5941 76.4909C76.5274 73.0079 74.4604 69.4278 70.9774 68.4945Z" fill="#A1B7CA"/>
<path d="M67.2881 128.731L71.3113 103.192H97.6083L103.322 128.731H88.6028C88.3132 128.731 88.0275 128.664 87.7684 128.534L87.1863 128.243C86.3362 127.818 85.3322 127.834 84.4961 128.286L84.0879 128.507C83.8153 128.654 83.5114 128.731 83.2016 128.731H67.2881Z" fill="#30485F"/>
<path d="M69.0366 84.3008H99.9399V99.6941C99.9399 102.206 97.9037 104.242 95.3918 104.242H73.5846C71.0728 104.242 69.0366 102.206 69.0366 99.6941V84.3008Z" fill="#A1B7CA"/>
<path fill-rule="evenodd" clip-rule="evenodd" d="M38.8036 24.455C38.8903 23.9471 38.4643 23.5261 37.9491 23.5261H19.1739C18.6587 23.5261 18.2327 23.9471 18.3194 24.455C18.6813 26.5755 20.2614 28.2806 22.314 28.8246C22.7753 28.9468 23.139 29.3387 23.139 29.8159V32.7386C23.139 33.2538 23.5567 33.6715 24.072 33.6715H32.8182C33.3334 33.6715 33.7511 33.2538 33.7511 32.7386V29.8721C33.7511 29.3796 34.1372 28.9804 34.6175 28.8716C36.7628 28.3855 38.4305 26.641 38.8036 24.455Z" fill="#F8D1C5"/>
<path fill-rule="evenodd" clip-rule="evenodd" d="M40.8513 20.5293C42.778 17.6143 43.618 16.3434 40.991 7.32828C38.437 -1.43674 28.1359 -0.165094 23.3301 0.428178L23.2654 0.436159C19.6503 0.882296 10.5542 4.19137 14.2276 16.7742C14.879 19.0053 15.8708 20.938 17.1496 22.5074C17.4595 22.8877 17.465 23.422 17.3523 23.8995C17.3194 24.0385 17.3027 24.1794 17.3027 24.3218C17.3027 26.8336 22.5237 28.8698 28.9643 28.8698C35.4048 28.8698 40.6259 26.8336 40.6259 24.3218C40.6259 23.925 40.4956 23.54 40.2508 23.1731C39.898 22.6444 39.833 21.915 40.2252 21.4148C40.4062 21.1839 40.5771 20.9448 40.7386 20.7C40.7765 20.6425 40.8141 20.5856 40.8513 20.5293Z" fill="#2E2E37"/>
<path d="M19.0078 33.7881C19.0078 32.5 20.052 31.4558 21.3401 31.4558H35.6839C36.972 31.4558 38.0162 32.5 38.0162 33.7881V37.6365H19.0078V33.7881Z" fill="#FFA471"/>
<path fill-rule="evenodd" clip-rule="evenodd" d="M45.9713 66.5718L45.878 67.7392C45.8079 68.6154 45.8981 69.4971 46.1443 70.341L51.5546 88.8835C51.7519 89.5597 51.3262 90.2594 50.6349 90.3949C50.2239 90.4754 49.9405 90.8541 49.9791 91.2712L50.2857 94.5833C50.3069 94.8125 50.4341 95.0185 50.6296 95.14C50.8035 95.2481 50.9245 95.4239 50.9633 95.625L51.4161 97.9708C51.4902 98.3549 51.8264 98.6324 52.2176 98.6324H53.432C53.6068 98.6324 53.777 98.6886 53.9176 98.7926L55.1086 99.674C55.4619 99.9356 55.959 99.8703 56.2328 99.5264L59.2206 95.7739C59.441 95.4971 59.458 95.1098 59.2627 94.8147L56.3922 90.4795C56.2459 90.2586 56.0666 90.042 56.0541 89.7773C55.8964 86.4197 55.3257 73.8772 55.1751 66.9316C55.1641 66.4262 54.9733 65.9423 54.6351 65.5665L53.3798 64.1717C53.1685 63.937 53.0004 63.6668 52.8831 63.3736L52.4823 62.3716C51.962 61.0707 50.4941 60.4279 49.1851 60.9277L47.2323 61.6733C46.0296 62.1325 45.3534 63.4119 45.6516 64.6643L45.9069 65.7367C45.972 66.01 45.9937 66.2918 45.9713 66.5718Z" fill="#F8D1C5"/>
<path fill-rule="evenodd" clip-rule="evenodd" d="M13.4275 66.5403L13.5209 67.7077C13.591 68.5839 13.5007 69.4656 13.2545 70.3094L7.84412 88.8523C7.64689 89.5282 8.07252 90.2277 8.76352 90.3631C9.17457 90.4437 9.45793 90.8223 9.41933 91.2394L9.1128 94.5516C9.0916 94.7807 8.96433 94.9867 8.76889 95.1082C8.59494 95.2164 8.47399 95.3922 8.43517 95.5933L7.98238 97.9391C7.90824 98.3232 7.57204 98.6007 7.18086 98.6007H5.9665C5.79165 98.6007 5.62142 98.6568 5.48088 98.7608L4.28989 99.6423C3.93652 99.9038 3.4395 99.8385 3.16566 99.4946L0.177841 95.7421C-0.0425634 95.4653 -0.059535 95.078 0.13581 94.783L3.00624 90.4477C3.15266 90.2266 3.33231 90.0098 3.34475 89.7449C3.5025 86.3861 4.07313 73.8451 4.22374 66.9001C4.2347 66.3946 4.42554 65.9107 4.76373 65.535L6.01904 64.1402C6.2303 63.9054 6.39844 63.6352 6.51573 63.342L6.91652 62.3401C7.43689 61.0391 8.90474 60.3963 10.2137 60.8961L12.1666 61.6417C13.3693 62.101 14.0454 63.3804 13.7472 64.6328L13.4919 65.7052C13.4268 65.9784 13.4051 66.2603 13.4275 66.5403Z" fill="#F8D1C5"/>
<rect x="7.58008" y="37.6362" width="42.215" height="23.2066" rx="11.6033" fill="#FFA471"/>
<path d="M41.2911 41.1886C44.7741 40.2553 48.3542 42.3223 49.2875 45.8053L53.353 60.9779C53.753 62.4709 52.867 64.0056 51.3739 64.4057L44.1677 66.3366C42.6746 66.7367 41.1399 65.8506 40.7399 64.3576L36.6744 49.185C35.7411 45.702 37.8081 42.1219 41.2911 41.1886Z" fill="#FFA471"/>
<path d="M16.1688 41.1886C12.6858 40.2553 9.10574 42.3223 8.17247 45.8053L4.10699 60.9779C3.70693 62.4709 4.59298 64.0056 6.08603 64.4057L13.2923 66.3366C14.7853 66.7367 16.32 65.8506 16.7201 64.3576L20.7856 49.185C21.7188 45.702 19.6519 42.1219 16.1688 41.1886Z" fill="#FFA471"/>
<path d="M12.478 131.046L16.5013 75.8865H42.7982L48.5124 131.046H35.0891C34.1104 131.046 33.2981 130.29 33.2281 129.313L31.797 109.359C31.7455 108.64 30.6929 108.635 30.6343 109.353L29.0026 129.332C28.9235 130.3 28.1176 131.046 27.146 131.046H12.478Z" fill="#30485F"/>
<path d="M14.2275 56.9946H45.1308V81.3674C45.1308 83.8792 43.0946 85.9154 40.5828 85.9154H18.7756C16.2638 85.9154 14.2275 83.8792 14.2275 81.3674V56.9946Z" fill="#FFA471"/>
<path fill-rule="evenodd" clip-rule="evenodd" d="M145.157 45.6971C145.244 45.1892 144.818 44.7684 144.303 44.7684H128.793C128.278 44.7684 127.852 45.1892 127.938 45.6971C128.238 47.4514 129.371 48.9214 130.915 49.6849C131.271 49.8604 131.525 50.2063 131.525 50.6024V53.9811C131.525 54.4963 131.942 54.914 132.457 54.914H141.204C141.719 54.914 142.137 54.4963 142.137 53.9811V50.2915C142.137 49.9336 142.345 49.613 142.649 49.4238C143.952 48.6121 144.889 47.2687 145.157 45.6971Z" fill="#CE9684"/>
<path fill-rule="evenodd" clip-rule="evenodd" d="M137.14 22.2615C136.014 22.2615 135.005 22.7287 134.321 23.4676C134.21 23.5866 134.037 23.6276 133.886 23.5696C133.45 23.4029 132.974 23.3111 132.475 23.3111C130.897 23.3111 129.548 24.2292 129.002 25.5267C128.935 25.686 128.773 25.787 128.6 25.7731C128.494 25.7645 128.386 25.7601 128.277 25.7601C126.216 25.7601 124.545 27.3265 124.545 29.2586C124.545 29.4074 124.458 29.544 124.323 29.6054C123.074 30.1713 122.213 31.3698 122.213 32.7569C122.213 33.4751 122.444 34.1427 122.84 34.6981C122.952 34.8558 122.937 35.0752 122.804 35.2157C122.219 35.8335 121.863 36.647 121.863 37.5383C121.863 38.5685 122.338 39.4947 123.094 40.1349C123.239 40.258 123.279 40.47 123.189 40.6381C122.938 41.1089 122.796 41.6404 122.796 42.2028C122.796 43.5477 123.605 44.7153 124.792 45.3008C124.934 45.3707 125.021 45.5194 125.014 45.6772C125.012 45.7239 125.011 45.7708 125.011 45.818C125.011 47.7501 126.682 49.3164 128.743 49.3164C129.161 49.3164 129.563 49.2521 129.938 49.1333C130.114 49.0775 130.308 49.1514 130.405 49.3089C131.049 50.3587 132.257 51.0656 133.642 51.0656C134.923 51.0656 136.053 50.4604 136.725 49.5382C136.773 49.4723 136.849 49.4311 136.93 49.4299C137.004 49.4288 137.073 49.4602 137.123 49.5139C137.807 50.2504 138.815 50.7158 139.938 50.7158C141.483 50.7158 142.808 49.8363 143.375 48.5825C143.417 48.4904 143.492 48.417 143.587 48.3819C143.624 48.3681 143.661 48.3542 143.697 48.3403C143.785 48.3065 143.883 48.3086 143.97 48.3432C144.416 48.5192 144.905 48.6166 145.419 48.6166C147.48 48.6166 149.151 47.0502 149.151 45.1181C149.151 44.4831 148.97 43.8876 148.655 43.3743C148.53 43.1717 148.603 42.8927 148.811 42.7787C149.921 42.1725 150.667 41.0449 150.667 39.754C150.667 39.0087 150.418 38.3179 149.994 37.7504C149.866 37.5788 149.892 37.3302 150.054 37.1898C150.79 36.5508 151.25 35.6372 151.25 34.6229C151.25 33.4395 150.624 32.3933 149.664 31.7602C149.505 31.6553 149.441 31.4495 149.51 31.2719C149.655 30.8986 149.734 30.4955 149.734 30.0751C149.734 28.143 148.064 26.5767 146.003 26.5767C145.998 26.5767 145.994 26.5732 145.994 26.5687C145.862 24.7489 144.246 23.3111 142.271 23.3111C141.653 23.3111 141.071 23.4517 140.558 23.7006C140.393 23.7809 140.191 23.7371 140.072 23.5963C139.389 22.7834 138.329 22.2615 137.14 22.2615Z" fill="#262626"/>
<path d="M127.228 53.7478C127.228 52.4597 128.272 51.4155 129.56 51.4155H143.904C145.192 51.4155 146.236 52.4597 146.236 53.7478V57.5962H127.228V53.7478Z" fill="#7EC3FF"/>
<path fill-rule="evenodd" clip-rule="evenodd" d="M154.19 86.5315L154.097 87.6989C154.027 88.5752 154.117 89.4568 154.363 90.3007L159.774 108.844C159.971 109.52 159.545 110.219 158.855 110.354C158.444 110.435 158.16 110.814 158.199 111.231L158.505 114.543C158.527 114.772 158.654 114.978 158.849 115.099C159.023 115.208 159.144 115.383 159.183 115.585L159.636 117.93C159.71 118.314 160.046 118.592 160.437 118.592H161.652C161.827 118.592 161.997 118.648 162.137 118.752L163.328 119.634C163.682 119.895 164.179 119.83 164.453 119.486L167.44 115.733C167.661 115.457 167.678 115.069 167.482 114.774L164.612 110.439C164.583 110.395 164.549 110.354 164.513 110.317C164.394 110.196 164.286 110.052 164.277 109.883C164.111 106.767 163.432 94.0135 163.276 86.9914C163.266 86.532 163.107 86.0886 162.822 85.7281L161.521 84.0822C161.361 83.8795 161.231 83.6547 161.135 83.4148L160.701 82.3313C160.181 81.0304 158.713 80.3876 157.404 80.8874L155.451 81.633C154.249 82.0922 153.572 83.3717 153.871 84.624L154.126 85.6964C154.191 85.9697 154.213 86.2515 154.19 86.5315Z" fill="#CE9684"/>
<path fill-rule="evenodd" clip-rule="evenodd" d="M115.567 95.7783L114.86 95.5819C114.516 95.4861 114.178 95.3649 113.852 95.2192L95.2839 86.9413C95.048 86.8361 94.7715 86.9427 94.6672 87.1791L94.3358 87.9303C94.1667 88.3136 93.735 88.5066 93.3366 88.3772L90.1731 87.3491C89.9543 87.278 89.7814 87.1085 89.7059 86.8911C89.6386 86.6976 89.4938 86.541 89.3061 86.4588L87.1175 85.5008C86.7592 85.3439 86.5625 84.9549 86.6486 84.5733L86.9159 83.3887C86.9543 83.2182 86.937 83.0398 86.8665 82.8798L86.2688 81.524C86.0915 81.1217 86.2646 80.6513 86.6603 80.4598L90.9784 78.3712C91.297 78.2172 91.6785 78.2859 91.9233 78.5414L95.5204 82.2956C95.5794 82.3571 95.6275 82.4266 95.664 82.5011C95.7261 82.6278 95.8373 82.7358 95.9783 82.742C97.0897 82.7904 100.144 82.9234 111.742 85.0469C111.962 85.0872 112.185 84.9669 112.267 84.7585L113.527 81.5247C113.541 81.49 113.55 81.4537 113.555 81.4167C113.559 81.386 113.563 81.3554 113.567 81.3248C113.792 79.6255 114.002 78.0397 114.809 78.2372L120.452 79.8495C121.853 80.2498 122.678 81.6955 122.31 83.1055L120.532 89.9225C120.526 89.9455 120.518 89.9681 120.509 89.9899L118.657 94.2719L118.482 94.5793C117.899 95.5987 116.699 96.0926 115.567 95.7783Z" fill="#CE9684"/>
<rect x="115.799" y="57.5964" width="42.6815" height="23.2066" rx="11.6033" fill="#7EC3FF"/>
<path d="M150.804 61.7745C154.287 60.8413 157.867 62.9083 158.8 66.3913L162.622 80.6558C163.022 82.1489 162.136 83.6836 160.643 84.0836L152.387 86.2959C150.894 86.696 149.359 85.8099 148.959 84.3169L145.137 70.0523C144.204 66.5693 146.271 62.9892 149.754 62.0559L150.804 61.7745Z" fill="#7EC3FF"/>
<path d="M124.387 61.1481C120.904 60.2148 117.324 62.2818 116.391 65.7648L112.325 80.9374C111.925 82.4304 112.811 83.9651 114.304 84.3652L121.511 86.2961C123.004 86.6961 124.538 85.8101 124.938 84.317L129.004 69.1445C129.937 65.6615 127.87 62.0814 124.387 61.1481Z" fill="#7EC3FF"/>
<path d="M120.697 128.732L124.72 95.8464H151.017L156.731 128.732H142.994C142.154 128.732 141.417 128.17 141.195 127.359L139.614 121.589C139.517 121.236 139.013 121.249 138.935 121.606L137.694 127.266C137.507 128.122 136.751 128.732 135.875 128.732H120.697Z" fill="#262626"/>
<path d="M122.447 76.9546H153.35V92.3479C153.35 94.8597 151.314 96.8959 148.802 96.8959H126.995C124.483 96.8959 122.447 94.8597 122.447 92.3479V76.9546Z" fill="#7EC3FF"/>
</svg>
