<svg width="30" height="27" viewBox="0 0 30 27" fill="none" xmlns="http://www.w3.org/2000/svg">
<path d="M17.5 19C11.1 19 8 22.5385 7 24.5385V25H28C27.3333 22.8462 23.9 19 17.5 19Z" fill="white"/>
<mask id="path-2-inside-1_1938_8437" fill="white">
<path fill-rule="evenodd" clip-rule="evenodd" d="M3 0C1.34315 0 0 1.34315 0 3V24C0 25.6569 1.34315 27 3 27H8H22H27C28.6569 27 30 25.6569 30 24V3C30 1.34315 28.6569 0 27 0H22H8H3ZM24.8293 25C24.9398 24.6872 25 24.3506 25 24V3C25 2.64936 24.9398 2.31278 24.8293 2H27C27.5523 2 28 2.44772 28 3V24C28 24.5523 27.5523 25 27 25H24.8293Z"/>
</mask>
<path fill-rule="evenodd" clip-rule="evenodd" d="M3 0C1.34315 0 0 1.34315 0 3V24C0 25.6569 1.34315 27 3 27H8H22H27C28.6569 27 30 25.6569 30 24V3C30 1.34315 28.6569 0 27 0H22H8H3ZM24.8293 25C24.9398 24.6872 25 24.3506 25 24V3C25 2.64936 24.9398 2.31278 24.8293 2H27C27.5523 2 28 2.44772 28 3V24C28 24.5523 27.5523 25 27 25H24.8293Z" fill="#CEE8FF"/>
<path d="M24.8293 25L22.9436 24.3335L22.0011 27H24.8293V25ZM24.8293 2V0H22.0011L22.9436 2.66649L24.8293 2ZM2 3C2 2.44772 2.44772 2 3 2V-2C0.238576 -2 -2 0.238576 -2 3H2ZM2 24V3H-2V24H2ZM3 25C2.44772 25 2 24.5523 2 24H-2C-2 26.7614 0.238577 29 3 29V25ZM8 25H3V29H8V25ZM8 29H22V25H8V29ZM22 29H27V25H22V29ZM27 29C29.7614 29 32 26.7614 32 24H28C28 24.5523 27.5523 25 27 25V29ZM32 24V3H28V24H32ZM32 3C32 0.238577 29.7614 -2 27 -2V2C27.5523 2 28 2.44772 28 3H32ZM27 -2H22V2H27V-2ZM22 -2H8V2H22V-2ZM3 2H8V-2H3V2ZM23 24C23 24.1205 22.9796 24.2318 22.9436 24.3335L26.715 25.6665C26.9001 25.1426 27 24.5808 27 24H23ZM23 3V24H27V3H23ZM22.9436 2.66649C22.9796 2.76819 23 2.87954 23 3H27C27 2.41918 26.9001 1.85737 26.715 1.33351L22.9436 2.66649ZM27 0H24.8293V4H27V0ZM30 3C30 1.34315 28.6569 0 27 0V4C26.4477 4 26 3.55229 26 3H30ZM30 24V3H26V24H30ZM27 27C28.6569 27 30 25.6569 30 24H26C26 23.4477 26.4477 23 27 23V27ZM24.8293 27H27V23H24.8293V27Z" fill="white" mask="url(#path-2-inside-1_1938_8437)"/>
<path d="M12.5 19C6.1 19 3 22.5385 2 24.5385V25H23C22.3333 22.8462 18.9 19 12.5 19Z" fill="white"/>
<circle cx="12.5" cy="15.5" r="5.5" fill="white"/>
</svg>
