<svg width="1262" height="846" viewBox="0 0 1262 846" fill="none" xmlns="http://www.w3.org/2000/svg">
    <rect width="628" height="715" fill="#52ADFF"/>
    <rect x="627.838" width="634.162" height="714.561" fill="#FF8B46"/>
    <rect x="74.9785" y="405.226" width="219.518" height="244.427" rx="1.7234" fill="#FFB444"/>
    <rect x="81.9844" y="412.232" width="205.506" height="230.416" rx="1.7234" fill="#FFDF8B"/>
    <mask id="path-5-inside-1_1541_5519" fill="white">
    <rect x="93.6611" y="422.352" width="182.931" height="209.398" rx="3.44681"/>
    </mask>
    <rect x="93.6611" y="422.352" width="182.931" height="209.398" rx="3.44681" fill="white" stroke="#FFB444" stroke-width="24.1277" mask="url(#path-5-inside-1_1541_5519)"/>
    <path d="M266 582.048C198.78 552.984 131.325 569.938 106 582.048V624H266V582.048Z" fill="#30485F"/>
    <circle cx="186" cy="609" r="7" fill="#FFDF8B"/>
    <rect x="165" y="552" width="42" height="23" rx="1" fill="#FFD3B8"/>
    <g style="mix-blend-mode:soft-light">
    <ellipse cx="185.5" cy="528" rx="34.5" ry="40" fill="black"/>
    </g>
    <circle cx="206.5" cy="495.5" r="8.5" fill="#484848"/>
    <circle cx="218.5" cy="512.5" r="8.5" fill="#484848"/>
    <circle cx="150.5" cy="512.5" r="8.5" fill="#484848"/>
    <ellipse cx="185.5" cy="522" rx="34.5" ry="42" fill="#FFD3B8"/>
    <g style="mix-blend-mode:soft-light">
    <path d="M181 539L186.5 523L187 539H181Z" fill="black"/>
    </g>
    <ellipse cx="152.971" cy="526.443" rx="7.5" ry="10.6845" transform="rotate(-20.8832 152.971 526.443)" fill="#FFD3B8"/>
    <ellipse cx="7.5" cy="10.8703" rx="7.5" ry="10.8703" transform="matrix(-0.934309 -0.356464 -0.356464 0.934309 229.764 518.786)" fill="#FFD3B8"/>
    <path fill-rule="evenodd" clip-rule="evenodd" d="M179 492.5C179 496.642 175.194 500 170.5 500C169.04 500 167.666 499.675 166.465 499.103C165.854 498.812 165 499.323 165 500V500V500C165 500.628 165.348 501.206 165.886 501.53C167.202 502.323 168 503.362 168 504.5C168 505.174 167.72 505.813 167.219 506.387C166.419 507.302 165.525 508.185 165.175 509.349C164.324 512.178 163.331 516.042 162.69 518.668C162.618 518.964 162.574 519.264 162.557 519.568L162.087 528.149C162.034 529.122 161.44 529.983 160.549 530.379V530.379C158.833 531.141 156.885 529.884 156.735 528.012C156.412 523.979 155.554 519.426 153.653 519.111V519.111C153.061 519.013 150 516.677 150 516.077V509.367C150 509.071 150.107 508.784 150.3 508.56V508.56C150.727 508.066 150.689 507.331 150.284 506.821C148.867 505.034 148 502.636 148 500C148 494.477 151.806 490 156.5 490V490C158.806 490 162.896 488.519 164.668 487.044C166.19 485.777 168.242 485 170.5 485C175.194 485 179 488.358 179 492.5Z" fill="#484848"/>
    <ellipse cx="186" cy="490" rx="23" ry="10" fill="#484848"/>
    <path fill-rule="evenodd" clip-rule="evenodd" d="M224 500C224 496.644 222.594 493.673 220.438 491.86C219.327 490.925 218.328 489.812 217.623 488.542C216.106 485.807 213.483 484 210.5 484C209.75 484 209.023 484.114 208.331 484.329C206.45 484.911 204.379 485.229 202.419 485.043C202.117 485.015 201.81 485 201.5 485C196.806 485 193 488.358 193 492.5C193 496.642 196.806 500 201.5 500C201.832 500 202.16 499.983 202.482 499.951C203.132 499.884 203.789 500.177 204.187 500.696V500.696C204.765 501.45 204.664 502.541 204.256 503.399C204.089 503.751 204 504.12 204 504.5C204 505.174 204.28 505.813 204.781 506.387C205.581 507.302 206.475 508.185 206.825 509.349C207.676 512.178 208.669 516.042 209.31 518.668C209.382 518.964 209.426 519.264 209.443 519.568L209.913 528.149C209.966 529.122 210.56 529.983 211.451 530.379V530.379C213.167 531.141 215.115 529.884 215.265 528.012C215.588 523.979 216.446 519.426 218.347 519.111V519.111C218.939 519.013 222 516.677 222 516.077V509.367C222 509.071 221.893 508.784 221.7 508.56V508.56C221.273 508.066 221.311 507.331 221.716 506.821C223.133 505.034 224 502.636 224 500ZM161.5 505C166.194 505 170 500.523 170 495C170 489.477 166.194 485 161.5 485C156.806 485 153 489.477 153 495C153 500.523 156.806 505 161.5 505Z" fill="#484848"/>
    <path d="M174.55 546.822C179.653 548.369 190.822 550.544 198.538 545.62C194.459 549.952 184.725 556.008 174.55 546.822Z" fill="white"/>
    <rect x="180" y="569" width="10" height="10" fill="white"/>
    <path d="M150.364 563.146C150.75 562.45 151.512 562.05 152.304 562.126L179.289 564.738C180.827 564.886 182 566.179 182 567.724V579.5L146 571L150.364 563.146Z" fill="#30485F"/>
    <path d="M219.636 563.146C219.25 562.45 218.488 562.05 217.696 562.126L190.711 564.738C189.173 564.886 188 566.179 188 567.724V579.5L224 571L219.636 563.146Z" fill="#30485F"/>
    <rect x="369.476" y="405.226" width="219.518" height="244.427" rx="1.7234" fill="#FFB444"/>
    <rect x="376.481" y="412.232" width="205.506" height="230.416" rx="1.7234" fill="#FFDF8B"/>
    <mask id="path-26-inside-2_1541_5519" fill="white">
    <rect x="388.158" y="422.352" width="182.931" height="209.398" rx="3.44681"/>
    </mask>
    <rect x="388.158" y="422.352" width="182.931" height="209.398" rx="3.44681" fill="white" stroke="#FFB444" stroke-width="24.1277" mask="url(#path-26-inside-2_1541_5519)"/>
    <path d="M559 578.41C492.2 549.528 425.167 566.376 400 578.41V620.1H559V578.41Z" fill="#30485F"/>
    <circle cx="479.5" cy="605.194" r="6.95625" fill="#FFDF8B"/>
    <rect x="458.631" y="548.55" width="41.7375" height="22.8563" rx="1" fill="#FFC09A"/>
    <g style="mix-blend-mode:soft-light">
    <ellipse cx="479.002" cy="524.7" rx="34.2844" ry="39.75" fill="black"/>
    </g>
    <circle cx="457.14" cy="492.403" r="8.44687" fill="#484848"/>
    <circle cx="499.872" cy="492.403" r="8.44687" fill="#484848"/>
    <ellipse cx="512" cy="508.5" rx="8" ry="9.5" fill="#484848"/>
    <ellipse cx="444.5" cy="508.5" rx="8.5" ry="9.5" fill="#484848"/>
    <ellipse cx="479" cy="520" rx="34" ry="40" fill="#FFC09A"/>
    <g style="mix-blend-mode:soft-light">
    <path d="M474.53 535.631L479.996 519.731L480.493 535.631H474.53Z" fill="black"/>
    </g>
    <ellipse cx="446.677" cy="523.152" rx="7.45312" ry="10.6177" transform="rotate(-20.8832 446.677 523.152)" fill="#FFC09A"/>
    <ellipse cx="7.45312" cy="10.8023" rx="7.45312" ry="10.8023" transform="matrix(-0.934309 -0.356464 -0.356464 0.934309 522.989 515.544)" fill="#FFC09A"/>
    <path fill-rule="evenodd" clip-rule="evenodd" d="M497.876 503.016C496.989 502.03 495.692 501.274 494.394 501.544C489.907 502.476 484.85 503 479.5 503C473.877 503 468.578 502.421 463.925 501.398C462.517 501.088 461.094 501.944 460.13 503.016V503.016C459.314 503.922 458.519 504.891 458.219 506.073C457.525 508.808 456.812 511.897 456.318 514.136C456.258 514.407 456.222 514.681 456.208 514.957L455.725 524.676C455.678 525.61 455.128 526.446 454.287 526.858C452.578 527.696 450.565 526.451 450.435 524.552C450.128 520.07 449.28 514.893 447.355 514.542C446.805 514.441 443.725 512.118 443.725 511.56V503.367C443.725 503.358 443.728 503.349 443.733 503.342C443.745 503.327 443.745 503.307 443.734 503.292C442.489 501.561 441.737 499.321 441.737 496.875C441.737 494.228 442.617 491.823 444.051 490.042C445.138 488.692 446.086 487.148 446.964 485.653C450.554 479.537 463.759 475 479.5 475C498.002 475 513 481.268 513 489V489C513 489.015 513.006 489.029 513.017 489.039C514.996 490.858 516.269 493.692 516.269 496.875C516.269 499.321 515.517 501.561 514.272 503.292C514.261 503.307 514.261 503.327 514.273 503.342C514.278 503.349 514.281 503.358 514.281 503.367V511.56C514.281 512.118 511.201 514.441 510.651 514.542C508.536 514.928 507.721 521.139 507.495 525.854C507.421 527.411 506.16 528.675 504.601 528.675C503.041 528.675 501.777 527.411 501.777 525.852V515.083C501.777 514.723 501.739 514.364 501.661 514.013C501.167 511.784 500.468 508.758 499.787 506.072C499.487 504.891 498.691 503.922 497.876 503.016V503.016Z" fill="#484848"/>
    <path d="M468.071 542.588C473.232 545.593 484.468 550.011 491.921 541.594C488.064 549.129 478.653 559.467 468.071 542.588Z" fill="white"/>
    <ellipse cx="10.648" cy="3.55249" rx="10.648" ry="3.55249" transform="matrix(0.961091 -0.276232 0.136489 0.990642 462.605 542.508)" fill="#484848"/>
    <ellipse cx="10.648" cy="3.55249" rx="10.648" ry="3.55249" transform="matrix(-0.961091 -0.276232 -0.136489 0.990642 498.949 542.508)" fill="#484848"/>
    <rect x="473.537" y="565.444" width="9.9375" height="9.9375" fill="white"/>
    <path d="M444.082 559.633C444.469 558.937 445.231 558.537 446.023 558.614L472.814 561.206C474.352 561.355 475.525 562.648 475.525 564.192V575.878L439.75 567.431L444.082 559.633Z" fill="#30485F"/>
    <path d="M512.93 559.633C512.544 558.937 511.782 558.537 510.989 558.614L484.199 561.206C482.661 561.355 481.488 562.648 481.488 564.192V575.878L517.263 567.431L512.93 559.633Z" fill="#30485F"/>
    <rect x="663.973" y="405.226" width="219.518" height="244.427" rx="1.7234" fill="#FFB444"/>
    <rect x="670.979" y="412.232" width="205.506" height="230.416" rx="1.7234" fill="#FFDF8B"/>
    <mask id="path-48-inside-3_1541_5519" fill="white">
    <rect x="682.655" y="422.352" width="182.931" height="209.398" rx="3.44681"/>
    </mask>
    <rect x="682.655" y="422.352" width="182.931" height="209.398" rx="3.44681" fill="white" stroke="#FFB444" stroke-width="24.1277" mask="url(#path-48-inside-3_1541_5519)"/>
    <path d="M854 578.048C786.78 548.984 719.325 565.938 694 578.048V620H854V578.048Z" fill="#30485F"/>
    <circle cx="774" cy="605" r="7" fill="#FFDF8B"/>
    <rect x="753" y="548" width="42" height="23" rx="1" fill="#FFD1B6"/>
    <g style="mix-blend-mode:soft-light">
    <ellipse cx="773.5" cy="524" rx="34.5" ry="40" fill="black"/>
    </g>
    <circle cx="806.5" cy="504.5" r="8.5" fill="#484848"/>
    <ellipse cx="738.5" cy="506" rx="8.5" ry="8" fill="#484848"/>
    <ellipse cx="773.5" cy="518" rx="34.5" ry="42" fill="#FFD1B6"/>
    <g style="mix-blend-mode:soft-light">
    <path d="M770 534L775.5 508L776 534H770Z" fill="black"/>
    </g>
    <ellipse cx="740.816" cy="519.656" rx="7.5" ry="10.6845" transform="rotate(-20.8832 740.816 519.656)" fill="#FFD1B6"/>
    <ellipse cx="7.5" cy="10.8703" rx="7.5" ry="10.8703" transform="matrix(-0.934309 -0.356464 -0.356464 0.934309 817.608 512.347)" fill="#FFD1B6"/>
    <path fill-rule="evenodd" clip-rule="evenodd" d="M734.792 506.876C735.787 506.278 735.85 504.839 735.188 503.885C734.435 502.798 734 501.518 734 500.149C734 496.201 737.615 493 742.075 493C745.128 493 747.786 494.5 749.158 496.713C749.859 497.843 750.676 498.939 751.575 499.919C752.473 500.898 753 502.086 753 503.367C753 505.403 751.668 507.206 749.625 508.308C748.387 508.977 747.193 509.817 746.575 511.081C746.483 511.269 746.395 511.452 746.31 511.629C746.071 512.127 745.924 512.663 745.866 513.213L745.589 515.831C745.476 516.902 744.696 517.783 743.646 518.025V518.025C742.065 518.39 740.568 517.169 740.158 515.599C739.737 513.988 738.925 512.508 737.47 512.383V512.383C736.592 512.307 734 510.182 734 509.3V507.992C734 507.595 734.208 507.227 734.549 507.022L734.792 506.876Z" fill="#484848"/>
    <path fill-rule="evenodd" clip-rule="evenodd" d="M793.792 507.876C794.787 507.278 794.85 505.839 794.188 504.885C793.435 503.798 793 502.518 793 501.149C793 497.201 796.615 494 801.075 494C804.128 494 806.786 495.5 808.158 497.713C808.859 498.843 809.676 499.939 810.575 500.919C811.473 501.898 812 503.086 812 504.367C812 506.403 810.668 508.206 808.625 509.308C807.387 509.977 806.193 510.817 805.575 512.081C805.483 512.269 805.395 512.452 805.31 512.629C805.071 513.127 804.924 513.663 804.866 514.213L804.589 516.831C804.476 517.902 803.696 518.783 802.646 519.025V519.025C801.065 519.39 799.568 518.169 799.158 516.599C798.737 514.988 797.925 513.508 796.47 513.383V513.383C795.592 513.307 793 511.182 793 510.3V508.992C793 508.595 793.208 508.227 793.549 508.022L793.792 507.876Z" fill="#484848"/>
    <path d="M760.98 537.517C766.386 540.528 778.16 544.946 786 536.455C781.935 544.049 772.037 554.478 760.98 537.517Z" fill="white"/>
    <rect x="768" y="565" width="10" height="10" fill="white"/>
    <path d="M738.364 559.146C738.75 558.45 739.512 558.05 740.304 558.126L767.289 560.738C768.827 560.886 770 562.179 770 563.724V575.5L734 567L738.364 559.146Z" fill="#30485F"/>
    <path d="M807.636 559.146C807.25 558.45 806.488 558.05 805.696 558.126L778.711 560.738C777.173 560.886 776 562.179 776 563.724V575.5L812 567L807.636 559.146Z" fill="#30485F"/>
    <rect x="958.469" y="405.226" width="219.518" height="244.427" rx="1.7234" fill="#FFB444"/>
    <rect x="965.474" y="412.232" width="205.506" height="230.416" rx="1.7234" fill="#FFDF8B"/>
    <mask id="path-67-inside-4_1541_5519" fill="white">
    <rect x="976" y="423" width="182.931" height="209.398" rx="3.44681"/>
    </mask>
    <rect x="976" y="423" width="182.931" height="209.398" rx="3.44681" fill="white" stroke="#FFB444" stroke-width="24.1277" mask="url(#path-67-inside-4_1541_5519)"/>
    <path d="M1148 578.324C1080.78 548.759 1013.32 566.006 988 578.324V621H1148V578.324Z" fill="#30485F"/>
    <circle cx="1068" cy="605" r="7" fill="#FFDF8B"/>
    <rect x="1047" y="548" width="42" height="23" rx="1" fill="#FFD6BD"/>
    <g style="mix-blend-mode:soft-light">
    <ellipse cx="1067.5" cy="524" rx="34.5" ry="40" fill="black" fill-opacity="0.4"/>
    </g>
    <circle cx="1045.5" cy="491.5" r="8.5" fill="#7C7C7C"/>
    <circle cx="1088.5" cy="491.5" r="8.5" fill="#7C7C7C"/>
    <circle cx="1100.5" cy="508.5" r="8.5" fill="#7C7C7C"/>
    <circle cx="1032.5" cy="508.5" r="8.5" fill="#7C7C7C"/>
    <ellipse cx="1067.5" cy="518" rx="34.5" ry="42" fill="#FFD6BD"/>
    <g style="mix-blend-mode:soft-light">
    <path fill-rule="evenodd" clip-rule="evenodd" d="M1068 525L1062 532H1068H1074L1068 525Z" fill="black"/>
    </g>
    <ellipse cx="1034.97" cy="522.443" rx="7.5" ry="10.6845" transform="rotate(-20.8832 1034.97 522.443)" fill="#FFD6BD"/>
    <ellipse cx="7.5" cy="10.8703" rx="7.5" ry="10.8703" transform="matrix(-0.934309 -0.356464 -0.356464 0.934309 1111.76 514.786)" fill="#FFD6BD"/>
    <path d="M1056.03 539.966C1062.5 541.5 1069.5 544 1080.03 538.943C1076.13 546.139 1067.48 555.606 1056.03 539.966Z" fill="#FF8D8D"/>
    <path fill-rule="evenodd" clip-rule="evenodd" d="M1086.5 502.188C1085.6 501.189 1084.09 500.548 1082.85 501.079C1078.58 502.913 1073.26 504 1067.5 504C1061.74 504 1056.42 502.913 1052.15 501.079C1050.91 500.548 1049.4 501.189 1048.5 502.188V502.188C1047.68 503.093 1046.89 504.062 1046.59 505.244C1045.89 508 1045.17 511.116 1044.67 513.372C1044.61 513.643 1044.58 513.917 1044.56 514.194L1044.19 521.715C1044.17 522.163 1044.21 522.612 1044.29 523.053C1044.49 524.071 1044.66 525.186 1044.78 526.375C1044.94 528.012 1045.91 529.449 1046.85 530.801C1047.57 531.851 1048 533.126 1048 534.5C1048 535.721 1048.89 537.037 1049.98 537.587C1050.07 537.635 1050.16 537.685 1050.25 537.737C1051.15 538.26 1052.33 538.403 1053.22 537.861C1054.95 536.809 1057.26 535.812 1059.82 535.074C1062.63 534.268 1065.23 533.922 1067.17 534.015C1067.45 534.028 1067.74 534.028 1068.02 534.015C1069.97 533.922 1072.56 534.268 1075.37 535.074C1077.6 535.714 1079.62 536.548 1081.25 537.445C1082.56 538.168 1084.68 537.464 1085.78 536.45C1086.66 535.642 1087.16 534.286 1087.03 533.099C1087.01 532.902 1087 532.702 1087 532.5C1087 530.681 1087.88 529.068 1089.24 528.067C1090.02 527.493 1090.42 526.127 1090.42 525.159V525.159V514.319C1090.42 513.959 1090.38 513.601 1090.3 513.249C1089.8 511.003 1089.1 507.95 1088.41 505.244C1088.11 504.062 1087.32 503.093 1086.5 502.188V502.188ZM1090.75 483.534C1092.02 485.14 1094.45 486 1096.5 486V486C1101.19 486 1105 490.477 1105 496C1105 498.462 1104.24 500.715 1102.99 502.458C1102.98 502.473 1102.98 502.493 1102.99 502.507C1103 502.515 1103 502.524 1103 502.533V510.777C1103 511.339 1099.9 513.677 1099.35 513.778C1097.22 514.166 1096.4 520.417 1096.17 525.161C1096.17 525.204 1096.17 525.246 1096.16 525.289C1096.06 526.462 1096.19 528.258 1096.9 529.2V529.2C1097.69 530.247 1099.19 531 1100.5 531C1103.54 531 1106 533.462 1106 536.5C1106 537.97 1105.42 539.306 1104.48 540.293C1104.17 540.617 1104 541.052 1104 541.5C1104 544.199 1102.06 546.444 1099.49 546.911C1099.21 546.962 1099 547.213 1099 547.5C1099 550.538 1096.54 553 1093.5 553C1092.76 553 1092 553.756 1092 554.5C1092 557.538 1089.54 560 1086.5 560C1085.97 560 1085.45 559.924 1084.96 559.782C1083.26 559.287 1081.27 559 1079.5 559C1078.1 559 1076.59 559.431 1075.41 560.171C1074.56 560.696 1073.57 561 1072.5 561H1065.5C1064.88 561 1064.28 560.896 1063.72 560.705C1062.39 560.25 1060.9 560 1059.5 560C1057.74 560 1055.64 560.524 1054.09 561.354C1053.32 561.766 1052.44 562 1051.5 562C1049.09 562 1047.04 560.447 1046.3 558.285C1046.04 557.546 1045.28 557 1044.5 557C1041.46 557 1039 554.538 1039 551.5C1039 551.227 1038.77 551 1038.5 551C1035.46 551 1033 548.538 1033 545.5C1033 544.877 1032.7 544.275 1032.2 543.9C1030.86 542.897 1030 541.299 1030 539.5C1030 537.398 1031.18 535.571 1032.91 534.645C1032.97 534.617 1033 534.561 1033 534.5C1033 533.279 1033.4 532.151 1034.07 531.238C1034.3 530.923 1034.55 530.607 1034.8 530.288C1035.93 528.833 1037.1 527.322 1037.31 525.546C1037.5 524.036 1037.75 522.661 1038.07 521.477C1038.27 520.733 1038.35 519.959 1038.22 519.2C1037.73 516.346 1036.93 514.01 1035.65 513.778C1035.1 513.677 1032 511.339 1032 510.777V502.533C1032 502.524 1032 502.515 1032.01 502.507C1032.02 502.493 1032.02 502.473 1032.01 502.458C1030.76 500.715 1030 498.462 1030 496C1030 490.477 1033.81 486 1038.5 486V486C1040.55 486 1042.98 485.14 1044.25 483.534C1048.25 478.502 1057.16 475 1067.5 475C1077.84 475 1086.75 478.502 1090.75 483.534ZM1084.51 542.813C1084.46 542.701 1084.32 542.654 1084.21 542.708C1082.48 543.545 1078.68 543.389 1074.39 542.157C1072.95 541.742 1071.59 541.245 1070.37 540.702C1068.62 539.924 1066.57 539.924 1064.82 540.702C1063.6 541.245 1062.24 541.742 1060.8 542.157C1058.09 542.935 1055.58 543.283 1053.66 543.225C1053.27 543.213 1052.92 543.494 1052.83 543.875C1052.73 544.252 1052.59 544.614 1052.42 544.956C1052.41 544.976 1052.43 545.001 1052.45 545L1052.5 545C1054.52 545 1056.28 546.087 1057.24 547.707C1057.7 548.482 1058.6 549 1059.5 549C1060.12 549 1060.72 549.104 1061.28 549.295C1062.61 549.75 1064.1 550 1065.5 550H1072.5C1073.9 550 1075.41 549.569 1076.59 548.829C1077.44 548.304 1078.43 548 1079.5 548C1079.79 548 1080.04 547.79 1080.09 547.508C1080.49 545.317 1082.19 543.579 1084.36 543.119C1084.49 543.09 1084.57 542.94 1084.51 542.813Z" fill="#7C7C7C"/>
    <path fill-rule="evenodd" clip-rule="evenodd" d="M1070.67 555.588C1068.87 556.399 1066.75 556.399 1064.95 555.588C1063.7 555.022 1062.29 554.504 1060.8 554.074C1055.11 552.439 1050.28 552.7 1050.01 554.656C1049.74 556.612 1054.13 559.522 1059.82 561.157C1062.68 561.978 1065.32 562.321 1067.28 562.211C1067.63 562.191 1067.99 562.191 1068.34 562.211C1070.3 562.321 1072.94 561.978 1075.8 561.157C1081.49 559.522 1085.88 556.612 1085.61 554.656C1085.34 552.7 1080.51 552.439 1074.82 554.074C1073.33 554.504 1071.92 555.022 1070.67 555.588Z" fill="#7C7C7C"/>
    <rect x="1062" y="567" width="10" height="8" fill="white"/>
    <path d="M1032.36 559.146C1032.75 558.45 1033.51 558.05 1034.3 558.126L1061.29 560.738C1062.83 560.886 1064 562.179 1064 563.724V575.5L1028 567L1032.36 559.146Z" fill="#30485F"/>
    <path d="M1101.64 559.146C1101.25 558.45 1100.49 558.05 1099.7 558.126L1072.71 560.738C1071.17 560.886 1070 562.179 1070 563.724V575.5L1106 567L1101.64 559.146Z" fill="#30485F"/>
    <rect x="74.9785" y="85.8196" width="219.518" height="244.427" rx="1.7234" fill="#FFB444"/>
    <rect x="81.9844" y="92.8255" width="205.506" height="230.416" rx="1.7234" fill="#FFDF8B"/>
    <mask id="path-88-inside-5_1541_5519" fill="white">
    <rect x="93.6611" y="102.945" width="182.931" height="209.398" rx="3.44681"/>
    </mask>
    <rect x="93.6611" y="102.945" width="182.931" height="209.398" rx="3.44681" fill="white" stroke="#FFB444" stroke-width="24.1277" mask="url(#path-88-inside-5_1541_5519)"/>
    <path d="M266 259.048C198.78 229.984 131.325 246.938 106 259.048V301H266V259.048Z" fill="#30485F"/>
    <circle cx="186" cy="286" r="7" fill="#FFDF8B"/>
    <rect x="165" y="229" width="42" height="23" rx="1" fill="#FFC09A"/>
    <g style="mix-blend-mode:soft-light">
    <ellipse cx="185.5" cy="205" rx="34.5" ry="40" fill="black"/>
    </g>
    <circle cx="163.5" cy="172.5" r="8.5" fill="#484848"/>
    <circle cx="206.5" cy="172.5" r="8.5" fill="#484848"/>
    <circle cx="218.5" cy="189.5" r="8.5" fill="#484848"/>
    <circle cx="150.5" cy="189.5" r="8.5" fill="#484848"/>
    <ellipse cx="185.5" cy="199" rx="34.5" ry="42" fill="#FFC09A"/>
    <g style="mix-blend-mode:soft-light">
    <path d="M181 216L186.5 200L187 216H181Z" fill="black"/>
    </g>
    <ellipse cx="152.971" cy="203.443" rx="7.5" ry="10.6845" transform="rotate(-20.8832 152.971 203.443)" fill="#FFC09A"/>
    <ellipse cx="7.5" cy="10.8703" rx="7.5" ry="10.8703" transform="matrix(-0.934309 -0.356464 -0.356464 0.934309 229.764 195.786)" fill="#FFC09A"/>
    <path fill-rule="evenodd" clip-rule="evenodd" d="M150.009 183.507C150.02 183.493 150.02 183.473 150.01 183.458C148.756 181.715 148 179.462 148 177C148 171.477 151.806 167 156.5 167C159.762 167 162.595 169.162 164.02 172.335C164.58 173.58 165.433 174.688 166.374 175.676C167.397 176.749 168 178.071 168 179.5C168 180.87 167.446 182.14 166.5 183.188C165.683 184.093 164.888 185.062 164.589 186.244C163.889 189 163.17 192.116 162.672 194.372C162.612 194.643 162.576 194.917 162.562 195.194L162.076 204.975C162.029 205.916 161.475 206.757 160.629 207.172V207.172C158.909 208.015 156.884 206.762 156.753 204.851C156.444 200.34 155.59 195.131 153.653 194.778V194.778C153.1 194.677 150 192.339 150 191.777V183.533C150 183.524 150.003 183.515 150.009 183.507V183.507Z" fill="#484848"/>
    <path fill-rule="evenodd" clip-rule="evenodd" d="M220.991 183.507C220.98 183.493 220.98 183.473 220.99 183.458C222.244 181.715 223 179.462 223 177C223 171.477 219.194 167 214.5 167C211.238 167 208.405 169.162 206.98 172.335C206.42 173.58 205.567 174.688 204.626 175.676C203.603 176.749 203 178.071 203 179.5C203 180.87 203.554 182.14 204.5 183.188C205.317 184.093 206.112 185.062 206.411 186.244C207.098 188.95 207.804 192.003 208.301 194.249C208.379 194.601 208.417 194.959 208.417 195.319V206.159C208.417 207.728 209.69 209 211.259 209V209C212.828 209 214.096 207.728 214.171 206.161C214.398 201.417 215.218 195.166 217.347 194.778V194.778C217.9 194.677 221 192.339 221 191.777V183.533C221 183.524 220.997 183.515 220.991 183.507V183.507Z" fill="#484848"/>
    <path d="M174.5 223C179.693 226.024 190.999 230.47 198.5 222C194.619 229.582 185.149 239.986 174.5 223Z" fill="white"/>
    <ellipse cx="10.715" cy="3.57483" rx="10.715" ry="3.57483" transform="matrix(0.961091 -0.276232 0.136489 0.990642 169 222.92)" fill="#484848"/>
    <ellipse cx="10.715" cy="3.57483" rx="10.715" ry="3.57483" transform="matrix(-0.961091 -0.276232 -0.136489 0.990642 205.572 222.92)" fill="#484848"/>
    <rect x="180" y="246" width="10" height="10" fill="white"/>
    <path d="M150.364 240.146C150.75 239.45 151.512 239.05 152.304 239.126L179.289 241.738C180.827 241.886 182 243.179 182 244.724V256.5L146 248L150.364 240.146Z" fill="#30485F"/>
    <path d="M219.636 240.146C219.25 239.45 218.488 239.05 217.696 239.126L190.711 241.738C189.173 241.886 188 243.179 188 244.724V256.5L224 248L219.636 240.146Z" fill="#30485F"/>
    <rect x="369.476" y="85.8196" width="219.518" height="244.427" rx="1.7234" fill="#FFB444"/>
    <rect x="376.481" y="92.8255" width="205.506" height="230.416" rx="1.7234" fill="#FFDF8B"/>
    <mask id="path-111-inside-6_1541_5519" fill="white">
        <rect x="388.158" y="102.945" width="182.931" height="209.398" rx="3.44681"/>
    </mask>
    <rect x="388.158" y="102.945" width="182.931" height="209.398" rx="3.44681" fill="white" stroke="#FFB444" stroke-width="24.1277" mask="url(#path-111-inside-6_1541_5519)"/>
    <path d="M559 259.048C491.78 229.984 424.325 246.938 399 259.048V301H559V259.048Z" fill="#30485F"/>
    <circle cx="479" cy="286" r="7" fill="#FFDF8B"/>
    <rect x="458" y="229" width="42" height="23" rx="1" fill="#B27956"/>
    
    <g style="mix-blend-mode: soft-light;">
        <ellipse cx="478.5" cy="205" rx="34.5" ry="40" fill="black" fill-opacity="0.4"/>
    </g>

    <circle cx="456.5" cy="172.5" r="8.5" fill="#484848" />
    <circle cx="499.5" cy="172.5" r="8.5" fill="#484848" />
    <circle cx="511.5" cy="189.5" r="8.5" fill="#484848" />
    <circle cx="443.5" cy="189.5" r="8.5" fill="#484848" />
    <ellipse cx="478.5" cy="199" rx="34.5" ry="42" fill="#B27956" />

    <g style="mix-blend-mode: soft-light;" opacity="0.6">
        <path fill-rule="evenodd" clip-rule="evenodd" d="M479 200L473 216H479H485L479 200Z" fill="black"/>
    </g>

    <ellipse cx="445.971" cy="203.443" rx="7.5" ry="10.6845" transform="rotate(-20.8832 445.971 203.443)" fill="#B27956"/>
    <ellipse cx="7.5" cy="10.8703" rx="7.5" ry="10.8703" transform="matrix(-0.934309 -0.356464 -0.356464 0.934309 522.764 195.786)" fill="#B27956"/>
    <path fill-rule="evenodd" clip-rule="evenodd" d="M497.5 183.188C496.598 182.189 495.089 181.548 493.852 182.079C489.581 183.913 484.264 185 478.5 185C472.736 185 467.419 183.913 463.148 182.079C461.911 181.548 460.402 182.189 459.5 183.188V183.188C458.683 184.093 457.888 185.062 457.589 186.244C456.889 189 456.17 192.116 455.672 194.372C455.612 194.643 455.576 194.917 455.562 195.194L455.076 204.975C455.029 205.916 454.475 206.757 453.629 207.172C451.909 208.015 449.884 206.762 449.753 204.851C449.444 200.34 448.59 195.131 446.653 194.778C446.1 194.677 443 192.339 443 191.777V183.533C443 183.524 443.003 183.515 443.009 183.507C443.02 183.493 443.02 183.473 443.01 183.458C441.756 181.715 441 179.462 441 177C441 171.477 444.806 167 449.5 167V167C451.551 167 453.975 166.14 455.252 164.534C459.252 159.502 468.157 156 478.5 156C488.843 156 497.748 159.502 501.748 164.534C503.025 166.14 505.449 167 507.5 167V167C512.194 167 516 171.477 516 177C516 179.462 515.244 181.715 513.99 183.458C513.979 183.473 513.98 183.493 513.991 183.507C513.997 183.515 514 183.524 514 183.533V191.777C514 192.339 510.9 194.677 510.347 194.778C508.218 195.166 507.398 201.417 507.171 206.161C507.096 207.728 505.828 209 504.259 209C502.69 209 501.417 207.728 501.417 206.159V195.319C501.417 194.959 501.379 194.601 501.301 194.249C500.804 192.003 500.098 188.95 499.411 186.244C499.112 185.062 498.317 184.093 497.5 183.188V183.188Z" fill="#484848"/>
    <path d="M467 220.455C472.193 223.479 483.499 227.925 491 219.455C487.119 227.037 480 235.5 467 220.455Z" fill="white"/>
    <path fill-rule="evenodd" clip-rule="evenodd" d="M481.665 236.588C479.866 237.399 477.754 237.399 475.955 236.588C474.7 236.022 473.293 235.504 471.798 235.074C466.11 233.439 461.281 233.7 461.012 235.656C460.742 237.612 465.134 240.522 470.822 242.157C473.68 242.978 476.321 243.321 478.276 243.211C478.632 243.191 478.988 243.191 479.344 243.211C481.299 243.321 483.94 242.978 486.798 242.157C492.486 240.522 496.878 237.612 496.608 235.656C496.339 233.7 491.51 233.439 485.822 235.074C484.327 235.504 482.92 236.022 481.665 236.588Z" fill="#484848"/>
    <rect x="473" y="246" width="10" height="10" fill="white"/>
    <path d="M443.364 240.146C443.75 239.45 444.512 239.05 445.304 239.126L472.289 241.738C473.827 241.886 475 243.179 475 244.724V256.5L439 248L443.364 240.146Z" fill="#30485F"/>
    <path d="M512.636 240.146C512.25 239.45 511.488 239.05 510.696 239.126L483.711 241.738C482.173 241.886 481 243.179 481 244.724V256.5L517 248L512.636 240.146Z" fill="#30485F"/>
    <rect x="663.973" y="85.8196" width="219.518" height="244.427" rx="1.7234" fill="#FFB444"/>
    <rect x="670.979" y="92.8255" width="205.506" height="230.416" rx="1.7234" fill="#FFDF8B"/>
    <mask id="path-132-inside-7_1541_5519" fill="white">
        <rect x="682.655" y="102.945" width="182.931" height="209.398" rx="3.44681"/>
    </mask>
    <rect x="682.655" y="102.945" width="182.931" height="209.398" rx="3.44681" fill="white" stroke="#FFB444" stroke-width="24.1277" mask="url(#path-132-inside-7_1541_5519)"/>
    <path d="M854 259.048C786.78 229.984 719.325 246.938 694 259.048V301H854V259.048Z" fill="#30485F"/>
    <circle cx="774" cy="286" r="7" fill="#FFDF8B"/>
    <rect x="753" y="229" width="42" height="23" rx="1" fill="#E8B494"/>
    <g style="mix-blend-mode:soft-light">
        <ellipse cx="773.5" cy="205" rx="34.5" ry="40" fill="black" fill-opacity="0.4"/>
    </g>
    <circle cx="751.5" cy="172.5" r="8.5" fill="#484848"/>
    <circle cx="794.5" cy="172.5" r="8.5" fill="#484848"/>
    <circle cx="806.5" cy="189.5" r="8.5" fill="#484848"/>
    <circle cx="738.5" cy="189.5" r="8.5" fill="#484848"/>
    <ellipse cx="773.5" cy="199" rx="34.5" ry="42" fill="#E8B494"/>
    <g style="mix-blend-mode:soft-light" opacity="0.6">
        <path fill-rule="evenodd" clip-rule="evenodd" d="M774 206L768 213H774H780L774 206Z" fill="black"/>
    </g>
    <ellipse cx="740.971" cy="203.443" rx="7.5" ry="10.6845" transform="rotate(-20.8832 740.971 203.443)" fill="#E8B494"/>
    <ellipse cx="7.5" cy="10.8703" rx="7.5" ry="10.8703" transform="matrix(-0.934309 -0.356464 -0.356464 0.934309 817.764 195.786)" fill="#E8B494"/>
    <path d="M762 220.455C767.193 223.479 778.499 227.925 786 219.455C782.119 227.037 773.5 237 762 220.455Z" fill="white"/>
    <path fill-rule="evenodd" clip-rule="evenodd" d="M792.5 183.188C791.598 182.189 790.089 181.548 788.852 182.079C784.581 183.913 779.264 185 773.5 185C767.736 185 762.419 183.913 758.148 182.079C756.911 181.548 755.402 182.189 754.5 183.188V183.188C753.683 184.093 752.888 185.062 752.589 186.244C751.889 189 751.17 192.116 750.672 194.372C750.612 194.643 750.576 194.917 750.562 195.194L750.188 202.715C750.166 203.163 750.207 203.612 750.294 204.053C750.739 206.311 751 209.049 751 212C751 213.291 750.95 214.542 750.857 215.729C750.761 216.948 752.277 218 753.5 218C754.19 218 754.918 218.042 755.662 218.084C757.769 218.204 759.994 218.331 761.781 217.536C763.007 216.99 764.372 216.491 765.822 216.074C768.628 215.268 771.226 214.922 773.169 215.015C773.454 215.028 773.738 215.028 774.023 215.015C775.967 214.922 778.564 215.268 781.37 216.074C783.595 216.714 785.622 217.548 787.249 218.445C788.561 219.168 790.676 218.464 791.779 217.45C792.657 216.642 793.161 215.286 793.032 214.099C793.011 213.902 793 213.702 793 213.5C793 211.681 793.883 210.068 795.244 209.067C796.023 208.493 796.417 207.127 796.417 206.159V206.159V195.319C796.417 194.959 796.379 194.601 796.301 194.249C795.804 192.003 795.098 188.95 794.411 186.244C794.112 185.062 793.317 184.093 792.5 183.188V183.188ZM796.748 164.534C798.025 166.14 800.449 167 802.5 167V167C807.194 167 811 171.477 811 177C811 179.462 810.244 181.715 808.99 183.458C808.979 183.473 808.98 183.493 808.991 183.507C808.997 183.515 809 183.524 809 183.533V191.777C809 192.339 805.9 194.677 805.347 194.778C803.218 195.166 802.398 201.417 802.171 206.161V206.161C802.112 207.394 802.257 209.299 802.976 210.303C803.069 210.433 803.157 210.568 803.239 210.707C803.697 211.482 804.6 212 805.5 212C808.538 212 811 214.462 811 217.5C811 218.97 810.423 220.306 809.483 221.293C809.174 221.617 809 222.052 809 222.5C809 224.788 807.603 226.75 805.615 227.579C805.246 227.732 805 228.1 805 228.5C805 231.538 802.538 234 799.5 234C798.756 234 798 234.756 798 235.5C798 238.538 795.538 241 792.5 241C791.966 241 791.449 240.924 790.961 240.782C789.261 240.287 787.27 240 785.5 240C784.102 240 782.592 240.431 781.405 241.171C780.562 241.696 779.567 242 778.5 242H771.5C770.876 242 770.277 241.896 769.718 241.705C768.39 241.25 766.903 241 765.5 241C763.74 241 761.641 241.524 760.089 242.354C759.317 242.766 758.436 243 757.5 243C755.087 243 753.038 241.447 752.296 239.285C752.043 238.546 751.282 238 750.5 238C747.462 238 745 235.538 745 232.5C745 231.268 744.2 229.857 743.12 229.265C741.261 228.246 740 226.27 740 224C740 221.733 739.584 218.855 739.118 216.636C739.04 216.27 739 215.89 739 215.5C739 214.279 739.398 213.151 740.071 212.238C740.304 211.923 740.549 211.607 740.797 211.288C741.926 209.833 743.1 208.322 743.315 206.546C743.498 205.036 743.754 203.661 744.068 202.477C744.265 201.733 744.353 200.959 744.223 200.2C743.733 197.346 742.928 195.01 741.653 194.778C741.1 194.677 738 192.339 738 191.777V183.533C738 183.524 738.003 183.515 738.009 183.507C738.02 183.493 738.02 183.473 738.01 183.458C736.756 181.715 736 179.462 736 177C736 171.477 739.806 167 744.5 167V167C746.551 167 748.975 166.14 750.252 164.534C754.252 159.502 763.157 156 773.5 156C783.843 156 792.748 159.502 796.748 164.534ZM790.509 223.813C790.457 223.701 790.32 223.654 790.208 223.708C788.482 224.545 784.682 224.389 780.394 223.157C778.951 222.742 777.591 222.245 776.37 221.702C774.617 220.924 772.575 220.924 770.823 221.702C769.601 222.245 768.241 222.742 766.798 223.157C764.092 223.935 761.58 224.283 759.661 224.225C759.268 224.213 758.925 224.494 758.827 224.875C758.73 225.252 758.593 225.614 758.423 225.956C758.412 225.976 758.427 226.001 758.45 226L758.5 226C760.518 226 762.282 227.087 763.239 228.707C763.697 229.482 764.6 230 765.5 230C766.124 230 766.723 230.104 767.282 230.295C768.61 230.75 770.097 231 771.5 231H778.5C779.898 231 781.408 230.569 782.595 229.829C783.438 229.304 784.433 229 785.5 229C785.787 229 786.038 228.79 786.089 228.508C786.488 226.317 788.186 224.579 790.355 224.119C790.492 224.09 790.567 223.94 790.509 223.813Z" fill="#484848"/>
    <path fill-rule="evenodd" clip-rule="evenodd" d="M776.665 236.588C774.866 237.399 772.754 237.399 770.955 236.588C769.7 236.022 768.293 235.504 766.798 235.074C761.11 233.439 756.281 233.7 756.012 235.656C755.742 237.612 760.134 240.522 765.822 242.157C768.68 242.978 771.321 243.321 773.276 243.211C773.632 243.191 773.988 243.191 774.344 243.211C776.299 243.321 778.94 242.978 781.798 242.157C787.486 240.522 791.878 237.612 791.608 235.656C791.339 233.7 786.51 233.439 780.822 235.074C779.327 235.504 777.92 236.022 776.665 236.588Z" fill="#484848"/>
    <rect x="768" y="246" width="10" height="10" fill="white"/>
    <path d="M738.364 240.146C738.75 239.45 739.512 239.05 740.304 239.126L767.289 241.738C768.827 241.886 770 243.179 770 244.724V256.5L734 248L738.364 240.146Z" fill="#30485F"/>
    <path d="M807.636 240.146C807.25 239.45 806.488 239.05 805.696 239.126L778.711 241.738C777.173 241.886 776 243.179 776 244.724V256.5L812 248L807.636 240.146Z" fill="#30485F"/>
    <rect x="958.469" y="85.8196" width="219.518" height="244.427" rx="1.7234" fill="#FFB444"/>
    <rect x="965.474" y="92.8255" width="205.506" height="230.416" rx="1.7234" fill="#FFDF8B"/>
    <mask id="path-153-inside-8_1541_5519" fill="white">
        <rect x="977.15" y="102.945" width="182.931" height="209.398" rx="3.44681"/>
    </mask>
    <rect x="977.15" y="102.945" width="182.931" height="209.398" rx="3.44681" fill="white" stroke="#FFB444" stroke-width="24.1277" mask="url(#path-153-inside-8_1541_5519)"/>
    <path d="M1148 259.048C1080.78 229.984 1014.32 246.438 989 258.548V300.5L1148 301V259.048Z" fill="#30485F"/>
    <circle cx="1068" cy="286" r="7" fill="#FFDF8B"/>
    <rect x="1047" y="229" width="42" height="23" rx="1" fill="#FFB98F"/>
    
    <g style="mix-blend-mode:soft-light">
        <ellipse cx="1067.5" cy="205" rx="34.5" ry="40" fill="black" fill-opacity="0.4"/>
    </g>

    <circle cx="1045.5" cy="172.5" r="8.5" fill="#484848"/>
    <circle cx="1088.5" cy="172.5" r="8.5" fill="#484848"/>
    <circle cx="1100.5" cy="189.5" r="8.5" fill="#484848"/>
    <circle cx="1032.5" cy="189.5" r="8.5" fill="#484848"/>
    <ellipse cx="1067.5" cy="199" rx="34.5" ry="42" fill="#FFB98F"/>

    <g style="mix-blend-mode:soft-light" opacity="0.6">
        <path fill-rule="evenodd" clip-rule="evenodd" d="M1068 200L1062 216H1068H1074L1068 200Z" fill="black"/>
    </g>
    
    <ellipse cx="1034.97" cy="203.443" rx="7.5" ry="10.6845" transform="rotate(-20.8832 1034.97 203.443)" fill="#FFB98F"/>
    <ellipse cx="7.5" cy="10.8703" rx="7.5" ry="10.8703" transform="matrix(-0.934309 -0.356464 -0.356464 0.934309 1111.76 195.786)" fill="#FFB98F"/>
    <path fill-rule="evenodd" clip-rule="evenodd" d="M1086.5 183.188C1085.6 182.189 1084.09 181.548 1082.85 182.079C1078.58 183.913 1073.26 185 1067.5 185C1061.74 185 1056.42 183.913 1052.15 182.079C1050.91 181.548 1049.4 182.189 1048.5 183.188V183.188C1047.68 184.093 1046.89 185.062 1046.59 186.244C1045.89 189 1045.17 192.116 1044.67 194.372C1044.61 194.643 1044.58 194.917 1044.56 195.194L1044.08 204.975C1044.03 205.916 1043.48 206.757 1042.63 207.172C1040.91 208.015 1038.88 206.762 1038.75 204.851C1038.44 200.34 1037.59 195.131 1035.65 194.778C1035.1 194.677 1032 192.339 1032 191.777V183.533C1032 183.524 1032 183.515 1032.01 183.507C1032.02 183.493 1032.02 183.473 1032.01 183.458C1030.76 181.715 1030 179.462 1030 177C1030 171.477 1033.81 167 1038.5 167V167C1040.55 167 1042.98 166.14 1044.25 164.534C1048.25 159.502 1057.16 156 1067.5 156C1077.84 156 1086.75 159.502 1090.75 164.534C1092.02 166.14 1094.45 167 1096.5 167V167C1101.19 167 1105 171.477 1105 177C1105 179.462 1104.24 181.715 1102.99 183.458C1102.98 183.473 1102.98 183.493 1102.99 183.507C1103 183.515 1103 183.524 1103 183.533V191.777C1103 192.339 1099.9 194.677 1099.35 194.778C1097.22 195.166 1096.4 201.417 1096.17 206.161C1096.1 207.728 1094.83 209 1093.26 209C1091.69 209 1090.42 207.728 1090.42 206.159V195.319C1090.42 194.959 1090.38 194.601 1090.3 194.249C1089.8 192.003 1089.1 188.95 1088.41 186.244C1088.11 185.062 1087.32 184.093 1086.5 183.188V183.188Z" fill="#484848"/>
    <path d="M1056 220.455C1061.19 223.479 1072.5 227.925 1080 219.455C1076.12 227.037 1069 235.5 1056 220.455Z" fill="white"/>
    <path fill-rule="evenodd" clip-rule="evenodd" d="M1068.82 217.906C1068.46 217.926 1068.11 217.926 1067.75 217.906C1065.8 217.796 1063.16 218.138 1060.3 218.96C1054.61 220.595 1050.22 223.505 1050.49 225.461C1050.76 227.417 1055.59 227.677 1061.27 226.043C1062.77 225.613 1064.18 225.095 1065.43 224.529C1067.23 223.718 1069.34 223.718 1071.14 224.529C1072.4 225.095 1073.8 225.613 1075.3 226.043C1080.99 227.677 1085.81 227.417 1086.08 225.461C1086.35 223.505 1081.96 220.595 1076.27 218.96C1073.42 218.138 1070.78 217.796 1068.82 217.906ZM1060.8 235.074C1062.29 235.504 1063.7 236.022 1064.95 236.588C1066.75 237.399 1068.87 237.399 1070.67 236.588C1071.92 236.022 1073.33 235.504 1074.82 235.074C1080.51 233.439 1085.34 233.7 1085.61 235.656C1085.88 237.612 1081.49 240.522 1075.8 242.157C1072.94 242.978 1070.3 243.321 1068.34 243.211C1067.99 243.191 1067.63 243.191 1067.28 243.211C1065.32 243.321 1062.68 242.978 1059.82 242.157C1054.13 240.522 1049.74 237.612 1050.01 235.656C1050.28 233.7 1055.11 233.439 1060.8 235.074Z" fill="#484848"/>
    <rect x="1062" y="246" width="10" height="10" fill="white"/>
    <path d="M1032.36 240.146C1032.75 239.45 1033.51 239.05 1034.3 239.126L1061.29 241.738C1062.83 241.886 1064 243.179 1064 244.724V256.5L1028 248L1032.36 240.146Z" fill="#30485F"/>
    <path d="M1101.64 240.146C1101.25 239.45 1100.49 239.05 1099.7 239.126L1072.71 241.738C1071.17 241.886 1070 243.179 1070 244.724V256.5L1106 248L1101.64 240.146Z" fill="#30485F"/>
    
    
    <g class="camera">
        <g class="down" style="transform: translateY(-2px)">
            <path d="M429 575C429 587.15 438.85 597 451 597H805C817.15 597 827 587.15 827 575V562H429V575Z" fill="#3D454E"/>
            <path d="M446 562C446 567.523 450.477 572 456 572H802C807.523 572 812 567.523 812 562V562H446V562Z" fill="#191F26"/>
        </g>
    </g>
    
    <g class="picture-container camera">
        <g class="picture">
            <rect x="444.917" y="510.917" width="346.167" height="333.167" rx="3.83302" fill="white" stroke="#EEEEEE" stroke-width="3.83302"/>
            <rect x="480" y="578" width="278" height="227" fill="#EDEDED"/>
            <rect x="480" y="578" width="278" height="160" fill="#C9E5FF"/>
            <rect x="480.246" y="716.493" width="277.656" height="21.3419" fill="#0478E0"/>
            <rect x="710.992" y="715.648" width="39.0917" height="10.354" rx="1.59709" fill="white"/>
            <rect x="485.316" y="715.437" width="35.4994" height="10.354" rx="1.59709" fill="white"/>
            <rect x="489.12" y="717.127" width="5.70527" height="2.53567" rx="0.638837" fill="#0478E0"/>
            <rect x="496.517" y="717.127" width="5.70527" height="2.53567" rx="0.638837" fill="#0478E0"/>
            <rect x="503.912" y="717.127" width="5.70527" height="2.53567" rx="0.638837" fill="#0478E0"/>
            <rect x="511.308" y="717.127" width="5.70527" height="2.53567" rx="0.638837" fill="#0478E0"/>
            <rect x="489.12" y="721.564" width="5.70527" height="2.53567" rx="0.638837" fill="#0478E0"/>
            <rect x="496.517" y="721.564" width="5.70527" height="2.53567" rx="0.638837" fill="#0478E0"/>
            <rect x="503.912" y="721.564" width="5.70527" height="2.53567" rx="0.638837" fill="#0478E0"/>
            <rect x="511.308" y="721.564" width="5.70527" height="2.53567" rx="0.638837" fill="#0478E0"/>
            <rect x="530.114" y="715.437" width="35.4994" height="10.354" rx="1.59709" fill="white"/>
            <rect x="533.918" y="717.127" width="5.70527" height="2.53567" rx="0.638837" fill="#0478E0"/>
            <rect x="541.314" y="717.127" width="5.70527" height="2.53567" rx="0.638837" fill="#0478E0"/>
            <rect x="548.71" y="717.127" width="5.70527" height="2.53567" rx="0.638837" fill="#0478E0"/>
            <rect x="556.105" y="717.127" width="5.70527" height="2.53567" rx="0.638837" fill="#0478E0"/>
            <rect x="533.918" y="721.565" width="5.70527" height="2.53567" rx="0.638837" fill="#0478E0"/>
            <rect x="541.314" y="721.565" width="5.70527" height="2.53567" rx="0.638837" fill="#0478E0"/>
            <rect x="548.71" y="721.565" width="5.70527" height="2.53567" rx="0.638837" fill="#0478E0"/>
            <rect x="556.105" y="721.565" width="5.70527" height="2.53567" rx="0.638837" fill="#0478E0"/>
            <rect x="576.18" y="715.437" width="35.4994" height="10.354" rx="1.59709" fill="white"/>
            <rect x="579.983" y="717.127" width="5.70527" height="2.53567" rx="0.638837" fill="#0478E0"/>
            <rect x="587.379" y="717.127" width="5.70527" height="2.53567" rx="0.638837" fill="#0478E0"/>
            <rect x="594.775" y="717.127" width="5.70527" height="2.53567" rx="0.638837" fill="#0478E0"/>
            <rect x="602.17" y="717.127" width="5.70527" height="2.53567" rx="0.638837" fill="#0478E0"/>
            <rect x="579.983" y="721.565" width="5.70527" height="2.53567" rx="0.638837" fill="#0478E0"/>
            <rect x="587.379" y="721.565" width="5.70527" height="2.53567" rx="0.638837" fill="#0478E0"/>
            <rect x="594.775" y="721.565" width="5.70527" height="2.53567" rx="0.638837" fill="#0478E0"/>
            <rect x="602.17" y="721.565" width="5.70527" height="2.53567" rx="0.638837" fill="#0478E0"/>
            <path d="M488.064 733.413C488.064 732.354 488.923 731.496 489.981 731.496H518.9C519.959 731.496 520.817 732.354 520.817 733.413V751.57H488.064V733.413Z" fill="white"/>
            <path d="M528.635 733.413C528.635 732.354 529.493 731.496 530.551 731.496H564.965C566.023 731.496 566.881 732.354 566.881 733.413V751.57H528.635V733.413Z" fill="white"/>
            <path d="M574.699 733.413C574.699 732.354 575.557 731.496 576.616 731.496H608.282C609.341 731.496 610.199 732.354 610.199 733.413V751.57H574.699V733.413Z" fill="white"/>
            <path d="M710.992 733.413C710.992 732.354 711.85 731.496 712.909 731.496H748.167C749.226 731.496 750.084 732.354 750.084 733.413V751.57H710.992V733.413Z" fill="white"/>
            <path d="M710.992 733.413C710.992 732.354 711.85 731.496 712.909 731.496H748.167C749.226 731.496 750.084 732.354 750.084 733.413V751.57H710.992V733.413Z" fill="white"/>
            <rect x="480.246" y="751.57" width="277.656" height="20.2854" fill="#8BC8FF"/>
            <path d="M474.752 693.687C474.752 692.629 475.61 691.771 476.668 691.771H759.367C760.425 691.771 761.283 692.629 761.283 693.687V714.577C761.283 715.635 760.425 716.493 759.367 716.493H476.668C475.61 716.493 474.752 715.635 474.752 714.577V693.687Z" fill="#8BC8FF"/>
            <rect x="520.816" y="725.791" width="7.81833" height="46.0648" fill="#0478E0"/>
            <rect x="480.246" y="725.791" width="7.81833" height="46.0648" fill="#0478E0"/>
            <rect x="566.882" y="725.791" width="7.81833" height="46.0648" fill="#0478E0"/>
            <rect x="610.2" y="725.791" width="7.81833" height="46.0648" fill="#0478E0"/>
            <rect x="703.174" y="725.791" width="7.81833" height="46.0648" fill="#0478E0"/>
            <rect x="750.084" y="729.594" width="7.81833" height="42.2612" fill="#0478E0"/>
            <rect x="712.894" y="717.55" width="5.70527" height="2.53567" rx="0.638837" fill="#0478E0"/>
            <rect x="720.29" y="717.55" width="5.70527" height="2.53567" rx="0.638837" fill="#0478E0"/>
            <rect x="727.686" y="717.55" width="5.70527" height="2.53567" rx="0.638837" fill="#0478E0"/>
            <rect x="735.081" y="717.55" width="5.70527" height="2.53567" rx="0.638837" fill="#0478E0"/>
            <rect x="742.478" y="717.55" width="5.70527" height="2.53567" rx="0.638837" fill="#0478E0"/>
            <rect x="712.894" y="721.987" width="5.70527" height="2.53567" rx="0.638837" fill="#0478E0"/>
            <rect x="720.29" y="721.987" width="5.70527" height="2.53567" rx="0.638837" fill="#0478E0"/>
            <rect x="727.686" y="721.987" width="5.70527" height="2.53567" rx="0.638837" fill="#0478E0"/>
            <rect x="735.081" y="721.987" width="5.70527" height="2.53567" rx="0.638837" fill="#0478E0"/>
            <rect x="742.478" y="721.987" width="5.70527" height="2.53567" rx="0.638837" fill="#0478E0"/>
            <rect x="490.388" y="733.398" width="28.315" height="7.39572" rx="1.91651" fill="#343B42"/>
            <rect x="531.382" y="733.398" width="32.9638" height="7.39572" rx="1.91651" fill="#343B42"/>
            <rect x="577.023" y="733.398" width="31.062" height="7.39572" rx="1.91651" fill="#343B42"/>
            <rect x="713.105" y="733.609" width="34.8655" height="7.39572" rx="1.91651" fill="#343B42"/>
            <rect x="490.388" y="743.118" width="28.315" height="6.55049" rx="1.91651" fill="#343B42"/>
            <rect x="531.382" y="743.118" width="32.9638" height="6.55049" rx="1.91651" fill="#343B42"/>
            <rect x="577.023" y="743.118" width="31.062" height="6.55049" rx="1.91651" fill="#343B42"/>
            <rect x="713.105" y="743.329" width="34.8655" height="6.55049" rx="1.91651" fill="#343B42"/>
            <path fill-rule="evenodd" clip-rule="evenodd" d="M618.018 771.856L627.714 761.079H660.596V771.856H618.018ZM703.174 771.856L693.478 761.079H660.596V771.856H703.174Z" fill="#343B42"/>
            <path d="M627.737 737.835V761.079L618.017 771.961L617.806 737.835H627.737Z" fill="#BDE0FF"/>
            <path d="M693.242 737.835V761.079L702.963 771.961L703.174 737.835H693.242Z" fill="#BDE0FF"/>
            <rect x="654.996" y="737.835" width="7.60702" height="23.2437" fill="#004583"/>
            <rect x="627.737" y="737.835" width="27.2585" height="23.2437" fill="#F3F3F3"/>
            <rect x="662.604" y="737.835" width="30.6394" height="23.2437" fill="#F3F3F3"/>
            <rect x="644.062" y="777.875" width="38.1987" height="15.8947" rx="1.36884" fill="#9EA3A8"/>
            <rect x="670.814" y="783.269" width="7.36272" height="2.40564" fill="#777F86"/>
            <rect x="655.433" y="783.269" width="7.36272" height="2.40564" fill="#777F86"/>
            <rect x="678.47" y="783.269" width="3.79071" height="2.40564" fill="#777F86"/>
            <rect x="663.087" y="783.269" width="7.43562" height="2.40564" fill="#777F86"/>
            <rect x="647.706" y="783.269" width="7.43562" height="2.40564" fill="#777F86"/>
            <rect x="644.062" y="783.269" width="3.35332" height="2.40564" fill="#777F86"/>
            <rect x="670.815" y="788.664" width="7.36272" height="2.40564" fill="#777F86"/>
            <rect x="655.435" y="788.664" width="7.36272" height="2.40564" fill="#777F86"/>
            <rect x="678.47" y="788.664" width="3.79071" height="2.40564" fill="#777F86"/>
            <rect x="663.089" y="788.664" width="7.43562" height="2.40564" fill="#777F86"/>
            <rect x="647.707" y="788.664" width="7.43562" height="2.40564" fill="#777F86"/>
            <rect x="644.062" y="788.664" width="3.35332" height="2.40564" fill="#777F86"/>
            <rect x="670.815" y="777.875" width="7.36272" height="2.40564" fill="#777F86"/>
            <rect x="655.435" y="777.875" width="7.36272" height="2.40564" fill="#777F86"/>
            <path d="M678.47 777.875H680.892C681.648 777.875 682.26 778.487 682.26 779.243V780.28H678.47V777.875Z" fill="#777F86"/>
            <rect x="663.089" y="777.875" width="7.43562" height="2.40564" fill="#777F86"/>
            <rect x="647.707" y="777.875" width="7.43562" height="2.40564" fill="#777F86"/>
            <path d="M644.062 779.243C644.062 778.487 644.674 777.875 645.43 777.875H647.415V780.28H644.062V779.243Z" fill="#777F86"/>
            <rect x="667.17" y="780.572" width="7.36272" height="2.40564" fill="#777F86"/>
            <rect x="651.789" y="780.572" width="7.36272" height="2.40564" fill="#777F86"/>
            <rect x="674.824" y="780.572" width="7.43562" height="2.40564" fill="#777F86"/>
            <rect x="659.442" y="780.572" width="7.43562" height="2.40564" fill="#777F86"/>
            <rect x="644.062" y="780.572" width="7.43562" height="2.40564" fill="#777F86"/>
            <rect x="667.17" y="791.361" width="7.36272" height="2.40564" fill="#777F86"/>
            <rect x="651.789" y="791.361" width="7.36272" height="2.40564" fill="#777F86"/>
            <path d="M674.824 791.361H682.26V792.398C682.26 793.154 681.647 793.767 680.891 793.767H674.824V791.361Z" fill="#777F86"/>
            <rect x="659.442" y="791.361" width="7.43562" height="2.40564" fill="#777F86"/>
            <path d="M644.062 791.361H651.497V793.767H645.43C644.674 793.767 644.062 793.154 644.062 792.398V791.361Z" fill="#777F86"/>
            <rect x="667.17" y="785.966" width="7.36272" height="2.40564" fill="#777F86"/>
            <rect x="651.789" y="785.966" width="7.36272" height="2.40564" fill="#777F86"/>
            <rect x="674.824" y="785.966" width="7.43562" height="2.40564" fill="#777F86"/>
            <rect x="659.442" y="785.966" width="7.43562" height="2.40564" fill="#777F86"/>
            <rect x="644.062" y="785.966" width="7.43562" height="2.40564" fill="#777F86"/>
            <rect x="641.472" y="777.718" width="43.2665" height="1.99385" rx="0.47692" fill="#656B71"/>
            <rect x="642.269" y="793.27" width="41.8708" height="1.19631" rx="0.47692" fill="#525961"/>
            <path fill-rule="evenodd" clip-rule="evenodd" d="M660.557 776.155L660.572 774.856L658.898 774.012L658.655 777.726H664.454C663.468 776.614 660.557 776.155 660.557 776.155ZM653.128 776.206L653.143 774.747L652.052 775.636L651.174 776.125L650.884 777.726H654.853C654.354 776.366 653.128 776.206 653.128 776.206Z" fill="#402308"/>
            <path d="M658.898 774.353L660.571 774.856L660.556 776.155L658.763 776.074L658.898 774.353Z" fill="#C98648"/>
            <path d="M651.47 774.243L653.144 774.747L653.129 776.206L651.175 776.125L651.47 774.243Z" fill="#C98648"/>
            <path d="M660.811 774.43L660.773 775.636H658.565L658.604 774.427C658.356 774.327 658.18 774.089 658.173 773.806L657.818 755.748L653.978 773.98C653.924 774.236 653.734 774.435 653.493 774.509L653.348 775.636H651.033L651.233 774.391C651.04 774.242 650.928 773.996 650.967 773.733L654.502 749.57L657.697 749.57L657.696 749.56H661.566L661.334 773.773C661.331 774.091 661.109 774.357 660.811 774.43V774.43Z" fill="#603711"/>
            <path opacity="0.197824" fill-rule="evenodd" clip-rule="evenodd" d="M657.798 756.034L658.475 753.029L657.966 762.141L657.798 756.034Z" fill="black"/>
            <path opacity="0.197824" fill-rule="evenodd" clip-rule="evenodd" d="M655.753 749.674L655.197 749.093L662.118 748.987L661.587 749.674V750.081L655.753 749.674Z" fill="black"/>
            <path d="M664.906 735.7C664.906 738.839 662.161 741.383 658.774 741.383C655.387 741.383 652.642 738.839 652.642 735.7C652.642 732.562 655.387 730.017 658.774 730.017C662.161 730.017 664.906 732.562 664.906 735.7ZM653.082 735.7C653.082 738.614 655.63 740.976 658.774 740.976C661.918 740.976 664.466 738.614 664.466 735.7C664.466 732.787 661.918 730.425 658.774 730.425C655.63 730.425 653.082 732.787 653.082 735.7Z" fill="#6A421D"/>
            <path d="M659.362 739.521C659.389 739.362 659.079 739.388 658.91 739.362H658.751L658.91 739.601C659.043 739.601 659.349 739.597 659.362 739.521Z" fill="#B07239"/>
            <path d="M656.291 739.538C656.264 739.379 656.363 739.323 656.798 739.305H657.188L656.798 739.544C656.665 739.544 656.304 739.614 656.291 739.538Z" fill="#B07239"/>
            <path fill-rule="evenodd" clip-rule="evenodd" d="M661.784 735.085C661.784 735.846 661.295 736.464 660.691 736.464C660.086 736.464 659.597 735.846 659.597 735.085C659.597 734.323 660.086 733.706 660.691 733.706C661.295 733.706 661.784 734.323 661.784 735.085" fill="#855324"/>
            <path d="M658.962 740.554L658.91 738.964C658.91 738.964 660.837 739.124 661.248 738.91C661.248 738.91 661.75 736.317 661.151 734.881L661.139 734.825L657.086 734.35L656.859 736.681C656.722 736.277 655.596 735.82 655.301 736.398C654.663 737.65 656.945 738.493 656.945 738.493L656.713 740.573" fill="#C98648"/>
            <path fill-rule="evenodd" clip-rule="evenodd" d="M659.95 736.651L660.398 737.748L659.861 737.755L659.95 736.651Z" fill="#B07239"/>
            <path fill-rule="evenodd" clip-rule="evenodd" d="M659.473 736.694C659.5 736.841 659.402 736.983 659.255 737.009C659.108 737.036 658.967 736.938 658.94 736.79C658.913 736.643 659.011 736.501 659.158 736.475C659.306 736.448 659.447 736.546 659.473 736.694" fill="#855324"/>
            <path fill-rule="evenodd" clip-rule="evenodd" d="M660.977 736.694C661.004 736.841 660.906 736.983 660.759 737.009C660.611 737.036 660.47 736.938 660.444 736.79C660.417 736.643 660.515 736.501 660.662 736.475C660.81 736.448 660.951 736.546 660.977 736.694" fill="#855324"/>
            <path d="M657.159 737.079C656.775 736.42 656.219 736.219 655.969 736.16C655.87 735.871 655.794 735.537 655.741 735.181C655.598 734.23 656.288 733.361 656.846 733.112C657.411 732.86 658.384 732.51 659.809 732.985C660.767 733.304 661.379 732.539 661.943 732.866C662.906 733.424 662.01 735.868 659.568 735.247C657.821 734.803 657.776 734.914 657.761 735.237C657.712 736.28 657.55 736.894 657.159 737.079V737.079Z" fill="#855324"/>
            <path d="M659.206 737.796C659.206 737.796 659.378 738.109 659.75 738.102" stroke="#B07239" stroke-width="0.508338"/>
            <path opacity="0.398926" fill-rule="evenodd" clip-rule="evenodd" d="M658.909 738.946L657.628 738.643L658.931 739.592L658.909 738.946Z" fill="#8B5523"/>
            <path d="M666.777 746.637L667.201 746.46C667.201 746.46 667.502 746.355 667.84 746.28C668.179 746.205 668.643 746.296 669.132 745.856C669.622 745.416 669.426 746.125 669.198 746.347C669.008 746.532 668.51 746.645 668.381 746.835C668.478 746.924 668.581 746.969 668.581 746.969L670.599 747.642C670.666 747.663 670.708 747.731 670.697 747.8L670.684 747.879C670.671 747.962 670.59 748.015 670.509 747.993C670.075 747.876 668.786 747.493 668.782 747.517L668.755 747.563L670.776 748.476C670.842 748.503 670.877 748.576 670.859 748.645L670.829 748.753C670.808 748.831 670.726 748.875 670.65 748.849C670.18 748.691 668.631 748.025 668.627 748.049L668.601 748.107L670.253 749.037C670.323 749.066 670.357 749.145 670.332 749.216L670.302 749.3C670.276 749.374 670.195 749.412 670.121 749.385L668.488 748.532L668.444 748.589L669.601 749.421C669.664 749.455 669.69 749.532 669.664 749.598L669.647 749.639C669.618 749.71 669.538 749.744 669.466 749.717C669.22 749.622 668.726 749.232 668.195 748.976C667.784 748.777 667.442 748.729 666.951 748.422C666.742 748.292 666.61 748.158 666.476 748.032L666.777 746.637Z" fill="#C98648"/>
            <path d="M650.14 747.431C650.108 746.229 651.549 744.066 651.549 744.066L654.072 745.189L653.034 747.399L655.888 751.377L654.713 752.333C654.713 752.333 650.179 748.849 650.14 747.431Z" fill="#C98648"/>
            <path d="M655.449 749.675L656.151 750.616L654.036 752.458C654.036 752.458 650.156 749.616 650.037 747.388C649.96 745.968 651.203 743.942 651.203 743.942C651.203 743.942 652.762 741.451 654.565 740.611C654.935 740.438 655.832 740.294 656.375 740.235C656.542 740.217 656.443 740.281 656.5 740.391C656.56 740.506 656.741 740.676 656.867 740.803C657.129 741.068 657.646 741.268 657.923 741.309C658.134 741.34 658.543 741.389 658.739 741.362C658.936 741.336 659.149 741.247 659.207 741.195C659.264 741.142 659.349 741.076 659.393 740.975C659.437 740.873 659.434 740.902 659.434 740.809C659.434 740.715 659.43 740.729 659.42 740.684C659.411 740.64 659.411 740.613 659.406 740.59C659.382 740.488 659.393 740.502 659.393 740.502C660.457 740.823 661.461 741.061 661.849 741.528L663.875 744.845L666.941 746.047L666.511 748.449C666.511 748.449 664.796 748.329 663.409 747.822C662.674 747.553 661.917 746.71 661.777 746.029L662.364 749.001C662.455 749.502 662.016 749.692 661.625 749.674L655.449 749.675Z" fill="#855324"/>
            <path opacity="0.2" d="M661.58 744.492V743.68C662.692 746.853 664.066 747.708 664.897 748.198C664.108 748.098 663.194 747.75 663.05 747.642C662.39 747.213 662.091 746.814 661.903 746.399C661.635 745.807 661.58 745.141 661.58 744.492Z" fill="black"/>
            <path opacity="0.200591" d="M655.75 750.803C655.858 750.942 656.057 750.967 656.196 750.86C656.335 750.752 656.36 750.552 656.252 750.414L655.75 750.803ZM653.315 747.147L653.05 746.973L652.926 747.163L653.064 747.342L653.315 747.147ZM656.252 750.414L653.566 746.952L653.064 747.342L655.75 750.803L656.252 750.414ZM653.581 747.321L655.723 744.046L655.191 743.699L653.05 746.973L653.581 747.321Z" fill="black"/>
            <circle cx="658.682" cy="743.151" r="0.359943" fill="#6A421D"/>
            <circle cx="658.662" cy="745.292" r="0.359943" fill="#6A421D"/>
            <circle cx="658.682" cy="747.425" r="0.359943" fill="#6A421D"/>
            <path d="M659.358 739.467C659.204 739.793 657.636 739.424 656.453 739.393C656.368 739.391 656.295 739.454 656.284 739.539L656.118 740.746C657.393 741.543 659.246 741.531 659.592 740.973L659.358 739.467Z" fill="#D09865"/>
            <path d="M658.668 740.082C658.51 740.405 658.613 740.85 658.654 741.263C658.668 741.403 658.784 741.518 658.919 741.482C659.185 741.412 659.434 741.25 659.6 741.124C659.667 741.074 659.7 740.993 659.693 740.91C659.659 740.537 659.59 739.937 659.512 739.759C659.403 739.508 658.832 739.749 658.668 740.082Z" fill="#855324"/>
            <path d="M658.363 740.528L658.375 741.274C658.376 741.347 658.394 741.431 658.342 741.481C658.259 741.561 658.051 741.615 657.849 741.63C657.588 741.65 656.478 741.142 655.977 740.689C655.923 740.64 655.862 740.591 655.843 740.521C655.783 740.308 655.877 739.814 656.282 739.585C656.638 739.384 657.326 739.565 657.855 739.767C658.167 739.887 658.357 740.194 658.363 740.528Z" fill="#855324"/>
            <path d="M672.635 744.877C674.013 740.458 668.462 741.45 668.368 743.27L668.588 743.567L669.491 743.098L670.163 742.952L670.829 743.428L670.975 743.632L670.939 743.923L671.323 745.468C671.76 745.541 672.635 745.525 672.635 744.877Z" fill="#855324"/>
            <path d="M669.664 748.667L669.701 747.39C669.701 747.39 668.146 747.513 667.814 747.341C667.814 747.341 667.132 745.033 667.829 744.158L668.502 742.824H671.108L670.958 744.048L671.401 745.497C671.512 745.171 672.388 744.85 672.627 745.316C673.143 746.325 671.296 747.005 671.296 747.005L671.484 748.682" fill="#C98648"/>
            <path opacity="0.2" d="M667.856 747.337C667.756 747.208 667.641 746.745 667.605 746.351C667.3 748.233 667.413 747.441 668.627 748.018C671.227 749.255 670.145 747.887 670.008 747.337C669.35 747.409 667.956 747.466 667.856 747.337Z" fill="black"/>
            <path d="M668.587 745.978L668.915 745.49L668.945 745.978H668.587Z" fill="#B07239"/>
            <circle cx="668.15" cy="745.207" r="0.328176" fill="#855324"/>
            <circle cx="669.899" cy="745.207" r="0.328176" fill="#855324"/>
            <path fill-rule="evenodd" clip-rule="evenodd" d="M669.701 747.39L670.579 747.202L669.706 747.791L669.701 747.39Z" fill="#B07239"/>
            <path d="M669.694 746.239C669.369 746.548 668.978 746.646 668.554 746.239" stroke="#B07239" stroke-width="0.297844" stroke-linecap="round"/>
            
            <path d="M666.563 743.948C666.563 745.442 669.296 744.16 670.929 744.216L671.417 744.967C671.254 744.716 671.075 744.216 671.661 744.216C672.393 744.216 671.361 742.63 670.929 742.16C670.497 741.691 666.563 741.097 666.563 743.948Z" fill="#855324"/>
            <path fill-rule="evenodd" clip-rule="evenodd" d="M668.552 776.708L668.54 775.694L669.849 775.036L670.039 777.933H665.504C666.276 777.066 668.552 776.708 668.552 776.708ZM674.236 776.747L674.224 775.609L675.559 775.546L675.681 776.684L675.991 777.933H672.887C673.278 776.872 674.236 776.747 674.236 776.747Z" fill="#402308"/>
            <path fill-rule="evenodd" clip-rule="evenodd" d="M674.225 775.609L675.534 775.216L675.682 776.684L674.237 776.747L674.225 775.609ZM668.543 775.694L669.852 775.302L669.957 776.645L668.554 776.708L668.543 775.694Z" fill="#C98648"/>
            <path d="M670.748 760.912L673.82 776.07H676.175L673.358 756.041H667.786L667.98 775.993L668.703 776.003L670.079 776.023H670.084L670.435 776.028L670.748 760.912Z" fill="#603711"/>
            <path opacity="0.200893" fill-rule="evenodd" clip-rule="evenodd" d="M670.739 760.8L670.209 758.455L670.608 765.564L670.739 760.8Z" fill="black"/>
            <path d="M674.193 757.318L674.009 757.669C674.009 757.669 673.915 757.83 673.816 758.112C673.717 758.394 673.758 758.566 673.545 759.008C673.303 759.511 673.736 759.303 673.891 759.084C674.012 758.913 673.999 758.682 674.156 758.578C674.208 758.662 674.329 758.782 674.396 759.507C674.408 759.637 674.349 760.058 674.349 760.058C674.348 760.185 674.332 760.448 674.475 760.488C674.511 760.498 674.557 760.459 674.557 760.459C674.557 760.459 674.543 760.624 674.69 760.657C674.748 760.669 674.863 760.314 674.863 760.314C674.863 760.314 674.88 760.494 674.99 760.514C675.021 760.52 675.387 759.489 675.387 759.489L675.365 759.722L675.317 759.96C675.317 759.96 675.321 760.089 675.424 760.111C675.465 760.121 675.543 759.906 675.617 759.654C675.732 759.262 675.729 758.968 675.696 758.675C675.655 758.321 675.673 758.202 675.515 757.768C675.45 757.589 675.309 757.318 675.234 757.203L674.193 757.318Z" fill="#C98648"/>
            <path d="M666.805 757.115C666.697 756.869 666.128 756.8 666.128 756.8C666.128 756.8 665.221 757.81 665.14 757.964C665.059 758.118 664.909 758.882 664.916 759.033C664.923 759.183 665.391 759.861 665.391 759.861C665.681 759.792 665.491 759.442 665.491 759.442C665.491 759.442 665.752 759.655 665.86 759.651C666.878 759.618 666.823 759.119 666.799 759.057C666.745 758.917 666.473 759.077 666.473 759.077C666.473 759.077 667.115 757.819 666.805 757.115Z" fill="#C98648"/>
            <path opacity="0.145089" d="M666.265 757.709C666.265 757.709 666.122 758.231 665.631 758.394C665.46 758.45 665.503 759.122 665.083 759.041" stroke="black" stroke-width="0.289411"/>
            <path d="M671.803 748.744L671.752 747.936L669.407 748.081L669.453 748.813C668.137 749.317 668.024 749.809 667.709 750.456C667.363 751.164 667.006 753.34 667.006 753.34L665.507 757.096L667.344 758.112L667.796 757.243L667.785 756.082L673.398 756.082L673.437 754.652L673.916 757.519L676.015 757.618C676.015 757.618 676.057 754.632 675.657 752.905C675.403 751.805 674.159 749.76 672.982 749.057C672.694 748.886 672.262 748.791 671.803 748.744V748.744Z" fill="#855324"/>
            <path opacity="0.203544" d="M673.388 754.855L672.973 752.754L672.017 751.144" stroke="black" stroke-width="0.482351"/>
            <path opacity="0.1988" d="M667.885 756.135L667.702 753.212" stroke="black" stroke-width="0.482351"/>
            <rect x="611.465" y="676.557" width="2.53567" height="116.641" rx="1.26784" fill="#545454"/>
            <rect x="566.88" y="680.149" width="47.0966" height="27.2585" fill="white"/>
            <rect x="566.88" y="680.149" width="20.8225" height="11.7363" fill="#004C95"/>
            <rect x="566.88" y="695.671" width="20.8225" height="11.7363" fill="#FF3838"/>
            <rect x="593.154" y="695.671" width="20.8225" height="11.7363" fill="#004C95"/>
            <rect x="593.154" y="680.149" width="20.8225" height="11.7363" fill="#FF3838"/>
            <rect x="603.224" y="782.21" width="19.0176" height="11.6218" rx="2.23593" fill="#D9D9D9"/>
            <rect x="600.899" y="780.942" width="23.6663" height="4.22612" rx="0.319418" fill="#8D97A0"/>
            <rect x="600.899" y="792.353" width="23.6663" height="2.32437" rx="0.319418" fill="#8D97A0"/>
            <rect x="709.936" y="676.557" width="2.53567" height="115.796" rx="1.26784" fill="#545454"/>
            <rect x="667.251" y="680.149" width="22.6098" height="27.4698" fill="#FF8236"/>
            <rect x="689.86" y="680.149" width="22.6098" height="27.4698" fill="#179BD7"/>
            <rect x="701.694" y="782.21" width="19.0176" height="11.6218" rx="2.23593" fill="#D9D9D9"/>
            <rect x="699.371" y="780.942" width="23.6663" height="4.22612" rx="0.319418" fill="#8D97A0"/>
            <rect x="699.371" y="792.353" width="23.6663" height="2.32437" rx="0.319418" fill="#8D97A0"/>
            <rect x="474.751" y="680.019" width="5.48247" height="47.0338" fill="white"/>
            <rect x="757.82" y="680.019" width="5.48247" height="47.0338" fill="white"/>
            <g class="clouds">
                <path d="M722.319 618.956C721.065 620.509 719.416 621.286 717.372 621.286C715.328 621.286 713.665 620.509 712.384 618.956C711.13 617.402 710.503 615.167 710.503 612.25C710.503 609.334 711.498 606.963 713.488 605.136C712.016 603.501 711.28 601.375 711.28 598.758C711.28 596.142 711.852 594.247 712.997 593.075C714.169 591.876 715.628 591.276 717.372 591.276C719.116 591.276 720.575 591.876 721.747 593.075C722.919 594.274 723.505 596.21 723.505 598.881C723.505 601.552 722.796 603.733 721.379 605.423C723.287 607.194 724.241 609.498 724.241 612.332C724.241 615.167 723.6 617.375 722.319 618.956ZM715.123 616.298C715.696 617.225 716.445 617.688 717.372 617.688C718.299 617.688 719.035 617.225 719.58 616.298C720.125 615.371 720.398 614.077 720.398 612.414C720.398 610.751 720.07 609.429 719.416 608.448C718.789 607.467 718.094 606.976 717.331 606.976C716.595 606.976 715.9 607.481 715.246 608.489C714.619 609.47 714.306 610.792 714.306 612.455C714.306 614.09 714.578 615.371 715.123 616.298ZM717.372 603.337C718.926 603.337 719.703 601.92 719.703 599.085C719.703 596.251 718.926 594.833 717.372 594.833C715.873 594.833 715.123 596.251 715.123 599.085C715.123 601.92 715.873 603.337 717.372 603.337ZM728.745 595.487V592.053H741.501V594.792L731.607 621H727.682L737.126 595.487H728.745ZM743.92 599.372C744.546 597.136 744.86 595.651 744.86 594.915C744.86 594.179 744.819 593.716 744.737 593.525C744.737 592.843 744.983 592.271 745.473 591.808C745.964 591.317 746.536 591.072 747.19 591.072C747.872 591.072 748.458 591.317 748.948 591.808C749.439 592.271 749.684 592.816 749.684 593.443C749.684 594.588 748.867 596.741 747.231 599.903L746.414 601.457L744.247 600.107L743.92 599.372Z" fill="#292929" fill-opacity="0.37"/>
                <path d="M748.271 674.686H619.027C618.443 666.695 627.545 663.479 632.414 664.941C636.697 649.544 650.101 650.567 656.267 653.003C658.798 644.428 666.733 638.873 670.384 637.168C691.608 627.812 705.027 641.39 709.084 649.349C723.687 642.771 735.857 656.414 733.667 664.941C743.208 663.577 747.297 671.113 748.271 674.686Z" fill="white"/>
                <path d="M647.204 672.402C640.959 671.035 639.073 675.086 638.91 677.283L716.242 676.795C715.266 671.718 710.143 670.287 707.46 670.937C707.069 663.909 699.409 664.104 697.214 666.3C695.75 663.697 690.53 658.686 679.406 657.514C668.282 656.343 662.573 662.721 661.353 666.3C652.181 662.981 648.099 668.985 647.204 672.402Z" fill="#DBE9F6"/>
                <path d="M550.74 676.916H490C491.962 667.451 500.051 668.356 503.85 669.991C509.044 649.504 532.128 656.718 533.715 667.971C535.562 664.855 540.448 665.614 542.661 666.384C549.24 668.692 550.788 674.367 550.74 676.916Z" fill="white"/>
                <path d="M505.725 676.63C500.762 674.783 498.944 678.265 498.655 680.237H528.809C528.809 673.889 522.172 673.744 520.441 675.764C520.104 673.937 518.132 670.224 512.939 669.993C507.745 669.762 505.965 674.322 505.725 676.63Z" fill="#DBE9F6"/>
                <path d="M647.152 633.293H559C560.154 623.828 568.955 623.05 572.562 625.502C575.678 618.231 582.998 617.471 586.268 618C588.865 593.329 623.924 594.916 626.81 617.278C644.411 613.96 648.018 627.522 647.152 633.293Z" fill="white"/>
                <path d="M602.138 633.991C596.944 632.375 594.876 635.722 594.491 637.598H638.64C638.293 629.864 631.666 628.989 628.396 629.518C622.913 614.369 608.197 622.737 608.486 630.24C604.331 629.663 602.523 632.5 602.138 633.991Z" fill="#DBE9F7"/>
            </g>

            <g style="mix-blend-mode:multiply">
                <rect x="480" y="578" width="278" height="227" fill="#DEDEDE"/>
            </g>
        </g>
    </g>

    <g class="camera upper">
        <rect x="429" y="527" width="398" height="35" fill="#3D454E"/>
        <path d="M446 562C446 556.477 450.477 552 456 552H802C807.523 552 812 556.477 812 562V562H446V562Z" fill="#191F26"/>
        <rect x="398" y="228.456" width="460.77" height="311.388" rx="30.2775" fill="#E2E7EE"/>
        <rect x="398" y="293.679" width="460.77" height="209.871" fill="#6F7E8E"/>
        <circle cx="493.994" cy="330.761" r="20.2507" fill="#3D454E"/>
        <circle cx="628.385" cy="398.351" r="107.52" fill="#AAC7E8" stroke="#3D454E" stroke-width="22.7081"/>
        <circle cx="636.276" cy="359.428" r="42.6054" fill="white"/>
        <circle cx="691.767" cy="410.186" r="21.3027" fill="white"/>
        <g style="mix-blend-mode:soft-light">
        <path d="M557 334C598.904 325.847 687.232 332.023 723 412.5C739 324 626.5 260.5 557 334Z" fill="black"/>
        </g>
        <rect x="760" y="221" width="58" height="8" fill="#6F7E8E"/>
        <rect x="752.519" y="212.15" width="72.061" height="9.46787" rx="2.9113" fill="#9FB6D0"/>
        <path d="M525.291 212.392C525.291 204.996 531.287 199 538.683 199H717.562C724.958 199 730.954 204.996 730.954 212.392V236.345H525.291V212.392Z" fill="#E2E7EE"/>
        <path d="M431.137 228.456C431.137 212.188 444.324 199 460.592 199H480.054C496.322 199 509.51 212.188 509.51 228.456V228.456H431.137V228.456Z" fill="#9FB6D0"/>
    </g>

</svg>
