<svg width="239" height="181" viewBox="0 0 239 181" fill="none" xmlns="http://www.w3.org/2000/svg">
<rect width="118.932" height="135.408" fill="#52ADFF"/>
<rect x="118.901" width="120.099" height="135.325" fill="#FF8B46"/>
<rect x="14.1997" y="74.7426" width="41.5727" height="46.2902" rx="0.326382" fill="#FFB444"/>
<rect x="15.5264" y="76.0694" width="38.9191" height="43.6366" rx="0.326382" fill="#FFDF8B"/>
<mask id="path-5-inside-1_1386_6780" fill="white">
<rect x="17.7378" y="77.9858" width="34.6439" height="39.6562" rx="0.652764"/>
</mask>
<rect x="17.7378" y="77.9858" width="34.6439" height="39.6562" rx="0.652764" fill="white" stroke="#FFB444" stroke-width="4.56935" mask="url(#path-5-inside-1_1386_6780)"/>
<rect x="69.9722" y="74.7426" width="41.5727" height="46.2902" rx="0.326382" fill="#FFB444"/>
<rect x="71.2988" y="76.0694" width="38.9191" height="43.6366" rx="0.326382" fill="#FFDF8B"/>
<mask id="path-8-inside-2_1386_6780" fill="white">
<rect x="73.5103" y="77.9859" width="34.6439" height="39.6562" rx="0.652764"/>
</mask>
<rect x="73.5103" y="77.9859" width="34.6439" height="39.6562" rx="0.652764" fill="white" stroke="#FFB444" stroke-width="4.56935" mask="url(#path-8-inside-2_1386_6780)"/>
<rect x="125.744" y="74.7426" width="41.5727" height="46.2902" rx="0.326382" fill="#FFB444"/>
<rect x="127.071" y="76.0694" width="38.9191" height="43.6366" rx="0.326382" fill="#FFDF8B"/>
<mask id="path-11-inside-3_1386_6780" fill="white">
<rect x="129.283" y="77.9859" width="34.6439" height="39.6562" rx="0.652764"/>
</mask>
<rect x="129.283" y="77.9859" width="34.6439" height="39.6562" rx="0.652764" fill="white" stroke="#FFB444" stroke-width="4.56935" mask="url(#path-11-inside-3_1386_6780)"/>
<rect x="181.517" y="74.7426" width="41.5727" height="46.2902" rx="0.326382" fill="#FFB444"/>
<rect x="182.844" y="76.0694" width="38.9191" height="43.6366" rx="0.326382" fill="#FFDF8B"/>
<mask id="path-14-inside-4_1386_6780" fill="white">
<rect x="185.055" y="77.9858" width="34.6439" height="39.6562" rx="0.652764"/>
</mask>
<rect x="185.055" y="77.9858" width="34.6439" height="39.6562" rx="0.652764" fill="white" stroke="#FFB444" stroke-width="4.56935" mask="url(#path-14-inside-4_1386_6780)"/>
<rect x="14.1997" y="14.2527" width="41.5727" height="46.2902" rx="0.326382" fill="#FFB444"/>
<rect x="15.5264" y="15.5795" width="38.9191" height="43.6366" rx="0.326382" fill="#FFDF8B"/>
<mask id="path-17-inside-5_1386_6780" fill="white">
<rect x="17.7378" y="17.496" width="34.6439" height="39.6562" rx="0.652764"/>
</mask>
<rect x="17.7378" y="17.496" width="34.6439" height="39.6562" rx="0.652764" fill="white" stroke="#FFB444" stroke-width="4.56935" mask="url(#path-17-inside-5_1386_6780)"/>
<rect x="69.9722" y="14.2527" width="41.5727" height="46.2902" rx="0.326382" fill="#FFB444"/>
<rect x="71.2988" y="15.5795" width="38.9191" height="43.6366" rx="0.326382" fill="#FFDF8B"/>
<mask id="path-20-inside-6_1386_6780" fill="white">
<rect x="73.5103" y="17.496" width="34.6439" height="39.6562" rx="0.652764"/>
</mask>
<rect x="73.5103" y="17.496" width="34.6439" height="39.6562" rx="0.652764" fill="white" stroke="#FFB444" stroke-width="4.56935" mask="url(#path-20-inside-6_1386_6780)"/>
<rect x="125.744" y="14.2527" width="41.5727" height="46.2902" rx="0.326382" fill="#FFB444"/>
<rect x="127.071" y="15.5795" width="38.9191" height="43.6366" rx="0.326382" fill="#FFDF8B"/>
<mask id="path-23-inside-7_1386_6780" fill="white">
<rect x="129.283" y="17.496" width="34.6439" height="39.6562" rx="0.652764"/>
</mask>
<rect x="129.283" y="17.496" width="34.6439" height="39.6562" rx="0.652764" fill="white" stroke="#FFB444" stroke-width="4.56935" mask="url(#path-23-inside-7_1386_6780)"/>
<rect x="181.517" y="14.2527" width="41.5727" height="46.2902" rx="0.326382" fill="#FFB444"/>
<rect x="182.844" y="15.5795" width="38.9191" height="43.6366" rx="0.326382" fill="#FFDF8B"/>
<mask id="path-26-inside-8_1386_6780" fill="white">
<rect x="185.055" y="17.496" width="34.6439" height="39.6562" rx="0.652764"/>
</mask>
<rect x="185.055" y="17.496" width="34.6439" height="39.6562" rx="0.652764" fill="white" stroke="#FFB444" stroke-width="4.56935" mask="url(#path-26-inside-8_1386_6780)"/>
<rect x="76.8901" y="89.273" width="75.3968" height="21.1264" rx="4.23666" fill="#3D454E"/>
<path d="M82.1709 106.036H147.655" stroke="#313131" stroke-width="3.4958" stroke-linecap="round"/>
<rect x="81.1001" y="57.1241" width="67.0534" height="45.3146" rx="4.40613" fill="#E2E7EE"/>
<rect x="81.1001" y="66.6157" width="67.0534" height="30.5415" fill="#6F7E8E"/>
<circle cx="95.0695" cy="72.0121" r="2.94698" fill="#3D454E"/>
<circle cx="114.626" cy="81.8481" r="15.6469" fill="#AAC7E8" stroke="#3D454E" stroke-width="3.3046"/>
<circle cx="115.775" cy="76.1838" r="6.20015" fill="white"/>
<circle cx="123.85" cy="83.5704" r="3.10007" fill="white"/>
<g style="mix-blend-mode:soft-light">
<path d="M104.5 72C110.598 70.8136 123.295 72.2886 128.5 84C130.5 71.5 115.5 62 104.5 72Z" fill="black"/>
</g>
<rect x="133.762" y="55.8994" width="8.41995" height="1.22472" fill="#6F7E8E"/>
<rect x="132.69" y="54.7512" width="10.4867" height="1.37781" rx="0.423666" fill="#3D454E"/>
<path d="M99.6235 54.7865C99.6235 53.7102 100.496 52.8376 101.572 52.8376H127.604C128.68 52.8376 129.553 53.7102 129.553 54.7865V58.2723H99.6235V54.7865Z" fill="#E2E7EE"/>
<path d="M85.9214 57.1241C85.9214 54.7568 87.8405 52.8376 90.2079 52.8376H93.0401C95.4075 52.8376 97.3266 54.7568 97.3266 57.1241H85.9214Z" fill="#9FB6D0"/>
<rect x="82.2331" y="105.791" width="65.4509" height="74.7954" rx="0.725905" fill="white" stroke="#EEEEEE" stroke-width="0.725905"/>
<rect x="88.8647" y="112.687" width="52.5698" height="56.559" fill="#EDEDED"/>
<rect x="88.8647" y="112.687" width="52.5698" height="43.8811" fill="#C9E5FF"/>
<rect x="88.8672" y="152.546" width="52.5831" height="4.04178" fill="#0478E0"/>
<rect x="132.566" y="152.386" width="7.40326" height="1.96086" rx="0.30246" fill="white"/>
<rect x="89.8276" y="152.346" width="6.72296" height="1.96086" rx="0.30246" fill="white"/>
<rect x="90.5474" y="152.666" width="1.08048" height="0.480211" rx="0.120984" fill="#0478E0"/>
<rect x="91.9487" y="152.666" width="1.08048" height="0.480211" rx="0.120984" fill="#0478E0"/>
<rect x="93.3491" y="152.666" width="1.08048" height="0.480211" rx="0.120984" fill="#0478E0"/>
<rect x="94.7495" y="152.666" width="1.08048" height="0.480211" rx="0.120984" fill="#0478E0"/>
<rect x="90.5474" y="153.506" width="1.08048" height="0.480211" rx="0.120984" fill="#0478E0"/>
<rect x="91.9487" y="153.506" width="1.08048" height="0.480211" rx="0.120984" fill="#0478E0"/>
<rect x="93.3491" y="153.506" width="1.08048" height="0.480211" rx="0.120984" fill="#0478E0"/>
<rect x="94.7495" y="153.506" width="1.08048" height="0.480211" rx="0.120984" fill="#0478E0"/>
<rect x="98.3115" y="152.346" width="6.72296" height="1.96086" rx="0.30246" fill="white"/>
<rect x="99.0322" y="152.666" width="1.08048" height="0.480211" rx="0.120984" fill="#0478E0"/>
<rect x="100.433" y="152.666" width="1.08048" height="0.480211" rx="0.120984" fill="#0478E0"/>
<rect x="101.833" y="152.666" width="1.08048" height="0.480211" rx="0.120984" fill="#0478E0"/>
<rect x="103.234" y="152.666" width="1.08048" height="0.480211" rx="0.120984" fill="#0478E0"/>
<rect x="99.0322" y="153.506" width="1.08048" height="0.480211" rx="0.120984" fill="#0478E0"/>
<rect x="100.433" y="153.506" width="1.08048" height="0.480211" rx="0.120984" fill="#0478E0"/>
<rect x="101.833" y="153.506" width="1.08048" height="0.480211" rx="0.120984" fill="#0478E0"/>
<rect x="103.234" y="153.506" width="1.08048" height="0.480211" rx="0.120984" fill="#0478E0"/>
<rect x="107.036" y="152.346" width="6.72296" height="1.96086" rx="0.30246" fill="white"/>
<rect x="107.756" y="152.666" width="1.08048" height="0.480211" rx="0.120984" fill="#0478E0"/>
<rect x="109.157" y="152.666" width="1.08048" height="0.480211" rx="0.120984" fill="#0478E0"/>
<rect x="110.557" y="152.666" width="1.08048" height="0.480211" rx="0.120984" fill="#0478E0"/>
<rect x="111.958" y="152.666" width="1.08048" height="0.480211" rx="0.120984" fill="#0478E0"/>
<rect x="107.756" y="153.506" width="1.08048" height="0.480211" rx="0.120984" fill="#0478E0"/>
<rect x="109.157" y="153.506" width="1.08048" height="0.480211" rx="0.120984" fill="#0478E0"/>
<rect x="110.557" y="153.506" width="1.08048" height="0.480211" rx="0.120984" fill="#0478E0"/>
<rect x="111.958" y="153.506" width="1.08048" height="0.480211" rx="0.120984" fill="#0478E0"/>
<path d="M90.3481 155.75C90.3481 155.55 90.5106 155.387 90.7111 155.387H96.1879C96.3884 155.387 96.5509 155.55 96.5509 155.75V159.189H90.3481V155.75Z" fill="white"/>
<path d="M98.0312 155.75C98.0312 155.55 98.1937 155.387 98.3942 155.387H104.911C105.112 155.387 105.274 155.55 105.274 155.75V159.189H98.0312V155.75Z" fill="white"/>
<path d="M106.755 155.75C106.755 155.55 106.917 155.387 107.118 155.387H113.115C113.315 155.387 113.478 155.55 113.478 155.75V159.189H106.755V155.75Z" fill="white"/>
<path d="M132.566 155.75C132.566 155.55 132.729 155.387 132.929 155.387H139.607C139.807 155.387 139.97 155.55 139.97 155.75V159.189H132.566V155.75Z" fill="white"/>
<path d="M132.566 155.75C132.566 155.55 132.729 155.387 132.929 155.387H139.607C139.807 155.387 139.97 155.55 139.97 155.75V159.189H132.566V155.75Z" fill="white"/>
<rect x="88.8672" y="159.189" width="52.5831" height="3.84169" fill="#8BC8FF"/>
<path d="M87.8271 148.227C87.8271 148.026 87.9896 147.864 88.1901 147.864H141.728C141.929 147.864 142.091 148.026 142.091 148.227V152.183C142.091 152.384 141.929 152.546 141.728 152.546H88.1901C87.9896 152.546 87.8271 152.384 87.8271 152.183V148.227Z" fill="#8BC8FF"/>
<rect x="96.5508" y="154.307" width="1.48065" height="8.72384" fill="#0478E0"/>
<rect x="88.8672" y="154.307" width="1.48065" height="8.72384" fill="#0478E0"/>
<rect x="105.275" y="154.307" width="1.48065" height="8.72384" fill="#0478E0"/>
<rect x="113.479" y="154.307" width="1.48065" height="8.72384" fill="#0478E0"/>
<rect x="131.086" y="154.307" width="1.48065" height="8.72384" fill="#0478E0"/>
<rect x="139.97" y="155.027" width="1.48065" height="8.00352" fill="#0478E0"/>
<rect x="132.926" y="152.746" width="1.08048" height="0.480211" rx="0.120984" fill="#0478E0"/>
<rect x="134.328" y="152.746" width="1.08048" height="0.480211" rx="0.120984" fill="#0478E0"/>
<rect x="135.729" y="152.746" width="1.08048" height="0.480211" rx="0.120984" fill="#0478E0"/>
<rect x="137.129" y="152.746" width="1.08048" height="0.480211" rx="0.120984" fill="#0478E0"/>
<rect x="138.53" y="152.746" width="1.08048" height="0.480211" rx="0.120984" fill="#0478E0"/>
<rect x="132.926" y="153.586" width="1.08048" height="0.480211" rx="0.120984" fill="#0478E0"/>
<rect x="134.328" y="153.586" width="1.08048" height="0.480211" rx="0.120984" fill="#0478E0"/>
<rect x="135.729" y="153.586" width="1.08048" height="0.480211" rx="0.120984" fill="#0478E0"/>
<rect x="137.129" y="153.586" width="1.08048" height="0.480211" rx="0.120984" fill="#0478E0"/>
<rect x="138.53" y="153.586" width="1.08048" height="0.480211" rx="0.120984" fill="#0478E0"/>
<rect x="90.7881" y="155.747" width="5.36236" height="1.40062" rx="0.362953" fill="#343B42"/>
<rect x="98.5518" y="155.747" width="6.24275" height="1.40062" rx="0.362953" fill="#343B42"/>
<rect x="107.195" y="155.747" width="5.88259" height="1.40062" rx="0.362953" fill="#343B42"/>
<rect x="132.967" y="155.787" width="6.60291" height="1.40062" rx="0.362953" fill="#343B42"/>
<rect x="90.7881" y="157.588" width="5.36236" height="1.24055" rx="0.362953" fill="#343B42"/>
<rect x="98.5518" y="157.588" width="6.24275" height="1.24055" rx="0.362953" fill="#343B42"/>
<rect x="107.195" y="157.588" width="5.88259" height="1.24055" rx="0.362953" fill="#343B42"/>
<rect x="132.967" y="157.628" width="6.60291" height="1.24055" rx="0.362953" fill="#343B42"/>
<path fill-rule="evenodd" clip-rule="evenodd" d="M114.959 163.031L116.795 160.99H123.023V163.031H114.959ZM131.086 163.031L129.25 160.99H123.023V163.031H131.086Z" fill="#343B42"/>
<path d="M116.799 156.588V160.99L114.958 163.051L114.918 156.588H116.799Z" fill="#BDE0FF"/>
<path d="M129.205 156.588V160.99L131.046 163.051L131.086 156.588H129.205Z" fill="#BDE0FF"/>
<rect x="121.962" y="156.588" width="1.44063" height="4.40194" fill="#004583"/>
<rect x="116.8" y="156.588" width="5.16227" height="4.40194" fill="#F3F3F3"/>
<rect x="123.403" y="156.588" width="5.80255" height="4.40194" fill="#F3F3F3"/>
<rect x="119.891" y="164.17" width="7.23414" height="3.01018" rx="0.259233" fill="#9EA3A8"/>
<rect x="124.957" y="165.192" width="1.39437" height="0.455585" fill="#777F86"/>
<rect x="122.044" y="165.192" width="1.39437" height="0.455585" fill="#777F86"/>
<rect x="126.407" y="165.192" width="0.717892" height="0.455585" fill="#777F86"/>
<rect x="123.494" y="165.192" width="1.40817" height="0.455585" fill="#777F86"/>
<rect x="120.581" y="165.192" width="1.40817" height="0.455585" fill="#777F86"/>
<rect x="119.891" y="165.192" width="0.635058" height="0.455585" fill="#777F86"/>
<rect x="124.957" y="166.214" width="1.39437" height="0.455585" fill="#777F86"/>
<rect x="122.044" y="166.214" width="1.39437" height="0.455585" fill="#777F86"/>
<rect x="126.406" y="166.214" width="0.717892" height="0.455585" fill="#777F86"/>
<rect x="123.494" y="166.214" width="1.40817" height="0.455585" fill="#777F86"/>
<rect x="120.581" y="166.214" width="1.40817" height="0.455585" fill="#777F86"/>
<rect x="119.891" y="166.214" width="0.635058" height="0.455585" fill="#777F86"/>
<rect x="124.957" y="164.171" width="1.39437" height="0.455585" fill="#777F86"/>
<rect x="122.044" y="164.171" width="1.39437" height="0.455585" fill="#777F86"/>
<path d="M126.406 164.171H126.865C127.008 164.171 127.124 164.287 127.124 164.43V164.626H126.406V164.171Z" fill="#777F86"/>
<rect x="123.494" y="164.171" width="1.40817" height="0.455585" fill="#777F86"/>
<rect x="120.581" y="164.171" width="1.40817" height="0.455585" fill="#777F86"/>
<path d="M119.891 164.43C119.891 164.287 120.007 164.171 120.15 164.171H120.526V164.626H119.891V164.43Z" fill="#777F86"/>
<rect x="124.267" y="164.681" width="1.39437" height="0.455585" fill="#777F86"/>
<rect x="121.354" y="164.681" width="1.39437" height="0.455585" fill="#777F86"/>
<rect x="125.716" y="164.681" width="1.40817" height="0.455585" fill="#777F86"/>
<rect x="122.803" y="164.681" width="1.40817" height="0.455585" fill="#777F86"/>
<rect x="119.891" y="164.681" width="1.40817" height="0.455585" fill="#777F86"/>
<rect x="124.267" y="166.725" width="1.39437" height="0.455585" fill="#777F86"/>
<rect x="121.354" y="166.725" width="1.39437" height="0.455585" fill="#777F86"/>
<path d="M125.716 166.725H127.124V166.921C127.124 167.064 127.008 167.18 126.865 167.18H125.716V166.725Z" fill="#777F86"/>
<rect x="122.803" y="166.725" width="1.40817" height="0.455585" fill="#777F86"/>
<path d="M119.891 166.725H121.299V167.18H120.15C120.007 167.18 119.891 167.064 119.891 166.921V166.725Z" fill="#777F86"/>
<rect x="124.267" y="165.703" width="1.39437" height="0.455585" fill="#777F86"/>
<rect x="121.354" y="165.703" width="1.39437" height="0.455585" fill="#777F86"/>
<rect x="125.716" y="165.703" width="1.40817" height="0.455585" fill="#777F86"/>
<rect x="122.803" y="165.703" width="1.40817" height="0.455585" fill="#777F86"/>
<rect x="119.891" y="165.703" width="1.40817" height="0.455585" fill="#777F86"/>
<rect x="119.4" y="164.141" width="8.19389" height="0.377599" rx="0.09032" fill="#656B71"/>
<rect x="119.551" y="167.086" width="7.92957" height="0.226559" rx="0.09032" fill="#525961"/>
<path fill-rule="evenodd" clip-rule="evenodd" d="M123.014 163.845L123.017 163.599L122.7 163.439L122.654 164.142H123.752C123.565 163.932 123.014 163.845 123.014 163.845ZM121.607 163.855L121.609 163.578L121.403 163.747L121.237 163.839L121.182 164.142H121.933C121.839 163.885 121.607 163.855 121.607 163.855Z" fill="#402308"/>
<path d="M122.7 163.504L123.017 163.599L123.014 163.845L122.675 163.83L122.7 163.504Z" fill="#C98648"/>
<path d="M121.294 163.483L121.611 163.578L121.608 163.854L121.238 163.839L121.294 163.483Z" fill="#C98648"/>
<path d="M123.063 163.518L123.055 163.747H122.637L122.645 163.518C122.598 163.499 122.564 163.454 122.563 163.4L122.496 159.98L121.769 163.433C121.758 163.481 121.722 163.519 121.677 163.533L121.649 163.747H121.211L121.249 163.511C121.212 163.483 121.191 163.436 121.198 163.386L121.868 158.81L122.473 158.81L122.473 158.808H123.206L123.162 163.394C123.161 163.454 123.119 163.504 123.063 163.518Z" fill="#603711"/>
<path opacity="0.197824" fill-rule="evenodd" clip-rule="evenodd" d="M122.492 160.034L122.62 159.465L122.523 161.191L122.492 160.034Z" fill="black"/>
<path opacity="0.197824" fill-rule="evenodd" clip-rule="evenodd" d="M122.105 158.83L121.999 158.72L123.31 158.7L123.209 158.83V158.907L122.105 158.83Z" fill="black"/>
<path d="M123.838 156.183C123.838 156.778 123.318 157.26 122.676 157.26C122.035 157.26 121.515 156.778 121.515 156.183C121.515 155.589 122.035 155.107 122.676 155.107C123.318 155.107 123.838 155.589 123.838 156.183ZM121.598 156.183C121.598 156.735 122.081 157.182 122.676 157.182C123.272 157.182 123.755 156.735 123.755 156.183C123.755 155.632 123.272 155.184 122.676 155.184C122.081 155.184 121.598 155.632 121.598 156.183Z" fill="#6A421D"/>
<path d="M122.789 156.907C122.795 156.877 122.735 156.882 122.703 156.877H122.672L122.703 156.923C122.728 156.923 122.787 156.922 122.789 156.907Z" fill="#B07239"/>
<path d="M122.206 156.91C122.201 156.88 122.22 156.87 122.302 156.866H122.376L122.302 156.912C122.277 156.912 122.209 156.925 122.206 156.91Z" fill="#B07239"/>
<path fill-rule="evenodd" clip-rule="evenodd" d="M123.247 156.067C123.247 156.211 123.154 156.328 123.04 156.328C122.925 156.328 122.833 156.211 122.833 156.067C122.833 155.923 122.925 155.806 123.04 155.806C123.154 155.806 123.247 155.923 123.247 156.067Z" fill="#855324"/>
<path d="M122.713 157.103L122.703 156.802C122.703 156.802 123.068 156.832 123.146 156.791C123.146 156.791 123.241 156.3 123.127 156.028L123.125 156.018L122.357 155.928L122.314 156.369C122.289 156.293 122.075 156.206 122.019 156.316C121.899 156.553 122.331 156.712 122.331 156.712L122.287 157.106" fill="#C98648"/>
<path fill-rule="evenodd" clip-rule="evenodd" d="M122.9 156.364L122.985 156.572L122.883 156.573L122.9 156.364Z" fill="#B07239"/>
<path fill-rule="evenodd" clip-rule="evenodd" d="M122.811 156.372C122.816 156.4 122.797 156.427 122.769 156.433C122.74 156.438 122.713 156.419 122.708 156.391C122.703 156.362 122.722 156.335 122.75 156.33C122.778 156.325 122.805 156.344 122.811 156.372Z" fill="#855324"/>
<path fill-rule="evenodd" clip-rule="evenodd" d="M123.095 156.372C123.1 156.4 123.082 156.427 123.053 156.433C123.025 156.438 122.998 156.419 122.993 156.391C122.988 156.362 123.007 156.335 123.035 156.33C123.063 156.325 123.09 156.344 123.095 156.372Z" fill="#855324"/>
<path d="M122.371 156.445C122.299 156.32 122.193 156.282 122.146 156.27C122.127 156.216 122.113 156.153 122.103 156.085C122.076 155.905 122.206 155.74 122.312 155.693C122.419 155.645 122.603 155.579 122.873 155.669C123.055 155.73 123.171 155.585 123.277 155.647C123.46 155.752 123.29 156.215 122.827 156.098C122.497 156.013 122.488 156.035 122.485 156.096C122.476 156.293 122.445 156.41 122.371 156.445Z" fill="#855324"/>
<path d="M122.759 156.58C122.759 156.58 122.792 156.64 122.863 156.639" stroke="#B07239" stroke-width="0.09627"/>
<path opacity="0.398926" fill-rule="evenodd" clip-rule="evenodd" d="M122.703 156.798L122.46 156.741L122.707 156.92L122.703 156.798Z" fill="#8B5523"/>
<path d="M124.191 158.255L124.272 158.221C124.272 158.221 124.329 158.201 124.393 158.187C124.457 158.173 124.545 158.19 124.637 158.107C124.73 158.023 124.693 158.158 124.65 158.2C124.614 158.235 124.52 158.256 124.495 158.292C124.514 158.309 124.533 158.318 124.533 158.318L124.915 158.445C124.928 158.449 124.936 158.462 124.934 158.475L124.931 158.49C124.929 158.506 124.913 158.516 124.898 158.512C124.816 158.489 124.572 158.417 124.571 158.421L124.566 158.43L124.949 158.603C124.961 158.608 124.968 158.622 124.964 158.635L124.959 158.655C124.955 158.67 124.939 158.679 124.925 158.674C124.836 158.644 124.542 158.517 124.542 158.522L124.537 158.533L124.85 158.709C124.863 158.715 124.869 158.73 124.865 158.743L124.859 158.759C124.854 158.773 124.839 158.78 124.825 158.775L124.515 158.614L124.507 158.624L124.726 158.782C124.738 158.788 124.743 158.803 124.738 158.815L124.735 158.823C124.729 158.837 124.714 158.843 124.701 158.838C124.654 158.82 124.56 158.746 124.46 158.698C124.382 158.66 124.317 158.651 124.224 158.593C124.185 158.568 124.16 158.543 124.134 158.519L124.191 158.255Z" fill="#C98648"/>
<path d="M121.041 158.405C121.035 158.177 121.308 157.768 121.308 157.768L121.786 157.98L121.589 158.399L122.13 159.152L121.907 159.333C121.907 159.333 121.048 158.674 121.041 158.405Z" fill="#C98648"/>
<path d="M122.046 158.83L122.179 159.008L121.779 159.357C121.779 159.357 121.044 158.819 121.021 158.397C121.007 158.128 121.242 157.744 121.242 157.744C121.242 157.744 121.537 157.273 121.879 157.113C121.949 157.081 122.119 157.053 122.222 157.042C122.253 157.039 122.234 157.051 122.245 157.072C122.256 157.094 122.291 157.126 122.315 157.15C122.364 157.2 122.462 157.238 122.515 157.246C122.555 157.252 122.632 157.261 122.669 157.256C122.707 157.251 122.747 157.234 122.758 157.224C122.769 157.214 122.785 157.202 122.793 157.182C122.801 157.163 122.801 157.169 122.801 157.151C122.801 157.133 122.8 157.136 122.798 157.127C122.797 157.119 122.797 157.114 122.796 157.109C122.791 157.09 122.793 157.093 122.793 157.093C122.995 157.154 123.185 157.199 123.258 157.287L123.642 157.915L124.223 158.143L124.141 158.598C124.141 158.598 123.816 158.575 123.554 158.479C123.414 158.428 123.271 158.269 123.245 158.139L123.356 158.702C123.373 158.797 123.29 158.833 123.216 158.83L122.046 158.83Z" fill="#855324"/>
<path opacity="0.2" d="M123.208 157.848V157.695C123.418 158.296 123.678 158.458 123.836 158.55C123.686 158.531 123.513 158.465 123.486 158.445C123.361 158.364 123.304 158.288 123.269 158.21C123.218 158.097 123.208 157.971 123.208 157.848Z" fill="black"/>
<path opacity="0.200591" d="M122.104 159.044C122.124 159.07 122.162 159.075 122.188 159.054C122.214 159.034 122.219 158.996 122.199 158.97L122.104 159.044ZM121.643 158.351L121.592 158.318L121.569 158.354L121.595 158.388L121.643 158.351ZM122.199 158.97L121.69 158.314L121.595 158.388L122.104 159.044L122.199 158.97ZM121.693 158.384L122.099 157.764L121.998 157.698L121.592 158.318L121.693 158.384Z" fill="black"/>
<circle cx="122.659" cy="157.595" r="0.0683791" fill="#6A421D"/>
<circle cx="122.655" cy="158" r="0.0683791" fill="#6A421D"/>
<circle cx="122.659" cy="158.404" r="0.0683791" fill="#6A421D"/>
<path d="M122.787 156.897C122.757 156.959 122.46 156.889 122.236 156.883C122.22 156.882 122.206 156.894 122.204 156.911L122.173 157.139C122.414 157.29 122.765 157.288 122.831 157.182L122.787 156.897Z" fill="#D09865"/>
<path d="M122.656 157.013C122.626 157.074 122.645 157.159 122.653 157.237C122.656 157.263 122.678 157.285 122.703 157.278C122.754 157.265 122.801 157.235 122.832 157.211C122.845 157.201 122.851 157.186 122.85 157.17C122.843 157.099 122.83 156.986 122.816 156.952C122.795 156.904 122.687 156.95 122.656 157.013Z" fill="#855324"/>
<path d="M122.598 157.098L122.6 157.239C122.601 157.253 122.604 157.269 122.594 157.278C122.578 157.294 122.539 157.304 122.501 157.307C122.451 157.311 122.241 157.214 122.146 157.128C122.136 157.119 122.125 157.11 122.121 157.097C122.109 157.056 122.127 156.963 122.204 156.919C122.271 156.881 122.402 156.916 122.502 156.954C122.561 156.976 122.597 157.035 122.598 157.098Z" fill="#855324"/>
<path d="M125.302 157.921C125.563 157.085 124.512 157.272 124.494 157.617L124.536 157.673L124.707 157.585L124.834 157.557L124.96 157.647L124.988 157.686L124.981 157.741L125.054 158.033C125.137 158.047 125.302 158.044 125.302 157.921Z" fill="#855324"/>
<path d="M124.74 158.639L124.747 158.397C124.747 158.397 124.453 158.421 124.39 158.388C124.39 158.388 124.261 157.951 124.393 157.785L124.52 157.532H125.013L124.985 157.764L125.069 158.039C125.09 157.977 125.256 157.916 125.301 158.004C125.399 158.196 125.049 158.324 125.049 158.324L125.085 158.642" fill="#C98648"/>
<path opacity="0.2" d="M124.397 158.387C124.378 158.363 124.357 158.275 124.35 158.2C124.292 158.557 124.314 158.407 124.543 158.516C125.036 158.751 124.831 158.491 124.805 158.387C124.68 158.401 124.416 158.412 124.397 158.387Z" fill="black"/>
<path d="M124.536 158.131L124.599 158.037L124.605 158.131H124.536Z" fill="#B07239"/>
<circle cx="124.453" cy="157.984" r="0.0623443" fill="#855324"/>
<circle cx="124.785" cy="157.984" r="0.0623443" fill="#855324"/>
<path fill-rule="evenodd" clip-rule="evenodd" d="M124.746 158.397L124.913 158.362L124.747 158.474L124.746 158.397Z" fill="#B07239"/>
<path d="M124.745 158.179C124.683 158.238 124.609 158.257 124.528 158.179" stroke="#B07239" stroke-width="0.0564063" stroke-linecap="round"/>
<path d="M124.152 157.745C124.152 158.028 124.67 157.786 124.979 157.796L125.072 157.938C125.041 157.891 125.007 157.796 125.118 157.796C125.256 157.796 125.061 157.496 124.979 157.407C124.897 157.318 124.152 157.206 124.152 157.745Z" fill="#855324"/>
<path fill-rule="evenodd" clip-rule="evenodd" d="M124.529 163.95L124.526 163.758L124.774 163.633L124.81 164.182H123.951C124.098 164.017 124.529 163.95 124.529 163.95ZM125.605 163.957L125.602 163.741L125.855 163.729L125.878 163.945L125.937 164.182H125.349C125.423 163.981 125.605 163.957 125.605 163.957Z" fill="#402308"/>
<path fill-rule="evenodd" clip-rule="evenodd" d="M125.604 163.741L125.852 163.667L125.88 163.945L125.606 163.957L125.604 163.741ZM124.528 163.758L124.776 163.683L124.796 163.938L124.53 163.95L124.528 163.758Z" fill="#C98648"/>
<path d="M124.944 160.958L125.526 163.829H125.972L125.439 160.036H124.383L124.42 163.814L124.557 163.816L124.818 163.82H124.819L124.885 163.821L124.944 160.958Z" fill="#603711"/>
<path opacity="0.200893" fill-rule="evenodd" clip-rule="evenodd" d="M124.943 160.937L124.843 160.493L124.919 161.839L124.943 160.937Z" fill="black"/>
<path d="M125.597 160.278L125.562 160.344C125.562 160.344 125.544 160.374 125.525 160.428C125.507 160.481 125.515 160.514 125.474 160.598C125.428 160.693 125.51 160.653 125.54 160.612C125.563 160.58 125.56 160.536 125.59 160.516C125.6 160.532 125.623 160.555 125.635 160.692C125.638 160.717 125.626 160.796 125.626 160.796C125.626 160.82 125.623 160.87 125.65 160.878C125.657 160.88 125.666 160.872 125.666 160.872C125.666 160.872 125.663 160.904 125.691 160.91C125.702 160.912 125.724 160.845 125.724 160.845C125.724 160.845 125.727 160.879 125.748 160.883C125.754 160.884 125.823 160.689 125.823 160.689L125.819 160.733L125.81 160.778C125.81 160.778 125.81 160.802 125.83 160.806C125.838 160.808 125.853 160.768 125.867 160.72C125.888 160.646 125.888 160.59 125.881 160.534C125.874 160.467 125.877 160.445 125.847 160.363C125.835 160.329 125.808 160.277 125.794 160.256L125.597 160.278Z" fill="#C98648"/>
<path d="M124.198 160.239C124.178 160.193 124.07 160.179 124.07 160.179C124.07 160.179 123.898 160.371 123.883 160.4C123.868 160.429 123.839 160.574 123.841 160.602C123.842 160.631 123.93 160.759 123.93 160.759C123.985 160.746 123.95 160.68 123.95 160.68C123.95 160.68 123.999 160.72 124.019 160.719C124.212 160.713 124.202 160.619 124.197 160.607C124.187 160.58 124.136 160.611 124.136 160.611C124.136 160.611 124.257 160.372 124.198 160.239Z" fill="#C98648"/>
<path opacity="0.145089" d="M124.096 160.352C124.096 160.352 124.069 160.45 123.976 160.481C123.943 160.492 123.951 160.619 123.872 160.604" stroke="black" stroke-width="0.0548092"/>
<path d="M125.144 158.654L125.135 158.501L124.691 158.528L124.699 158.667C124.45 158.762 124.429 158.855 124.369 158.978C124.304 159.112 124.236 159.524 124.236 159.524L123.952 160.235L124.3 160.428L124.386 160.263L124.383 160.043L125.447 160.043L125.454 159.773L125.545 160.316L125.942 160.334C125.942 160.334 125.95 159.769 125.874 159.442C125.826 159.233 125.591 158.846 125.368 158.713C125.313 158.681 125.231 158.663 125.144 158.654Z" fill="#855324"/>
<path opacity="0.203544" d="M125.444 159.811L125.366 159.413L125.185 159.108" stroke="black" stroke-width="0.0913487"/>
<path opacity="0.1988" d="M124.402 160.053L124.367 159.5" stroke="black" stroke-width="0.0913487"/>
<rect x="113.719" y="144.983" width="0.480211" height="22.0897" rx="0.240106" fill="#545454"/>
<rect x="105.276" y="145.663" width="8.91926" height="5.16227" fill="white"/>
<rect x="105.276" y="145.663" width="3.9434" height="2.22265" fill="#004C95"/>
<rect x="105.276" y="148.603" width="3.9434" height="2.22265" fill="#FF3838"/>
<rect x="110.251" y="148.603" width="3.9434" height="2.22265" fill="#004C95"/>
<rect x="110.251" y="145.663" width="3.9434" height="2.22265" fill="#FF3838"/>
<rect x="112.157" y="164.992" width="3.60159" height="2.20097" rx="0.423445" fill="#D9D9D9"/>
<rect x="111.717" y="164.751" width="4.48197" height="0.800352" rx="0.0604921" fill="#8D97A0"/>
<rect x="111.717" y="166.912" width="4.48197" height="0.440194" rx="0.0604921" fill="#8D97A0"/>
<rect x="132.367" y="144.983" width="0.480211" height="21.9296" rx="0.240106" fill="#545454"/>
<rect x="124.284" y="145.663" width="4.28188" height="5.20229" fill="#FF8236"/>
<rect x="128.566" y="145.663" width="4.28188" height="5.20229" fill="#179BD7"/>
<rect x="130.806" y="164.992" width="3.60159" height="2.20097" rx="0.423445" fill="#D9D9D9"/>
<rect x="130.366" y="164.751" width="4.48197" height="0.800352" rx="0.0604921" fill="#8D97A0"/>
<rect x="130.366" y="166.912" width="4.48197" height="0.440194" rx="0.0604921" fill="#8D97A0"/>
<rect x="87.8267" y="145.638" width="1.03828" height="8.90736" fill="white"/>
<rect x="141.435" y="145.638" width="1.03828" height="8.90736" fill="white"/>
<path d="M140.778 136.239H116.302C116.191 134.726 117.915 134.117 118.837 134.394C119.648 131.478 122.187 131.672 123.355 132.133C123.834 130.509 125.337 129.457 126.028 129.134C130.048 127.362 132.589 129.934 133.357 131.441C136.123 130.195 138.428 132.779 138.013 134.394C139.82 134.135 140.594 135.563 140.778 136.239Z" fill="white"/>
<path d="M121.639 135.807C120.456 135.548 120.099 136.315 120.068 136.731L134.713 136.639C134.528 135.677 133.558 135.406 133.05 135.529C132.976 134.198 131.525 134.235 131.11 134.651C130.832 134.158 129.844 133.209 127.737 132.987C125.63 132.765 124.549 133.973 124.318 134.651C122.581 134.023 121.808 135.16 121.639 135.807Z" fill="#DBE9F6"/>
<path d="M102.608 126.896H91.105C91.4766 125.103 93.0085 125.275 93.728 125.584C94.7116 121.704 99.0834 123.071 99.3839 125.202C99.7336 124.612 100.659 124.756 101.078 124.901C102.324 125.338 102.617 126.413 102.608 126.896Z" fill="white"/>
<path d="M94.0835 126.842C93.1435 126.492 92.7993 127.151 92.7446 127.525H98.4552C98.4552 126.323 97.1983 126.295 96.8704 126.678C96.8067 126.332 96.4333 125.629 95.4496 125.585C94.466 125.541 94.129 126.405 94.0835 126.842Z" fill="#DBE9F6"/>
<path d="M108.455 138.992H91.7607C91.9793 137.2 93.646 137.052 94.3291 137.517C94.9193 136.14 96.3055 135.996 96.9248 136.096C97.4166 131.424 104.056 131.724 104.603 135.959C107.936 135.331 108.619 137.899 108.455 138.992Z" fill="white"/>
<path d="M99.9306 139.125C98.9469 138.818 98.5553 139.452 98.4824 139.808H106.843C106.778 138.343 105.523 138.177 104.903 138.278C103.865 135.409 101.078 136.993 101.133 138.414C100.346 138.305 100.003 138.842 99.9306 139.125Z" fill="#DBE9F7"/>
<g style="mix-blend-mode:multiply">
<rect x="88.8647" y="112.687" width="52.5698" height="56.559" fill="#DEDEDE"/>
</g>
<path d="M133.821 121.103C133.584 121.397 133.271 121.544 132.884 121.544C132.497 121.544 132.182 121.397 131.94 121.103C131.702 120.809 131.584 120.385 131.584 119.833C131.584 119.281 131.772 118.832 132.149 118.486C131.87 118.176 131.731 117.773 131.731 117.278C131.731 116.782 131.839 116.424 132.056 116.202C132.278 115.974 132.554 115.861 132.884 115.861C133.215 115.861 133.491 115.974 133.713 116.202C133.935 116.429 134.046 116.795 134.046 117.301C134.046 117.807 133.912 118.22 133.643 118.54C134.004 118.875 134.185 119.312 134.185 119.848C134.185 120.385 134.064 120.803 133.821 121.103ZM132.458 120.6C132.567 120.775 132.709 120.863 132.884 120.863C133.06 120.863 133.199 120.775 133.302 120.6C133.406 120.424 133.457 120.179 133.457 119.864C133.457 119.549 133.395 119.299 133.271 119.113C133.153 118.927 133.021 118.834 132.877 118.834C132.737 118.834 132.606 118.93 132.482 119.121C132.363 119.306 132.304 119.557 132.304 119.872C132.304 120.181 132.355 120.424 132.458 120.6ZM132.884 118.145C133.179 118.145 133.326 117.877 133.326 117.34C133.326 116.803 133.179 116.534 132.884 116.534C132.6 116.534 132.458 116.803 132.458 117.34C132.458 117.877 132.6 118.145 132.884 118.145ZM135.038 116.658V116.008H137.454V116.527L135.58 121.49H134.837L136.625 116.658H135.038ZM137.912 117.394C138.031 116.971 138.09 116.689 138.09 116.55C138.09 116.411 138.082 116.323 138.067 116.287C138.067 116.158 138.113 116.049 138.206 115.962C138.299 115.869 138.407 115.822 138.531 115.822C138.66 115.822 138.771 115.869 138.864 115.962C138.957 116.049 139.004 116.153 139.004 116.271C139.004 116.488 138.849 116.896 138.539 117.495L138.384 117.789L137.974 117.533L137.912 117.394Z" fill="#292929" fill-opacity="0.37"/>
<rect x="81.8237" y="105.142" width="66.515" height="1.18424" fill="#313131"/>
</svg>
