<svg width="2089" height="1790" viewBox="0 0 2089 1790" fill="none" xmlns="http://www.w3.org/2000/svg">

    <g class="container" style="transform: scale(1.1) translate(8%, -6%);">
        <g class="brightness-container">
            <g class="brightness">
                <path d="M732.025 1686.2L930.104 1690L845.056 844.959L732.025 1686.2Z" fill="#FFCA41"/>
                <path d="M764.224 0.000328609L962.303 3.7998L845.057 844.96L764.224 0.000328609Z" fill="#FFCA41"/>
                <path d="M340.608 1526.41L512.181 1625.7L845.247 844.718L340.608 1526.41Z" fill="#FFCA41"/>
                <path d="M1181.97 65.8552L1353.54 165.136L845.249 844.72L1181.97 65.8552Z" fill="#FFCA41"/>
                <path d="M56.4864 1154.36L149.355 1329.75L845.122 844.901L56.4864 1154.36Z" fill="#FFCA41"/>
                <path d="M1542.86 363.782L1635.73 539.177L845.121 844.901L1542.86 363.782Z" fill="#FFCA41"/>
                <path d="M9.04236 709.545L0 907.9L845.096 845.1L9.04236 709.545Z" fill="#FFCA41"/>
                <path d="M1690 786.519L1680.96 984.875L845.096 845.099L1690 786.519Z" fill="#FFCA41"/>
                <path d="M191.987 304.759L84.2158 471.372L845.227 845.008L191.987 304.759Z" fill="#FFCA41"/>
                <path d="M1603.95 1222.19L1496.17 1388.8L845.227 845.007L1603.95 1222.19Z" fill="#FFCA41"/>
                <path d="M545.664 48.3017L368.912 139.413L845.227 845.213L545.664 48.3017Z" fill="#FFCA41"/>
                <path d="M1317.78 1552.95L1141.03 1644.06L845.226 845.212L1317.78 1552.95Z" fill="#FFCA41"/>
            </g>
        </g>
    </g>
    <g class="people-container">
        <g class="people" style="transform: translateX(100px)">
            <path d="M1576.51 1263.31C1569.35 1279.42 1573.79 1296.3 1573.79 1296.3C1577.73 1309.6 1572.71 1314.45 1572.71 1314.45C1564.92 1303.63 1562.01 1312.77 1561.92 1317.99C1561.84 1323.2 1568.41 1330.51 1568.41 1330.51C1585.04 1351.59 1601.96 1340.8 1601.96 1340.8C1592.84 1354.72 1598.64 1355.44 1598.64 1355.44C1605.64 1356.23 1626.91 1335.89 1626.91 1335.89C1635.04 1320.38 1634.46 1292.69 1634.46 1292.69C1632.13 1281.42 1620.31 1253.91 1620.31 1253.91L1576.51 1263.31Z" fill="#FCD7BF"/>
            <path d="M1565.02 1391.04L1571.35 1167.89L1332.68 1168.06L1349.19 1391.02L1565.02 1391.04Z" fill="#2F2F3D"/>

            <path d="M1326.22 1287.43C1321.24 1315.35 1323.75 1340.84 1334.42 1361.9C1345.09 1382.97 1346.61 1374.78 1346.61 1374.78C1348.11 1371.69 1342.54 1354.71 1342.54 1354.71L1360.75 1381.23C1370.33 1396.95 1371.1 1382.4 1371.1 1382.4C1382.99 1399.04 1382.53 1381.03 1382.53 1381.03C1386.37 1383.98 1393.82 1381.54 1391.16 1373.72C1388.49 1365.9 1382.29 1330.02 1382.29 1330.02C1382.29 1330.02 1379.42 1299.96 1392.16 1318.29C1404.89 1336.61 1419.15 1333.29 1419.15 1333.29C1419.15 1333.29 1408.74 1318.67 1403.32 1307.69C1397.91 1296.7 1383.56 1275.91 1383.56 1275.91L1377.17 1262.81L1325.5 1273.19L1326.22 1287.43Z" fill="#FCD7BF"/>
            <path d="M1498.67 893.931L1517.1 898.302L1486.67 932.71H1427.68L1407.66 896.088L1427.68 893.931V871.436C1427.68 871.436 1402.25 860.721 1388.6 854.271C1374.95 847.82 1363.85 691.804 1363.85 691.804C1463.41 590.649 1557.68 686.724 1557.68 686.724C1557.68 686.724 1553.61 847.811 1539.32 854.271C1525.03 860.731 1498.24 869.28 1498.24 869.28V895.407" fill="#FCD7BF"/>
            <path d="M1542.15 801.69L1547.78 787.907C1551.82 778.025 1570.4 769.783 1575.07 783.91C1576.8 789.096 1575.39 794.856 1573.52 799.984C1567.77 815.846 1556.03 835.369 1539.49 839.462" fill="#FCD7BF"/>
            <path d="M1387.76 807.299C1382.97 794.274 1374.35 777.098 1358.45 783.836C1356.22 784.658 1354.36 786.254 1353.2 788.331C1351.86 791.073 1352.34 794.408 1353.03 797.418C1357.46 816.721 1371.24 840.49 1390.53 845.072" fill="#FCD7BF"/>
            <path d="M1479.21 829.716H1443.33C1442.27 829.712 1441.24 830.001 1440.34 830.551C1439.44 831.101 1438.71 831.891 1438.23 832.832C1437.75 833.773 1437.55 834.828 1437.64 835.879C1437.73 836.93 1438.11 837.935 1438.73 838.783C1447.49 850.677 1465.22 866.904 1484 838.495C1484.56 837.636 1484.88 836.641 1484.92 835.615C1484.96 834.59 1484.73 833.572 1484.23 832.671C1483.74 831.77 1483.02 831.02 1482.13 830.499C1481.25 829.979 1480.24 829.708 1479.21 829.716Z" fill="#F1F1F2" stroke="#F1F1F2" stroke-width="0.95845" stroke-miterlimit="10"/>
            <path d="M1376.7 716.732C1376.7 716.732 1372.72 770.827 1371.45 788.511C1371.45 788.511 1343.53 729.173 1357.61 688.094" fill="#1A151F"/>

            <path d="M1538 707C1543.65 704.316 1552.81 782.32 1552.81 782.32C1572.93 721.238 1580.88 653.466 1505.08 637.441C1481.54 632.457 1471.16 632.4 1437.62 635.773C1406.22 638.917 1363.82 657.731 1357.61 688.095C1352.16 714.587 1376.29 722.216 1376.29 722.216C1376.29 722.216 1455.64 746.124 1538 707Z" fill="#1A151F"/>
            <path d="M1505.09 789.086C1513 789.086 1519.42 782.705 1519.42 774.834C1519.42 766.963 1513 760.582 1505.09 760.582C1497.18 760.582 1490.76 766.963 1490.76 774.834C1490.76 782.705 1497.18 789.086 1505.09 789.086Z" fill="#262626"/>
            <path d="M1415.08 789.086C1422.99 789.086 1429.41 782.705 1429.41 774.834C1429.41 766.963 1422.99 760.582 1415.08 760.582C1407.16 760.582 1400.75 766.963 1400.75 774.834C1400.75 782.705 1407.16 789.086 1415.08 789.086Z" fill="#262626"/>
            <path d="M1567.49 1029L1568.15 1168.09C1480.94 1170.18 1344.4 1168.09 1344.4 1168.09L1341.83 1034.72C1376.33 1203.87 1379.66 1190.55 1401.99 1268.17L1311.47 1281.14C1307.83 1280.61 1268.82 1158.69 1268.82 1127.12C1268.82 1074.59 1265.45 1085.91 1272.92 1033.87C1279.73 986.44 1294 937.808 1340.48 912.562C1358.69 902.681 1368.07 901.176 1407.66 896.096C1407.66 896.096 1467.08 957.955 1510.15 896.096C1510.15 896.096 1591.3 922.032 1607.22 954.293C1642.47 1025.66 1651.47 1134.48 1646.9 1263.98L1568.61 1262.86L1567.49 1029Z" fill="#F5894B"/>
            <path d="M1449.68 1391.02V1299.47L1443.16 1391.02C1445.55 1390.99 1447.29 1391.08 1449.68 1391.02Z" fill="#262631"/>
            <path d="M1427.68 871.437L1498.33 870.038L1427.68 879.057V871.437Z" fill="#F7A185"/>
            <path d="M1567.73 1171.59C1566.3 1146 1564.85 1115.12 1563.18 1089.8C1562.42 1078.93 1561.62 1068.04 1560.14 1057.21C1559.66 1053.16 1558.85 1049.16 1557.72 1045.23C1557.35 1043.92 1556.79 1042.68 1556.05 1041.53C1556.92 1042.61 1557.62 1043.8 1558.13 1045.08C1561.63 1054.05 1562.83 1063.74 1564.15 1073.21C1567.93 1105.84 1569.12 1138.73 1567.73 1171.55V1171.59Z" fill="#EE4036"/>
            <path d="M1442.88 811.17L1461.33 782.417L1463 811.17H1442.88Z" fill="#FF9F65"/>
            <path d="M723.793 1390.07L731.959 1144.21L479.053 1159.96L482.168 1255.89C483.596 1299.65 485.541 1346.3 486.96 1390.07H723.793Z" fill="#2F2F3D"/>
            <path d="M777.671 1276.35C791.281 1300.92 797.386 1325.75 794.741 1349.19C792.095 1372.64 788.032 1365.49 788.032 1365.49C785.674 1363.09 785.099 1345.23 785.099 1345.23L777.537 1376.36C774.115 1394.4 768.661 1381 768.661 1381C763.467 1400.7 757.975 1383.6 757.975 1383.6C755.55 1387.68 748.045 1387.94 747.853 1379.68C747.662 1371.43 741.47 1335.59 741.47 1335.59C741.47 1335.59 734.224 1306.33 728.799 1327.93C723.375 1349.52 709.554 1351.24 709.554 1351.24C709.554 1351.24 714.087 1333.98 715.304 1321.76C716.522 1309.54 722.569 1285.14 722.569 1285.14L724.055 1270.6L773.693 1262.74L777.671 1276.35Z" fill="#FCD7BF"/>
            <path d="M560.828 889.247L550.572 902.339L572.214 928.074H628.398L663.775 913.841L628.398 889.247V866.771C628.398 866.771 652.618 856.046 665.615 849.576C678.612 843.107 689.222 686.908 689.222 686.908C594.402 585.648 504.634 681.819 504.634 681.819C504.634 681.819 508.468 843.078 522.116 849.548C535.764 856.017 561.23 864.586 561.23 864.586V890.771" fill="#FCD7BF"/>
            <path d="M582.188 803.502L600.639 774.749L602.316 803.502H582.188Z" fill="#FF9F65"/>
            <path d="M519.427 796.948L514.059 783.147C510.225 773.256 492.513 765.013 488.066 779.15C486.427 784.335 487.769 790.105 489.552 795.233C495.063 811.114 506.2 830.696 521.947 834.759" fill="#FCD7BF"/>
            <path d="M666.441 802.563C670.955 789.519 679.198 772.324 694.36 779.072C696.516 779.917 698.293 781.513 699.363 783.567C700.638 786.318 700.178 789.653 699.517 792.663C695.309 811.985 682.265 835.793 663.814 840.365" fill="#FCD7BF"/>
            <path d="M579.327 824.922H613.515C617.981 824.922 620.521 830.223 617.885 833.999C609.547 845.903 592.659 862.158 574.755 833.711C572.416 829.983 575.033 824.922 579.327 824.922Z" fill="#F1F1F2" stroke="#F1F1F2" stroke-width="0.95845" stroke-miterlimit="10"/>
            <path d="M617.319 733.449C617.319 733.449 625.485 722.188 628.821 711.271L640.418 733.488H669.296L677.357 717.386C677.357 717.386 700.36 709.718 695.146 683.227C689.203 652.834 648.852 634.001 618.949 630.847C587.004 627.474 577.122 627.541 554.733 632.525C482.523 648.569 490.114 716.399 509.264 777.557C509.264 777.557 516.874 722.926 521.944 714.846C521.944 714.846 524.446 734.197 526.161 733.488C526.161 733.488 559.199 735.778 560.665 730.929C562.477 724.9 570.068 712.546 570.068 712.546C570.068 712.546 581.569 729.664 581.569 731.561C581.569 733.459 617.319 733.449 617.319 733.449Z" fill="#1A151F"/>
            <path d="M554.719 784.324C562.251 784.324 568.358 777.934 568.358 770.053C568.358 762.171 562.251 755.781 554.719 755.781C547.186 755.781 541.08 762.171 541.08 770.053C541.08 777.934 547.186 784.324 554.719 784.324Z" fill="#262626"/>
            <path d="M640.448 784.324C647.981 784.324 654.087 777.934 654.087 770.053C654.087 762.171 647.981 755.781 640.448 755.781C632.916 755.781 626.81 762.171 626.81 770.053C626.81 777.934 632.916 784.324 640.448 784.324Z" fill="#262626"/>
            <path d="M381.89 669.732C375.593 642.119 376.552 616.499 385.513 594.829C394.475 573.158 396.382 581.257 396.382 581.257C397.992 584.257 393.641 601.547 393.641 601.547L409.417 573.992C417.65 557.698 419.193 572.219 419.193 572.219C429.573 554.9 430.148 572.919 430.148 572.919C433.589 569.756 440.845 571.749 438.774 579.724C436.704 587.698 432.784 623.918 432.784 623.918C432.784 623.918 431.73 654.118 442.819 635.064C453.908 616.01 467.652 618.502 467.652 618.502C467.652 618.502 458.566 633.713 454.023 645.004C449.48 656.294 437.011 677.907 437.011 677.907L431.672 691.325L381.967 684.032L381.89 669.732Z" fill="#FCD7BF"/>
            <path d="M614.636 1390.08L614.089 1283.68L605.904 1390.08H614.636Z" fill="#262631"/>
            <path d="M772.537 1040.26C764.448 1003.91 749.726 974.893 723.187 949.753C701.238 928.964 671.939 917.061 646.511 901.831L631.521 878.023L558.535 879.441C555.362 884.349 548.145 901.677 542.902 903.518C542.283 903.732 541.639 903.867 540.986 903.92C531.401 904.677 517.024 890.243 510.171 884.052C489.45 865.308 473.7 841.72 464.329 815.398C448.735 771.424 451.457 722.994 454.39 676.202L370.573 675.579C368.522 675.579 366.279 675.579 364.669 676.94C362.752 678.512 362.398 681.311 362.148 683.822C356.791 737.102 350.254 787.171 365.12 839.503C379.65 890.722 407.061 937.111 437.339 979.686C449.607 996.938 462.143 1014.66 465.517 1035.83C471.939 1076.13 477.67 1119.13 479.051 1159.93C479.309 1167.18 579.055 1160.73 586.579 1160.37C612.349 1159.15 638.115 1157.7 663.878 1156.05C673.204 1155.47 698.44 1154.48 707.765 1154.01C710.976 1153.85 706.644 1154.97 708.024 1171.26C709.644 1190.57 709.596 1209.98 709.491 1229.34C709.424 1241.94 709.002 1254.59 709.443 1267.17C709.922 1280.8 712.184 1279.58 725.161 1278.37C729.954 1277.93 794.103 1273.72 793.805 1270.24C787.307 1192.71 789.579 1116.79 772.537 1040.26Z" fill="#3875B9"/>
            <path d="M561.226 864.614L628.433 866.77L560.996 872.933L561.226 864.614Z" fill="#F7A185"/>
            <path d="M676.991 711.893C676.991 711.893 680.825 766.055 681.985 783.777C681.985 783.777 708.572 724.353 695.163 683.255" fill="#1A151F"/>
            <path d="M468.149 1045.46C466.979 1015.5 463.673 985.599 457.222 956.328C456.513 953.453 455.756 950.156 455.133 947.223C456.187 950.012 457.308 953.194 458.296 956.031C462.367 968.949 465.254 982.211 466.922 995.653C468.944 1012.13 469.797 1028.95 468.139 1045.49L468.149 1045.46Z" fill="#2B388F"/>
            <path d="M999.791 752.812V726.589C999.791 726.589 962.9 719.199 947.431 712.72C931.962 706.241 935.45 543.372 935.45 543.372C935.45 543.372 1037.51 446.952 1145.35 548.471C1145.35 548.471 1146.21 710.775 1131.44 717.254C1116.67 723.733 1076.24 728.755 1076.24 728.755V757.911L999.791 752.812Z" fill="#FAC3B2"/>
            <path d="M940.891 658.758L934.796 644.918C930.425 634.998 910.298 626.708 905.237 640.912C903.387 646.116 904.902 651.896 906.934 657.043C913.202 672.963 925.863 692.505 943.767 696.656" fill="#FAC3B2"/>
            <path d="M1133.08 664.384C1138.22 651.31 1147.58 634.068 1164.83 640.834C1167.19 641.621 1169.2 643.22 1170.5 645.349C1171.96 648.1 1171.46 651.445 1170.69 654.464C1165.9 673.834 1151.02 697.69 1130.09 702.281" fill="#FAC3B2"/>
            <path d="M1009.68 686.843H1070.36C1070.36 686.843 1040.45 742.376 1009.68 686.843Z" fill="#F1F1F2" stroke="#F1F1F2" stroke-width="0.95845" stroke-miterlimit="10"/>
            <path d="M990.506 615.263C1001.05 615.263 1009.88 623.208 1011.92 633.78C1012.21 632.235 1012.36 630.666 1012.36 629.093C1012.36 616.279 1002.57 605.889 990.506 605.889C978.439 605.889 968.644 616.279 968.644 629.093C968.644 630.666 968.791 632.235 969.084 633.78C971.088 623.208 979.905 615.263 990.506 615.263Z" fill="#262626"/>
            <path d="M1084.33 613.693C1094.88 613.693 1103.7 621.639 1105.75 632.21C1106.04 630.665 1106.19 629.096 1106.19 627.524C1106.19 614.709 1096.4 604.329 1084.33 604.329C1072.27 604.329 1062.47 614.709 1062.47 627.524C1062.47 629.096 1062.62 630.665 1062.91 632.21C1064.95 621.639 1073.77 613.693 1084.33 613.693Z" fill="#262626"/>
            <path d="M1131.4 573.495C1131.4 573.495 1141.83 627.781 1143.21 645.522C1143.21 645.522 1168.82 571.722 1152.06 544.741" fill="#1A151F"/>
            <path d="M1013.5 1381L1033.16 1267L1066.5 1390.06C1119.82 1392.33 1156.87 1389.82 1209.44 1390.06L1189.31 1152.97H880.693L866.671 1390.41L1013.5 1381Z" fill="#141414"/>
            <path d="M936.967 649.836C936.967 649.836 939.085 577.224 959.279 563.901C976.138 552.774 1032.62 567.563 1091.89 572.211C1119.82 574.396 1145.47 578.92 1164.73 558.515C1174.21 548.49 1188.93 514.532 1173.72 501.966C1146.83 479.807 1130.22 509.797 1035.71 496.331C911.913 478.734 923.788 571.224 936.967 649.836Z" fill="#2F2F3D"/>
            <path d="M999.801 726.587L1076.2 728.754L1075.4 744.232L1038.61 757.91L999.59 749.006L999.801 726.587Z" fill="#F7A185"/>
            <path fill-rule="evenodd" clip-rule="evenodd" d="M1037.92 634.818L1049.88 664.125L1035.54 664.308L1037.92 634.818Z" fill="#FF8963"/>

        </g>
    </g>

    <g class="clouds-container" style="transform: translate(20px, 50px)">
        <g class="clouds">
            <ellipse cx="313.442" cy="1208.79" rx="217.845" ry="179.794" fill="#FFE197"/>
            <ellipse cx="829.991" cy="1388.59" rx="149.669" ry="147.133" fill="#FFE197"/>
            <ellipse cx="476.746" cy="1276.33" rx="149.669" ry="147.133" fill="#FFE197"/>
            <ellipse cx="491.65" cy="1360.68" rx="217.845" ry="147.133" fill="#FFE197"/>
            <ellipse cx="646.71" cy="1256.68" rx="169.964" ry="147.133" fill="#FFE197"/>
            <ellipse cx="668.589" cy="1510.99" rx="217.845" ry="174.403" fill="#FFE197"/>
            <ellipse cx="353.943" cy="1289.85" rx="204.602" ry="168.864" fill="#FFEBB8"/>
            <ellipse cx="236.602" cy="1381.28" rx="204.602" ry="138.188" fill="#FFEBB8"/>
            <ellipse cx="839.089" cy="1458.71" rx="140.571" ry="138.188" fill="#FFEBB8"/>
            <ellipse cx="507.32" cy="1353.28" rx="140.571" ry="138.188" fill="#FFEBB8"/>
            <ellipse cx="666.95" cy="1334.82" rx="159.631" ry="138.188" fill="#FFEBB8"/>
            <ellipse cx="687.499" cy="1573.67" rx="204.602" ry="163.801" fill="#FFEBB8"/>
            <ellipse cx="1025.33" cy="1459.13" rx="149.669" ry="147.133" fill="#FFE197"/>
            <ellipse cx="750.797" cy="1483.21" rx="172.313" ry="142.215" fill="#FFE197"/>
            <ellipse cx="489.66" cy="1455" rx="220" ry="142" fill="#FFE197"/>
            <ellipse cx="651.974" cy="1560.22" rx="172.313" ry="116.38" fill="#FFE197"/>
            <ellipse cx="1159.38" cy="1625.43" rx="118.387" ry="116.38" fill="#FFE197"/>
            <ellipse cx="879.968" cy="1536.64" rx="118.387" ry="116.38" fill="#FFE197"/>
            <ellipse cx="1014.41" cy="1521.09" rx="134.439" ry="116.38" fill="#FFE197"/>
            <ellipse cx="217.845" cy="179.794" rx="217.845" ry="179.794" transform="matrix(-1 0 0 1 1963.72 1035)" fill="#FFE197"/>
            <ellipse cx="217.845" cy="147.133" rx="217.845" ry="147.133" transform="matrix(-1 0 0 1 2088.66 1165.01)" fill="#FFE197"/>
            <ellipse cx="149.669" cy="147.133" rx="149.669" ry="147.133" transform="matrix(-1 0 0 1 1379 1247.46)" fill="#FFE197"/>
            <ellipse cx="149.669" cy="147.133" rx="149.669" ry="147.133" transform="matrix(-1 0 0 1 1732.25 1135.2)" fill="#FFE197"/>
            <ellipse cx="217.845" cy="147.133" rx="217.845" ry="147.133" transform="matrix(-1 0 0 1 1785.52 1219.55)" fill="#FFE197"/>
            <ellipse cx="169.964" cy="147.133" rx="169.964" ry="147.133" transform="matrix(-1 0 0 1 1582.57 1115.54)" fill="#FFE197"/>
            <ellipse cx="217.845" cy="174.403" rx="217.845" ry="174.403" transform="matrix(-1 0 0 1 1608.58 1342.58)" fill="#FFE197"/>
            <ellipse cx="204.602" cy="168.864" rx="204.602" ry="168.864" transform="matrix(-1 0 0 1 1909.98 1126.98)" fill="#FFEBB8"/>
            <ellipse cx="216.5" cy="152" rx="216.5" ry="152" transform="matrix(-1 0 0 1 2039.66 1221)" fill="#FFEBB8"/>
            <ellipse cx="140.571" cy="138.188" rx="140.571" ry="138.188" transform="matrix(-1 0 0 1 1360.8 1326.52)" fill="#FFEBB8"/>
            <ellipse cx="140.571" cy="138.188" rx="140.571" ry="138.188" transform="matrix(-1 0 0 1 1692.57 1221.09)" fill="#FFEBB8"/>
            <ellipse cx="236" cy="162.5" rx="236" ry="162.5" transform="matrix(-1 0 0 1 1805.66 1300)" fill="#FFEBB8"/>
            <ellipse cx="159.631" cy="138.188" rx="159.631" ry="138.188" transform="matrix(-1 0 0 1 1552 1202.63)" fill="#FFEBB8"/>
            <ellipse cx="204.602" cy="163.801" rx="204.602" ry="163.801" transform="matrix(-1 0 0 1 1576.42 1415.87)" fill="#FFEBB8"/>
            <ellipse cx="162" cy="146.5" rx="162" ry="146.5" transform="matrix(-1 0 0 1 1229.66 1350)" fill="#FFEBB8"/>
            <ellipse cx="161.838" cy="109.305" rx="161.838" ry="109.305" transform="matrix(-1 0 0 1 1293.32 1570.81)" fill="#FFEBB8"/>
            <ellipse cx="161.838" cy="109.305" rx="161.838" ry="109.305" transform="matrix(-1 0 0 1 1293.32 1465.27)" fill="#FFEBB8"/>
            <ellipse cx="111.19" cy="109.305" rx="111.19" ry="109.305" transform="matrix(-1 0 0 1 766.11 1526.52)" fill="#FFEBB8"/>
            <ellipse cx="111.19" cy="109.305" rx="111.19" ry="109.305" transform="matrix(-1 0 0 1 1015.04 1423)" fill="#FFEBB8"/>
            <ellipse cx="161.838" cy="109.305" rx="161.838" ry="109.305" transform="matrix(-1 0 0 1 1068.11 1505.79)" fill="#FFEBB8"/>
            <ellipse cx="161.5" cy="140" rx="161.5" ry="140" transform="matrix(-1 0 0 1 841.66 1371)" fill="#FFEBB8"/>
            <ellipse cx="431.16" cy="1562" rx="256.5" ry="173" fill="#FFEBB8"/>
            <ellipse cx="1580" cy="1468.5" rx="216" ry="168.5" fill="#FFE197"/>
            <ellipse cx="1304" cy="1479" rx="194" ry="158" fill="#FFE197"/>
            <ellipse cx="1257.66" cy="1524.5" rx="220" ry="181.5" fill="#FFEBB8"/>
            <ellipse cx="1627" cy="1520.5" rx="220" ry="181.5" fill="#FFEBB8"/>
            <ellipse cx="1823" cy="1490.5" rx="159" ry="131.5" fill="#FFEBB8"/>
        </g>
    </g>

    <g class="people-container">
        <g class="people shirt-hands" style="transform: translateX(100px)">
            <path d="M634.014 1128.02C620.595 1125.53 627.755 1145.9 642.237 1149.1C650.146 1150.9 658.145 1152.28 666.199 1153.23C666.199 1153.23 639.362 1232.95 680.623 1235.88C680.623 1235.88 686.566 1257.28 702.917 1258.67C702.917 1258.67 711.342 1260.94 697.626 1242.26C697.626 1242.26 714.495 1265.27 722.067 1259.65C722.067 1259.65 733.376 1256.2 716.316 1242.53C699.255 1228.86 704.565 1199.68 704.565 1199.68C704.565 1199.68 706.319 1198.72 710.143 1209.53C714.169 1220.91 716.805 1233.55 727.137 1240.94C731.584 1234.23 728.191 1221.06 726.667 1212.35C723.437 1193.9 744.168 1154.34 751.366 1137.98C752.679 1135.01 723.571 1106.8 725.287 1103.98C725.306 1104 675.38 1135.64 634.014 1128.02Z" fill="#FAC3B2"/>
            <path d="M1422.65 1125.68C1434.34 1122.67 1428.09 1143.25 1415.49 1146.99C1408.65 1149.09 1401.68 1150.79 1394.64 1152.07C1394.64 1152.07 1417.92 1230.46 1382.08 1235.03C1382.08 1235.03 1376.9 1256.59 1362.7 1258.63C1362.7 1258.63 1355.37 1261.23 1367.3 1242.06C1367.3 1242.06 1352.64 1265.63 1346.04 1260.37C1346.04 1260.37 1336.21 1257.38 1351.02 1243.12C1365.83 1228.86 1361.3 1199.92 1361.3 1199.92C1361.3 1199.92 1359.78 1199.05 1356.45 1209.96V1210.02C1352.95 1221.52 1350.7 1234.22 1341.67 1242C1337.84 1235.51 1340.71 1222.23 1342.08 1213.49C1344.9 1194.97 1326.88 1156.37 1320.62 1140.35C1319.49 1137.48 1344.81 1108.16 1343.31 1105.42C1343.29 1105.38 1386.68 1134.93 1422.65 1125.68Z" fill="#FAC3B2"/>
            <path d="M987.335 735.627C1034.85 743.055 1089.89 735.627 1089.89 735.627L1067.17 812.14L1003.02 826.028L987.335 735.627Z" fill="white"/>
            <path d="M1033.22 805.596C1031.03 807.148 1028.16 803.257 1027.78 800.343L1022.25 758.104C1022.25 758.104 972.747 722.642 970.973 748.251C969.2 773.861 970.973 786.264 970.973 786.264L946.945 789.618C799.123 810.292 719.524 978.279 668.697 1100.28C667.547 1103.04 666.397 1106.13 667.404 1108.91C668.41 1111.69 671.381 1113.45 674.113 1114.85L770.312 1164.47C789.788 1126.13 809.277 1087.79 828.778 1049.45C828.778 1049.45 882.719 983.072 896.943 974.513C879.911 1009.28 847.266 1111.05 857.387 1153.96C862.908 1177.38 912.786 1169.47 928.629 1167.97C960.613 1164.93 997.264 1163.71 1029.47 1163.94C1068.22 1164.22 1101.74 1162.18 1140.43 1163.74C1156.54 1164.39 1208.48 1170.52 1216.27 1149.5C1216.91 1147.74 1217.12 1145.85 1216.88 1144C1211.6 1099.91 1189.95 1000.31 1172.73 974.513C1186.63 983.072 1239.43 1049.45 1239.43 1049.45L1297.89 1167.09C1297.89 1167.09 1396.14 1111.95 1396.13 1111.94C1354.56 1006.51 1266.3 785.909 1123.72 789.57L1100.21 786.216C1100.21 786.216 1101.95 773.823 1100.21 748.204C1098.48 722.584 1049.51 758.277 1049.51 758.277L1044.08 800.516C1043.71 803.391 1040.8 807.321 1038.64 805.778L1033.22 805.596Z" fill="#292929"/>
            <path d="M1036.32 890.196C1044.09 890.196 1050.38 883.901 1050.38 876.136C1050.38 868.37 1044.09 862.075 1036.32 862.075C1028.56 862.075 1022.26 868.37 1022.26 876.136C1022.26 883.901 1028.56 890.196 1036.32 890.196Z" fill="white"/>
            <path d="M1036.32 969.507C1044.09 969.507 1050.38 963.212 1050.38 955.446C1050.38 947.681 1044.09 941.386 1036.32 941.386C1028.56 941.386 1022.26 947.681 1022.26 955.446C1022.26 963.212 1028.56 969.507 1036.32 969.507Z" fill="white"/>
            <path d="M1036.32 1048.82C1044.09 1048.82 1050.38 1042.53 1050.38 1034.76C1050.38 1027 1044.09 1020.7 1036.32 1020.7C1028.56 1020.7 1022.26 1027 1022.26 1034.76C1022.26 1042.53 1028.56 1048.82 1036.32 1048.82Z" fill="white"/>
        </g>
    </g>
</svg>
