<svg width="167" height="167" viewBox="0 0 167 167" fill="none" xmlns="http://www.w3.org/2000/svg">
<g clip-path="url(#clip0_1447_5662)">
<path d="M87.3304 70.5198L18.2749 80.0504V63.8299L87.3304 70.5198Z" fill="#FFCA41"/>
<path d="M86.8837 71.3734L96.4155 140.43H80.1938L86.8837 71.3734Z" fill="#FFCA41"/>
<path d="M87.3301 70.9608L156.387 61.4302V77.6507L87.3301 70.9608Z" fill="#FFCA41"/>
<path d="M87.2891 69.0555L77.7573 0H93.979L87.2891 69.0555Z" fill="#FFCA41"/>
<path d="M85.9829 70.6375L141.047 113.387L129.441 124.719L85.9829 70.6375Z" fill="#FFCA41"/>
<path d="M86.9062 70.36L129.656 15.2963L140.989 26.9019L86.9062 70.36Z" fill="#FFCA41"/>
<path d="M86.2991 70.329L31.2354 27.5784L42.841 16.2465L86.2991 70.329Z" fill="#FFCA41"/>
<path d="M84.9651 71.6893L42.2157 126.753L30.8838 115.147L84.9651 71.6893Z" fill="#FFCA41"/>
<path d="M86.2422 70.2138L69.0963 137.783L54.0664 131.681L86.2422 70.2138Z" fill="#FFCA41"/>
<path d="M86.8652 70.9484L154.434 88.0955L148.333 103.124L86.8652 70.9484Z" fill="#FFCA41"/>
<path d="M86.6514 70.381L103.797 2.81096L118.827 8.9136L86.6514 70.381Z" fill="#FFCA41"/>
<path d="M84.8709 69.7022L17.3008 52.5563L23.4034 37.5264L84.8709 69.7022Z" fill="#FFCA41"/>
<path d="M86.6609 70.7403L26.7767 106.427L20.4561 91.4875L86.6609 70.7403Z" fill="#FFCA41"/>
<path d="M86.583 71.7004L122.27 131.585L107.33 137.905L86.583 71.7004Z" fill="#FFCA41"/>
<path d="M86.833 71.1466L146.716 35.46L153.037 50.3994L86.833 71.1466Z" fill="#FFCA41"/>
<path d="M86.0524 69.4085L50.3657 9.52559L65.3039 3.20367L86.0524 69.4085Z" fill="#FFCA41"/>
<path d="M157.76 150.366C156.835 152.448 157.408 154.63 157.408 154.63C157.918 156.349 157.268 156.976 157.268 156.976C156.261 155.578 155.886 156.759 155.875 157.433C155.863 158.107 156.713 159.051 156.713 159.051C158.863 161.777 161.049 160.382 161.049 160.382C159.871 162.181 160.621 162.274 160.621 162.274C161.525 162.377 164.274 159.748 164.274 159.748C165.326 157.742 165.25 154.163 165.25 154.163C164.949 152.707 163.422 149.15 163.422 149.15L157.76 150.366Z" fill="#FCD7BF"/>
<path d="M156.275 166.876L157.093 138.033L126.243 138.054L128.377 166.874L156.275 166.876Z" fill="#2F2F3D"/>
<path d="M125.409 153.484C124.765 157.093 125.089 160.387 126.468 163.11C127.847 165.833 128.044 164.774 128.044 164.774C128.239 164.375 127.518 162.18 127.518 162.18L129.871 165.607C131.11 167.639 131.209 165.759 131.209 165.759C132.747 167.909 132.687 165.581 132.687 165.581C133.183 165.963 134.147 165.648 133.802 164.637C133.458 163.627 132.656 158.988 132.656 158.988C132.656 158.988 132.285 155.103 133.931 157.472C135.578 159.841 137.421 159.411 137.421 159.411C137.421 159.411 136.074 157.521 135.374 156.102C134.674 154.682 132.82 151.995 132.82 151.995L131.995 150.301L125.316 151.643L125.409 153.484Z" fill="#FCD7BF"/>
<path d="M147.699 102.621L150.08 103.186L146.148 107.634H138.523L135.935 102.9L138.523 102.621V99.7136C138.523 99.7136 135.235 98.3286 133.471 97.4948C131.707 96.661 130.272 76.4948 130.272 76.4948C143.141 63.4199 155.325 75.8382 155.325 75.8382C155.325 75.8382 154.8 96.6598 152.953 97.4948C151.106 98.3298 147.643 99.4349 147.643 99.4349V102.812" fill="#FCD7BF"/>
<path d="M153.318 90.6984L154.047 88.9169C154.568 87.6396 156.97 86.5742 157.574 88.4003C157.797 89.0705 157.615 89.8151 157.373 90.4779C156.63 92.5282 155.112 95.0518 152.975 95.5808" fill="#FCD7BF"/>
<path d="M133.363 91.4231C132.744 89.7395 131.629 87.5195 129.573 88.3904C129.285 88.4967 129.045 88.7028 128.896 88.9714C128.722 89.3257 128.784 89.7569 128.874 90.1459C129.446 92.6409 131.227 95.7133 133.72 96.3055" fill="#FCD7BF"/>
<path d="M145.184 94.3208H140.545C140.409 94.3202 140.275 94.3576 140.159 94.4287C140.043 94.4999 139.948 94.602 139.887 94.7236C139.825 94.8452 139.799 94.9816 139.81 95.1174C139.822 95.2533 139.871 95.3832 139.952 95.4928C141.083 97.0302 143.375 99.1276 145.803 95.4556C145.876 95.3446 145.917 95.2159 145.922 95.0834C145.927 94.9508 145.897 94.8193 145.833 94.7028C145.769 94.5864 145.676 94.4893 145.561 94.4221C145.447 94.3548 145.316 94.3198 145.184 94.3208Z" fill="#F1F1F2" stroke="#F1F1F2" stroke-width="0.123886" stroke-miterlimit="10"/>
<path d="M131.933 79.7171C131.933 79.7171 131.418 86.7092 131.254 88.995C131.254 88.995 127.646 81.3251 129.465 76.0154" fill="#1A151F"/>
<path d="M152.975 80.8693C153.704 80.5224 154.695 88.1947 154.695 88.1947C157.297 80.2994 158.324 71.5394 148.527 69.468C145.483 68.8238 144.143 68.8164 139.807 69.2524C135.748 69.6588 130.268 72.0907 129.465 76.0154C128.761 79.4396 131.879 80.4258 131.879 80.4258C131.879 80.4258 142.329 85.9263 152.975 80.8693Z" fill="#1A151F"/>
<path d="M131.58 123.723C131.58 123.723 131.332 127.65 131.456 131.469C131.458 131.497 131.448 131.524 131.431 131.545C131.413 131.566 131.387 131.579 131.36 131.581C131.333 131.584 131.305 131.576 131.284 131.559C131.262 131.542 131.248 131.518 131.244 131.49C130.923 129.435 130.501 125.935 130.941 123.723C131.239 122.216 131.489 121.02 131.674 120.164C131.679 120.136 131.694 120.111 131.717 120.095C131.739 120.079 131.768 120.072 131.795 120.076C131.823 120.08 131.848 120.095 131.864 120.118C131.881 120.14 131.888 120.168 131.885 120.196L131.58 123.723Z" fill="#4289C8"/>
<path d="M148.528 89.0693C149.551 89.0693 150.38 88.2445 150.38 87.2271C150.38 86.2097 149.551 85.3849 148.528 85.3849C147.505 85.3849 146.676 86.2097 146.676 87.2271C146.676 88.2445 147.505 89.0693 148.528 89.0693Z" fill="#262626"/>
<path d="M136.893 89.0693C137.916 89.0693 138.745 88.2445 138.745 87.2271C138.745 86.2097 137.916 85.3849 136.893 85.3849C135.87 85.3849 135.041 86.2097 135.041 87.2271C135.041 88.2445 135.87 89.0693 136.893 89.0693Z" fill="#262626"/>
<path d="M156.594 120.08L156.68 138.059C145.406 138.329 127.758 138.059 127.758 138.059L127.426 120.819C131.886 142.684 132.316 140.962 135.202 150.994L123.501 152.671C123.032 152.602 117.989 136.844 117.989 132.763C117.989 125.973 117.553 127.436 118.518 120.71C119.399 114.579 121.244 108.293 127.251 105.03C129.605 103.752 130.818 103.558 135.934 102.901C135.934 102.901 143.615 110.897 149.183 102.901C149.183 102.901 159.671 106.254 161.73 110.424C166.285 119.648 167.449 133.714 166.859 150.452L156.739 150.308L156.594 120.08Z" fill="#F5894B"/>
<path d="M141.367 166.874V155.04L140.524 166.874C140.833 166.87 141.058 166.881 141.367 166.874Z" fill="#262631"/>
<path d="M138.522 99.7136L147.655 99.5327L138.522 100.699V99.7136Z" fill="#F7A185"/>
<path d="M156.624 138.51C156.44 135.203 156.253 131.212 156.036 127.939C155.938 126.534 155.835 125.126 155.643 123.727C155.581 123.203 155.476 122.685 155.331 122.178C155.283 122.009 155.211 121.847 155.115 121.7C155.227 121.838 155.318 121.993 155.384 122.158C155.836 123.318 155.991 124.57 156.162 125.794C156.65 130.012 156.804 134.262 156.624 138.505V138.51Z" fill="#EE4036"/>
<path d="M131.321 138.224C129.45 130.622 128.406 125.543 129.011 118.574" stroke="#EE4036" stroke-width="0.371659" stroke-miterlimit="10" stroke-linecap="round"/>
<path d="M31.3755 94.1338C31.3755 94.1338 34.4726 93.4722 36.99 94.1635C37.1362 94.55 33.9461 98.6568 31.3755 94.1338Z" fill="#EE4036"/>
<path d="M28.8238 89.13C29.8289 89.13 30.6437 88.2348 30.6437 87.1305C30.6437 86.0262 29.8289 85.131 28.8238 85.131C27.8187 85.131 27.0039 86.0262 27.0039 87.1305C27.0039 88.2348 27.8187 89.13 28.8238 89.13Z" fill="#FCD7BF"/>
<path d="M39.9044 89.13C40.9095 89.13 41.7243 88.2348 41.7243 87.1305C41.7243 86.0262 40.9095 85.131 39.9044 85.131C38.8993 85.131 38.0845 86.0262 38.0845 87.1305C38.0845 88.2348 38.8993 89.13 39.9044 89.13Z" fill="#FCD7BF"/>
<path d="M47.5401 166.751L48.5956 134.972L15.9058 137.007L16.3084 149.407C16.493 155.064 16.7445 161.093 16.9278 166.751H47.5401Z" fill="#2F2F3D"/>
<path d="M54.5038 152.052C56.263 155.227 57.0522 158.437 56.7102 161.467C56.3683 164.497 55.843 163.573 55.843 163.573C55.5383 163.264 55.4639 160.954 55.4639 160.954L54.4865 164.978C54.0442 167.311 53.3393 165.578 53.3393 165.578C52.6678 168.125 51.958 165.915 51.958 165.915C51.6445 166.441 50.6745 166.475 50.6497 165.408C50.6249 164.341 49.8246 159.709 49.8246 159.709C49.8246 159.709 48.8881 155.927 48.1869 158.718C47.4857 161.509 45.6992 161.731 45.6992 161.731C45.6992 161.731 46.2852 159.501 46.4425 157.922C46.5999 156.342 47.3816 153.188 47.3816 153.188L47.5736 151.309L53.9897 150.293L54.5038 152.052Z" fill="#FCD7BF"/>
<path d="M26.4759 102.015L25.1503 103.708L27.9476 107.034H35.2098L39.7825 105.194L35.2098 102.015V99.1103C35.2098 99.1103 38.3404 97.724 40.0203 96.8878C41.7002 96.0515 43.0717 75.8618 43.0717 75.8618C30.8156 62.7732 19.2124 75.2039 19.2124 75.2039C19.2124 75.2039 19.7079 96.0478 21.4721 96.884C23.2362 97.7203 26.5279 98.8278 26.5279 98.8278V102.212" fill="#FCD7BF"/>
<path d="M29.2373 90.9326L31.6221 87.216L31.8389 90.9326H29.2373Z" fill="#FF9F65"/>
<path d="M21.1239 90.0852L20.4302 88.3012C19.9346 87.0227 17.6452 85.9573 17.0704 87.7846C16.8585 88.4548 17.032 89.2006 17.2624 89.8634C17.9748 91.9162 19.4143 94.4472 21.4498 94.9725" fill="#FCD7BF"/>
<path d="M40.1266 90.8112C40.7101 89.1251 41.7755 86.9025 43.7354 87.7747C44.014 87.8839 44.2438 88.0903 44.3821 88.3557C44.5468 88.7113 44.4874 89.1424 44.4019 89.5314C43.858 92.029 42.1719 95.1063 39.7871 95.6972" fill="#FCD7BF"/>
<path d="M28.8669 93.7014H33.2859C33.8632 93.7014 34.1915 94.3865 33.8508 94.8746C32.773 96.4133 30.5901 98.5144 28.2759 94.8375C27.9737 94.3555 28.3119 93.7014 28.8669 93.7014Z" fill="#F1F1F2" stroke="#F1F1F2" stroke-width="0.123886" stroke-miterlimit="10"/>
<path d="M41.4907 79.0915C41.4907 79.0915 41.9863 86.0923 42.1362 88.383C42.1362 88.383 45.5728 80.702 43.8396 75.3898" fill="#1A151F"/>
<path d="M33.7778 81.8777C33.7778 81.8777 34.8333 80.4221 35.2644 79.011L36.7634 81.8827H40.4961L41.538 79.8014C41.538 79.8014 44.5113 78.8103 43.8374 75.3861C43.0693 71.4576 37.8536 69.0233 33.9884 68.6157C29.8593 68.1796 28.582 68.1883 25.688 68.8325C16.3544 70.9063 17.3356 79.6738 19.8108 87.579C19.8108 87.579 20.7945 80.5175 21.4499 79.4731C21.4499 79.4731 21.7732 81.9743 21.995 81.8827C21.995 81.8827 26.2653 82.1788 26.4549 81.5519C26.689 80.7727 27.6702 79.1758 27.6702 79.1758C27.6702 79.1758 29.1568 81.3884 29.1568 81.6337C29.1568 81.879 33.7778 81.8777 33.7778 81.8777Z" fill="#1A151F"/>
<path d="M25.6862 88.4536C26.6599 88.4536 27.4491 87.6277 27.4491 86.6089C27.4491 85.5901 26.6599 84.7643 25.6862 84.7643C24.7126 84.7643 23.9233 85.5901 23.9233 86.6089C23.9233 87.6277 24.7126 88.4536 25.6862 88.4536Z" fill="#262626"/>
<path d="M36.7673 88.4536C37.7409 88.4536 38.5302 87.6277 38.5302 86.6089C38.5302 85.5901 37.7409 84.7643 36.7673 84.7643C35.7937 84.7643 35.0044 85.5901 35.0044 86.6089C35.0044 87.6277 35.7937 88.4536 36.7673 88.4536Z" fill="#262626"/>
<path d="M3.34639 73.6417C2.53245 70.0725 2.65634 66.7611 3.81468 63.96C4.97301 61.1589 5.21955 62.2058 5.21955 62.2058C5.42767 62.5935 4.86523 64.8284 4.86523 64.8284L6.9044 61.2667C7.96858 59.1606 8.16804 61.0375 8.16804 61.0375C9.50973 58.7989 9.58406 61.128 9.58406 61.128C10.0288 60.7191 10.9666 60.9768 10.699 62.0075C10.4314 63.0383 9.92475 67.7199 9.92475 67.7199C9.92475 67.7199 9.78847 71.6236 11.2218 69.1607C12.6552 66.6979 14.4317 67.02 14.4317 67.02C14.4317 67.02 13.2573 68.9861 12.6701 70.4454C12.0828 71.9048 10.4711 74.6985 10.4711 74.6985L9.78104 76.4329L3.3563 75.4901L3.34639 73.6417Z" fill="#FCD7BF"/>
<path d="M33.4309 166.751L33.3602 152.998L32.3022 166.751H33.4309Z" fill="#262631"/>
<path d="M53.8408 121.535C52.7952 116.836 50.8923 113.086 47.4619 109.836C44.6249 107.149 40.8377 105.611 37.551 103.642L35.6134 100.565L26.1794 100.748C25.7694 101.382 24.8365 103.622 24.1588 103.86C24.0788 103.888 23.9955 103.905 23.9111 103.912C22.6722 104.01 20.8139 102.144 19.9281 101.344C17.2498 98.9212 15.2139 95.8723 14.0026 92.47C11.987 86.786 12.3389 80.5261 12.7179 74.4779L1.88408 74.3974C1.61897 74.3974 1.32907 74.3974 1.12094 74.5733C0.873171 74.7765 0.827333 75.1383 0.795123 75.4628C0.102598 82.3497 -0.742307 88.8215 1.17917 95.5857C3.05729 102.206 6.60044 108.202 10.514 113.705C12.0997 115.935 13.7202 118.226 14.1563 120.963C14.9863 126.172 15.7271 131.73 15.9055 137.003C15.939 137.94 28.8318 137.106 29.8043 137.06C33.1352 136.902 36.4657 136.716 39.7958 136.502C41.0012 136.426 44.2631 136.298 45.4685 136.238C45.8836 136.217 45.3236 136.362 45.502 138.468C45.7113 140.964 45.7052 143.473 45.6915 145.975C45.6829 147.603 45.6283 149.238 45.6853 150.865C45.7473 152.627 46.0396 152.468 47.7171 152.312C48.3365 152.255 56.6282 151.711 56.5898 151.261C55.7499 141.24 56.0435 131.427 53.8408 121.535Z" fill="#3875B9"/>
<path d="M26.5273 98.8315L35.2142 99.1103L26.4976 99.9068L26.5273 98.8315Z" fill="#F7A185"/>
<path d="M14.4963 122.208C14.3452 118.335 13.9178 114.47 13.084 110.686C12.9924 110.315 12.8945 109.888 12.814 109.509C12.9502 109.87 13.0952 110.281 13.2228 110.648C13.7491 112.318 14.1223 114.032 14.3378 115.769C14.5992 117.899 14.7094 120.073 14.4951 122.211L14.4963 122.208Z" fill="#2B388F"/>
<path d="M45.1073 136.238C44.9425 133.017 44.8831 129.725 44.7233 126.51C44.6576 125.217 44.5882 123.922 44.4321 122.638C44.3818 122.156 44.2919 121.679 44.1633 121.212C44.1201 121.056 44.0537 120.908 43.9663 120.772C44.1794 121.02 44.2822 121.347 44.3813 121.655C44.8224 123.228 44.945 124.869 45.0739 126.487C45.2863 129.732 45.2975 132.988 45.1073 136.235V136.238Z" fill="#2B388F"/>
<path d="M35.9352 132.878C34.2008 132.557 35.1262 135.19 36.9982 135.603C38.0205 135.836 39.0543 136.014 40.0953 136.137C40.0953 136.137 36.6265 146.441 41.9598 146.82C41.9598 146.82 42.7279 149.587 44.8414 149.766C44.8414 149.766 45.9304 150.06 44.1575 147.645C44.1575 147.645 46.3379 150.618 47.3166 149.893C47.3166 149.893 48.7785 149.447 46.5733 147.68C44.3681 145.913 45.0545 142.141 45.0545 142.141C45.0545 142.141 45.2812 142.017 45.7755 143.415C46.2958 144.885 46.6365 146.519 47.972 147.474C48.5468 146.607 48.1083 144.905 47.9113 143.779C47.4938 141.394 50.1735 136.281 51.1038 134.166C51.2736 133.782 47.5111 130.135 47.7329 129.771C47.7354 129.773 41.2821 133.864 35.9352 132.878Z" fill="#FAC3B2"/>
<path d="M137.872 132.576C139.382 132.187 138.574 134.847 136.946 135.331C136.061 135.602 135.161 135.821 134.25 135.988C134.25 135.988 137.26 146.119 132.628 146.71C132.628 146.71 131.959 149.497 130.123 149.76C130.123 149.76 129.175 150.097 130.717 147.619C130.717 147.619 128.822 150.666 127.969 149.985C127.969 149.985 126.698 149.599 128.612 147.755C130.526 145.912 129.942 142.172 129.942 142.172C129.942 142.172 129.745 142.059 129.315 143.47V143.478C128.863 144.964 128.572 146.606 127.405 147.611C126.909 146.772 127.281 145.056 127.458 143.926C127.822 141.531 125.493 136.543 124.684 134.472C124.538 134.101 127.81 130.311 127.616 129.957C127.614 129.952 133.222 133.771 137.872 132.576Z" fill="#FAC3B2"/>
<path d="M83.2146 84.3802V80.9907C83.2146 80.9907 78.4462 80.0355 76.4466 79.198C74.4471 78.3606 74.8981 57.3086 74.8981 57.3086C74.8981 57.3086 88.0895 44.8456 102.029 57.9677C102.029 57.9677 102.141 78.9466 100.232 79.784C98.3225 80.6215 93.0957 81.2707 93.0957 81.2707V85.0393L83.2146 84.3802Z" fill="#FAC3B2"/>
<path d="M75.6014 72.2232L74.8134 70.4343C74.2485 69.1521 71.6469 68.0805 70.9928 69.9165C70.7537 70.5892 70.9494 71.3362 71.2121 72.0015C72.0223 74.0592 73.6588 76.5853 75.973 77.1217" fill="#FAC3B2"/>
<path d="M100.444 72.9504C101.108 71.2606 102.318 69.0319 104.547 69.9066C104.853 70.0082 105.112 70.215 105.28 70.4901C105.468 70.8456 105.404 71.278 105.305 71.6682C104.686 74.172 102.763 77.2555 100.057 77.8489" fill="#FAC3B2"/>
<path d="M84.4917 75.8531H92.3349C92.3349 75.8531 88.4697 83.031 84.4917 75.8531Z" fill="#F1F1F2" stroke="#F1F1F2" stroke-width="0.123886" stroke-miterlimit="10"/>
<path d="M82.0143 66.6013C83.3771 66.6013 84.5181 67.6283 84.7819 68.9948C84.8198 68.7951 84.8389 68.5922 84.8389 68.389C84.8389 66.7326 83.5741 65.3897 82.0143 65.3897C80.4546 65.3897 79.1885 66.7326 79.1885 68.389C79.1885 68.5922 79.2076 68.7951 79.2455 68.9948C79.5044 67.6283 80.6441 66.6013 82.0143 66.6013Z" fill="#262626"/>
<path d="M94.1423 66.3981C95.505 66.3981 96.646 67.4251 96.9099 68.7916C96.9478 68.5919 96.9668 68.3891 96.9669 68.1858C96.9669 66.5294 95.702 65.1877 94.1423 65.1877C92.5825 65.1877 91.3164 66.5294 91.3164 68.1858C91.3164 68.3891 91.3355 68.5919 91.3734 68.7916C91.6373 67.4251 92.777 66.3981 94.1423 66.3981Z" fill="#262626"/>
<path d="M100.226 61.2023C100.226 61.2023 101.575 68.2192 101.752 70.5124C101.752 70.5124 105.062 60.9731 102.897 57.4857" fill="#1A151F"/>
<path d="M87.5281 166.794L88.5613 160.91L89.8906 166.75C96.7824 167.042 103.518 166.718 110.313 166.75L107.712 136.104H67.8203L66.0078 166.794H87.5281Z" fill="#141414"/>
<path d="M75.0941 71.0699C75.0941 71.0699 75.3679 61.6842 77.9782 59.9622C80.1573 58.5239 87.4579 60.4355 95.1191 61.0363C98.7291 61.3188 102.044 61.9035 104.534 59.266C105.76 57.9701 107.663 53.5808 105.696 51.9567C102.22 49.0924 100.073 52.9688 87.8569 51.2282C71.8557 48.9537 73.3907 60.9087 75.0941 71.0699Z" fill="#2F2F3D"/>
<path d="M83.2157 80.9907L93.0907 81.2706L92.9879 83.2714L88.2319 85.0393L83.1885 83.8884L83.2157 80.9907Z" fill="#F7A185"/>
<path d="M81.6045 82.159C87.7455 83.1191 94.8603 82.159 94.8603 82.159L91.9242 92.0488L83.6325 93.8439L81.6045 82.159Z" fill="white"/>
<path d="M87.5355 91.2026C87.2518 91.4033 86.8814 90.9004 86.8318 90.5237L86.117 85.0641C86.117 85.0641 79.7183 80.4803 79.4891 83.7905C79.2599 87.1008 79.4891 88.7038 79.4891 88.7038L76.3833 89.1374C57.2763 91.8097 46.9875 113.523 40.4178 129.293C40.2692 129.65 40.1205 130.048 40.2506 130.408C40.3807 130.767 40.7647 130.995 41.1178 131.176L53.5522 137.589C56.0696 132.634 58.5886 127.678 61.1093 122.723C61.1093 122.723 68.0816 114.143 69.9201 113.036C67.7186 117.53 63.4991 130.685 64.8073 136.232C65.5209 139.258 71.9679 138.236 74.0158 138.042C78.1499 137.649 82.8873 137.492 87.0499 137.521C92.0586 137.557 96.3921 137.293 101.392 137.495C103.475 137.579 110.188 138.371 111.195 135.654C111.278 135.427 111.305 135.183 111.275 134.943C110.592 129.244 107.793 116.371 105.567 113.036C107.365 114.143 114.188 122.723 114.188 122.723L121.745 137.929C121.745 137.929 134.445 130.802 134.444 130.799C129.071 117.172 117.662 88.658 99.2328 89.1313L96.1939 88.6977C96.1939 88.6977 96.4182 87.0958 96.1939 83.7843C95.9697 80.4728 89.6403 85.0864 89.6403 85.0864L88.9391 90.546C88.8908 90.9177 88.5142 91.4256 88.2355 91.2262L87.5355 91.2026Z" fill="#292929"/>
<path d="M87.937 102.138C88.9408 102.138 89.7544 101.324 89.7544 100.321C89.7544 99.3169 88.9408 98.5032 87.937 98.5032C86.9333 98.5032 86.1196 99.3169 86.1196 100.321C86.1196 101.324 86.9333 102.138 87.937 102.138Z" fill="white"/>
<path d="M87.937 112.39C88.9408 112.39 89.7544 111.576 89.7544 110.572C89.7544 109.569 88.9408 108.755 87.937 108.755C86.9333 108.755 86.1196 109.569 86.1196 110.572C86.1196 111.576 86.9333 112.39 87.937 112.39Z" fill="white"/>
<path d="M87.937 122.641C88.9408 122.641 89.7544 121.828 89.7544 120.824C89.7544 119.82 88.9408 119.006 87.937 119.006C86.9333 119.006 86.1196 119.82 86.1196 120.824C86.1196 121.828 86.9333 122.641 87.937 122.641Z" fill="white"/>
<path d="M140.487 91.9236L142.872 88.207L143.088 91.9236H140.487Z" fill="#FF9F65"/>
<path fill-rule="evenodd" clip-rule="evenodd" d="M88.1428 69.1286L89.6887 72.9167L87.8359 72.9404L88.1428 69.1286Z" fill="#FF8963"/>
</g>
<defs>
<clipPath id="clip0_1447_5662">
<rect width="167" height="166.876" fill="white"/>
</clipPath>
</defs>
</svg>
