<svg width="259" height="98" viewBox="0 0 259 98" fill="none" xmlns="http://www.w3.org/2000/svg">
<path d="M114.214 72.7353H149.361V81.1487H108.56L114.214 72.7353Z" fill="#FFAB6F"/>
<rect x="34.1963" y="50.7518" width="215.401" height="8.50388" fill="#FFCC7E"/>
<rect x="113.626" y="54.0087" width="31.6634" height="7.78014" fill="#FF8B36"/>
<rect x="39.1724" y="41.2528" width="210.426" height="3.70914" fill="#FF8B36"/>
<rect x="40.1675" y="45.8666" width="8.59434" height="3.98054" rx="0.180934" fill="#2F2F2F"/>
<rect x="40.1675" y="66.2217" width="8.59434" height="7.14688" rx="0.180934" fill="#2F2F2F"/>
<rect x="49.667" y="45.8666" width="8.77528" height="3.98054" rx="0.180934" fill="#2F2F2F"/>
<rect x="49.667" y="66.2217" width="8.77528" height="7.14688" rx="0.180934" fill="#2F2F2F"/>
<rect x="233.947" y="45.8666" width="14.4747" height="3.98054" rx="0.180934" fill="#2F2F2F"/>
<rect x="233.947" y="66.3121" width="14.4747" height="4.52334" rx="0.180934" fill="#2F2F2F"/>
<rect x="218.206" y="45.8666" width="14.4747" height="3.98054" rx="0.180934" fill="#2F2F2F"/>
<rect x="218.206" y="66.3121" width="14.4747" height="4.52334" rx="0.180934" fill="#2F2F2F"/>
<rect x="66.4927" y="46.0476" width="9.13715" height="3.61867" rx="0.180934" fill="#2F2F2F"/>
<rect x="166.097" y="46.0476" width="9.13715" height="3.61867" rx="0.180934" fill="#2F2F2F"/>
<rect x="200.836" y="46.0476" width="9.13715" height="3.61867" rx="0.180934" fill="#2F2F2F"/>
<rect x="200.836" y="66.2217" width="4.071" height="7.05641" rx="0.180934" fill="#2F2F2F"/>
<rect x="183.466" y="66.2217" width="4.071" height="7.05641" rx="0.180934" fill="#2F2F2F"/>
<rect x="83.772" y="66.2217" width="4.071" height="7.05641" rx="0.180934" fill="#2F2F2F"/>
<rect x="166.277" y="66.2217" width="4.071" height="7.05641" rx="0.180934" fill="#2F2F2F"/>
<rect x="66.5835" y="66.2217" width="4.071" height="7.05641" rx="0.180934" fill="#2F2F2F"/>
<rect x="205.812" y="66.2217" width="4.071" height="7.05641" rx="0.180934" fill="#2F2F2F"/>
<rect x="188.442" y="66.2217" width="4.071" height="7.05641" rx="0.180934" fill="#2F2F2F"/>
<rect x="88.7476" y="66.2217" width="4.071" height="7.05641" rx="0.180934" fill="#2F2F2F"/>
<rect x="171.254" y="66.2217" width="4.071" height="7.05641" rx="0.180934" fill="#2F2F2F"/>
<rect x="71.5591" y="66.2217" width="4.071" height="7.05641" rx="0.180934" fill="#2F2F2F"/>
<rect x="100.961" y="46.0476" width="5.69941" height="3.61867" rx="0.180934" fill="#2F2F2F"/>
<rect x="83.8633" y="46.0476" width="9.04668" height="3.61867" rx="0.180934" fill="#2F2F2F"/>
<rect x="183.466" y="46.0476" width="9.04668" height="3.61867" rx="0.180934" fill="#2F2F2F"/>
<rect x="114.802" y="46.0476" width="8.95621" height="3.61867" rx="0.180934" fill="#2F2F2F"/>
<rect x="124.844" y="46.0476" width="8.95621" height="3.61867" rx="0.180934" fill="#2F2F2F"/>
<rect x="134.885" y="46.0476" width="9.22761" height="3.61867" rx="0.180934" fill="#2F2F2F"/>
<rect x="152.346" y="46.0476" width="5.69941" height="3.61867" rx="0.180934" fill="#2F2F2F"/>
<rect x="152.346" y="66.2217" width="2.53307" height="7.14688" rx="0.180934" fill="#2F2F2F"/>
<rect x="101.232" y="66.2217" width="2.53307" height="7.14688" rx="0.180934" fill="#2F2F2F"/>
<rect x="155.422" y="66.2217" width="2.53307" height="7.14688" rx="0.180934" fill="#2F2F2F"/>
<rect x="104.309" y="66.2217" width="2.53307" height="7.14688" rx="0.180934" fill="#2F2F2F"/>
<rect x="151.351" y="74.4541" width="92.3666" height="6.69454" fill="#FFCC7E"/>
<rect x="39.1724" y="74.4541" width="74.4542" height="6.69454" fill="#FFCC7E"/>
<g style="mix-blend-mode:soft-light">
<rect x="113.626" y="61.1555" width="31.6634" height="3.7996" fill="#393939"/>
</g>
<rect x="39.1724" y="59.2557" width="210.426" height="5.69941" fill="#FF8B36"/>
<rect y="81.1487" width="258.916" height="3.2568" rx="0.452334" fill="#FF8B36"/>
<rect x="76.6255" y="40.71" width="6.06127" height="40.4387" fill="#FFCC7E"/>
<g style="mix-blend-mode:soft-light">
<rect x="82.687" y="42.2689" width="0.995135" height="38.8798" fill="#393939"/>
</g>
<g style="mix-blend-mode:soft-light">
<rect x="76.6255" y="40.71" width="0.542801" height="40.4387" fill="#9D9D9D"/>
</g>
<g style="mix-blend-mode:soft-light">
<rect x="210.969" y="41.2528" width="0.995135" height="11.3083" transform="rotate(90 210.969 41.2528)" fill="#131313"/>
</g>
<g style="mix-blend-mode:soft-light">
<rect x="249.598" y="41.2528" width="0.995136" height="32.568" transform="rotate(90 249.598 41.2528)" fill="#131313"/>
</g>
<g style="mix-blend-mode:soft-light">
<rect x="193.599" y="41.2528" width="0.995135" height="11.3083" transform="rotate(90 193.599 41.2528)" fill="#131313"/>
</g>
<g style="mix-blend-mode:soft-light">
<rect x="176.682" y="41.2528" width="0.995135" height="11.5797" transform="rotate(90 176.682 41.2528)" fill="#131313"/>
</g>
<g style="mix-blend-mode:soft-light">
<rect x="107.564" y="41.2528" width="0.995135" height="7.50874" transform="rotate(90 107.564 41.2528)" fill="#131313"/>
</g>
<g style="mix-blend-mode:soft-light">
<rect x="145.289" y="41.2528" width="0.995136" height="31.6634" transform="rotate(90 145.289 41.2528)" fill="#131313"/>
</g>
<g style="mix-blend-mode:soft-light">
<rect x="94.2671" y="41.2528" width="0.995135" height="11.5797" transform="rotate(90 94.2671 41.2528)" fill="#131313"/>
</g>
<g style="mix-blend-mode:soft-light">
<rect x="76.8071" y="41.2528" width="0.995135" height="11.4893" transform="rotate(90 76.8071 41.2528)" fill="#131313"/>
</g>
<g style="mix-blend-mode:soft-light">
<rect x="59.2559" y="41.2528" width="0.995135" height="20.0836" transform="rotate(90 59.2559 41.2528)" fill="#131313"/>
</g>
<g style="mix-blend-mode:soft-light">
<rect x="38.0864" y="41.2528" width="0.995135" height="10.4037" transform="rotate(90 38.0864 41.2528)" fill="#131313"/>
</g>
<g style="mix-blend-mode:soft-light">
<rect x="20.6265" y="41.2528" width="0.995135" height="8.14201" transform="rotate(90 20.6265 41.2528)" fill="#131313"/>
</g>
<g style="mix-blend-mode:soft-light">
<rect x="159.04" y="41.2528" width="0.995135" height="7.68968" transform="rotate(90 159.04 41.2528)" fill="#131313"/>
</g>
<rect x="93.9946" y="40.71" width="6.06127" height="40.4387" fill="#FFCC7E"/>
<g style="mix-blend-mode:soft-light">
<rect x="100.056" y="42.2689" width="0.995135" height="38.8798" fill="#393939"/>
</g>
<g style="mix-blend-mode:soft-light">
<rect x="93.9946" y="40.71" width="0.542801" height="40.4387" fill="#9D9D9D"/>
</g>
<g style="mix-blend-mode:soft-light">
<rect x="113.626" y="42.248" width="0.723734" height="11.7607" fill="#393939"/>
</g>
<g style="mix-blend-mode:soft-light">
<rect x="144.565" y="42.248" width="0.723734" height="11.7607" fill="#393939"/>
</g>
<g style="mix-blend-mode:soft-light">
<rect x="145.29" y="59.889" width="1.8998" height="31.6634" transform="rotate(90 145.29 59.889)" fill="#393939"/>
</g>
<rect x="107.565" y="40.71" width="6.06127" height="40.4387" fill="#FFCC7E"/>
<g style="mix-blend-mode:soft-light">
<rect x="107.565" y="40.71" width="0.542801" height="40.4387" fill="#9D9D9D"/>
</g>
<rect x="59.2559" y="40.71" width="6.06127" height="40.4387" fill="#FFCC7E"/>
<g style="mix-blend-mode:soft-light">
<rect x="65.3164" y="42.2689" width="0.995135" height="38.8798" fill="#393939"/>
</g>
<g style="mix-blend-mode:soft-light">
<rect x="59.2559" y="40.71" width="0.542801" height="40.4387" fill="#9D9D9D"/>
</g>
<path d="M145.29 61.7888H140.948V73.6291L145.29 77.8014V61.7888Z" fill="#FFBF61"/>
<path d="M113.625 61.7888H117.968V73.5783L113.625 77.8014V61.7888Z" fill="#FFBF61"/>
<rect x="39.1724" y="41.2528" width="3.98053" height="216.487" transform="rotate(-90 39.1724 41.2528)" fill="#FFCC7E"/>
<path d="M39.0815 19.4503H254.754C255.254 19.4503 255.659 19.8554 255.659 20.355V37.3627H39.0815V19.4503Z" fill="#FFD698"/>
<path d="M3.25684 0.814215C3.25684 0.364544 3.62137 1.52588e-05 4.07104 1.52588e-05H38.3579C38.8076 1.52588e-05 39.1721 0.364545 39.1721 0.814216V81.1487H3.25684V0.814215Z" fill="#FFCC7E"/>
<path d="M210.969 72.7353C210.969 72.2856 211.334 71.9211 211.783 71.9211H249.599V81.1487H210.969V72.7353Z" fill="#FFCC7E"/>
<path d="M10.2227 6.15172C10.2227 6.10175 10.2632 6.06125 10.3131 6.06125H32.1156C32.1656 6.06125 32.2061 6.10175 32.2061 6.15172V60.3413H10.2227V6.15172Z" fill="#FF8B36"/>
<path d="M13.8418 10.2227C13.8418 10.0229 14.0038 9.86087 14.2037 9.86087H28.226C28.4259 9.86087 28.5879 10.0229 28.5879 10.2227V19.4503H13.8418V10.2227Z" fill="white"/>
<path d="M47.3141 86.9386V86.3958H47.0879V86.9386H47.3141Z" fill="#E59346"/>
<path d="M13.8418 19.4504H28.5879V51.6565C28.5879 51.9063 28.3854 52.1089 28.1355 52.1089H14.2941C14.0443 52.1089 13.8418 51.9063 13.8418 51.6565V19.4504Z" fill="#FFCC7E"/>
<g style="mix-blend-mode:soft-light">
<rect x="39.1724" y="42.248" width="0.995135" height="38.9007" fill="#393939"/>
</g>
<rect x="10.2227" y="71.9211" width="21.9834" height="2.53307" fill="#FF8B36"/>
<g style="mix-blend-mode:soft-light">
<rect x="10.2227" y="6.06125" width="0.995135" height="75.0874" fill="#393939"/>
</g>
<g style="mix-blend-mode:soft-light">
<rect x="31.2109" y="6.06125" width="0.995135" height="19.9932" transform="rotate(90 31.2109 6.06125)" fill="#393939"/>
</g>
<g style="mix-blend-mode:soft-light">
<rect x="31.2109" y="6.06125" width="0.995135" height="75.0874" fill="#393939"/>
</g>
<g style="mix-blend-mode:soft-light">
<rect x="151.351" y="42.248" width="0.995135" height="38.9007" fill="#393939"/>
</g>
<rect x="145.289" y="41.2528" width="6.06127" height="39.8959" fill="#FFCC7E"/>
<g style="mix-blend-mode:soft-light">
<rect x="145.289" y="41.2528" width="0.542801" height="39.8959" fill="#BFBFBF"/>
</g>
<rect x="249.598" y="41.2529" width="6.06127" height="39.8959" fill="#FFCC7E"/>
<g style="mix-blend-mode:soft-light">
<rect x="248.603" y="42.248" width="0.995135" height="38.9007" fill="#393939"/>
</g>
<rect x="193.599" y="41.2528" width="6.06127" height="39.8959" fill="#FFCC7E"/>
<g style="mix-blend-mode:soft-light">
<rect x="199.66" y="42.248" width="0.995135" height="38.9007" fill="#393939"/>
</g>
<g style="mix-blend-mode:soft-light">
<rect x="193.599" y="41.2528" width="0.542801" height="39.8959" fill="#9D9D9D"/>
</g>
<rect x="176.229" y="41.2528" width="6.06127" height="39.8959" fill="#FFCC7E"/>
<g style="mix-blend-mode:soft-light">
<rect x="182.292" y="42.248" width="0.995135" height="38.9007" fill="#393939"/>
</g>
<g style="mix-blend-mode:soft-light">
<rect x="176.229" y="41.2528" width="0.723734" height="39.8959" fill="#9D9D9D"/>
</g>
<g style="mix-blend-mode:soft-light">
<rect x="164.921" y="42.2435" width="0.995135" height="38.9052" fill="#393939"/>
</g>
<rect x="158.859" y="41.2528" width="6.06127" height="39.7157" fill="#FFCC7E"/>
<g style="mix-blend-mode:soft-light">
<rect x="158.859" y="41.2528" width="0.542801" height="39.7157" fill="#9D9D9D"/>
</g>
<g style="mix-blend-mode:soft-light">
<rect x="217.03" y="42.248" width="0.995135" height="38.9007" fill="#393939"/>
</g>
<rect x="210.969" y="41.2528" width="6.06127" height="39.8959" fill="#FFCC7E"/>
<g style="mix-blend-mode:soft-light">
<rect x="210.969" y="41.2528" width="0.542801" height="39.8959" fill="#9D9D9D"/>
</g>
<g style="mix-blend-mode:soft-light">
<rect x="13.8418" y="20.4455" width="0.995134" height="14.7461" transform="rotate(-90 13.8418 20.4455)" fill="#393939"/>
</g>
<g style="mix-blend-mode:soft-light">
<rect x="11.2178" y="57.8987" width="1.0856" height="19.9932" transform="rotate(-90 11.2178 57.8987)" fill="#393939"/>
</g>
<rect x="14.9272" y="10.7656" width="5.69941" height="7.87061" rx="0.180934" fill="#2F2F2F"/>
<rect x="21.8022" y="10.7656" width="5.69941" height="7.87061" rx="0.180934" fill="#2F2F2F"/>
<rect x="10.2227" y="57.8987" width="21.9834" height="14.0224" fill="white"/>
<rect x="117.968" y="61.7888" width="22.9786" height="10.9465" fill="white"/>
<rect x="11.2178" y="59.2557" width="6.15174" height="11.4893" rx="0.180934" fill="#2F2F2F"/>
<rect x="18.0928" y="59.2557" width="6.06127" height="11.4893" rx="0.180934" fill="#2F2F2F"/>
<rect x="24.8784" y="59.2557" width="6.33267" height="11.4893" rx="0.180934" fill="#2F2F2F"/>
<circle cx="129.82" cy="28.4066" r="6.96594" fill="#0668C0"/>
<circle cx="129.855" cy="28.4407" r="5.93527" fill="white"/>
<circle cx="129.8" cy="28.3865" r="5.17115" fill="#F07400"/>
<circle cx="129.839" cy="28.4914" r="3.88607" fill="white"/>
<rect x="128.881" y="23.9253" width="1.87678" height="0.95754" fill="white"/>
<rect x="128.881" y="31.9303" width="1.87678" height="0.95754" fill="white"/>
<rect x="132.326" y="24.5743" width="1.87678" height="0.95754" transform="rotate(45 132.326 24.5743)" fill="white"/>
<rect x="126.665" y="30.2347" width="1.87678" height="0.95754" transform="rotate(45 126.665 30.2347)" fill="white"/>
<rect x="134.302" y="27.4682" width="1.87678" height="0.95754" transform="rotate(90 134.302 27.4682)" fill="white"/>
<rect x="126.296" y="27.4682" width="1.87678" height="0.95754" transform="rotate(90 126.296 27.4682)" fill="white"/>
<rect x="133.652" y="30.9118" width="1.87678" height="0.95754" transform="rotate(135 133.652 30.9118)" fill="white"/>
<rect x="127.992" y="25.2514" width="1.87678" height="0.95754" transform="rotate(135 127.992 25.2514)" fill="white"/>
<path d="M127.923 29.2854L130.348 29.2477" stroke="#0865BF" stroke-width="0.203472"/>
<path d="M131.502 27.8059H130.345" stroke="#0865BF" stroke-width="0.145337"/>
<path d="M131.019 27.3873L130.955 28.4511" stroke="#0865BF" stroke-width="0.145337"/>
<path d="M126.927 29.8096L132.733 26.3616C132.744 26.3549 132.756 26.3691 132.747 26.3791L129.036 30.776" stroke="#0865BF" stroke-width="0.145337"/>
<path d="M127.833 29.3232L128.141 29.6516" stroke="#0865BF" stroke-width="0.203472"/>
<path d="M129.185 26.9701C129.291 26.6114 129.629 26.5488 129.766 26.5338C129.858 26.5859 130.051 26.7017 130.085 26.7474C130.127 26.8046 130.518 27.3974 130.524 27.4545C130.529 27.5003 130.478 28.3121 130.452 28.7123L130.142 29.609L129.342 29.6481L129.122 29.5609L128.92 28.8959L128.887 27.8427C128.942 27.7013 129.079 27.3287 129.185 26.9701Z" fill="white"/>
<path d="M128.53 27.2869L128.719 26.7676L129.003 26.9092L128.955 26.201L129.191 25.9177H129.357L129.404 26.2246L129.664 26.0829C129.624 25.9649 129.564 25.7147 129.64 25.658C129.716 25.6014 129.86 25.6344 129.923 25.658V26.1065H129.971C130.026 26.0121 130.164 25.828 130.277 25.8469C130.391 25.8658 130.498 26.0279 130.537 26.1065L130.419 26.5315C130.457 26.5504 130.513 26.618 130.537 26.6495L130.773 26.6731C130.886 26.7864 130.946 27.0823 130.962 27.2161L130.75 27.4522C130.787 27.5277 130.813 27.8299 130.82 27.9715L131.009 27.9007C131.085 28.014 131.072 28.3729 131.056 28.5381L130.797 28.6089C130.816 28.7034 130.757 29.0103 130.726 29.1519L130.938 29.3408L130.844 29.5768L130.75 29.6477L130.112 29.6004L130.443 28.2548C130.348 27.5938 130.065 26.3237 129.687 26.5315C129.215 26.7912 129.05 27.2869 129.003 27.8535C128.955 28.4201 128.955 28.3492 129.003 28.8214C129.04 29.1991 129.207 29.4981 129.286 29.6004V29.6477H128.743L128.672 29.6004L128.601 29.3172L128.672 28.7742L128.436 28.4673V28.0896L128.672 27.7355L128.53 27.2869Z" fill="white"/>
<path d="M129.958 29.8023L130.209 29.8057L130.314 29.6776L130.422 29.4951L130.529 29.2368L130.594 29.0101L130.635 28.7996L130.665 28.5638L130.674 28.4254V28.0883L130.651 27.8196L130.604 27.5505L130.548 27.3364L130.489 27.1694L130.414 27.0035L130.333 26.8633L130.212 26.7103L130.135 26.6402L130.011 26.5625L129.909 26.5285L129.79 26.5194L129.754 26.5247L129.827 26.5694L129.885 26.6123L129.97 26.6981L130.042 26.7982L130.113 26.9412L130.171 27.0842L130.228 27.2558L130.299 27.5704L130.328 27.8421L130.342 28.0566L130.346 28.2425L130.342 28.3855V28.4713L130.328 28.6285L130.314 28.8144L130.271 29.0289L130.242 29.1719L130.185 29.3721L130.142 29.4865L130.085 29.6009L130.028 29.7153L129.985 29.7725L129.958 29.8023Z" fill="#0865BF"/>
<path d="M129.044 29.6576L129.09 29.7604L129.112 29.8039L128.547 29.7979" fill="#0865BF"/>
<path d="M128.547 29.7932L128.491 29.6575L128.417 29.4341L128.366 29.2435L128.547 29.1653C128.534 29.0894 128.522 29.008 128.514 28.9208C128.504 28.8221 128.499 28.7292 128.497 28.6428L128.267 28.6362L128.254 28.4711L128.247 28.1994V27.997L128.255 27.9318L128.576 27.9952V28.0667L128.572 28.2574L128.576 28.4214L128.583 28.5434L128.589 28.5843L128.803 28.5859L128.816 28.7244L128.829 28.8633L128.853 28.984L128.884 29.1396L128.698 29.3156L128.736 29.4765L128.775 29.6114L128.809 29.7134L128.812 29.7303L128.83 29.7742L128.547 29.7932Z" fill="#0865BF"/>
<path d="M130.614 26.9129L130.827 26.7276C130.816 26.699 130.806 26.67 130.795 26.6405L130.651 26.6405L130.509 26.6158L130.497 26.6106L130.534 26.6936L130.576 26.7848C130.577 26.786 130.578 26.7871 130.578 26.7883C130.582 26.7974 130.6 26.8407 130.607 26.871C130.611 26.8872 130.614 26.9129 130.614 26.9129Z" fill="#0865BF"/>
<path d="M130.207 26.279C130.236 26.1238 130.266 25.9687 130.296 25.8138L130.268 25.7906L130.007 25.8049L129.95 26.126L130.071 26.1832L130.171 26.2547L130.207 26.279Z" fill="#0865BF"/>
<path d="M129.688 26.119L129.686 25.671C129.756 25.6324 129.822 25.6464 129.929 25.6427C129.929 25.6427 129.867 25.6247 129.855 25.621C129.819 25.6152 129.791 25.6062 129.697 25.6073C129.603 25.6097 129.51 25.6237 129.418 25.6429V26.1304L129.688 26.119Z" fill="#0865BF"/>
<path d="M129.375 25.9235C129.371 25.9167 129.248 25.9014 129.042 25.875C129.003 25.906 128.961 25.9425 128.927 25.9792C128.881 26.0286 128.841 26.0825 128.806 26.1402C128.827 26.2785 128.848 26.4167 128.869 26.5549L129.169 26.5835L129.076 26.1402L129.126 26.0544L129.212 25.9543L129.241 25.9257C129.312 25.9316 129.363 25.931 129.375 25.9235Z" fill="#0865BF"/>
<path d="M128.334 27.2981L128.649 27.3298L128.685 27.1428L128.757 26.8611L128.774 26.8039L128.994 26.9559L129.035 26.8489L129.08 26.7445L129.147 26.6145L129.165 26.5834L128.868 26.5405C128.849 26.5786 128.83 26.6167 128.811 26.6549L128.768 26.7836L128.497 26.7264L128.476 26.7836L128.428 26.9266L128.382 27.0849L128.354 27.1992L128.334 27.2981Z" fill="#0865BF"/>
<path d="M128.576 27.9953L128.798 27.9863L128.807 27.8513L128.819 27.7345L128.865 27.4356L128.652 27.3174L128.335 27.2981L128.626 27.5276L128.607 27.6311L128.597 27.7993L128.587 27.8588L128.583 27.8851L128.247 27.932L128.516 27.9953H128.576Z" fill="#0865BF"/>
<path d="M129.427 26.2613L129.386 26.1292L129.688 26.1189L129.661 26.1266C129.629 26.1358 129.598 26.1479 129.568 26.1627C129.541 26.1764 129.515 26.1924 129.49 26.2105L129.468 26.227C129.454 26.2374 129.44 26.2489 129.427 26.2613Z" fill="#0865BF"/>
<path d="M130.806 27.8642L131.059 27.9004L131.052 27.9049L130.834 27.9973H130.815L130.806 27.8642Z" fill="#0865BF"/>
<path d="M129.434 29.8113C129.133 29.5172 128.962 28.9243 128.962 28.2574C128.962 27.2979 129.346 26.52 129.82 26.52C130.294 26.52 130.678 27.2979 130.678 28.2574C130.678 28.9373 130.485 29.5259 130.204 29.8113" stroke="#0865BF" stroke-width="0.0682129" stroke-miterlimit="10"/>
<path d="M129.722 26.5274C130.074 26.612 130.349 27.354 130.349 28.2568C130.349 28.9327 130.194 29.5184 129.97 29.8057" stroke="#0865BF" stroke-width="0.0142996" stroke-miterlimit="10"/>
<path d="M129.408 26.2643L129.356 25.9265" stroke="#0865BF" stroke-width="0.0393092" stroke-miterlimit="10"/>
<path d="M129.91 25.6428L129.912 26.119" stroke="#0865BF" stroke-width="0.0393092" stroke-miterlimit="10"/>
<path d="M128.545 27.4287C128.531 27.5056 128.519 27.5884 128.51 27.6762C128.499 27.7726 128.493 27.8635 128.491 27.9479L128.646 27.9173L128.709 27.4944L128.545 27.4287Z" fill="#0865BF"/>
<path d="M130.42 26.5387L130.541 26.1208C130.504 26.0637 130.464 26.009 130.421 25.9572C130.376 25.903 130.311 25.8541 130.258 25.8069" stroke="#0865BF" stroke-width="0.0393092" stroke-miterlimit="10"/>
<path d="M130.407 26.5233C130.429 26.537 130.523 26.626 130.565 26.7174" stroke="#0865BF" stroke-width="0.0393126" stroke-miterlimit="10"/>
<path d="M130.203 26.2498C130.167 26.218 130.117 26.1898 130.075 26.1667C130.023 26.1383 129.954 26.1148 129.896 26.101" stroke="#0865BF" stroke-width="0.03864" stroke-miterlimit="10"/>
<path d="M130.745 27.466L130.97 27.2166" stroke="#0865BF" stroke-width="0.0393092" stroke-miterlimit="10"/>
<path d="M131.065 28.5358L130.79 28.5948" stroke="#0865BF" stroke-width="0.0393092" stroke-miterlimit="10"/>
<path d="M130.965 27.2308C130.95 27.1434 130.936 27.0481 130.91 26.9632C130.878 26.8548 130.828 26.7555 130.779 26.6534" stroke="#0865BF" stroke-width="0.0454753" stroke-miterlimit="10"/>
<path d="M131.04 27.9046C131.066 28.0012 131.073 28.131 131.073 28.2462C131.073 28.346 131.061 28.4539 131.05 28.5532" stroke="#0865BF" stroke-width="0.0393092" stroke-miterlimit="10"/>
<path d="M130.751 27.4512C130.766 27.5332 130.779 27.6198 130.79 27.711C130.801 27.8111 130.809 27.9068 130.814 27.997" stroke="#0865BF" stroke-width="0.0393092" stroke-miterlimit="10"/>
<path d="M130.719 29.1685C130.744 29.0678 130.763 28.9662 130.778 28.8634C130.793 28.7607 130.802 28.6646 130.806 28.5767" stroke="#0865BF" stroke-width="0.0409278" stroke-miterlimit="10"/>
<path d="M130.5 29.7969C130.521 29.7542 130.526 29.7437 130.545 29.6974" stroke="#0865BF" stroke-width="0.0142996" stroke-miterlimit="10"/>
<path d="M130.712 29.1479L130.955 29.3211" stroke="#0865BF" stroke-width="0.0409689" stroke-miterlimit="10"/>
<path d="M130.946 29.3006C130.928 29.3827 130.903 29.4726 130.877 29.5625C130.854 29.6429 130.823 29.7375 130.798 29.809L130.547 29.677" stroke="#0865BF" stroke-width="0.0393092" stroke-miterlimit="10"/>
<path d="M130.5 29.7972L130.809 29.7949L130.551 29.6989L130.5 29.7972Z" fill="#0865BF"/>
<path d="M129.732 29.8262C129.973 29.8392 130.043 29.6866 130.082 29.5024C130.231 28.7943 129.952 28.5009 129.991 27.7962C129.991 27.7934 129.988 27.7918 129.986 27.794C129.927 27.8667 129.836 28.3357 129.81 28.5093C129.805 27.9615 129.693 27.032 129.626 26.7567C129.625 26.7532 129.62 26.7546 129.62 26.7582C129.467 28.5074 129.086 28.2572 129.316 29.5653C129.371 29.8822 129.43 29.81 129.732 29.8262Z" fill="#FF7625"/>
<path d="M128.546 29.8154H130.809" stroke="#0865BF" stroke-width="0.0428986" stroke-miterlimit="10"/>
<path fill-rule="evenodd" clip-rule="evenodd" d="M129.278 30.9736H128.333V30.7154L126.95 29.8349H127.962V29.6118H129.278H130.025H131.341V29.8349H132.353L130.969 30.7154V30.9736H130.025H129.278Z" fill="white"/>
<path d="M128.333 30.9736H128.284V31.0231H128.333V30.9736ZM128.333 30.7154H128.383V30.6882L128.36 30.6737L128.333 30.7154ZM126.95 29.8349V29.7854H126.78L126.923 29.8766L126.95 29.8349ZM127.962 29.8349V29.8843H128.011V29.8349H127.962ZM127.962 29.6118V29.5624H127.913V29.6118H127.962ZM131.341 29.6118H131.39V29.5624H131.341V29.6118ZM131.341 29.8349H131.291V29.8843H131.341V29.8349ZM132.353 29.8349L132.379 29.8766L132.523 29.7854H132.353V29.8349ZM130.969 30.7154L130.943 30.6737L130.92 30.6882V30.7154H130.969ZM130.969 30.9736V31.0231H131.019V30.9736H130.969ZM128.333 31.0231H129.278V30.9242H128.333V31.0231ZM128.284 30.7154V30.9736H128.383V30.7154H128.284ZM126.923 29.8766L128.307 30.7571L128.36 30.6737L126.976 29.7932L126.923 29.8766ZM127.962 29.7854H126.95V29.8843H127.962V29.7854ZM127.913 29.6118V29.8349H128.011V29.6118H127.913ZM129.278 29.5624H127.962V29.6613H129.278V29.5624ZM129.278 29.6613H130.025V29.5624H129.278V29.6613ZM130.025 29.6613H131.341V29.5624H130.025V29.6613ZM131.291 29.6118V29.8349H131.39V29.6118H131.291ZM131.341 29.8843H132.353V29.7854H131.341V29.8843ZM132.326 29.7932L130.943 30.6737L130.996 30.7571L132.379 29.8766L132.326 29.7932ZM130.92 30.7154V30.9736H131.019V30.7154H130.92ZM130.969 30.9242H130.025V31.0231H130.969V30.9242ZM130.025 30.9242H129.278V31.0231H130.025V30.9242Z" fill="#0668C0"/>
<path d="M127.713 25.7402L131.697 30.5828L131.386 30.8417L127.398 26.0001L127.713 25.7402Z" fill="#0668C0"/>
<rect x="126.885" y="26.688" width="1.99865" height="0.797027" rx="0.398514" transform="rotate(-39.4985 126.885 26.688)" fill="#E47813" stroke="#0668C0" stroke-width="0.0941022"/>
<path d="M130.682 26.431L131.17 26.5153L131.04 26.1636L131.859 26.6694L131.31 26.4862L131.429 26.7682L130.682 26.431Z" fill="#0865BF"/>
<path d="M132.336 28.1081V27.1838L132.203 27.6867L131.979 27.4454L131.897 28.2535L132.025 27.7593L132.336 28.1081Z" fill="#0865BF"/>
<path d="M133.223 27.4222L132.49 27.0647L132.952 27.1984L132.856 26.9193L133.583 27.2391L133.089 27.1519L133.223 27.4222Z" fill="#0865BF"/>
<path d="M132.065 25.6666C132.046 25.8968 132.014 26.3056 132.005 26.4387C132.004 26.4454 132.012 26.4464 132.014 26.4399L132.127 26.0391C132.128 26.0343 132.135 26.0333 132.137 26.0374L132.291 26.2683C132.294 26.2726 132.301 26.2713 132.302 26.2662L132.45 25.556L132.303 26.0149C132.301 26.0196 132.295 26.0204 132.292 26.0162L132.076 25.6642C132.073 25.6594 132.065 25.661 132.065 25.6666Z" fill="#0865BF"/>
<path d="M126.796 29.7875L126.972 29.6997L126.928 29.8315L126.796 29.7875Z" fill="#0865BF"/>
<path d="M86.0338 97.5617H129.676V85.7552H96.4011L86.0338 96.1519V97.5617Z" fill="#F8F8F8"/>
<path d="M173.334 97.5617H129.692V85.7552H162.967L173.334 96.1519V97.5617Z" fill="#F8F8F8"/>
<rect x="86.0332" y="96.1589" width="87.3004" height="1.44747" fill="#8F9499"/>
<rect x="107.837" y="39.3456" width="1.0856" height="49.9377" rx="0.542801" fill="#545454"/>
<rect x="88.7485" y="40.8835" width="20.1635" height="11.6702" fill="white"/>
<rect x="88.7485" y="40.8835" width="8.91475" height="5.02468" fill="#004C95"/>
<rect x="88.7485" y="47.5291" width="8.91475" height="5.02468" fill="#FF3838"/>
<rect x="99.9976" y="47.5291" width="8.91475" height="5.02468" fill="#004C95"/>
<rect x="99.9976" y="40.8835" width="8.91475" height="5.02468" fill="#FF3838"/>
<rect x="149.994" y="39.3457" width="1.0856" height="49.5758" rx="0.542801" fill="#545454"/>
<rect x="131.72" y="40.8836" width="9.67994" height="11.7607" fill="#FF8236"/>
<rect x="141.399" y="40.8836" width="9.67994" height="11.7607" fill="#179BD7"/>
<path d="M96.8947 83.7217C96.6502 82.8594 97.2416 82.1284 98.4079 82.5171C96.5932 81.8576 97.8969 79.1031 99.8635 81.0215C98.5868 79.5333 100.857 77.4552 101.307 79.8308C101.051 77.7291 103.533 77.2031 103.114 79.9256C103.624 78.1975 106.17 78.3827 104.673 81.0059C105.676 80.0339 108.099 81.0059 105.46 82.8267C107.831 81.1912 110.189 82.7032 110.399 84.2463H95.3652L96.3322 83.836C96.5102 83.7606 96.7015 83.7217 96.8947 83.7217Z" fill="#56D400"/>
<path d="M114.098 84.3141H98.6338C98.6338 83.4125 99.4375 82.7727 100.068 82.9678C100.145 82.9915 100.234 82.9604 100.268 82.8882C101.454 80.4191 103.623 81.5876 104.091 83.1742C104.103 83.217 104.16 83.2294 104.19 83.1965C105.612 81.6502 107.272 82.4643 107.667 83.2936C107.689 83.3381 107.757 83.3397 107.78 83.2961C109.595 79.8506 112.619 81.2382 112.479 83.0251C113.862 82.7736 114.134 83.7797 114.098 84.3141Z" fill="#97FF50"/>
<rect x="95.3438" y="84.3073" width="12.0343" height="5.00756" rx="0.18029" fill="#9EA3A8"/>
<rect x="103.772" y="86.0068" width="2.31959" height="0.757886" fill="#B3B5B7"/>
<rect x="98.9263" y="86.0068" width="2.31959" height="0.757886" fill="#B3B5B7"/>
<rect x="106.184" y="86.0068" width="1.19424" height="0.757886" fill="#B3B5B7"/>
<rect x="101.338" y="86.0068" width="2.34256" height="0.757886" fill="#B3B5B7"/>
<rect x="96.4917" y="86.0068" width="2.34256" height="0.757886" fill="#B3B5B7"/>
<rect x="95.3438" y="86.0068" width="1.05645" height="0.757886" fill="#B3B5B7"/>
<rect x="103.772" y="87.7063" width="2.31959" height="0.757886" fill="#B3B5B7"/>
<rect x="98.9263" y="87.7063" width="2.31959" height="0.757886" fill="#B3B5B7"/>
<rect x="106.184" y="87.7063" width="1.19424" height="0.757886" fill="#B3B5B7"/>
<rect x="101.338" y="87.7063" width="2.34256" height="0.757886" fill="#B3B5B7"/>
<rect x="96.4917" y="87.7064" width="2.34256" height="0.757886" fill="#B3B5B7"/>
<rect x="95.3438" y="87.7064" width="1.05645" height="0.757886" fill="#B3B5B7"/>
<rect x="103.772" y="84.3074" width="2.31959" height="0.757886" fill="#B3B5B7"/>
<rect x="98.9263" y="84.3074" width="2.31959" height="0.757886" fill="#B3B5B7"/>
<path d="M106.184 84.3074H107.198C107.297 84.3074 107.378 84.3881 107.378 84.4876V85.0652H106.184V84.3074Z" fill="#B3B5B7"/>
<rect x="101.338" y="84.3074" width="2.34256" height="0.757886" fill="#B3B5B7"/>
<rect x="96.4917" y="84.3074" width="2.34256" height="0.757886" fill="#B3B5B7"/>
<path d="M95.3438 84.4876C95.3438 84.388 95.4245 84.3073 95.524 84.3073H96.4002V85.0652H95.3438V84.4876Z" fill="#B3B5B7"/>
<rect x="102.624" y="85.157" width="2.31959" height="0.757886" fill="#B3B5B7"/>
<rect x="97.7783" y="85.157" width="2.31959" height="0.757886" fill="#B3B5B7"/>
<rect x="105.035" y="85.157" width="2.34256" height="0.757886" fill="#B3B5B7"/>
<rect x="100.189" y="85.157" width="2.34256" height="0.757886" fill="#B3B5B7"/>
<rect x="95.3438" y="85.1571" width="2.34256" height="0.757886" fill="#B3B5B7"/>
<rect x="102.624" y="88.5561" width="2.31959" height="0.757886" fill="#B3B5B7"/>
<rect x="97.7783" y="88.5561" width="2.31959" height="0.757886" fill="#B3B5B7"/>
<path d="M105.035 88.5561H107.378V89.1337C107.378 89.2333 107.297 89.314 107.197 89.314H105.035V88.5561Z" fill="#B3B5B7"/>
<rect x="100.189" y="88.5561" width="2.34256" height="0.757886" fill="#B3B5B7"/>
<path d="M95.3438 88.5561H97.6863V89.314H95.524C95.4245 89.314 95.3438 89.2332 95.3438 89.1337V88.5561Z" fill="#B3B5B7"/>
<rect x="102.624" y="86.8565" width="2.31959" height="0.757886" fill="#B3B5B7"/>
<rect x="97.7783" y="86.8565" width="2.31959" height="0.757886" fill="#B3B5B7"/>
<rect x="105.035" y="86.8565" width="2.34256" height="0.757886" fill="#B3B5B7"/>
<rect x="100.189" y="86.8565" width="2.34256" height="0.757886" fill="#B3B5B7"/>
<rect x="95.3438" y="86.8566" width="2.34256" height="0.757886" fill="#B3B5B7"/>
<rect x="95.1704" y="88.9215" width="12.4961" height="0.452334" rx="0.0904668" fill="#7A7A7A"/>
<rect x="94.8086" y="84.305" width="13.0305" height="0.657691" rx="0.0904668" fill="#8F9499"/>
<path d="M118.283 83.7217C118.528 82.8594 117.936 82.1284 116.77 82.5171C118.585 81.8576 117.281 79.1031 115.314 81.0215C116.591 79.5333 114.321 77.4552 113.871 79.8308C114.127 77.7291 111.644 77.2031 112.063 79.9256C111.554 78.1975 109.008 78.3827 110.505 81.0059C109.501 80.0339 107.079 81.0059 109.718 82.8267C107.347 81.1912 104.989 82.7032 104.779 84.2463H119.812L118.845 83.836C118.668 83.7606 118.476 83.7217 118.283 83.7217Z" fill="#56D400"/>
<path d="M117.136 84.3098H101.672C101.672 83.4082 102.476 82.7684 103.107 82.9635C103.184 82.9872 103.272 82.9561 103.307 82.8838C104.492 80.4148 106.662 81.5832 107.129 83.1698C107.142 83.2127 107.198 83.225 107.229 83.1922C108.651 81.6459 110.31 82.4599 110.706 83.2892C110.727 83.3337 110.796 83.3354 110.818 83.2918C112.634 79.8462 115.657 81.2339 115.517 83.0208C116.9 82.7693 117.173 83.7753 117.136 84.3098Z" fill="#97FF50"/>
<rect width="12.0343" height="5.00756" rx="0.18029" transform="matrix(-1 0 0 1 118.991 84.3073)" fill="#9EA3A8"/>
<rect width="2.31959" height="0.757886" transform="matrix(-1 0 0 1 110.562 86.0068)" fill="#B3B5B7"/>
<rect width="2.31959" height="0.757886" transform="matrix(-1 0 0 1 115.408 86.0068)" fill="#B3B5B7"/>
<rect width="1.19424" height="0.757886" transform="matrix(-1 0 0 1 108.151 86.0068)" fill="#B3B5B7"/>
<rect width="2.34256" height="0.757886" transform="matrix(-1 0 0 1 112.996 86.0068)" fill="#B3B5B7"/>
<rect width="2.34256" height="0.757886" transform="matrix(-1 0 0 1 117.843 86.0068)" fill="#B3B5B7"/>
<rect width="1.05645" height="0.757886" transform="matrix(-1 0 0 1 118.991 86.0068)" fill="#B3B5B7"/>
<rect width="2.31959" height="0.757886" transform="matrix(-1 0 0 1 110.562 87.7063)" fill="#B3B5B7"/>
<rect width="2.31959" height="0.757886" transform="matrix(-1 0 0 1 115.408 87.7063)" fill="#B3B5B7"/>
<rect width="1.19424" height="0.757886" transform="matrix(-1 0 0 1 108.151 87.7063)" fill="#B3B5B7"/>
<rect width="2.34256" height="0.757886" transform="matrix(-1 0 0 1 112.996 87.7063)" fill="#B3B5B7"/>
<rect width="2.34256" height="0.757886" transform="matrix(-1 0 0 1 117.843 87.7063)" fill="#B3B5B7"/>
<rect width="1.05645" height="0.757886" transform="matrix(-1 0 0 1 118.991 87.7063)" fill="#B3B5B7"/>
<rect width="2.31959" height="0.757886" transform="matrix(-1 0 0 1 110.562 84.3073)" fill="#B3B5B7"/>
<rect width="2.31959" height="0.757886" transform="matrix(-1 0 0 1 115.408 84.3073)" fill="#B3B5B7"/>
<path d="M108.151 84.3073H107.137C107.038 84.3073 106.957 84.388 106.957 84.4875V85.0651H108.151V84.3073Z" fill="#B3B5B7"/>
<rect width="2.34256" height="0.757886" transform="matrix(-1 0 0 1 112.996 84.3073)" fill="#B3B5B7"/>
<rect width="2.34256" height="0.757886" transform="matrix(-1 0 0 1 117.843 84.3073)" fill="#B3B5B7"/>
<path d="M118.991 84.4876C118.991 84.388 118.91 84.3073 118.811 84.3073H117.935V85.0652H118.991V84.4876Z" fill="#B3B5B7"/>
<rect width="2.31959" height="0.757886" transform="matrix(-1 0 0 1 111.71 85.1571)" fill="#B3B5B7"/>
<rect width="2.31959" height="0.757886" transform="matrix(-1 0 0 1 116.557 85.1571)" fill="#B3B5B7"/>
<rect width="2.34256" height="0.757886" transform="matrix(-1 0 0 1 109.299 85.1571)" fill="#B3B5B7"/>
<rect width="2.34256" height="0.757886" transform="matrix(-1 0 0 1 114.145 85.1571)" fill="#B3B5B7"/>
<rect width="2.34256" height="0.757886" transform="matrix(-1 0 0 1 118.991 85.157)" fill="#B3B5B7"/>
<rect width="2.31959" height="0.757886" transform="matrix(-1 0 0 1 111.71 88.5561)" fill="#B3B5B7"/>
<rect width="2.31959" height="0.757886" transform="matrix(-1 0 0 1 116.557 88.5561)" fill="#B3B5B7"/>
<path d="M109.299 88.5561H106.956V89.1337C106.956 89.2333 107.037 89.314 107.137 89.314H109.299V88.5561Z" fill="#B3B5B7"/>
<rect width="2.34256" height="0.757886" transform="matrix(-1 0 0 1 114.145 88.5561)" fill="#B3B5B7"/>
<path d="M118.991 88.5561H116.649V89.3139H118.811C118.91 89.3139 118.991 89.2332 118.991 89.1337V88.5561Z" fill="#B3B5B7"/>
<rect width="2.31959" height="0.757886" transform="matrix(-1 0 0 1 111.71 86.8566)" fill="#B3B5B7"/>
<rect width="2.31959" height="0.757886" transform="matrix(-1 0 0 1 116.557 86.8566)" fill="#B3B5B7"/>
<rect width="2.34256" height="0.757886" transform="matrix(-1 0 0 1 109.299 86.8566)" fill="#B3B5B7"/>
<rect width="2.34256" height="0.757886" transform="matrix(-1 0 0 1 114.145 86.8566)" fill="#B3B5B7"/>
<rect width="2.34256" height="0.757886" transform="matrix(-1 0 0 1 118.991 86.8566)" fill="#B3B5B7"/>
<rect width="12.4844" height="0.452334" rx="0.0904668" transform="matrix(-1 0 0 1 119.235 88.9215)" fill="#7A7A7A"/>
<rect width="13.0305" height="0.657691" rx="0.0904668" transform="matrix(-1 0 0 1 119.525 84.3049)" fill="#8F9499"/>
<path d="M163.182 84.0254C163.428 83.1582 162.833 82.423 161.66 82.8139C163.485 82.1506 162.174 79.3804 160.196 81.3097C161.48 79.813 159.197 77.723 158.744 80.1123C159.002 77.9985 156.505 77.4695 156.927 80.2076C156.415 78.4696 153.854 78.6559 155.359 81.2941C154.35 80.3165 151.913 81.2941 154.568 83.1253C152.184 81.4804 149.812 83.0011 149.601 84.553H164.72L163.748 84.1404C163.569 84.0645 163.376 84.0254 163.182 84.0254Z" fill="#56D400"/>
<rect width="12.1031" height="5.03619" rx="0.18132" transform="matrix(-1 0 0 1 164.463 84.5677)" fill="#9EA3A8"/>
<rect width="2.33285" height="0.762219" transform="matrix(-1 0 0 1 155.985 86.277)" fill="#B3B5B7"/>
<rect width="2.33285" height="0.762219" transform="matrix(-1 0 0 1 160.858 86.277)" fill="#B3B5B7"/>
<rect width="1.20107" height="0.762219" transform="matrix(-1 0 0 1 153.56 86.277)" fill="#B3B5B7"/>
<rect width="2.35595" height="0.762219" transform="matrix(-1 0 0 1 158.434 86.277)" fill="#B3B5B7"/>
<rect width="2.35595" height="0.762219" transform="matrix(-1 0 0 1 163.308 86.277)" fill="#B3B5B7"/>
<rect width="1.06249" height="0.762219" transform="matrix(-1 0 0 1 164.463 86.277)" fill="#B3B5B7"/>
<rect width="2.33285" height="0.762219" transform="matrix(-1 0 0 1 155.985 87.9862)" fill="#B3B5B7"/>
<rect width="2.33285" height="0.762219" transform="matrix(-1 0 0 1 160.858 87.9862)" fill="#B3B5B7"/>
<rect width="1.20107" height="0.762219" transform="matrix(-1 0 0 1 153.56 87.9862)" fill="#B3B5B7"/>
<rect width="2.35595" height="0.762219" transform="matrix(-1 0 0 1 158.434 87.9862)" fill="#B3B5B7"/>
<rect width="2.35595" height="0.762219" transform="matrix(-1 0 0 1 163.307 87.9862)" fill="#B3B5B7"/>
<rect width="1.06249" height="0.762219" transform="matrix(-1 0 0 1 164.463 87.9861)" fill="#B3B5B7"/>
<rect width="2.33285" height="0.762219" transform="matrix(-1 0 0 1 155.985 84.5677)" fill="#B3B5B7"/>
<rect width="2.33285" height="0.762219" transform="matrix(-1 0 0 1 160.858 84.5677)" fill="#B3B5B7"/>
<path d="M153.56 84.5677H152.54C152.44 84.5677 152.358 84.6489 152.358 84.749V85.3299H153.56V84.5677Z" fill="#B3B5B7"/>
<rect width="2.35595" height="0.762219" transform="matrix(-1 0 0 1 158.434 84.5677)" fill="#B3B5B7"/>
<rect width="2.35595" height="0.762219" transform="matrix(-1 0 0 1 163.307 84.5676)" fill="#B3B5B7"/>
<path d="M164.463 84.749C164.463 84.6489 164.382 84.5677 164.282 84.5677H163.4V85.3299H164.463V84.749Z" fill="#B3B5B7"/>
<rect width="2.33285" height="0.762219" transform="matrix(-1 0 0 1 157.141 85.4223)" fill="#B3B5B7"/>
<rect width="2.33285" height="0.762219" transform="matrix(-1 0 0 1 162.014 85.4223)" fill="#B3B5B7"/>
<rect width="2.35595" height="0.762219" transform="matrix(-1 0 0 1 154.715 85.4223)" fill="#B3B5B7"/>
<rect width="2.35595" height="0.762219" transform="matrix(-1 0 0 1 159.588 85.4223)" fill="#B3B5B7"/>
<rect width="2.35595" height="0.762219" transform="matrix(-1 0 0 1 164.463 85.4223)" fill="#B3B5B7"/>
<rect width="2.33285" height="0.762219" transform="matrix(-1 0 0 1 157.141 88.8407)" fill="#B3B5B7"/>
<rect width="2.33285" height="0.762219" transform="matrix(-1 0 0 1 162.014 88.8407)" fill="#B3B5B7"/>
<path d="M154.715 88.8407H152.359V89.4216C152.359 89.5218 152.441 89.603 152.541 89.603H154.715V88.8407Z" fill="#B3B5B7"/>
<rect width="2.35595" height="0.762219" transform="matrix(-1 0 0 1 159.588 88.8407)" fill="#B3B5B7"/>
<path d="M164.463 88.8408H162.107V89.603H164.282C164.382 89.603 164.463 89.5218 164.463 89.4217V88.8408Z" fill="#B3B5B7"/>
<rect width="2.33285" height="0.762219" transform="matrix(-1 0 0 1 157.141 87.1316)" fill="#B3B5B7"/>
<rect width="2.33285" height="0.762219" transform="matrix(-1 0 0 1 162.014 87.1316)" fill="#B3B5B7"/>
<rect width="2.35595" height="0.762219" transform="matrix(-1 0 0 1 154.715 87.1316)" fill="#B3B5B7"/>
<rect width="2.35595" height="0.762219" transform="matrix(-1 0 0 1 159.588 87.1316)" fill="#B3B5B7"/>
<rect width="2.35595" height="0.762219" transform="matrix(-1 0 0 1 164.463 87.1316)" fill="#B3B5B7"/>
<rect width="12.5676" height="0.452334" transform="matrix(-1 0 0 1 164.71 89.2834)" fill="#7A7A7A"/>
<rect width="13.105" height="0.661452" rx="0.0904668" transform="matrix(-1 0 0 1 165 84.5654)" fill="#8F9499"/>
<path d="M141.671 84.0254C141.425 83.1582 142.02 82.423 143.193 82.8139C141.368 82.1506 142.679 79.3804 144.657 81.3097C143.373 79.813 145.656 77.723 146.109 80.1123C145.851 77.9985 148.348 77.4695 147.926 80.2077C148.438 78.4697 150.999 78.6559 149.494 81.2941C150.503 80.3165 152.94 81.2941 150.285 83.1253C152.669 81.4804 155.041 83.0011 155.252 84.553H140.133L141.105 84.1404C141.284 84.0645 141.477 84.0254 141.671 84.0254Z" fill="#56D400"/>
<path d="M144.847 84.5703H160.399C160.399 83.6635 159.591 83.02 158.956 83.2163C158.879 83.2401 158.79 83.2088 158.755 83.1362C157.563 80.653 155.381 81.8282 154.911 83.4238C154.898 83.4669 154.841 83.4793 154.811 83.4463C153.38 81.8912 151.712 82.7098 151.314 83.5439C151.292 83.5886 151.224 83.5903 151.201 83.5464C149.375 80.0812 146.334 81.4768 146.475 83.2739C145.084 83.021 144.81 84.0328 144.847 84.5703Z" fill="#97FF50"/>
<rect x="140.68" y="84.5678" width="12.1031" height="5.03619" rx="0.18132" fill="#9EA3A8"/>
<rect x="149.156" y="86.2771" width="2.33285" height="0.762219" fill="#B3B5B7"/>
<rect x="144.283" y="86.2771" width="2.33285" height="0.762219" fill="#B3B5B7"/>
<rect x="151.581" y="86.2771" width="1.20107" height="0.762219" fill="#B3B5B7"/>
<rect x="146.707" y="86.2771" width="2.35595" height="0.762219" fill="#B3B5B7"/>
<rect x="141.834" y="86.2771" width="2.35595" height="0.762219" fill="#B3B5B7"/>
<rect x="140.68" y="86.2771" width="1.06249" height="0.762219" fill="#B3B5B7"/>
<rect x="149.156" y="87.9863" width="2.33285" height="0.762219" fill="#B3B5B7"/>
<rect x="144.283" y="87.9863" width="2.33285" height="0.762219" fill="#B3B5B7"/>
<rect x="151.581" y="87.9863" width="1.20107" height="0.762219" fill="#B3B5B7"/>
<rect x="146.707" y="87.9863" width="2.35595" height="0.762219" fill="#B3B5B7"/>
<rect x="141.834" y="87.9863" width="2.35595" height="0.762219" fill="#B3B5B7"/>
<rect x="140.68" y="87.9863" width="1.06249" height="0.762219" fill="#B3B5B7"/>
<rect x="149.156" y="84.5679" width="2.33285" height="0.762219" fill="#B3B5B7"/>
<rect x="144.283" y="84.5679" width="2.33285" height="0.762219" fill="#B3B5B7"/>
<path d="M151.581 84.5679H152.601C152.701 84.5679 152.782 84.6491 152.782 84.7492V85.3301H151.581V84.5679Z" fill="#B3B5B7"/>
<rect x="146.707" y="84.5679" width="2.35595" height="0.762219" fill="#B3B5B7"/>
<rect x="141.834" y="84.5679" width="2.35595" height="0.762219" fill="#B3B5B7"/>
<path d="M140.68 84.7491C140.68 84.649 140.761 84.5678 140.861 84.5678H141.742V85.33H140.68V84.7491Z" fill="#B3B5B7"/>
<rect x="148" y="85.4225" width="2.33285" height="0.762219" fill="#B3B5B7"/>
<rect x="143.127" y="85.4225" width="2.33285" height="0.762219" fill="#B3B5B7"/>
<rect x="150.427" y="85.4225" width="2.35595" height="0.762219" fill="#B3B5B7"/>
<rect x="145.553" y="85.4225" width="2.35595" height="0.762219" fill="#B3B5B7"/>
<rect x="140.68" y="85.4225" width="2.35595" height="0.762219" fill="#B3B5B7"/>
<rect x="148" y="88.8409" width="2.33285" height="0.762219" fill="#B3B5B7"/>
<rect x="143.127" y="88.8409" width="2.33285" height="0.762219" fill="#B3B5B7"/>
<path d="M150.427 88.8409H152.783V89.4218C152.783 89.5219 152.702 89.6031 152.601 89.6031H150.427V88.8409Z" fill="#B3B5B7"/>
<rect x="145.553" y="88.8409" width="2.35595" height="0.762219" fill="#B3B5B7"/>
<path d="M140.68 88.8409H143.036V89.6031H140.861C140.761 89.6031 140.68 89.5219 140.68 89.4218V88.8409Z" fill="#B3B5B7"/>
<rect x="148" y="87.1317" width="2.33285" height="0.762219" fill="#B3B5B7"/>
<rect x="143.127" y="87.1317" width="2.33285" height="0.762219" fill="#B3B5B7"/>
<rect x="150.427" y="87.1317" width="2.35595" height="0.762219" fill="#B3B5B7"/>
<rect x="145.553" y="87.1317" width="2.35595" height="0.762219" fill="#B3B5B7"/>
<rect x="140.68" y="87.1317" width="2.35595" height="0.762219" fill="#B3B5B7"/>
<rect x="140.431" y="89.2834" width="12.5676" height="0.452334" rx="0.0904668" fill="#7A7A7A"/>
<rect x="140.142" y="84.5654" width="13.105" height="0.661452" rx="0.0904668" fill="#8F9499"/>
<rect x="116.83" y="83.1656" width="25.878" height="10.768" rx="0.387687" fill="#9EA3A8"/>
<rect x="134.955" y="86.82" width="4.98794" height="1.62972" fill="#777F86"/>
<rect x="124.534" y="86.82" width="4.98794" height="1.62972" fill="#777F86"/>
<rect x="140.14" y="86.82" width="2.56805" height="1.62972" fill="#777F86"/>
<rect x="129.72" y="86.82" width="5.03732" height="1.62972" fill="#777F86"/>
<rect x="119.299" y="86.82" width="5.03732" height="1.62972" fill="#777F86"/>
<rect x="116.83" y="86.82" width="2.27173" height="1.62972" fill="#777F86"/>
<rect x="134.955" y="90.4746" width="4.98794" height="1.62972" fill="#777F86"/>
<rect x="124.535" y="90.4746" width="4.98794" height="1.62972" fill="#777F86"/>
<rect x="140.14" y="90.4746" width="2.56805" height="1.62972" fill="#777F86"/>
<rect x="129.72" y="90.4746" width="5.03732" height="1.62972" fill="#777F86"/>
<rect x="119.299" y="90.4746" width="5.03732" height="1.62972" fill="#777F86"/>
<rect x="116.83" y="90.4746" width="2.27173" height="1.62972" fill="#777F86"/>
<rect x="134.955" y="83.1656" width="4.98794" height="1.62972" fill="#777F86"/>
<rect x="124.535" y="83.1656" width="4.98794" height="1.62972" fill="#777F86"/>
<path d="M140.14 83.1656H142.32C142.535 83.1656 142.708 83.3391 142.708 83.5533V84.7953H140.14V83.1656Z" fill="#777F86"/>
<rect x="129.72" y="83.1656" width="5.03732" height="1.62972" fill="#777F86"/>
<rect x="119.299" y="83.1656" width="5.03732" height="1.62972" fill="#777F86"/>
<path d="M116.83 83.5532C116.83 83.3391 117.003 83.1655 117.217 83.1655H119.101V84.7952H116.83V83.5532Z" fill="#777F86"/>
<rect x="132.485" y="84.9928" width="4.98794" height="1.62972" fill="#777F86"/>
<rect x="122.064" y="84.9928" width="4.98794" height="1.62972" fill="#777F86"/>
<rect x="137.671" y="84.9928" width="5.03732" height="1.62972" fill="#777F86"/>
<rect x="127.25" y="84.9928" width="5.03732" height="1.62972" fill="#777F86"/>
<rect x="116.83" y="84.9928" width="5.03732" height="1.62972" fill="#777F86"/>
<rect x="132.485" y="92.3019" width="4.98794" height="1.62972" fill="#777F86"/>
<rect x="122.064" y="92.3019" width="4.98794" height="1.62972" fill="#777F86"/>
<path d="M137.671 92.3019H142.708V93.5439C142.708 93.758 142.535 93.9316 142.321 93.9316H137.671V92.3019Z" fill="#777F86"/>
<rect x="127.25" y="92.3019" width="5.03732" height="1.62972" fill="#777F86"/>
<path d="M116.83 92.3019H121.867V93.9316H117.217C117.003 93.9316 116.83 93.758 116.83 93.5439V92.3019Z" fill="#777F86"/>
<rect x="132.485" y="88.6473" width="4.98794" height="1.62972" fill="#777F86"/>
<rect x="122.064" y="88.6473" width="4.98794" height="1.62972" fill="#777F86"/>
<rect x="137.671" y="88.6473" width="5.03732" height="1.62972" fill="#777F86"/>
<rect x="127.25" y="88.6473" width="5.03732" height="1.62972" fill="#777F86"/>
<rect x="116.83" y="88.6474" width="5.03732" height="1.62972" fill="#777F86"/>
<rect x="115.074" y="83.0594" width="29.3112" height="1.35075" rx="0.135075" fill="#656B71"/>
<rect x="115.614" y="93.5952" width="28.3657" height="0.810449" rx="0.135075" fill="#525961"/>
<path fill-rule="evenodd" clip-rule="evenodd" d="M128.002 82.001L128.012 81.1209L126.878 80.5494L126.714 83.0652H130.642C129.974 82.3117 128.002 82.001 128.002 82.001ZM122.969 82.0353L122.98 81.0469L122.24 81.6492L121.646 81.9807L121.449 83.0653H124.138C123.8 82.1438 122.969 82.0353 122.969 82.0353Z" fill="#402308"/>
<path d="M126.879 80.78L128.013 81.1209L128.003 82.001L126.788 81.9463L126.879 80.78Z" fill="#C98648"/>
<path d="M121.847 80.7058L122.981 81.0469L122.97 82.0353L121.646 81.9806L121.847 80.7058Z" fill="#C98648"/>
<path d="M128.175 80.8323L128.148 81.6491H126.653L126.679 80.8299C126.511 80.7626 126.392 80.6009 126.388 80.4097L126.147 68.1759L123.545 80.527C123.509 80.7007 123.38 80.8357 123.216 80.8854L123.119 81.6491H121.55L121.685 80.8059C121.555 80.7046 121.479 80.538 121.505 80.3601L123.9 63.9903L126.064 63.9903L126.064 63.984H128.686L128.529 80.3869C128.526 80.6025 128.376 80.783 128.175 80.8323Z" fill="#603711"/>
<path opacity="0.197824" fill-rule="evenodd" clip-rule="evenodd" d="M126.134 68.3698L126.593 66.3336L126.247 72.5067L126.134 68.3698Z" fill="black"/>
<path opacity="0.197824" fill-rule="evenodd" clip-rule="evenodd" d="M124.749 64.061L124.372 63.6674L129.061 63.5959L128.701 64.061V64.3368L124.749 64.061Z" fill="black"/>
<path d="M130.949 54.5946C130.949 56.7209 129.089 58.4446 126.795 58.4446C124.501 58.4446 122.641 56.7209 122.641 54.5946C122.641 52.4683 124.501 50.7445 126.795 50.7445C129.089 50.7445 130.949 52.4683 130.949 54.5946ZM122.939 54.5946C122.939 56.5683 124.665 58.1684 126.795 58.1684C128.925 58.1684 130.651 56.5683 130.651 54.5946C130.651 52.6208 128.925 51.0208 126.795 51.0208C124.665 51.0208 122.939 52.6208 122.939 54.5946Z" fill="#6A421D"/>
<path d="M127.193 57.183C127.211 57.075 127.001 57.093 126.887 57.075H126.779L126.887 57.237C126.977 57.237 127.184 57.2342 127.193 57.183Z" fill="#B07239"/>
<path d="M125.113 57.1945C125.095 57.0865 125.161 57.0488 125.456 57.0366H125.72L125.456 57.1986C125.366 57.1986 125.121 57.2457 125.113 57.1945Z" fill="#B07239"/>
<path fill-rule="evenodd" clip-rule="evenodd" d="M128.835 54.1777C128.835 54.6937 128.503 55.112 128.094 55.112C127.685 55.112 127.353 54.6937 127.353 54.1777C127.353 53.6617 127.685 53.2434 128.094 53.2434C128.503 53.2434 128.835 53.6617 128.835 54.1777Z" fill="#855324"/>
<path d="M126.922 57.8832L126.887 56.8058C126.887 56.8058 128.192 56.914 128.471 56.769C128.471 56.769 128.811 55.0125 128.405 54.0398L128.397 54.0019L125.651 53.68L125.497 55.2591C125.405 54.9857 124.642 54.6757 124.442 55.0672C124.01 55.9156 125.556 56.4868 125.556 56.4868L125.399 57.8961" fill="#C98648"/>
<path fill-rule="evenodd" clip-rule="evenodd" d="M127.592 55.239L127.895 55.9819L127.532 55.9865L127.592 55.239Z" fill="#B07239"/>
<path fill-rule="evenodd" clip-rule="evenodd" d="M127.268 55.2676C127.286 55.3677 127.22 55.4634 127.12 55.4815C127.02 55.4996 126.925 55.4332 126.907 55.3331C126.889 55.2331 126.955 55.1374 127.055 55.1193C127.155 55.1012 127.25 55.1676 127.268 55.2676Z" fill="#855324"/>
<path fill-rule="evenodd" clip-rule="evenodd" d="M128.288 55.2676C128.306 55.3677 128.24 55.4634 128.14 55.4815C128.04 55.4996 127.944 55.4332 127.926 55.3331C127.908 55.2331 127.975 55.1374 128.074 55.1193C128.174 55.1012 128.27 55.1676 128.288 55.2676Z" fill="#855324"/>
<path d="M125.7 55.5286C125.44 55.0821 125.063 54.9459 124.894 54.906C124.827 54.7107 124.776 54.4841 124.739 54.2432C124.643 53.5984 125.11 53.0101 125.488 52.8412C125.871 52.6702 126.53 52.4333 127.495 52.7549C128.144 52.9713 128.559 52.4533 128.941 52.6745C129.594 53.0526 128.987 54.7081 127.332 54.2875C126.148 53.9867 126.118 54.0622 126.108 54.2808C126.075 54.9876 125.965 55.4035 125.7 55.5286Z" fill="#855324"/>
<path d="M127.087 56.0142C127.087 56.0142 127.204 56.2266 127.456 56.2216" stroke="#B07239" stroke-width="0.143973"/>
<path opacity="0.398926" fill-rule="evenodd" clip-rule="evenodd" d="M126.886 56.7937L126.018 56.5881L126.901 57.231L126.886 56.7937Z" fill="#8B5523"/>
<path d="M132.216 62.0039L132.503 61.884C132.503 61.884 132.707 61.8127 132.937 61.7619C133.166 61.7111 133.48 61.7725 133.812 61.4744C134.143 61.1764 134.011 61.657 133.856 61.8075C133.728 61.9328 133.391 62.0088 133.303 62.1381C133.369 62.198 133.439 62.2289 133.439 62.2289L134.805 62.6847C134.851 62.6988 134.879 62.7446 134.872 62.7918L134.863 62.8452C134.854 62.9014 134.799 62.9374 134.745 62.9226C134.45 62.8433 133.577 62.5838 133.575 62.5999L133.556 62.6313L134.925 63.2495C134.97 63.2681 134.994 63.3173 134.981 63.3641L134.962 63.4371C134.947 63.4902 134.892 63.52 134.84 63.5023C134.522 63.3954 133.472 62.9437 133.469 62.9604L133.452 62.9994L134.571 63.6294C134.618 63.6491 134.642 63.7027 134.625 63.7506L134.604 63.8078C134.587 63.8578 134.532 63.8837 134.482 63.8652L133.376 63.2874L133.346 63.3259L134.129 63.8895C134.172 63.9131 134.19 63.9647 134.172 64.0099L134.161 64.0372C134.141 64.0852 134.087 64.1088 134.038 64.0901C133.871 64.0259 133.537 63.7619 133.177 63.5883C132.898 63.4536 132.667 63.4207 132.334 63.2127C132.193 63.1249 132.103 63.0339 132.012 62.9491L132.216 62.0039Z" fill="#C98648"/>
<path d="M120.946 62.5418C120.924 61.7271 121.9 60.2621 121.9 60.2621L123.61 61.0225L122.906 62.5198L124.84 65.2146L124.044 65.8627C124.044 65.8627 120.972 63.5024 120.946 62.5418Z" fill="#C98648"/>
<path d="M124.542 64.0617L125.018 64.6995L123.585 65.9473C123.585 65.9473 120.957 64.0218 120.876 62.5122C120.824 61.5506 121.666 60.1781 121.666 60.1781C121.666 60.1781 122.722 58.4905 123.944 57.921C124.194 57.8042 124.802 57.7067 125.17 57.6664C125.283 57.6541 125.216 57.6981 125.254 57.7725C125.295 57.8502 125.418 57.9654 125.503 58.0515C125.681 58.2308 126.031 58.3665 126.219 58.3942C126.362 58.4154 126.638 58.4483 126.772 58.4304C126.905 58.4125 127.049 58.3525 127.088 58.3168C127.127 58.2811 127.184 58.2364 127.214 58.1677C127.244 58.0989 127.242 58.1186 127.242 58.0552C127.242 57.9917 127.239 58.0011 127.233 57.9709C127.227 57.9407 127.227 57.9226 127.223 57.907C127.207 57.8379 127.214 57.8473 127.214 57.8473C127.935 58.0649 128.616 58.2262 128.878 58.5428L130.251 60.79L132.328 61.6038L132.036 63.2315C132.036 63.2315 130.875 63.1501 129.935 62.8063C129.437 62.6241 128.924 62.0532 128.83 61.5917L129.227 63.6053C129.289 63.9448 128.992 64.0733 128.726 64.0613L124.542 64.0617Z" fill="#855324"/>
<path opacity="0.2" d="M128.696 60.9372V60.0004C129.449 62.1503 130.381 62.7293 130.943 63.0614C130.409 62.9933 129.79 62.7577 129.692 62.6848C129.057 62.2713 128.916 61.8997 128.782 61.4795C128.726 61.3042 128.696 61.1212 128.696 60.9372Z" fill="black"/>
<path opacity="0.200591" d="M124.846 64.7493C124.877 64.7886 124.933 64.7957 124.972 64.7652C125.012 64.7348 125.019 64.6782 124.988 64.639L124.846 64.7493ZM123.098 62.349L123.022 62.2997L122.987 62.3534L123.027 62.4041L123.098 62.349ZM124.988 64.639L123.169 62.2938L123.027 62.4041L124.846 64.7493L124.988 64.639ZM123.173 62.3982L124.624 60.18L124.473 60.0815L123.022 62.2997L123.173 62.3982Z" fill="black"/>
<circle cx="126.733" cy="59.6421" r="0.243846" fill="#6A421D"/>
<circle cx="126.718" cy="61.0928" r="0.243846" fill="#6A421D"/>
<circle cx="126.733" cy="62.5377" r="0.243846" fill="#6A421D"/>
<path d="M127.19 57.1458C127.083 57.3726 125.97 57.1042 125.163 57.0949C125.139 57.0946 125.119 57.1126 125.115 57.1366L124.995 58.0125C125.859 58.5524 127.114 58.5441 127.348 58.1661L127.19 57.1458Z" fill="#D09865"/>
<path d="M126.723 57.5626C126.602 57.8077 126.705 58.1569 126.721 58.4625C126.723 58.5022 126.755 58.5347 126.795 58.53C127.033 58.5012 127.268 58.3385 127.396 58.2366C127.414 58.222 127.424 58.1992 127.422 58.1758C127.401 57.9304 127.351 57.4728 127.295 57.3435C127.22 57.1734 126.834 57.3369 126.723 57.5626Z" fill="#855324"/>
<path d="M126.512 57.6503L126.524 58.4135C126.524 58.434 126.53 58.4553 126.524 58.475C126.503 58.5486 126.333 58.5991 126.167 58.6118C125.985 58.6259 125.189 58.2579 124.868 57.9445C124.853 57.93 124.836 57.9177 124.825 57.9002C124.756 57.7903 124.802 57.3978 125.106 57.2261C125.395 57.0626 126.007 57.2717 126.37 57.4311C126.456 57.4693 126.51 57.5556 126.512 57.6503Z" fill="#855324"/>
<path d="M136.186 60.812C137.119 57.8182 133.358 58.4897 133.295 59.7229L133.444 59.9239L134.056 59.6068L134.511 59.5075L134.962 59.8302L135.061 59.9683L135.036 60.1653L135.296 61.2122C135.593 61.2616 136.186 61.2508 136.186 60.812Z" fill="#855324"/>
<path d="M134.173 63.3792L134.198 62.5141C134.198 62.5141 133.145 62.5978 132.92 62.4809C132.92 62.4809 132.458 60.9173 132.931 60.3247L133.386 59.4206H135.152L135.05 60.2499L135.35 61.2315C135.425 61.0111 136.019 60.7931 136.18 61.1088C136.53 61.7928 135.279 62.2534 135.279 62.2534L135.406 63.3897" fill="#C98648"/>
<path opacity="0.2" d="M132.947 62.4783C132.879 62.3908 132.801 62.0774 132.777 61.8102C132.571 63.0856 132.647 62.5486 133.469 62.9398C135.231 63.778 134.498 62.8508 134.405 62.4783C133.959 62.5268 133.015 62.5657 132.947 62.4783Z" fill="black"/>
<path d="M133.444 61.5577L133.666 61.2267L133.687 61.5577H133.444Z" fill="#B07239"/>
<circle cx="133.147" cy="61.0354" r="0.222326" fill="#855324"/>
<circle cx="134.333" cy="61.0354" r="0.222326" fill="#855324"/>
<path fill-rule="evenodd" clip-rule="evenodd" d="M134.199 62.5144L134.794 62.3871L134.202 62.7862L134.199 62.5144Z" fill="#B07239"/>
<path d="M134.193 61.7343C133.973 61.944 133.708 62.0102 133.421 61.7343" stroke="#B07239" stroke-width="0.0843564" stroke-linecap="round"/>
<path d="M132.073 60.1825C132.073 61.1944 133.925 60.3258 135.031 60.3639L135.362 60.8725C135.251 60.7029 135.13 60.3639 135.527 60.3639C136.023 60.3639 135.323 59.2892 135.031 58.9714C134.739 58.6536 132.073 58.2512 132.073 60.1825Z" fill="#855324"/>
<path fill-rule="evenodd" clip-rule="evenodd" d="M133.421 82.3757L133.413 81.689L134.3 81.2431L134.428 83.206H131.356C131.879 82.6181 133.421 82.3757 133.421 82.3757ZM137.272 82.4025L137.264 81.6313L138.168 81.5884L138.25 82.3598L138.46 83.206H136.358C136.622 82.4872 137.272 82.4025 137.272 82.4025Z" fill="#402308"/>
<path fill-rule="evenodd" clip-rule="evenodd" d="M137.263 81.6311L138.15 81.3651L138.25 82.3597L137.271 82.4023L137.263 81.6311ZM133.412 81.6889L134.299 81.4229L134.37 82.3329L133.42 82.3756L133.412 81.6889Z" fill="#C98648"/>
<path d="M134.907 71.6747L136.988 81.9436H138.583L136.675 68.3745H132.9L133.032 81.8912L133.521 81.8983L134.454 81.9121H134.457L134.695 81.9155L134.907 71.6747Z" fill="#603711"/>
<path opacity="0.200893" fill-rule="evenodd" clip-rule="evenodd" d="M134.901 71.5985L134.542 70.0099L134.812 74.8262L134.901 71.5985Z" fill="black"/>
<path d="M137.243 69.2402L137.118 69.4776C137.118 69.4776 137.054 69.5869 136.987 69.7777C136.921 69.9686 136.948 70.0853 136.804 70.385C136.64 70.7253 136.933 70.585 137.038 70.4365C137.12 70.3205 137.111 70.1639 137.218 70.0936C137.253 70.1505 137.335 70.2319 137.38 70.7228C137.388 70.8109 137.348 71.0964 137.348 71.0964C137.348 71.182 137.337 71.3605 137.434 71.3877C137.458 71.3945 137.49 71.3678 137.49 71.3678C137.49 71.3678 137.48 71.4795 137.58 71.5017C137.619 71.5104 137.697 71.2693 137.697 71.2693C137.697 71.2693 137.708 71.3918 137.783 71.4054C137.804 71.4092 138.052 70.7107 138.052 70.7107L138.037 70.8684L138.004 71.03C138.004 71.03 138.007 71.117 138.077 71.1324C138.104 71.1385 138.158 70.9934 138.208 70.8228C138.285 70.5572 138.284 70.3576 138.261 70.1591C138.233 69.9193 138.245 69.8388 138.139 69.5446C138.095 69.4233 137.999 69.2399 137.948 69.1617L137.243 69.2402Z" fill="#C98648"/>
<path d="M132.236 69.1027C132.163 68.936 131.778 68.8892 131.778 68.8892C131.778 68.8892 131.163 69.5733 131.108 69.6777C131.053 69.7822 130.951 70.2994 130.956 70.4015C130.961 70.5037 131.278 70.9628 131.278 70.9628C131.475 70.9162 131.346 70.6791 131.346 70.6791C131.346 70.6791 131.522 70.8232 131.596 70.8207C132.285 70.798 132.249 70.4603 132.232 70.4181C132.196 70.3231 132.011 70.4317 132.011 70.4317C132.011 70.4317 132.446 69.5794 132.236 69.1027Z" fill="#C98648"/>
<path opacity="0.145089" d="M131.87 69.505C131.87 69.505 131.773 69.8585 131.441 69.9686C131.325 70.0072 131.354 70.4618 131.069 70.4074" stroke="black" stroke-width="0.0819679"/>
<path d="M135.621 63.4311L135.587 62.884L133.998 62.982L134.029 63.4784C133.138 63.8197 133.061 64.153 132.847 64.5912C132.613 65.0712 132.371 66.5452 132.371 66.5452L131.356 69.0896L132.6 69.7781L132.906 69.1889L132.899 68.4026L136.702 68.4025L136.728 67.4342L137.052 69.3764L138.475 69.4432C138.475 69.4432 138.503 67.4205 138.232 66.2503C138.06 65.5049 137.217 64.1199 136.419 63.6436C136.225 63.5273 135.932 63.4636 135.621 63.4311Z" fill="#855324"/>
<path opacity="0.203544" d="M136.676 67.5066L136.414 66.1478L135.767 65.0573" stroke="black" stroke-width="0.136613"/>
<path opacity="0.1988" d="M132.967 68.4386L132.844 66.4585" stroke="black" stroke-width="0.136613"/>
</svg>
