<svg width="80" height="117" viewBox="0 0 80 117" fill="none" xmlns="http://www.w3.org/2000/svg">
    <path fill-rule="evenodd" clip-rule="evenodd" d="M79.7235 -19.6383C79.7235 -5.07908 67.9209 6.72347 53.3617 6.72347C52.3125 6.72347 51.2776 6.66218 50.2605 6.54297C48.6436 6.35349 47.0688 7.30675 46.5049 8.83392C43.6211 16.6444 37.4966 22.8852 29.7628 25.9246C27.6256 26.7646 26.6699 29.5528 27.9218 31.4779C31.7957 37.4348 34.0462 44.5445 34.0462 52.1797C34.0462 59.9145 31.7367 67.1098 27.7697 73.1137C27.1963 73.9816 27.2232 75.1184 27.8093 75.9778V75.9778C28.6476 77.2072 30.4082 77.5195 31.8245 77.0632C31.9427 77.0252 32.0624 76.9898 32.1837 76.9573C36.1268 75.9008 40.1798 78.2408 41.2364 82.1839C42.2929 86.127 39.9529 90.18 36.0098 91.2365C35.9274 91.2586 35.845 91.2792 35.7625 91.2983C33.8858 91.7336 31.9407 93.0393 31.5368 94.923C31.4492 95.3315 31.3508 95.74 31.2414 96.1481C27.9941 108.267 16.2145 115.821 4.09747 114.08C3.44585 113.986 2.77968 114.081 2.18054 114.354C-2.81452 116.628 -8.59954 117.248 -14.315 115.717C-27.3959 112.212 -35.1586 98.766 -31.6536 85.6851C-31.3547 84.5693 -30.9834 83.4922 -30.5461 82.4575C-30.0086 81.1855 -30.2561 79.6945 -31.2196 78.7051C-37.8907 71.8547 -42 62.4971 -42 52.1797C-42 33.5183 -28.5563 17.9968 -10.8255 14.7718C-8.56574 14.3607 -7.192 11.7525 -8.04991 9.62195C-9.40754 6.25033 -10.1548 2.56732 -10.1548 -1.29021C-10.1548 -17.4336 2.93205 -30.5205 19.0755 -30.5205C21.4139 -30.5205 23.6881 -30.2459 25.8678 -29.7272C27.4514 -29.3504 29.117 -30.1334 29.8556 -31.584C34.2123 -40.1397 43.1026 -46 53.3617 -46C67.9209 -46 79.7235 -34.1974 79.7235 -19.6383Z" fill="#52ADFF"/>
</svg>
